<svg width="132" height="41" viewBox="0 0 132 41" fill="none" xmlns="http://www.w3.org/2000/svg">
<path d="M128.52 32.9067C128.977 33.2395 129.374 33.5776 129.594 33.9336C130.756 35.8078 126.552 37.1347 122.566 38.1754C117.922 39.3871 112.444 39.8055 106.697 39.9323C100.759 40.0643 94.9501 40.5725 88.8576 40.5957C68.7161 40.6728 48.7509 39.4653 28.9337 38.262C24.4533 37.9905 19.8847 37.7084 15.8797 36.9805C6.859 35.3451 0.558679 32.3542 0.281604 28.89C0.183997 27.6688 1.0719 26.3947 3.45538 25.4713C6.20724 24.4053 10.6467 23.9046 12.9767 22.7308C14.954 21.7346 15.0107 20.4563 14.9981 19.2593L14.9477 14.5358C14.9257 12.5634 14.9225 10.554 16.6637 8.67031C18.4049 6.78662 22.1989 5.01176 27.7089 4.32188C31.8399 3.80421 36.4336 3.94367 40.7472 3.63095C50.0103 2.9601 57.97 0.232294 67.3685 0.641147C70.5737 0.780601 73.4673 1.28665 76.0334 1.92581C78.4861 2.53751 80.5705 3.58552 83.209 4.06727C85.539 4.49303 89.503 4.42225 92.0975 4.55853C96.1088 4.76771 100.12 4.97795 104.131 5.18713C109.843 5.48611 115.954 5.79566 120.58 7.04968C124.248 8.04382 127 9.46794 128.231 10.9945C129.67 12.7736 128.413 14.165 126.011 15.7539C124.235 16.9277 124.144 17.9788 126.285 19.1093C128.451 20.2534 130.494 21.1483 131.055 22.5301C131.644 23.9754 131.008 25.4576 129.333 26.8004C127.774 28.0512 125.387 29.2968 125.885 30.6417C126.184 31.4499 127.497 32.1619 128.517 32.9057L128.52 32.9067Z" fill="#EAEBF0"/>
</svg>
