<svg width="376" height="813" viewBox="0 0 376 813" fill="none" xmlns="http://www.w3.org/2000/svg">
<g clip-path="url(#clip0_2_4357)">
<rect width="375" height="812" transform="translate(0.5 0.540039)" fill="white"/>
<path d="M505.143 109.54V303.561C497.997 294.969 489.379 291.593 481.966 289.72C473.105 287.48 464.405 292.426 457.647 296.981C455.402 295.73 452.82 295.016 450.073 295.016C447.326 295.016 444.852 295.699 442.642 296.903C435.978 290.98 426.939 286.362 416.495 283.714C414.911 275.764 407.934 269.775 399.567 269.775C395.078 269.775 390.988 271.5 387.918 274.326C382.492 271.424 376.304 269.775 369.73 269.775C367.433 269.775 365.182 269.978 362.995 270.363C359.847 265.131 354.898 261.121 349.011 259.197C349.618 257.09 349.943 254.865 349.943 252.561C349.943 239.415 339.35 228.758 326.283 228.758C313.217 228.758 302.624 239.415 302.624 252.561C302.624 253.911 302.736 255.232 302.951 256.52C297.513 251.037 290.261 247.69 282.297 247.69C268.985 247.69 257.666 257.037 253.482 270.076C252.468 269.879 251.421 269.777 250.35 269.777C242.316 269.777 235.628 275.565 234.178 283.224C229.003 285.288 224.571 288.83 221.396 293.332C217.042 288.974 211.04 286.28 204.413 286.28C196.384 286.28 189.274 290.233 184.899 296.311C183.213 295.484 181.318 295.02 179.315 295.02C174.163 295.02 169.727 298.091 167.706 302.509C163.936 301.024 159.797 299.834 155.383 299.004C156.07 296.639 156.438 294.157 156.438 291.593C156.438 275.756 142.448 262.916 125.189 262.916C120.258 262.916 115.593 263.966 111.446 265.832C107.717 256.276 98.4467 249.505 87.6002 249.505C86.8153 249.505 86.0405 249.542 85.274 249.612C78.6058 240.377 68.6772 234.517 57.5855 234.517C45.1037 234.517 34.0916 241.938 27.5462 253.24C20.7206 248.877 12.6196 246.35 3.92769 246.35C-17.8797 246.35 -35.9809 262.263 -39.4806 283.146C-41.5902 282.303 -43.8388 281.846 -46.1733 281.846C-55.0021 281.846 -62.6044 288.354 -66.0325 297.716C-66.6948 297.656 -67.3633 297.623 -68.0419 297.623C-72.7885 297.623 -77.1815 299.141 -80.7649 301.719C-98.8764 305.208 -112.419 319.199 -112.419 335.931C-112.419 336.269 -112.413 336.608 -112.401 336.944C-115.436 335.512 -118.926 334.696 -122.638 334.696C-133.85 334.696 -143.031 342.127 -143.81 351.542H-143.865V109.54H505.143Z" fill="#112461"/>
<rect x="0.5" y="41.8965" width="375" height="68.6561" fill="#112461"/>
<rect x="0.5" y="0.540039" width="375" height="41.3565" fill="#112461"/>
<rect x="180.643" y="370.845" width="1.5" height="1.73804" fill="#D9D9D9"/>
</g>
<defs>
<clipPath id="clip0_2_4357">
<rect width="375" height="812" fill="white" transform="translate(0.5 0.540039)"/>
</clipPath>
</defs>
</svg>
