<svg width="207" height="151" viewBox="0 0 207 151" fill="none" xmlns="http://www.w3.org/2000/svg">
<g clip-path="url(#clip0_1278_1549)">
<path d="M103.06 0.970703C128.404 0.970703 152.71 11.0386 170.631 28.9595C188.551 46.8804 198.619 71.1864 198.619 96.5304V117.62H7.5V96.5304C7.5 71.1864 17.5679 46.8804 35.4888 28.9595C53.4097 11.0386 77.7157 0.970703 103.06 0.970703Z" fill="#CEE7F2"/>
<path d="M7.5 117.619H198.619C198.619 121.999 197.757 126.336 196.081 130.382C194.405 134.428 191.948 138.105 188.851 141.201C185.754 144.298 182.078 146.755 178.032 148.431C173.985 150.107 169.649 150.969 165.269 150.969H40.8503C36.4707 150.969 32.134 150.107 28.0877 148.431C24.0415 146.755 20.3649 144.298 17.2681 141.201C14.1712 138.105 11.7147 134.428 10.0386 130.382C8.36263 126.336 7.5 121.999 7.5 117.619Z" fill="#EAF5FA"/>
<g opacity="0.49">
<path d="M172.242 51.1191H121.304C119.225 51.1191 117.539 52.8048 117.539 54.8842V75.1237C117.539 77.2031 119.225 78.8888 121.304 78.8888H172.242C174.322 78.8888 176.007 77.2031 176.007 75.1237V54.8842C176.007 52.8048 174.322 51.1191 172.242 51.1191Z" fill="#FDFDFD"/>
<path d="M172.246 51.4784C173.15 51.4797 174.016 51.8397 174.655 52.4793C175.294 53.1189 175.653 53.9859 175.653 54.8899V75.1247C175.653 76.0282 175.294 76.8947 174.655 77.5336C174.016 78.1724 173.149 78.5314 172.246 78.5314H121.303C120.4 78.5314 119.533 78.1724 118.894 77.5336C118.255 76.8947 117.896 76.0282 117.896 75.1247V54.8899C117.896 53.9859 118.255 53.1189 118.894 52.4793C119.533 51.8397 120.399 51.4797 121.303 51.4784H172.246ZM172.246 50.7617H121.303C120.209 50.7642 119.161 51.2001 118.389 51.9739C117.616 52.7477 117.181 53.7962 117.18 54.8899V75.1247C117.181 76.2179 117.616 77.2659 118.389 78.0389C119.162 78.812 120.21 79.2468 121.303 79.2481H172.246C173.339 79.2468 174.387 78.812 175.16 78.0389C175.933 77.2659 176.368 76.2179 176.369 75.1247V54.8899C176.368 53.7962 175.933 52.7477 175.161 51.9739C174.388 51.2001 173.34 50.7642 172.246 50.7617Z" fill="#87B5FF"/>
<g opacity="0.52">
<path d="M167.367 62.3535H126.176V64.0497H167.367V62.3535Z" fill="#A7BFD9"/>
<path d="M167.367 66.8398H126.176V68.536H167.367V66.8398Z" fill="#A7BFD9"/>
<path d="M167.367 71.3262H126.176V73.0224H167.367V71.3262Z" fill="#A7BFD9"/>
</g>
<path d="M175.651 57.1595V54.89C175.651 53.986 175.292 53.119 174.653 52.4794C174.015 51.8398 173.148 51.4798 172.244 51.4785H121.301C120.397 51.4798 119.531 51.8398 118.892 52.4794C118.253 53.119 117.895 53.986 117.895 54.89V57.1595H175.651Z" fill="#A5D9F5"/>
<path d="M124.298 54.321C124.298 54.614 124.211 54.9003 124.049 55.1439C123.886 55.3875 123.655 55.5773 123.384 55.6895C123.113 55.8016 122.815 55.8309 122.528 55.7737C122.241 55.7166 121.977 55.5755 121.77 55.3684C121.563 55.1612 121.422 54.8973 121.364 54.61C121.307 54.3227 121.337 54.0249 121.449 53.7542C121.561 53.4836 121.751 53.2522 121.994 53.0895C122.238 52.9267 122.524 52.8399 122.817 52.8399C123.012 52.8392 123.205 52.8771 123.385 52.9513C123.565 53.0255 123.728 53.1346 123.866 53.2723C124.004 53.4099 124.113 53.5735 124.187 53.7535C124.261 53.9335 124.299 54.1263 124.298 54.321Z" fill="#FEFEFE"/>
<path d="M130.134 54.321C130.134 54.614 130.047 54.9003 129.885 55.1439C129.722 55.3875 129.491 55.5773 129.22 55.6895C128.949 55.8016 128.651 55.8309 128.364 55.7737C128.077 55.7166 127.813 55.5755 127.606 55.3684C127.399 55.1612 127.257 54.8973 127.2 54.61C127.143 54.3227 127.173 54.0249 127.285 53.7542C127.397 53.4836 127.587 53.2522 127.83 53.0895C128.074 52.9267 128.36 52.8399 128.653 52.8399C128.848 52.8392 129.041 52.8771 129.221 52.9513C129.401 53.0255 129.564 53.1346 129.702 53.2723C129.839 53.4099 129.949 53.5735 130.023 53.7535C130.097 53.9335 130.135 54.1263 130.134 54.321Z" fill="#FEFEFE"/>
<path d="M135.962 54.321C135.962 54.614 135.875 54.9003 135.713 55.1439C135.55 55.3875 135.319 55.5773 135.048 55.6895C134.777 55.8016 134.48 55.8309 134.192 55.7737C133.905 55.7166 133.641 55.5755 133.434 55.3684C133.227 55.1612 133.086 54.8973 133.028 54.61C132.971 54.3227 133.001 54.0249 133.113 53.7542C133.225 53.4836 133.415 53.2522 133.658 53.0895C133.902 52.9267 134.188 52.8399 134.481 52.8399C134.676 52.8392 134.869 52.8771 135.049 52.9513C135.229 53.0255 135.392 53.1346 135.53 53.2723C135.668 53.4099 135.777 53.5735 135.851 53.7535C135.925 53.9335 135.963 54.1263 135.962 54.321Z" fill="#FEFEFE"/>
</g>
<g opacity="0.49">
<path d="M90.8127 41.7168H27.3372C26.0917 41.7168 25.082 42.7265 25.082 43.972V85.1534C25.082 86.399 26.0917 87.4086 27.3372 87.4086H90.8127C92.0583 87.4086 93.0679 86.399 93.0679 85.1534V43.972C93.0679 42.7265 92.0583 41.7168 90.8127 41.7168Z" fill="white"/>
<path d="M90.8177 41.9846C91.3453 41.9846 91.8514 42.1938 92.2249 42.5664C92.5984 42.9391 92.8089 43.4446 92.8101 43.9722V85.1584C92.8089 85.686 92.5984 86.1916 92.2249 86.5642C91.8514 86.9368 91.3453 87.1461 90.8177 87.1461H27.3422C27.0808 87.1467 26.8218 87.0957 26.5801 86.9961C26.3384 86.8965 26.1187 86.7502 25.9337 86.5656C25.7486 86.3809 25.6017 86.1616 25.5016 85.9202C25.4014 85.6787 25.3498 85.4198 25.3498 85.1584V43.977C25.3498 43.7156 25.4014 43.4567 25.5016 43.2152C25.6017 42.9738 25.7486 42.7545 25.9337 42.5698C26.1187 42.3852 26.3384 42.2389 26.5801 42.1393C26.8218 42.0397 27.0808 41.9887 27.3422 41.9893H90.8177M90.8177 41.459H27.3422C26.6748 41.4602 26.0351 41.7259 25.5631 42.1979C25.0912 42.6698 24.8255 43.3096 24.8242 43.977V85.1632C24.8255 85.8306 25.0912 86.4703 25.5631 86.9423C26.0351 87.4142 26.6748 87.6799 27.3422 87.6812H90.8177C91.4851 87.6799 92.1249 87.4142 92.5968 86.9423C93.0688 86.4703 93.3345 85.8306 93.3357 85.1632V43.977C93.3345 43.3096 93.0688 42.6698 92.5968 42.1979C92.1249 41.7259 91.4851 41.4602 90.8177 41.459Z" fill="#A7BFD9"/>
<path d="M92.8119 46.083V43.9759C92.8106 43.4483 92.6002 42.9428 92.2266 42.5702C91.8531 42.1975 91.3471 41.9883 90.8195 41.9883H27.344C27.0826 41.9877 26.8236 42.0386 26.5819 42.1382C26.3402 42.2378 26.1205 42.3841 25.9354 42.5688C25.7503 42.7534 25.6035 42.9727 25.5033 43.2142C25.4031 43.4557 25.3516 43.7145 25.3516 43.9759V46.0878L92.8119 46.083Z" fill="#A5D9F5"/>
<path d="M28.7434 44.0338C28.7434 44.1954 28.6955 44.3534 28.6057 44.4877C28.516 44.6221 28.3884 44.7268 28.2391 44.7887C28.0898 44.8505 27.9255 44.8667 27.767 44.8352C27.6085 44.8036 27.4629 44.7258 27.3487 44.6116C27.2344 44.4973 27.1566 44.3517 27.1251 44.1932C27.0935 44.0347 27.1097 43.8705 27.1716 43.7212C27.2334 43.5719 27.3381 43.4443 27.4725 43.3545C27.6069 43.2647 27.7648 43.2168 27.9264 43.2168C28.1427 43.2181 28.3498 43.3045 28.5028 43.4575C28.6557 43.6104 28.7422 43.8175 28.7434 44.0338Z" fill="#FEFEFE"/>
<path d="M31.1413 44.8509C31.5925 44.8509 31.9583 44.4851 31.9583 44.0338C31.9583 43.5826 31.5925 43.2168 31.1413 43.2168C30.69 43.2168 30.3242 43.5826 30.3242 44.0338C30.3242 44.4851 30.69 44.8509 31.1413 44.8509Z" fill="#FEFEFE"/>
<path d="M34.36 44.8509C34.8112 44.8509 35.177 44.4851 35.177 44.0338C35.177 43.5826 34.8112 43.2168 34.36 43.2168C33.9088 43.2168 33.543 43.5826 33.543 44.0338C33.543 44.4851 33.9088 44.8509 34.36 44.8509Z" fill="#FEFEFE"/>
<path d="M85.0974 52.4062H33.543V53.6867H85.0974V52.4062Z" fill="#A7BFD9"/>
<path d="M85.0974 57.7285H33.543V59.009H85.0974V57.7285Z" fill="#A7BFD9"/>
<path d="M85.0974 63.0449H33.543V64.3254H85.0974V63.0449Z" fill="#A7BFD9"/>
<path d="M85.0974 68.3633H33.543V69.6438H85.0974V68.3633Z" fill="#A7BFD9"/>
<path d="M85.0974 73.6855H33.543V74.966H85.0974V73.6855Z" fill="#A7BFD9"/>
<path d="M85.0974 79.0039H33.543V80.2844H85.0974V79.0039Z" fill="#A7BFD9"/>
</g>
<path d="M53.6782 112.607H30.8203V125.03H53.6782V112.607Z" fill="#2C5B94"/>
<path d="M78.6021 58.9453H5.90035C2.97391 58.9453 0.601562 61.3177 0.601562 64.2441V114.666C0.601562 117.593 2.97391 119.965 5.90035 119.965H78.6021C81.5286 119.965 83.9009 117.593 83.9009 114.666V64.2441C83.9009 61.3177 81.5286 58.9453 78.6021 58.9453Z" fill="#5181BA"/>
<path d="M77.7985 61.7988H6.69738C4.90563 61.7988 3.45312 63.2513 3.45312 65.0431V113.865C3.45312 115.656 4.90563 117.109 6.69738 117.109H77.7985C79.5903 117.109 81.0428 115.656 81.0428 113.865V65.0431C81.0428 63.2513 79.5903 61.7988 77.7985 61.7988Z" fill="#D4E5F8"/>
<path d="M62.8126 125.031H21.6837C21.2932 125.031 20.9766 125.348 20.9766 125.738V127.43C20.9766 127.82 21.2932 128.137 21.6837 128.137H62.8126C63.2031 128.137 63.5197 127.82 63.5197 127.43V125.738C63.5197 125.348 63.2031 125.031 62.8126 125.031Z" fill="#5181BA"/>
<path d="M71.8499 66.6152H10.7443C9.88388 66.6152 9.05869 66.957 8.45027 67.5655C7.84186 68.1739 7.50006 68.9991 7.50006 69.8595V110.95C7.49754 111.378 7.57959 111.802 7.7415 112.198C7.90341 112.593 8.14198 112.953 8.44349 113.257C8.745 113.56 9.10349 113.8 9.49835 113.965C9.89322 114.129 10.3167 114.214 10.7443 114.213H71.8499C72.276 114.213 72.6978 114.13 73.0915 113.967C73.4851 113.804 73.8427 113.565 74.144 113.263C74.4452 112.962 74.6842 112.604 74.8472 112.211C75.0103 111.817 75.0942 111.395 75.0942 110.969V69.8786C75.0967 69.451 75.0146 69.027 74.8527 68.6312C74.6908 68.2354 74.4523 67.8755 74.1507 67.5722C73.8492 67.2689 73.4907 67.0282 73.0959 66.864C72.701 66.6998 72.2776 66.6152 71.8499 66.6152Z" fill="#A7BFD9"/>
<path d="M72.8021 65.6602H11.7013C9.90953 65.6602 8.45703 67.1127 8.45703 68.9044V110.005C8.45703 111.796 9.90953 113.249 11.7013 113.249H72.8021C74.5939 113.249 76.0464 111.796 76.0464 110.005V68.9044C76.0464 67.1127 74.5939 65.6602 72.8021 65.6602Z" fill="#FEFEFE"/>
<path d="M76.0512 69.6115V68.9044C76.0512 68.044 75.7094 67.2188 75.1009 66.6104C74.4925 66.002 73.6673 65.6602 72.8069 65.6602H11.7013C10.8409 65.6602 10.0157 66.002 9.40725 66.6104C8.79883 67.2188 8.45703 68.044 8.45703 68.9044V69.6115H76.0512Z" fill="#A5D9F5"/>
<path d="M13.3224 67.6378C13.3224 67.7956 13.2756 67.9499 13.1879 68.0811C13.1003 68.2123 12.9756 68.3146 12.8298 68.375C12.684 68.4354 12.5236 68.4512 12.3688 68.4204C12.214 68.3896 12.0719 68.3136 11.9603 68.202C11.8487 68.0904 11.7727 67.9482 11.7419 67.7934C11.7111 67.6387 11.7269 67.4782 11.7873 67.3324C11.8477 67.1866 11.95 67.062 12.0812 66.9743C12.2124 66.8866 12.3667 66.8399 12.5245 66.8399C12.6294 66.8392 12.7335 66.8594 12.8306 66.8993C12.9277 66.9392 13.0159 66.9979 13.0901 67.0721C13.1643 67.1464 13.2231 67.2346 13.263 67.3317C13.3028 67.4288 13.323 67.5328 13.3224 67.6378Z" fill="#FEFEFE"/>
<path d="M16.6662 67.6378C16.6662 67.7956 16.6194 67.9499 16.5317 68.0811C16.444 68.2123 16.3194 68.3146 16.1736 68.375C16.0278 68.4354 15.8674 68.4512 15.7126 68.4204C15.5578 68.3896 15.4156 68.3136 15.304 68.202C15.1924 68.0904 15.1164 67.9482 15.0856 67.7934C15.0549 67.6387 15.0707 67.4782 15.1311 67.3324C15.1914 67.1866 15.2937 67.062 15.4249 66.9743C15.5562 66.8866 15.7104 66.8399 15.8682 66.8399C15.9732 66.8392 16.0772 66.8594 16.1743 66.8993C16.2714 66.9392 16.3596 66.9979 16.4339 67.0721C16.5081 67.1464 16.5668 67.2346 16.6067 67.3317C16.6466 67.4288 16.6668 67.5328 16.6662 67.6378Z" fill="#FEFEFE"/>
<path d="M20.0138 67.6378C20.0138 67.7956 19.967 67.9499 19.8793 68.0811C19.7917 68.2123 19.667 68.3146 19.5212 68.375C19.3754 68.4354 19.215 68.4512 19.0602 68.4204C18.9054 68.3896 18.7633 68.3136 18.6517 68.202C18.5401 68.0904 18.4641 67.9482 18.4333 67.7934C18.4025 67.6387 18.4183 67.4782 18.4787 67.3324C18.5391 67.1866 18.6414 67.062 18.7726 66.9743C18.9038 66.8866 19.0581 66.8399 19.2159 66.8399C19.3209 66.8392 19.4249 66.8594 19.522 66.8993C19.6191 66.9392 19.7073 66.9979 19.7815 67.0721C19.8557 67.1464 19.9145 67.2346 19.9544 67.3317C19.9942 67.4288 20.0145 67.5328 20.0138 67.6378Z" fill="#FEFEFE"/>
<path d="M61.8966 75.6629H40.8974L36.3679 73.1784C36.0345 72.9935 35.6596 72.8965 35.2785 72.8965H22.8796C22.4868 72.8965 22.11 73.0525 21.8323 73.3303C21.5545 73.6081 21.3984 73.9848 21.3984 74.3777V97.312H62.0591L63.6549 77.5741C63.6725 77.3315 63.6403 77.0878 63.5602 76.858C63.48 76.6283 63.3537 76.4174 63.189 76.2384C63.0243 76.0593 62.8246 75.9159 62.6023 75.8169C62.3801 75.718 62.1399 75.6656 61.8966 75.6629Z" fill="#E6B027"/>
<path d="M60.4506 94.1883H24.716C24.4562 94.1837 24.207 94.0839 24.0159 93.9077C23.8247 93.7315 23.7049 93.4913 23.6792 93.2327L22.4274 79.6011C22.4084 79.4669 22.4182 79.3301 22.4561 79.1999C22.494 79.0698 22.5592 78.9491 22.6473 78.8461C22.7355 78.7431 22.8445 78.66 22.9672 78.6023C23.09 78.5447 23.2235 78.5138 23.3591 78.5117H61.8219C61.9567 78.5157 62.0891 78.5481 62.2105 78.6069C62.3319 78.6658 62.4394 78.7496 62.5261 78.8529C62.6127 78.9563 62.6765 79.0768 62.7133 79.2066C62.75 79.3364 62.7589 79.4724 62.7392 79.6059L61.4874 93.2375C61.4606 93.4953 61.3403 93.7343 61.1493 93.9095C60.9583 94.0847 60.7097 94.1838 60.4506 94.1883Z" fill="#FCFFFD"/>
<path d="M61.7621 96.1952H23.5C23.2242 96.1863 22.961 96.0779 22.7589 95.8899C22.5569 95.7019 22.4298 95.4472 22.4011 95.1727L21.0585 80.5808C21.0367 80.4377 21.0457 80.2916 21.0849 80.1522C21.124 80.0129 21.1925 79.8835 21.2856 79.7727C21.3788 79.6619 21.4945 79.5722 21.6251 79.5097C21.7556 79.4472 21.898 79.4133 22.0427 79.4102H63.2337C63.3784 79.4133 63.5208 79.4472 63.6514 79.5097C63.7819 79.5722 63.8976 79.6619 63.9908 79.7727C64.084 79.8835 64.1524 80.0129 64.1916 80.1522C64.2308 80.2916 64.2398 80.4377 64.218 80.5808L62.8801 95.1727C62.851 95.4504 62.7211 95.7077 62.5151 95.8961C62.3091 96.0845 62.0412 96.1909 61.7621 96.1952Z" fill="#FCFFFD"/>
<path d="M62.8177 98.0596H22.439C22.1468 98.0541 21.8668 97.9416 21.652 97.7435C21.4371 97.5454 21.3024 97.2754 21.2732 96.9846L19.8398 81.5804C19.8174 81.4293 19.8274 81.2753 19.8691 81.1284C19.9109 80.9815 19.9835 80.8453 20.082 80.7286C20.1806 80.612 20.3028 80.5177 20.4407 80.452C20.5785 80.3863 20.7287 80.3508 20.8814 80.3477H64.361C64.5139 80.35 64.6646 80.385 64.8028 80.4505C64.941 80.5159 65.0636 80.6102 65.1623 80.727C65.261 80.8438 65.3335 80.9805 65.375 81.1277C65.4164 81.2748 65.4259 81.4292 65.4026 81.5804L63.9692 96.9846C63.9404 97.273 63.8077 97.5411 63.5958 97.7388C63.384 97.9366 63.1074 98.0506 62.8177 98.0596Z" fill="#FCFFFD"/>
<path d="M20.4918 81.3225H64.5544C64.8321 81.322 65.1068 81.3803 65.3604 81.4936C65.614 81.6068 65.8408 81.7725 66.0258 81.9796C66.2108 82.1867 66.3499 82.4307 66.4339 82.6954C66.518 82.9601 66.5451 83.2396 66.5134 83.5155L63.9046 106.225C63.8649 106.56 63.704 106.869 63.4523 107.094C63.2005 107.318 62.8754 107.443 62.5381 107.444H22.4842C22.1464 107.445 21.8201 107.321 21.5679 107.096C21.3157 106.871 21.1554 106.561 21.1177 106.225L18.509 83.5155C18.477 83.2376 18.5047 82.956 18.5901 82.6896C18.6756 82.4232 18.8168 82.1781 19.0044 81.9706C19.1921 81.7631 19.4218 81.5979 19.6783 81.4862C19.9347 81.3744 20.2121 81.3186 20.4918 81.3225Z" fill="#FDC22C"/>
<path d="M176.428 112.607H153.57V125.03H176.428V112.607Z" fill="#2C5B94"/>
<path d="M201.352 58.9453H128.65C125.724 58.9453 123.352 61.3177 123.352 64.2441V114.666C123.352 117.593 125.724 119.965 128.65 119.965H201.352C204.279 119.965 206.651 117.593 206.651 114.666V64.2441C206.651 61.3177 204.279 58.9453 201.352 58.9453Z" fill="#5181BA"/>
<path d="M200.549 61.7988H129.447C127.656 61.7988 126.203 63.2513 126.203 65.0431V113.865C126.203 115.656 127.656 117.109 129.447 117.109H200.549C202.34 117.109 203.793 115.656 203.793 113.865V65.0431C203.793 63.2513 202.34 61.7988 200.549 61.7988Z" fill="#D4E5F8"/>
<path d="M185.563 125.031H144.434C144.043 125.031 143.727 125.348 143.727 125.738V127.43C143.727 127.82 144.043 128.137 144.434 128.137H185.563C185.953 128.137 186.27 127.82 186.27 127.43V125.738C186.27 125.348 185.953 125.031 185.563 125.031Z" fill="#5181BA"/>
<path d="M194.6 66.6152H133.494C133.068 66.6152 132.646 66.6991 132.253 66.8622C131.859 67.0252 131.501 67.2642 131.2 67.5655C130.899 67.8667 130.66 68.2244 130.497 68.618C130.334 69.0116 130.25 69.4334 130.25 69.8595V110.95C130.25 111.376 130.334 111.798 130.497 112.192C130.66 112.585 130.899 112.943 131.2 113.244C131.501 113.545 131.859 113.784 132.253 113.947C132.646 114.11 133.068 114.194 133.494 114.194H194.6C195.46 114.194 196.285 113.853 196.894 113.244C197.502 112.636 197.844 111.811 197.844 110.95V69.8595C197.844 68.9991 197.502 68.1739 196.894 67.5655C196.285 66.957 195.46 66.6152 194.6 66.6152Z" fill="#A7BFD9"/>
<path d="M195.552 65.6602H134.451C132.66 65.6602 131.207 67.1127 131.207 68.9044V110.005C131.207 111.796 132.66 113.249 134.451 113.249H195.552C197.344 113.249 198.796 111.796 198.796 110.005V68.9044C198.796 67.1127 197.344 65.6602 195.552 65.6602Z" fill="#FEFEFE"/>
<path d="M198.801 69.6115V68.9044C198.801 68.044 198.459 67.2188 197.851 66.6104C197.243 66.002 196.417 65.6602 195.557 65.6602H134.451C134.025 65.6602 133.603 65.7441 133.21 65.9071C132.816 66.0701 132.459 66.3091 132.157 66.6104C131.856 66.9116 131.617 67.2693 131.454 67.6629C131.291 68.0565 131.207 68.4784 131.207 68.9044V69.6115H198.801Z" fill="#A5D9F5"/>
<path d="M136.117 67.637C136.101 67.8373 136.011 68.0244 135.863 68.1609C135.716 68.2974 135.522 68.3732 135.321 68.3732C135.12 68.3732 134.927 68.2974 134.779 68.1609C134.632 68.0244 134.541 67.8373 134.526 67.637C134.517 67.5273 134.532 67.4171 134.568 67.3132C134.604 67.2093 134.661 67.114 134.736 67.0333C134.81 66.9526 134.901 66.8882 135.002 66.8441C135.103 66.8001 135.211 66.7773 135.321 66.7773C135.431 66.7773 135.54 66.8001 135.641 66.8441C135.742 66.8882 135.832 66.9526 135.907 67.0333C135.982 67.114 136.039 67.2093 136.075 67.3132C136.111 67.4171 136.125 67.5273 136.117 67.637Z" fill="#FEFEFE"/>
<path d="M139.42 67.6378C139.42 67.7956 139.373 67.9499 139.286 68.0811C139.198 68.2123 139.073 68.3146 138.928 68.375C138.782 68.4354 138.621 68.4512 138.466 68.4204C138.312 68.3896 138.17 68.3136 138.058 68.202C137.946 68.0904 137.87 67.9482 137.84 67.7934C137.809 67.6387 137.825 67.4782 137.885 67.3324C137.945 67.1866 138.048 67.062 138.179 66.9743C138.31 66.8866 138.464 66.8399 138.622 66.8399C138.727 66.8392 138.831 66.8594 138.928 66.8993C139.025 66.9392 139.114 66.9979 139.188 67.0721C139.262 67.1464 139.321 67.2346 139.361 67.3317C139.4 67.4288 139.421 67.5328 139.42 67.6378Z" fill="#FEFEFE"/>
<path d="M142.744 67.6378C142.744 67.7956 142.697 67.9499 142.61 68.0811C142.522 68.2123 142.398 68.3146 142.252 68.375C142.106 68.4354 141.945 68.4512 141.791 68.4204C141.636 68.3896 141.494 68.3136 141.382 68.202C141.271 68.0904 141.195 67.9482 141.164 67.7934C141.133 67.6387 141.149 67.4782 141.209 67.3324C141.27 67.1866 141.372 67.062 141.503 66.9743C141.634 66.8866 141.789 66.8399 141.946 66.8399C142.051 66.8392 142.155 66.8594 142.252 66.8993C142.35 66.9392 142.438 66.9979 142.512 67.0721C142.586 67.1464 142.645 67.2346 142.685 67.3317C142.725 67.4288 142.745 67.5328 142.744 67.6378Z" fill="#FEFEFE"/>
<path d="M184.652 75.6629H163.629L159.1 73.1784C158.767 72.9929 158.392 72.8958 158.01 72.8965H145.588C145.393 72.8959 145.199 72.9337 145.019 73.0079C144.839 73.082 144.675 73.191 144.537 73.3286C144.399 73.4662 144.29 73.6297 144.215 73.8097C144.14 73.9898 144.102 74.1828 144.102 74.3777V97.312H184.853L186.449 77.5741C186.467 77.3283 186.433 77.0814 186.351 76.849C186.268 76.6167 186.139 76.404 185.97 76.2244C185.801 76.0448 185.597 75.9021 185.37 75.8055C185.143 75.7089 184.899 75.6603 184.652 75.6629Z" fill="#E6B027"/>
<path d="M183.206 94.1883H147.467C147.207 94.1837 146.958 94.0839 146.767 93.9077C146.576 93.7315 146.456 93.4913 146.43 93.2327L145.198 79.6059C145.178 79.4721 145.187 79.3356 145.224 79.2055C145.261 79.0754 145.325 78.9546 145.412 78.8512C145.5 78.7478 145.608 78.664 145.73 78.6055C145.852 78.547 145.985 78.515 146.12 78.5117H184.592C184.727 78.5157 184.859 78.5481 184.981 78.6069C185.102 78.6658 185.21 78.7496 185.296 78.8529C185.383 78.9563 185.447 79.0768 185.483 79.2066C185.52 79.3364 185.529 79.4724 185.509 79.6059L184.258 93.2375C184.231 93.4977 184.108 93.7387 183.914 93.9142C183.72 94.0897 183.468 94.1873 183.206 94.1883Z" fill="#FCFFFD"/>
<path d="M184.514 96.1952H146.252C145.974 96.1886 145.709 96.0812 145.505 95.893C145.301 95.7048 145.172 95.4487 145.143 95.1727L143.805 80.5808C143.783 80.4375 143.791 80.2911 143.83 80.1515C143.869 80.0118 143.937 79.882 144.031 79.7711C144.124 79.6601 144.24 79.5705 144.371 79.5082C144.502 79.4459 144.645 79.4125 144.79 79.4102H185.976C186.121 79.4134 186.263 79.4473 186.394 79.5098C186.525 79.5723 186.641 79.6618 186.734 79.7725C186.828 79.8832 186.897 80.0125 186.936 80.1518C186.976 80.2912 186.986 80.4374 186.965 80.5808L185.622 95.1727C185.593 95.4487 185.465 95.7048 185.261 95.893C185.057 96.0812 184.791 96.1886 184.514 96.1952Z" fill="#FCFFFD"/>
<path d="M185.576 98.0596H145.198C144.905 98.0541 144.625 97.9416 144.411 97.7435C144.196 97.5454 144.061 97.2754 144.032 96.9846L142.598 81.5804C142.575 81.4296 142.585 81.2756 142.626 81.1288C142.667 80.9819 142.739 80.8455 142.837 80.7288C142.935 80.6121 143.057 80.5177 143.195 80.4519C143.333 80.3862 143.483 80.3507 143.635 80.3477H187.115C187.267 80.3507 187.417 80.3862 187.555 80.4519C187.693 80.5177 187.815 80.6121 187.913 80.7288C188.011 80.8455 188.083 80.9819 188.124 81.1288C188.166 81.2756 188.175 81.4296 188.152 81.5804L186.718 96.9846C186.69 97.2714 186.558 97.5382 186.348 97.7358C186.139 97.9334 185.864 98.0484 185.576 98.0596Z" fill="#FCFFFD"/>
<path d="M143.218 81.3223H187.28C187.558 81.3218 187.833 81.3801 188.086 81.4934C188.34 81.6066 188.567 81.7723 188.752 81.9794C188.937 82.1865 189.076 82.4305 189.16 82.6952C189.244 82.9599 189.271 83.2394 189.239 83.5154L186.631 106.225C186.593 106.561 186.433 106.871 186.181 107.096C185.928 107.321 185.602 107.444 185.264 107.443H145.234C144.897 107.443 144.571 107.319 144.319 107.095C144.067 106.87 143.906 106.56 143.868 106.225L141.259 83.5154C141.227 83.2394 141.254 82.9599 141.338 82.6952C141.422 82.4305 141.561 82.1865 141.746 81.9794C141.932 81.7723 142.158 81.6066 142.412 81.4934C142.665 81.3801 142.94 81.3218 143.218 81.3223Z" fill="#FDC22C"/>
<path d="M38.7565 45.5308L29.3516 64.4023L55.0695 77.2193L64.4744 58.3477L38.7565 45.5308Z" fill="#FEE79B"/>
<path d="M40.039 48.8528L32.7695 63.4395L33.5778 63.8422L40.8472 49.2556L40.039 48.8528Z" fill="#D4B498"/>
<path d="M41.7812 49.718L34.5117 64.3047L35.3199 64.7075L42.5894 50.1208L41.7812 49.718Z" fill="#D4B498"/>
<path d="M41.0913 55.4712L36.2578 65.1699L37.066 65.5727L41.8996 55.8739L41.0913 55.4712Z" fill="#D4B498"/>
<path d="M45.2655 51.4524L37.9961 66.0391L38.8043 66.4419L46.0738 51.8552L45.2655 51.4524Z" fill="#D4B498"/>
<path d="M47.0116 52.3235L39.7422 66.9102L40.5504 67.3129L47.8199 52.7263L47.0116 52.3235Z" fill="#D4B498"/>
<path d="M46.1904 58.3246L41.4805 67.7754L42.2887 68.1782L46.9986 58.7274L46.1904 58.3246Z" fill="#D4B498"/>
<path d="M50.4921 54.0559L43.2227 68.6426L44.0309 69.0454L51.3003 54.4587L50.4921 54.0559Z" fill="#D4B498"/>
<path d="M49.6787 60.0629L44.9688 69.5137L45.777 69.9165L50.4869 60.4657L49.6787 60.0629Z" fill="#D4B498"/>
<path d="M53.9804 55.7942L46.7109 70.3809L47.5192 70.7837L54.7886 56.197L53.9804 55.7942Z" fill="#D4B498"/>
<path d="M55.7226 56.6614L48.4531 71.248L49.2614 71.6508L56.5308 57.0642L55.7226 56.6614Z" fill="#D4B498"/>
<path d="M55.1379 62.1937L50.1914 72.1191L50.9996 72.5219L55.9461 62.5965L55.1379 62.1937Z" fill="#D4B498"/>
<path d="M59.207 58.4036L51.9375 72.9902L52.7457 73.393L60.0152 58.8064L59.207 58.4036Z" fill="#D4B498"/>
<path d="M58.6301 63.9281L53.6836 73.8535L54.4918 74.2563L59.4383 64.3309L58.6301 63.9281Z" fill="#D4B498"/>
<path d="M72.4235 14.7786L53.8672 24.791L67.5121 50.0794L86.0684 40.067L72.4235 14.7786Z" fill="#FEE79B"/>
<path d="M71.5657 18.2316L57.2227 25.9707L57.6515 26.7654L71.9945 19.0264L71.5657 18.2316Z" fill="#D4B498"/>
<path d="M72.4954 19.9465L58.1523 27.6855L58.5812 28.4803L72.9242 20.7412L72.4954 19.9465Z" fill="#D4B498"/>
<path d="M68.6071 24.2507L59.0703 29.3965L59.4991 30.1912L69.0359 25.0455L68.6071 24.2507Z" fill="#D4B498"/>
<path d="M74.343 23.3684L60 31.1074L60.4288 31.9022L74.7718 24.1631L74.343 23.3684Z" fill="#D4B498"/>
<path d="M75.2649 25.0852L60.9219 32.8242L61.3507 33.6189L75.6937 25.8799L75.2649 25.0852Z" fill="#D4B498"/>
<path d="M71.1444 29.5229L61.8516 34.5371L62.2804 35.3318L71.5733 30.3177L71.1444 29.5229Z" fill="#D4B498"/>
<path d="M76.7599 28.9651L62.418 36.625L62.8424 37.4197L77.1844 29.7598L76.7599 28.9651Z" fill="#D4B498"/>
<path d="M72.9882 32.9507L63.6953 37.9648L64.1241 38.7596L73.417 33.7454L72.9882 32.9507Z" fill="#D4B498"/>
<path d="M78.592 32.4006L64.25 40.0605L64.6744 40.8552L79.0164 33.1953L78.592 32.4006Z" fill="#D4B498"/>
<path d="M79.8899 33.6535L65.5469 41.3926L65.9757 42.1873L80.3187 34.4482L79.8899 33.6535Z" fill="#D4B498"/>
<path d="M76.2281 37.8398L66.4727 43.1035L66.9015 43.8982L76.6569 38.6345L76.2281 37.8398Z" fill="#D4B498"/>
<path d="M81.342 37.5549L67 45.2148L67.4244 46.0095L81.7664 38.3496L81.342 37.5549Z" fill="#D4B498"/>
<path d="M78.0757 41.2714L68.3203 46.5352L68.7491 47.3299L78.5046 42.0661L78.0757 41.2714Z" fill="#D4B498"/>
<path d="M96.7304 6.51227L93.3281 35.0449L114.265 37.5415L117.667 9.00885L96.7304 6.51227Z" fill="#FEE79B"/>
<path d="M114.984 11.3321L98.8008 9.40234L98.6939 10.299L114.877 12.2287L114.984 11.3321Z" fill="#D4B498"/>
<path d="M114.753 13.2676L98.5703 11.3379L98.4634 12.2346L114.646 14.1643L114.753 13.2676Z" fill="#D4B498"/>
<path d="M109.1 14.5546L98.3398 13.2715L98.2329 14.1682L108.993 15.4513L109.1 14.5546Z" fill="#D4B498"/>
<path d="M114.292 17.1328L98.1094 15.2031L98.0025 16.0998L114.185 18.0295L114.292 17.1328Z" fill="#D4B498"/>
<path d="M114.062 19.0664L97.8789 17.1367L97.772 18.0334L113.955 19.9631L114.062 19.0664Z" fill="#D4B498"/>
<path d="M108.134 20.3225L97.6484 19.0723L97.5415 19.969L108.027 21.2192L108.134 20.3225Z" fill="#D4B498"/>
<path d="M113.601 22.9356L97.418 21.0059L97.311 21.9025L113.494 23.8323L113.601 22.9356Z" fill="#D4B498"/>
<path d="M107.673 24.1878L97.1875 22.9375L97.0806 23.8342L107.566 25.0845L107.673 24.1878Z" fill="#D4B498"/>
<path d="M113.136 26.8008L96.9531 24.8711L96.8462 25.7678L113.029 27.6975L113.136 26.8008Z" fill="#D4B498"/>
<path d="M112.91 28.7344L96.7266 26.8047L96.6196 27.7014L112.803 29.6311L112.91 28.7344Z" fill="#D4B498"/>
<path d="M107.512 30.0494L96.5 28.7363L96.3931 29.633L107.405 30.9461L107.512 30.0494Z" fill="#D4B498"/>
<path d="M112.453 32.6016L96.2695 30.6719L96.1626 31.5686L112.346 33.4983L112.453 32.6016Z" fill="#D4B498"/>
<path d="M107.047 33.9185L96.0352 32.6055L95.9282 33.5022L106.94 34.8152L107.047 33.9185Z" fill="#D4B498"/>
<path d="M142.302 16.2594L123.09 37.627L138.769 51.7248L157.981 30.3573L142.302 16.2594Z" fill="#FEE79B"/>
<path d="M154.432 30.7093L142.312 19.8125L141.709 20.484L153.828 31.3808L154.432 30.7093Z" fill="#D4B498"/>
<path d="M153.131 32.1585L141.012 21.2617L140.408 21.9332L152.527 32.8301L153.131 32.1585Z" fill="#D4B498"/>
<path d="M147.769 29.9524L139.711 22.707L139.107 23.3785L147.165 30.6239L147.769 29.9524Z" fill="#D4B498"/>
<path d="M150.529 35.055L138.41 24.1582L137.806 24.8297L149.926 35.7266L150.529 35.055Z" fill="#D4B498"/>
<path d="M149.225 36.5023L137.105 25.6055L136.502 26.277L148.621 37.1738L149.225 36.5023Z" fill="#D4B498"/>
<path d="M143.661 34.1109L135.809 27.0508L135.205 27.7223L143.057 34.7824L143.661 34.1109Z" fill="#D4B498"/>
<path d="M146.623 39.3949L134.504 28.498L133.9 29.1696L146.019 40.0664L146.623 39.3949Z" fill="#D4B498"/>
<path d="M141.051 37.0074L133.199 29.9473L132.595 30.6188L140.447 37.6789L141.051 37.0074Z" fill="#D4B498"/>
<path d="M144.022 42.2953L131.902 31.3984L131.299 32.0699L143.418 42.9668L144.022 42.2953Z" fill="#D4B498"/>
<path d="M142.717 43.7406L130.598 32.8438L129.994 33.5153L142.113 44.4121L142.717 43.7406Z" fill="#D4B498"/>
<path d="M137.547 41.7038L129.301 34.2891L128.697 34.9606L136.943 42.3753L137.547 41.7038Z" fill="#D4B498"/>
<path d="M140.111 46.6332L127.992 35.7363L127.388 36.4078L139.508 47.3047L140.111 46.6332Z" fill="#D4B498"/>
<path d="M134.942 44.6022L126.695 37.1875L126.092 37.859L134.338 45.2737L134.942 44.6022Z" fill="#D4B498"/>
<path d="M170.795 46.2526L143.547 55.375L150.241 75.3695L177.489 66.247L170.795 46.2526Z" fill="#FEE79B"/>
<path d="M174.237 64.8159L169.062 49.3613L168.206 49.648L173.38 65.1026L174.237 64.8159Z" fill="#D4B498"/>
<path d="M172.393 65.4311L167.219 49.9766L166.362 50.2633L171.536 65.7178L172.393 65.4311Z" fill="#D4B498"/>
<path d="M168.811 60.8716L165.371 50.5957L164.515 50.8824L167.955 61.1583L168.811 60.8716Z" fill="#D4B498"/>
<path d="M168.697 66.6694L163.523 51.2148L162.667 51.5015L167.841 66.9561L168.697 66.6694Z" fill="#D4B498"/>
<path d="M166.854 67.2866L161.68 51.832L160.823 52.1187L165.997 67.5733L166.854 67.2866Z" fill="#D4B498"/>
<path d="M163.18 62.4662L159.828 52.4531L158.972 52.7398L162.324 62.7529L163.18 62.4662Z" fill="#D4B498"/>
<path d="M163.162 68.5249L157.988 53.0703L157.132 53.357L162.306 68.8116L163.162 68.5249Z" fill="#D4B498"/>
<path d="M159.489 63.7006L156.137 53.6875L155.28 53.9742L158.633 63.9873L159.489 63.7006Z" fill="#D4B498"/>
<path d="M159.463 69.7593L154.289 54.3047L153.433 54.5914L158.607 70.046L159.463 69.7593Z" fill="#D4B498"/>
<path d="M157.619 70.3804L152.445 54.9258L151.589 55.2125L156.763 70.6671L157.619 70.3804Z" fill="#D4B498"/>
<path d="M154.122 66.059L150.602 55.543L149.745 55.8297L153.266 66.3457L154.122 66.059Z" fill="#D4B498"/>
<path d="M153.924 71.6128L148.75 56.1582L147.894 56.4449L153.068 71.8995L153.924 71.6128Z" fill="#D4B498"/>
<path d="M150.427 67.2933L146.906 56.7773L146.05 57.064L149.571 67.58L150.427 67.2933Z" fill="#D4B498"/>
<path d="M69.7773 64.5743C75.5826 53.1741 88.292 45.2617 103.032 45.2617C117.925 45.2617 130.744 53.3365 136.478 64.9327" stroke="#7D87F2" stroke-width="3.05791" stroke-miterlimit="10"/>
<path d="M65.1562 62.0234L74.3921 66.8062L66.6518 70.4422L65.1562 62.0234Z" fill="#7A87FF"/>
<path d="M141.076 62.0234L131.84 66.8062L139.58 70.4422L141.076 62.0234Z" fill="#7A87FF"/>
<path d="M144.764 131.097L145.98 131.166L146.683 118.749L145.467 118.68L144.764 131.097Z" fill="#666488"/>
<path d="M144.106 131.057L145.418 131.131L146.121 118.714L144.809 118.639L144.106 131.057Z" fill="#9692C6"/>
<path d="M139.23 120.549L139.426 108.704C139.861 107.61 140.989 107.543 141.495 107.543H151.003C151.142 107.543 151.279 107.572 151.406 107.628C151.533 107.685 151.647 107.767 151.739 107.871C151.832 107.974 151.902 108.095 151.945 108.227C151.988 108.36 152.002 108.499 151.988 108.637L150.678 121.06C150.657 121.235 150.59 121.401 150.484 121.541C150.377 121.682 150.235 121.791 150.072 121.858L148.753 122.101L149.307 121.624H140.229C140.091 121.626 139.954 121.598 139.826 121.544C139.699 121.49 139.585 121.409 139.491 121.308C139.397 121.207 139.325 121.087 139.28 120.956C139.235 120.825 139.218 120.686 139.23 120.549Z" fill="#CE6A77"/>
<path d="M139.089 122.111H148.597C148.842 122.111 149.078 122.021 149.26 121.856C149.442 121.692 149.556 121.466 149.581 121.223L150.862 109.106C150.878 108.967 150.864 108.826 150.822 108.693C150.78 108.56 150.71 108.437 150.617 108.333C150.524 108.228 150.41 108.145 150.283 108.088C150.155 108.031 150.017 108.002 149.877 108.002H140.369C140.125 108.002 139.889 108.092 139.707 108.255C139.526 108.418 139.411 108.643 139.385 108.886L138.104 121.008C138.088 121.146 138.102 121.287 138.144 121.42C138.186 121.553 138.256 121.676 138.349 121.781C138.442 121.885 138.556 121.968 138.683 122.025C138.811 122.082 138.949 122.112 139.089 122.111Z" fill="#BD4D5C"/>
<path d="M135.937 129.785V133.058L127.934 131.71V129.766L135.937 129.785Z" fill="#BD4D5C"/>
<path d="M133.046 149.882C142.786 149.882 150.681 148.256 150.681 146.25C150.681 144.245 142.786 142.619 133.046 142.619C123.306 142.619 115.41 144.245 115.41 146.25C115.41 148.256 123.306 149.882 133.046 149.882Z" fill="#D2DCE0"/>
<path d="M138.508 121.933C138.336 121.905 138.264 121.905 138.149 121.89C135.28 121.686 132.397 121.957 129.616 122.693C127.275 123.295 123.304 125.307 121.46 126.272C119.826 127.122 119.859 129.578 119.658 132.851C119.601 133.859 119.969 140.859 119.893 143.888C120.198 143.831 120.7 143.888 121.197 143.812C121.488 143.764 122.368 139.464 123.065 137.672C123.633 136.006 123.75 134.219 123.404 132.493C123.204 131.566 123.051 130.324 124.178 130.056C129.558 128.785 133.371 127.543 137.476 127.237C137.867 125.245 138.111 123.931 138.508 121.933Z" fill="#DE856C"/>
<path d="M116.832 145.231H121.438C121.542 145.23 121.642 145.188 121.715 145.113C121.788 145.039 121.829 144.939 121.829 144.835V144.013C121.829 143.664 121.786 143.277 121.452 143.215C121.452 143.215 120.343 143.315 119.875 143.42C119.264 143.554 118.963 143.635 118.184 143.812C117.027 144.07 116.545 144.237 116.449 144.586C116.32 145.05 116.526 145.174 116.832 145.231Z" fill="#752056"/>
<path d="M141.251 123.372L140.888 123.329C138.02 123.126 135.139 123.397 132.359 124.131C130.013 124.733 126.047 126.745 124.203 127.71C122.564 128.565 122.598 131.016 122.402 134.294C122.34 135.297 122.707 142.302 122.631 145.326C122.937 145.269 123.443 145.326 123.94 145.25C124.227 145.202 125.111 140.902 125.808 139.11C126.375 137.444 126.49 135.657 126.143 133.931C125.942 133.004 125.794 131.762 126.922 131.494C132.297 130.223 136.11 128.981 140.219 128.68C140.615 126.683 140.859 125.369 141.251 123.372Z" fill="#FFB39F"/>
<path d="M119.639 146.913L124.24 146.67C124.292 146.667 124.342 146.655 124.389 146.633C124.435 146.611 124.477 146.58 124.512 146.542C124.546 146.503 124.573 146.459 124.59 146.41C124.608 146.362 124.615 146.31 124.613 146.259L124.575 145.437C124.546 145.088 124.498 144.706 124.159 144.658C124.159 144.658 123.06 144.816 122.596 144.94C121.99 145.103 121.693 145.198 120.924 145.418C119.782 145.733 119.309 145.924 119.228 146.278C119.118 146.756 119.338 146.87 119.639 146.913Z" fill="#9F2B74"/>
<path d="M135.791 118.862C135.791 118.862 134.835 122.078 133.105 122.77C133.105 122.77 142.948 126.631 143.478 125.594C143.478 125.594 142.045 119.493 141.825 116L135.791 118.862Z" fill="#9F3A79"/>
<path d="M141.801 122.609C144.921 124.639 145.734 131.142 135.944 129.776C135.944 129.776 132.121 130.253 129.493 132.203C128.29 131.238 127.295 130.038 126.569 128.678C125.843 127.317 125.401 125.823 125.27 124.286C127.676 122.986 130.345 122.245 133.077 122.117C138.949 121.859 141.801 122.609 141.801 122.609Z" fill="#9F3A79"/>
<path d="M138.116 108.623C138.116 110.162 138.116 111.676 138.049 113.215C138.02 113.984 137.977 114.753 137.91 115.546C137.872 115.943 137.829 116.344 137.762 116.779C137.724 117.019 137.673 117.257 137.609 117.491C137.609 117.563 137.576 117.62 137.542 117.716L137.499 117.84L137.475 117.902C137.451 117.959 137.424 118.015 137.394 118.069C137.346 118.161 137.29 118.249 137.227 118.332C137.183 118.389 137.135 118.444 137.084 118.494C137.01 118.574 136.93 118.648 136.845 118.714C136.626 118.887 136.391 119.037 136.142 119.163C135.932 119.268 135.736 119.359 135.545 119.44C135.158 119.608 134.785 119.751 134.413 119.885C133.667 120.148 132.936 120.363 132.201 120.601C130.743 121.046 129.262 121.438 127.833 121.829L127.141 119.636C128.574 119.159 130.007 118.681 131.379 118.15C132.067 117.892 132.755 117.625 133.414 117.343C133.739 117.2 134.064 117.051 134.37 116.903C134.513 116.827 134.656 116.75 134.776 116.674C134.862 116.627 134.942 116.571 135.015 116.507C135.015 116.507 135.015 116.507 134.981 116.531C134.948 116.555 134.943 116.569 134.929 116.593C134.893 116.637 134.863 116.685 134.838 116.736C134.819 116.768 134.803 116.802 134.79 116.836V116.784C134.79 116.698 134.824 116.54 134.843 116.392C134.871 116.077 134.891 115.728 134.9 115.374C134.9 114.667 134.9 113.941 134.9 113.196C134.867 111.729 134.79 110.233 134.695 108.766L138.116 108.623Z" fill="#DE856C"/>
<path d="M125.555 121.381C125.479 121.394 125.405 121.416 125.335 121.447C125.245 121.479 125.159 121.519 125.077 121.567C124.9 121.662 124.732 121.772 124.575 121.897C124.246 122.155 123.943 122.447 123.672 122.766C123.633 122.807 123.58 122.832 123.523 122.837C123.466 122.842 123.41 122.826 123.364 122.792C123.318 122.758 123.287 122.708 123.275 122.652C123.263 122.597 123.272 122.539 123.3 122.489C123.545 122.104 123.83 121.745 124.15 121.419C124.316 121.246 124.495 121.086 124.685 120.941C124.785 120.869 124.889 120.802 124.996 120.74C125.12 120.669 125.251 120.611 125.387 120.568H125.44C125.494 120.546 125.552 120.536 125.61 120.537C125.668 120.539 125.725 120.553 125.778 120.578C125.83 120.603 125.877 120.639 125.915 120.683C125.952 120.728 125.98 120.779 125.997 120.835C126.013 120.891 126.018 120.95 126.01 121.007C126.003 121.065 125.983 121.12 125.952 121.17C125.922 121.22 125.882 121.262 125.834 121.295C125.786 121.328 125.731 121.351 125.674 121.361C125.636 121.375 125.595 121.381 125.555 121.381Z" fill="#DE856C"/>
<path d="M125.947 120.854C125.733 120.862 125.521 120.897 125.317 120.959C125.098 121.026 124.887 121.114 124.686 121.222C124.276 121.453 123.915 121.764 123.625 122.134C123.587 122.182 123.531 122.213 123.471 122.22C123.41 122.227 123.349 122.21 123.3 122.173C123.256 122.137 123.226 122.086 123.215 122.03C123.205 121.974 123.214 121.916 123.243 121.867C123.526 121.401 123.902 120.998 124.347 120.682C124.571 120.52 124.813 120.384 125.068 120.276C125.336 120.157 125.619 120.077 125.909 120.037C126.016 120.022 126.125 120.051 126.211 120.116C126.297 120.182 126.353 120.279 126.368 120.386C126.382 120.493 126.354 120.601 126.288 120.687C126.223 120.773 126.126 120.83 126.019 120.844H125.947V120.854Z" fill="#DE856C"/>
<path d="M126.38 121.776C126.326 121.806 126.268 121.828 126.208 121.843H126.117L125.945 121.891C125.83 121.924 125.72 121.962 125.611 122.005C125.386 122.088 125.167 122.187 124.956 122.302C124.526 122.531 124.12 122.805 123.747 123.119C123.724 123.138 123.697 123.153 123.668 123.162C123.639 123.171 123.609 123.175 123.579 123.172C123.548 123.169 123.519 123.161 123.492 123.147C123.465 123.133 123.442 123.113 123.422 123.09C123.384 123.047 123.363 122.992 123.363 122.935C123.363 122.877 123.384 122.822 123.422 122.779C123.784 122.399 124.185 122.056 124.617 121.757C124.837 121.604 125.067 121.465 125.305 121.341C125.424 121.279 125.544 121.222 125.668 121.169L125.859 121.093L125.95 121.055C126.042 121.002 126.151 120.988 126.254 121.016C126.356 121.043 126.444 121.109 126.499 121.2C126.553 121.291 126.569 121.4 126.544 121.503C126.52 121.606 126.455 121.696 126.365 121.752L126.38 121.776Z" fill="#DE856C"/>
<path d="M126.756 122.025C126.247 122.105 125.76 122.286 125.322 122.556C124.851 122.835 124.405 123.155 123.989 123.511C123.966 123.531 123.939 123.545 123.91 123.554C123.881 123.563 123.85 123.566 123.82 123.562C123.79 123.559 123.76 123.55 123.734 123.536C123.707 123.521 123.683 123.502 123.664 123.478C123.626 123.435 123.605 123.38 123.605 123.323C123.605 123.265 123.626 123.21 123.664 123.167C124.065 122.749 124.499 122.366 124.964 122.021C125.455 121.652 126.013 121.383 126.608 121.227C126.711 121.206 126.818 121.225 126.907 121.281C126.997 121.337 127.06 121.426 127.085 121.528C127.108 121.632 127.089 121.741 127.031 121.831C126.974 121.92 126.883 121.983 126.78 122.006L126.756 122.025Z" fill="#DE856C"/>
<path d="M128.189 121.428C128.796 120.879 128.385 119.488 128.385 119.488C127.049 119.507 125.737 119.85 124.562 120.487L124.911 121.29C125.043 121.652 125.275 121.971 125.58 122.207C126.039 122.503 127.611 121.944 128.189 121.428Z" fill="#DE856C"/>
<path d="M125.978 122.454C126.325 122.258 126.66 122.041 126.982 121.804C127.135 121.692 127.282 121.571 127.421 121.441C127.528 121.352 127.615 121.242 127.674 121.116C127.69 121.011 127.743 120.916 127.825 120.849C127.907 120.781 128.011 120.747 128.117 120.753C128.223 120.758 128.323 120.803 128.397 120.878C128.472 120.953 128.516 121.053 128.52 121.159C128.517 121.218 128.501 121.275 128.472 121.326L128.429 121.412C128.3 121.652 128.113 121.856 127.885 122.005C127.706 122.133 127.52 122.25 127.326 122.354C126.955 122.553 126.574 122.732 126.184 122.889C126.124 122.913 126.058 122.912 125.999 122.887C125.94 122.862 125.893 122.814 125.868 122.755C125.847 122.701 125.846 122.642 125.865 122.587C125.885 122.533 125.923 122.487 125.973 122.459L125.978 122.454Z" fill="#DE856C"/>
<path d="M131.984 98.9236C131.984 98.9236 132.868 105.933 134.435 106.721C137.78 108.394 142.415 107.232 143.595 104.198C143.987 103.186 141.134 101.25 140.728 99.1816C140.279 96.8595 131.984 98.9236 131.984 98.9236Z" fill="#6278BF"/>
<path d="M136.637 106.4L140.994 106.639C141.178 106.65 141.357 106.698 141.521 106.78C141.685 106.862 141.831 106.977 141.95 107.117C143.206 108.55 143.058 109.926 142.8 111.522C142.528 113.194 141.744 114.556 141.845 116.333C141.963 117.664 142.331 118.961 142.929 120.156C142.929 120.156 141.768 120.81 138.815 120.634C135.863 120.457 134.515 119.678 134.515 119.678L134.367 109.797C134.604 108.808 134.979 107.858 135.48 106.973C135.609 106.787 135.782 106.637 135.984 106.537C136.187 106.436 136.411 106.389 136.637 106.4Z" fill="#7460C9"/>
<path d="M138.381 113.735C138.056 113.736 137.737 113.647 137.46 113.478C137.183 113.31 136.957 113.068 136.809 112.779C136.871 113.153 137.063 113.493 137.35 113.74C137.637 113.987 138.002 114.125 138.381 114.131C138.748 114.126 139.103 114.003 139.395 113.78C139.687 113.557 139.899 113.247 140 112.894C139.822 113.158 139.58 113.373 139.297 113.52C139.014 113.667 138.699 113.741 138.381 113.735Z" fill="#5C44A8"/>
<path d="M134.623 109.109L133.443 111.269C133.386 111.371 133.359 111.486 133.364 111.603C133.369 111.719 133.406 111.832 133.471 111.928L134.752 113.93L136.453 112.559L134.623 109.109Z" fill="#7460C9"/>
<path d="M139.605 106.768L138.592 103.662L135.84 104.56L136.858 107.661L139.605 106.768Z" fill="#DE856C"/>
<path d="M139.609 106.768C139.695 107.026 139.132 107.442 138.391 107.69C137.65 107.939 136.958 107.925 136.862 107.667C136.766 107.409 137.34 106.993 138.08 106.744C138.821 106.496 139.523 106.506 139.609 106.768Z" fill="#DE856C"/>
<path d="M133.97 104.834C134.682 106.105 136.025 106.478 138.337 105.011C138.725 104.801 139.062 104.509 139.325 104.155C139.587 103.801 139.769 103.393 139.857 102.961L139.259 97.4617C139.221 97.2942 139.148 97.1365 139.045 96.9988C138.942 96.8611 138.812 96.7464 138.662 96.6618C138.512 96.5773 138.346 96.5249 138.175 96.508C138.004 96.491 137.832 96.5099 137.668 96.5634L132.131 98.3695C131.969 98.4224 131.819 98.5082 131.692 98.6215C131.565 98.7348 131.462 98.8731 131.391 99.0279C131.32 99.1826 131.281 99.3504 131.278 99.5208C131.274 99.6912 131.306 99.8604 131.371 100.018L133.97 104.834Z" fill="#FFAC91"/>
<path d="M137.992 95.3262C137.992 95.3262 141.26 95.7705 141.074 100.501C141.036 101.456 139.865 102.804 139.865 102.804L137.992 95.3262Z" fill="#6278BF"/>
<path d="M132.129 98.3687C132.129 98.3687 135.779 100.59 139.262 98.3687C139.262 98.3687 141.207 97.9626 139.645 95.8651C138.082 93.7675 134.169 93.8822 133.194 96.0275C132.401 97.7858 132.129 98.3687 132.129 98.3687Z" fill="#6278BF"/>
<path d="M130.611 99.1045C130.658 97.3415 131.695 95.9558 134.108 94.9668C134.108 94.9668 136.497 100.7 132.594 101.226C131.399 101.388 130.572 100.313 130.611 99.1045Z" fill="#6278BF"/>
<path d="M139.841 99.5114C139.773 99.2203 139.594 98.9671 139.342 98.8063C139.091 98.6455 138.786 98.5899 138.493 98.6514C137.987 98.7947 138.847 101.193 139.449 100.792C139.642 100.648 139.785 100.447 139.855 100.216C139.926 99.9857 139.921 99.7387 139.841 99.5114Z" fill="#FFAC91"/>
<path d="M137.031 98.8416L138.24 98.2109L138.799 99.4628C139.162 100.418 138.985 100.418 138.971 100.418C138.307 100.667 137.232 99.3529 137.031 98.8416Z" fill="#6278BF"/>
<path d="M114.176 115.12L114.916 114.542L116.187 114.485L126.966 114.021L130.172 123.644L118.122 124.165L115.093 115.082L114.176 115.12Z" fill="#8147B5"/>
<path d="M117.377 124.749L129.432 124.228L126.226 114.605L114.176 115.121L117.377 124.749Z" fill="#A06DCE"/>
<path d="M120.723 117.697C120.723 117.697 121.2 117.697 121.325 118.361" stroke="#C7F5EC" stroke-width="0.191119" stroke-linecap="round" stroke-linejoin="round"/>
<path d="M120.72 118.877C120.76 119.068 120.865 119.239 121.018 119.361C121.17 119.484 121.36 119.549 121.556 119.546C121.644 119.545 121.731 119.524 121.81 119.484C121.889 119.445 121.959 119.388 122.013 119.318C122.067 119.249 122.105 119.167 122.123 119.081C122.142 118.995 122.14 118.905 122.12 118.819C122.08 118.629 121.975 118.458 121.824 118.336C121.672 118.214 121.483 118.149 121.288 118.15C121.2 118.151 121.112 118.171 121.032 118.21C120.953 118.249 120.883 118.306 120.828 118.376C120.773 118.446 120.735 118.527 120.716 118.614C120.698 118.701 120.699 118.79 120.72 118.877Z" fill="#C7F5EC"/>
<path d="M121.005 120.123C120.976 119.985 120.907 119.858 120.807 119.758C120.707 119.658 120.58 119.589 120.441 119.56C120.511 119.354 120.642 119.175 120.818 119.048C120.993 118.92 121.204 118.85 121.421 118.848C121.77 118.844 122.109 118.961 122.381 119.18C122.653 119.399 122.841 119.705 122.912 120.047C122.948 120.201 122.95 120.362 122.916 120.517C122.882 120.672 122.813 120.817 122.716 120.942C122.618 121.067 122.493 121.168 122.351 121.238C122.209 121.308 122.052 121.345 121.894 121.347C121.653 121.348 121.416 121.292 121.201 121.184C120.987 121.075 120.802 120.916 120.661 120.721C120.724 120.705 120.782 120.677 120.834 120.639C120.885 120.6 120.928 120.551 120.96 120.495C120.993 120.44 121.013 120.378 121.021 120.314C121.028 120.25 121.023 120.185 121.005 120.123Z" fill="#C7F5EC"/>
<path d="M129.04 124.253L136.711 123.922L136.652 122.566L128.981 122.897L129.04 124.253Z" fill="#8147B5"/>
<path d="M143.15 109.129L140.938 118.651V118.747C140.885 118.977 140.766 119.187 140.597 119.351C140.427 119.516 140.214 119.628 139.983 119.674L135.104 120.677L132.667 121.189C131.86 121.361 131.024 121.533 130.278 121.714H130.245C130.019 121.764 129.783 121.725 129.585 121.605C129.387 121.485 129.242 121.294 129.181 121.071C129.119 120.848 129.146 120.61 129.255 120.406C129.364 120.202 129.548 120.048 129.767 119.975C130.608 119.703 131.382 119.473 132.19 119.234L134.579 118.527L139.357 117.127L138.401 118.15L139.849 108.479C139.916 108.036 140.157 107.637 140.518 107.371C140.879 107.105 141.331 106.993 141.774 107.06C142.218 107.127 142.616 107.368 142.883 107.729C143.149 108.09 143.26 108.542 143.193 108.986C143.182 109.034 143.168 109.082 143.15 109.129Z" fill="#FFAC91"/>
<path d="M128.165 118.689C128.328 118.728 128.488 118.779 128.643 118.842C128.81 118.907 128.971 118.988 129.121 119.086C129.457 119.303 129.726 119.612 129.895 119.975L129.943 120.085C129.978 120.162 129.998 120.245 130.001 120.33C130.003 120.415 129.99 120.499 129.96 120.579C129.93 120.658 129.885 120.731 129.827 120.793C129.769 120.855 129.7 120.905 129.623 120.94C129.546 120.975 129.463 120.995 129.378 120.998C129.294 121 129.21 120.987 129.131 120.957C129.052 120.927 128.979 120.882 128.918 120.824C128.856 120.766 128.807 120.697 128.772 120.62C128.725 120.522 128.705 120.413 128.715 120.304C128.723 120.091 128.663 119.879 128.543 119.702C128.473 119.592 128.391 119.489 128.299 119.397C128.206 119.3 128.105 119.21 127.998 119.129H127.974C127.949 119.111 127.928 119.088 127.912 119.061C127.896 119.034 127.886 119.005 127.881 118.974C127.877 118.944 127.879 118.912 127.886 118.882C127.894 118.852 127.908 118.824 127.926 118.799C127.952 118.761 127.988 118.73 128.03 118.71C128.072 118.691 128.119 118.684 128.165 118.689Z" fill="#FFAC91"/>
<path d="M129.806 119.856C129.955 119.898 130.093 119.971 130.211 120.071C130.329 120.171 130.424 120.295 130.49 120.435C130.604 120.678 130.738 121.357 130.456 121.533C129.694 121.973 128.794 122.104 127.938 121.901C127.393 121.825 127.202 121.787 127.284 121.275C127.328 120.97 127.395 120.668 127.484 120.372C127.532 120.239 127.615 120.122 127.724 120.033C127.834 119.943 127.965 119.886 128.105 119.866C128.665 119.743 129.245 119.74 129.806 119.856Z" fill="#FFAC91"/>
<path d="M128.405 120.61C127.935 120.634 127.465 120.634 126.995 120.61C126.518 120.581 126.069 120.534 125.61 120.467C125.576 120.462 125.543 120.451 125.513 120.433C125.483 120.416 125.457 120.393 125.436 120.365C125.415 120.338 125.4 120.306 125.391 120.273C125.383 120.24 125.381 120.205 125.385 120.171C125.397 120.106 125.431 120.048 125.482 120.007C125.533 119.965 125.597 119.944 125.662 119.946C126.107 119.97 126.556 119.975 127.005 119.946C127.446 119.934 127.887 119.897 128.324 119.836C128.375 119.829 128.427 119.831 128.477 119.844C128.527 119.857 128.574 119.88 128.616 119.911C128.657 119.942 128.692 119.981 128.718 120.025C128.744 120.07 128.761 120.119 128.768 120.171C128.782 120.274 128.754 120.378 128.692 120.461C128.629 120.544 128.537 120.6 128.434 120.615L128.405 120.61Z" fill="#FFAC91"/>
<path d="M127.997 121.171C127.726 121.185 127.455 121.185 127.184 121.171C126.921 121.171 126.654 121.142 126.391 121.109C125.865 121.047 125.347 120.927 124.848 120.751C124.787 120.726 124.738 120.68 124.71 120.621C124.681 120.562 124.676 120.495 124.694 120.433C124.713 120.37 124.754 120.316 124.81 120.282C124.865 120.249 124.932 120.237 124.996 120.249C125.465 120.367 125.946 120.435 126.429 120.45C126.673 120.45 126.907 120.45 127.16 120.45C127.399 120.437 127.637 120.411 127.872 120.373C127.975 120.358 128.079 120.382 128.164 120.442C128.248 120.502 128.306 120.592 128.326 120.693C128.343 120.796 128.318 120.902 128.257 120.987C128.196 121.072 128.104 121.13 128.001 121.147L127.997 121.171Z" fill="#FFAC91"/>
<path d="M127.613 121.789C127.366 121.778 127.12 121.751 126.877 121.708C126.643 121.67 126.399 121.622 126.179 121.565C125.719 121.454 125.265 121.313 124.822 121.144C124.771 121.114 124.732 121.067 124.711 121.011C124.691 120.955 124.69 120.893 124.71 120.837C124.73 120.78 124.768 120.733 124.819 120.702C124.87 120.671 124.931 120.658 124.99 120.667C125.422 120.784 125.861 120.875 126.304 120.939C126.523 120.968 126.743 120.992 126.963 121.006C127.176 121.018 127.39 121.018 127.603 121.006C127.655 121.003 127.706 121.01 127.755 121.027C127.803 121.045 127.848 121.071 127.887 121.105C127.925 121.14 127.956 121.181 127.978 121.228C128.001 121.274 128.014 121.325 128.017 121.376C128.019 121.428 128.012 121.479 127.995 121.528C127.978 121.576 127.951 121.621 127.917 121.66C127.883 121.698 127.841 121.729 127.795 121.751C127.748 121.774 127.698 121.787 127.646 121.789H127.613Z" fill="#FFAC91"/>
<path d="M128.568 121.695C128.294 121.747 128.016 121.779 127.737 121.791C127.463 121.807 127.188 121.807 126.915 121.791C126.358 121.754 125.814 121.613 125.309 121.375C125.248 121.344 125.201 121.29 125.178 121.225C125.156 121.16 125.16 121.088 125.19 121.026C125.22 120.968 125.27 120.923 125.33 120.899C125.391 120.876 125.458 120.875 125.52 120.897C125.978 121.067 126.465 121.146 126.953 121.131C127.198 121.128 127.442 121.11 127.684 121.079C127.921 121.047 128.155 121 128.386 120.94C128.486 120.915 128.591 120.929 128.68 120.98C128.769 121.031 128.835 121.114 128.864 121.212C128.888 121.312 128.873 121.417 128.823 121.505C128.772 121.594 128.69 121.66 128.592 121.69L128.568 121.695Z" fill="#FFAC91"/>
<path d="M133.77 146.359C133.77 146.566 133.833 146.769 133.949 146.941C134.065 147.114 134.23 147.248 134.422 147.326C134.614 147.405 134.825 147.425 135.029 147.384C135.232 147.343 135.419 147.243 135.566 147.095C135.712 146.948 135.812 146.761 135.852 146.557C135.892 146.353 135.871 146.142 135.791 145.951C135.712 145.759 135.577 145.595 135.404 145.48C135.231 145.364 135.028 145.303 134.821 145.303C134.682 145.303 134.545 145.33 134.417 145.383C134.289 145.436 134.173 145.514 134.076 145.612C133.978 145.71 133.901 145.827 133.848 145.955C133.796 146.083 133.769 146.22 133.77 146.359Z" fill="#666488"/>
<path d="M134.793 144.076V146.355" stroke="#666488" stroke-width="1.12283" stroke-linecap="round" stroke-linejoin="round"/>
<path d="M145.528 147.405C146.108 147.405 146.579 146.934 146.579 146.354C146.579 145.773 146.108 145.303 145.528 145.303C144.947 145.303 144.477 145.773 144.477 146.354C144.477 146.934 144.947 147.405 145.528 147.405Z" fill="#666488"/>
<path d="M145.5 144.076V146.355" stroke="#666488" stroke-width="1.12283" stroke-linecap="round" stroke-linejoin="round"/>
<path d="M140.997 131.141L140.672 143.563C140.672 143.69 140.622 143.812 140.532 143.901C140.442 143.991 140.321 144.041 140.194 144.041C140.067 144.041 139.946 143.991 139.856 143.901C139.767 143.812 139.716 143.69 139.716 143.563L139.387 131.141C139.396 130.939 139.481 130.749 139.625 130.607C139.769 130.466 139.961 130.385 140.162 130.379C140.364 130.374 140.56 130.445 140.711 130.578C140.863 130.711 140.958 130.897 140.978 131.098L140.997 131.141Z" fill="#9692C6"/>
<path d="M134.816 144.076H145.524" stroke="#9692C6" stroke-width="1.12283" stroke-linecap="round" stroke-linejoin="round"/>
<path d="M139.145 146.359C139.145 146.568 139.206 146.772 139.322 146.945C139.439 147.119 139.603 147.254 139.796 147.334C139.989 147.414 140.202 147.435 140.406 147.394C140.611 147.354 140.799 147.253 140.947 147.105C141.095 146.958 141.195 146.769 141.236 146.565C141.277 146.36 141.256 146.148 141.176 145.955C141.096 145.762 140.961 145.597 140.787 145.481C140.613 145.365 140.409 145.303 140.2 145.303C139.92 145.303 139.652 145.414 139.454 145.612C139.256 145.81 139.145 146.079 139.145 146.359Z" fill="#9692C6"/>
<path d="M140.199 144.076V146.25" stroke="#9692C6" stroke-width="1.12283" stroke-linecap="round" stroke-linejoin="round"/>
<path d="M135.938 133.058L149.378 132.499V129.785H135.938V133.058Z" fill="#CE6A77"/>
<path d="M141.326 131.848H146.438C147.76 131.848 148.832 130.776 148.832 129.454V123.811C148.832 122.489 147.76 121.417 146.438 121.417H141.326C140.004 121.417 138.932 122.489 138.932 123.811V129.454C138.932 130.776 140.004 131.848 141.326 131.848Z" stroke="#CE6A77" stroke-width="1.12283" stroke-miterlimit="10"/>
<g opacity="0.64">
<path d="M121.899 111.849L118.234 108.896L120.805 107.377L121.899 111.849Z" fill="#DB698B"/>
<path d="M116.514 109.503C120.011 109.503 122.845 106.669 122.845 103.173C122.845 99.6762 120.011 96.8418 116.514 96.8418C113.018 96.8418 110.184 99.6762 110.184 103.173C110.184 106.669 113.018 109.503 116.514 109.503Z" fill="#DB698B"/>
<path d="M119.968 102.121C119.968 101.664 119.786 101.225 119.463 100.902C119.139 100.578 118.7 100.396 118.243 100.396C117.785 100.396 117.347 100.578 117.023 100.902C116.7 101.225 116.518 101.664 116.518 102.121C116.495 101.679 116.303 101.262 115.981 100.957C115.66 100.653 115.234 100.483 114.791 100.483C114.348 100.483 113.922 100.653 113.6 100.957C113.279 101.262 113.087 101.679 113.064 102.121C113.064 102.121 112.906 104.181 116.528 106.57C120.125 104.181 119.968 102.121 119.968 102.121Z" fill="white"/>
</g>
<path d="M102.238 132.766C108.859 132.766 114.226 131.613 114.226 130.191C114.226 128.768 108.859 127.615 102.238 127.615C95.6172 127.615 90.25 128.768 90.25 130.191C90.25 131.613 95.6172 132.766 102.238 132.766Z" fill="#D2DCE0"/>
<path d="M104.626 100.472C104.999 103.339 102.376 111.461 101.578 114.672C102.351 117.3 102.753 120.022 102.773 122.761C102.773 122.761 102.194 127.142 102.194 127.893L100.623 127.84C100.56 127.095 98.4868 117.83 97.7271 114.304C97.1585 111.667 98.1571 105.622 99.2895 100.027C101.889 99.5543 104.368 98.4458 104.626 100.472Z" fill="#E3A5A2"/>
<path d="M100.604 127.84L98.8794 128.404C97.9524 128.614 97.2453 128.824 96.7341 128.991C96.4044 129.101 96.1941 129.378 96.3661 129.632C96.397 129.679 96.4377 129.72 96.4855 129.75C96.5333 129.781 96.5871 129.8 96.6433 129.808H101.846C101.941 129.816 102.036 129.787 102.109 129.726C102.182 129.665 102.229 129.578 102.238 129.483V129.206V127.849L100.604 127.84Z" fill="#8C3878"/>
<path d="M107.658 101.227C108.054 102.407 108.217 105.183 108.198 107.371C108.174 110.176 106.344 113.583 106.353 117.042C108.073 119.144 107.763 121.524 107.753 123.444C107.753 123.444 107.753 128.605 107.753 129.36L106.172 129.589C106.1 128.844 103.783 121.399 102.631 117.372C101.623 113.807 100.395 105.455 101.375 100.305C104.022 100.644 105.03 100.835 107.658 101.227Z" fill="#FFB9B6"/>
<path d="M107.896 97.5469C107.896 97.5469 110.352 102.277 108.742 108.904C107.065 109.573 99.4823 109.353 97.6953 107.337C97.6953 107.337 97.6953 101.895 99.401 98.2254L107.896 97.5469Z" fill="#8577CE"/>
<path d="M106.11 129.197L104.476 129.784C103.554 130.004 102.852 130.224 102.341 130.401C102.016 130.515 101.805 130.797 101.982 131.046C102.014 131.093 102.056 131.132 102.105 131.161C102.153 131.19 102.208 131.207 102.264 131.213L107.463 131.132C107.558 131.14 107.653 131.109 107.726 131.048C107.8 130.986 107.846 130.898 107.854 130.802V130.525V129.168L106.11 129.197Z" fill="#8C3878"/>
<path d="M101.714 86.5777L97.1945 91.4512L97.0655 91.5946C96.9512 91.717 96.8128 91.8146 96.6591 91.8812C96.5053 91.9478 96.3395 91.982 96.172 91.9816C95.785 91.9816 95.4935 91.9577 95.1638 91.929C94.8342 91.9004 94.5284 91.8717 94.2082 91.8383C93.5823 91.7666 92.9612 91.6758 92.3448 91.5802C91.1121 91.3796 89.8985 91.1407 88.6897 90.8635C88.4362 90.8205 88.2103 90.6785 88.0615 90.4688C87.9128 90.2591 87.8534 89.9989 87.8965 89.7455C87.9396 89.4921 88.0816 89.2661 88.2913 89.1174C88.501 88.9686 88.7611 88.9093 89.0146 88.9523C90.2091 89.0861 91.4004 89.1817 92.5885 89.239C93.181 89.2629 93.7734 89.282 94.3564 89.282C94.6526 89.282 94.944 89.282 95.2307 89.282C95.5078 89.282 95.8232 89.2581 96.0478 89.2342L95.0253 89.7694L98.6088 84.1744C98.8907 83.7308 99.3373 83.4175 99.8503 83.3033C100.363 83.189 100.901 83.2832 101.344 83.5652C101.788 83.8471 102.101 84.2937 102.215 84.8067C102.33 85.3197 102.235 85.857 101.953 86.3006C101.883 86.4009 101.803 86.4938 101.714 86.5777Z" fill="#E3A5A2"/>
<path d="M100.894 81.0443C99.7621 81.3883 98.9212 82.7739 98.5485 83.4333L96.4414 87.2557C97.1103 87.6809 97.7697 88.1253 98.4338 88.5648L99.6188 89.3675L102.906 84.3077L102.022 81.0156L100.894 81.0443Z" fill="#CF8655"/>
<path d="M87.1037 90.2276C87.0354 90.2199 86.9665 90.2199 86.8982 90.2276C86.8074 90.2276 86.7167 90.2276 86.6211 90.261C86.4282 90.3025 86.2382 90.3567 86.0525 90.4235C85.6648 90.5712 85.2933 90.7585 84.944 90.9825C84.8812 91.022 84.8053 91.0351 84.7328 91.019C84.6604 91.0029 84.5972 90.9589 84.557 90.8965C84.52 90.84 84.5049 90.7719 84.5146 90.705C84.5243 90.6381 84.558 90.5771 84.6096 90.5334C84.9531 90.2259 85.3278 89.9553 85.7276 89.7259C85.9352 89.6058 86.1526 89.5035 86.3774 89.4201C86.4962 89.3762 86.6174 89.3396 86.7405 89.3102C86.8849 89.268 87.0345 89.2471 87.1849 89.2481H87.5146C87.6679 89.2481 87.815 89.309 87.9234 89.4174C88.0318 89.5258 88.0927 89.6729 88.0927 89.8262C88.0927 89.9795 88.0318 90.1266 87.9234 90.235C87.815 90.3434 87.6679 90.4044 87.5146 90.4044C87.3598 90.4014 87.2123 90.3379 87.1037 90.2276Z" fill="#E3A5A2"/>
<path d="M87.6192 89.845C87.4183 89.7904 87.211 89.7631 87.0029 89.7638C86.78 89.7567 86.5571 89.776 86.3387 89.8211C85.8856 89.9176 85.4566 90.1045 85.0773 90.3706C85.0466 90.3913 85.0121 90.4058 84.9757 90.4132C84.9394 90.4206 84.902 90.4207 84.8656 90.4136C84.8292 90.4065 84.7945 90.3923 84.7636 90.3718C84.7328 90.3513 84.7062 90.3249 84.6855 90.2941C84.6474 90.2387 84.6307 90.1713 84.6386 90.1045C84.6466 90.0377 84.6785 89.976 84.7285 89.931C85.1335 89.553 85.6115 89.2619 86.1333 89.0758C86.3994 88.9813 86.6749 88.9157 86.9551 88.8799C87.253 88.8369 87.5555 88.8369 87.8533 88.8799C87.9801 88.8995 88.0938 88.9687 88.1695 89.0722C88.2452 89.1757 88.2767 89.305 88.2571 89.4317C88.2374 89.5584 88.1683 89.6722 88.0648 89.7479C87.9613 89.8236 87.8319 89.8551 87.7052 89.8354H87.6336L87.6192 89.845Z" fill="#E3A5A2"/>
<path d="M87.812 90.8574C87.7453 90.864 87.678 90.864 87.6113 90.8574H87.3438H86.9902C86.7546 90.8722 86.52 90.9009 86.2878 90.9434C85.8125 91.0369 85.3481 91.1794 84.9022 91.3686C84.8331 91.3971 84.7556 91.397 84.6866 91.3683C84.6176 91.3396 84.5628 91.2848 84.5343 91.2157C84.5076 91.1536 84.5045 91.0839 84.5256 91.0196C84.5467 90.9554 84.5906 90.9011 84.649 90.867C85.1033 90.5968 85.5835 90.3727 86.0824 90.198C86.3393 90.1128 86.6009 90.0426 86.866 89.9878C86.9997 89.9591 87.1335 89.94 87.2721 89.9209L87.4728 89.897H87.5731C87.6359 89.8792 87.7016 89.8745 87.7663 89.8831C87.831 89.8917 87.8933 89.9134 87.9492 89.947C88.0052 89.9806 88.0537 90.0252 88.0917 90.0783C88.1297 90.1313 88.1565 90.1916 88.1703 90.2554C88.1889 90.3185 88.1942 90.3847 88.186 90.45C88.1778 90.5152 88.1562 90.5781 88.1225 90.6346C88.0889 90.6911 88.0439 90.74 87.9905 90.7784C87.9371 90.8167 87.8763 90.8436 87.812 90.8574Z" fill="#E3A5A2"/>
<path d="M88.0754 91.2078C87.5752 91.1338 87.0652 91.1598 86.5751 91.2842C86.0457 91.4129 85.5278 91.5855 85.027 91.8002C84.9936 91.8151 84.9574 91.823 84.9208 91.8235C84.8842 91.824 84.8479 91.8172 84.814 91.8033C84.7801 91.7895 84.7493 91.769 84.7236 91.743C84.6978 91.717 84.6775 91.6861 84.6639 91.6521C84.6362 91.5889 84.6331 91.5176 84.6552 91.4522C84.6773 91.3868 84.723 91.332 84.7834 91.2986C85.2855 91.0019 85.8132 90.7508 86.3601 90.5484C86.9408 90.3202 87.5616 90.2113 88.1853 90.2283C88.2499 90.2314 88.3133 90.2473 88.3718 90.2749C88.4303 90.3025 88.4828 90.3414 88.5263 90.3893C88.5698 90.4372 88.6034 90.4933 88.6252 90.5542C88.647 90.6151 88.6567 90.6797 88.6535 90.7443C88.6504 90.8089 88.6346 90.8723 88.6069 90.9308C88.5793 90.9893 88.5404 91.0418 88.4925 91.0853C88.4446 91.1288 88.3886 91.1624 88.3277 91.1842C88.2668 91.2061 88.2021 91.2157 88.1375 91.2125L88.0754 91.2078Z" fill="#E3A5A2"/>
<path d="M89.6253 90.9483C90.3659 90.5995 90.3611 89.147 90.3611 89.147C89.0808 88.7907 87.7332 88.7498 86.4336 89.0275L86.5387 89.8924C86.5615 90.2797 86.6941 90.6526 86.9209 90.9674C87.2602 91.3735 88.9229 91.278 89.6253 90.9483Z" fill="#E3A5A2"/>
<path d="M87.2073 91.2794C87.5923 91.1834 87.9719 91.067 88.3445 90.9306C88.5211 90.8631 88.6934 90.7849 88.8605 90.6965C88.9751 90.6474 89.0765 90.5721 89.1567 90.4767C89.1051 90.3595 89.0862 90.2303 89.1022 90.1032C89.1182 89.976 89.1685 89.8556 89.2477 89.7548C89.3268 89.654 89.4319 89.5766 89.5517 89.5309C89.6714 89.4852 89.8013 89.4729 89.9275 89.4953C90.0537 89.5177 90.1715 89.574 90.2681 89.6582C90.3648 89.7423 90.4368 89.8512 90.4764 89.9731C90.516 90.095 90.5217 90.2254 90.4929 90.3503C90.4641 90.4752 90.402 90.5899 90.313 90.6822L89.9308 91.0788C89.73 91.2836 89.4799 91.4333 89.2045 91.5136C88.9929 91.5815 88.7775 91.6374 88.5595 91.6808C88.1423 91.7608 87.7213 91.8198 87.2981 91.8576C87.2249 91.8642 87.1519 91.8429 87.0937 91.7979C87.0356 91.753 86.9965 91.6877 86.9844 91.6152C86.9724 91.5427 86.9881 91.4683 87.0286 91.4069C87.069 91.3455 87.1312 91.3017 87.2025 91.2842L87.2073 91.2794Z" fill="#E3A5A2"/>
<path d="M108.195 76.9445C106.551 75.664 108.424 74.479 108.424 74.479L104.645 72.9453C104.645 72.9453 101.563 76.1991 100.373 76.7151C99.1835 77.2312 97.1719 79.3382 100.168 80.8242C100.641 81.0957 101.172 81.2507 101.717 81.2764C102.262 81.3022 102.805 81.1979 103.302 80.9723C103.882 81.1271 104.473 81.2342 105.07 81.2924C105.35 81.3014 105.63 81.2838 105.906 81.2399C106.217 81.3444 106.537 81.418 106.862 81.4597C109.585 81.8228 109.838 78.2154 108.195 76.9445Z" fill="#5E7CFF"/>
<path d="M106.876 83.5153C106.375 81.3604 105.653 80.5529 103.627 80.5481H101.124C101.049 80.5412 100.974 80.5412 100.899 80.5481C100.42 80.6142 99.9805 80.8495 99.6598 81.2114C99.3391 81.5733 99.1584 82.0379 99.1504 82.5214C99.1575 82.6025 99.1575 82.684 99.1504 82.7651C98.9019 83.8833 98.545 84.9747 98.0849 86.0237C97.8508 86.6114 97.4685 88.1786 98.706 89.2775C98.8479 89.3946 98.9638 89.5402 99.046 89.7048C99.1283 89.8693 99.1753 90.0493 99.1838 90.2331C99.2459 92.947 99.8241 95.0111 99.3845 97.3619C99.3258 97.6911 99.3992 98.0302 99.5888 98.3057C99.7784 98.5811 100.069 98.7708 100.397 98.8335C103.312 99.4116 104.578 99.4021 107.115 98.9481C107.799 98.8287 108.42 98.1502 108.157 97.5147C105.906 92.0965 107.225 85.0251 106.876 83.5153Z" fill="#F29E64"/>
<path d="M104.34 80.9299C104.34 80.9299 102.405 82.7312 101.951 82.4445C101.688 82.2821 101.588 80.9108 101.588 80.9108C101.819 79.8616 101.786 78.7715 101.492 77.7382C101.822 77.012 103.805 76.8638 104.359 77.8385C104.209 78.8631 104.202 79.9036 104.34 80.9299Z" fill="#E3A5A2"/>
<path d="M107.033 76.6342C107.033 76.6342 107.31 77.5898 105.461 78.2444L106.813 75.6309L107.033 76.6342Z" fill="#5E7CFF"/>
<path d="M99.9068 72.1289C99.9068 72.1289 98.3014 74.9957 99.8112 76.8209L100.375 76.711L99.9068 72.1289Z" fill="#5E7CFF"/>
<path d="M99.0578 75.2822C99.2059 75.8747 99.5929 76.2904 99.9226 76.2092C100.252 76.1279 100.4 75.5832 100.257 74.986C100.114 74.3887 99.7267 73.9778 99.397 74.0591C99.0673 74.1403 98.9144 74.685 99.0578 75.2822Z" fill="#E3A5A2"/>
<path d="M100.283 72.9638C100.283 72.9638 100.426 75.6156 99.8531 75.6299C99.0074 75.6538 98.7876 73.6518 99.1937 72.6055L100.283 72.9638Z" fill="#5E7CFF"/>
<path d="M106.945 71.7227C106.586 71.1761 106.104 70.7214 105.537 70.3952C104.97 70.0691 104.334 69.8806 103.682 69.845H103.543H103.409C102.067 69.7924 101.56 69.6921 100.681 70.6907C99.5533 71.976 99.8543 74.5847 99.8209 75.4113C99.7253 77.7525 99.8926 79.4439 102.071 79.5252C104.35 79.6064 106.72 78.1443 106.954 75.7028C107.036 74.881 107.413 72.406 106.945 71.7227Z" fill="#FFB9B6"/>
<path d="M107.229 71.8125C107.229 71.8125 109.141 72.6773 108.864 75.1905C108.749 76.2799 107.874 77.1017 106.293 76.8867L107.229 71.8125Z" fill="#5E7CFF"/>
<path d="M101.891 68.6887C102.312 68.5645 102.747 68.4923 103.185 68.4737C104.466 68.3925 105.875 68.4259 106.941 69.1952C109.029 70.7146 109.373 73.7486 107.562 75.9512C107.342 76.0803 104.767 75.9035 103.391 75.1342C102.22 74.4749 101.332 72.7452 101.69 71.8183C100.534 72.0142 100.256 72.1002 100.878 70.8627C101.355 69.9453 100.878 70.8627 100.921 69.7399C100.949 69.484 101.058 69.2438 101.233 69.0547C101.407 68.8655 101.638 68.7372 101.891 68.6887Z" fill="#5E7CFF"/>
<path d="M101.391 68.9501C101.391 68.9501 103.488 66.4895 106.646 68.4437C107.917 69.2273 109.212 71.1576 108.414 72.6292L101.391 68.9501Z" fill="#5E7CFF"/>
<path d="M102.241 70.6034C102.241 70.6034 102.15 73.2982 99.7607 73.6422C99.7607 73.6422 97.4052 72.3426 98.5997 70.0635C99.1635 68.998 100.033 68.7448 101.39 68.9503L102.241 70.6034Z" fill="#5E7CFF"/>
<path d="M107.563 75.9518C107.333 76.6351 106.841 77.0842 106.459 76.96C106.077 76.8357 105.957 76.1716 106.187 75.4884C106.416 74.8051 106.908 74.356 107.29 74.485C107.673 74.614 107.792 75.2686 107.563 75.9518Z" fill="#FFB9B6"/>
<path d="M106.19 75.5115C106.19 75.5115 106.993 76.8445 106.162 76.9449C106.162 76.9449 104.25 76.9448 104.523 75.0098L106.19 75.5115Z" fill="#5E7CFF"/>
<path d="M70.3828 81.9044L71.3097 81.2402H72.8387H85.8444L89.2033 92.9941H74.6687L71.4961 81.9044H70.3828Z" fill="#614EB5"/>
<path d="M73.7465 93.6581H88.2811L84.9222 81.9043H70.3828L73.7465 93.6581Z" fill="#8577CE"/>
<path d="M78.7817 85.3066C78.7817 85.3066 78.3039 85.3688 78.4807 86.0998" stroke="#C7E5F5" stroke-width="0.229343" stroke-linecap="round" stroke-linejoin="round"/>
<path d="M79.368 86.6345C79.4039 86.7243 79.4172 86.8216 79.4069 86.9178C79.3965 87.0139 79.3628 87.1061 79.3085 87.1862C79.2543 87.2664 79.1813 87.332 79.0959 87.3774C79.0105 87.4228 78.9153 87.4466 78.8185 87.4467C78.5969 87.4363 78.3844 87.355 78.2124 87.2148C78.0404 87.0746 77.9179 86.8829 77.8629 86.6679C77.8295 86.5801 77.8175 86.4855 77.8278 86.3921C77.8381 86.2987 77.8706 86.2091 77.9224 86.1306C77.9742 86.0522 78.0439 85.9872 78.1258 85.9411C78.2077 85.8949 78.2994 85.8689 78.3933 85.8652C78.6177 85.8687 78.8347 85.9459 79.0108 86.085C79.1869 86.224 79.3125 86.4171 79.368 86.6345Z" fill="#C7E5F5"/>
<path d="M79.6951 88.0829C79.6704 88.0168 79.6594 87.9464 79.6627 87.876C79.666 87.8055 79.6837 87.7365 79.7145 87.673C79.7453 87.6096 79.7887 87.553 79.842 87.5069C79.8954 87.4607 79.9575 87.4259 80.0247 87.4044C79.8623 87.1805 79.6509 86.9966 79.4066 86.8666C79.1624 86.7366 78.8917 86.664 78.6152 86.6543C77.8842 86.6543 77.4685 87.3041 77.6596 88.0877C77.7641 88.4702 77.9821 88.812 78.285 89.068C78.5879 89.3239 78.9612 89.4819 79.3558 89.5211C79.5899 89.5437 79.8242 89.4792 80.0137 89.34C80.2033 89.2007 80.3348 88.9964 80.3831 88.7662C80.2206 88.7185 80.0726 88.631 79.9525 88.5117C79.8323 88.3924 79.7439 88.245 79.6951 88.0829Z" fill="#C7E5F5"/>
<path d="M87.8115 93.6582H97.0664V92.0241H87.8115V93.6582Z" fill="#614EB5"/>
<path d="M105.724 86.262L101.386 94.332L101.305 94.4801C101.195 94.6836 101.034 94.8552 100.838 94.9782C100.642 95.1013 100.418 95.1716 100.187 95.1825L94.7159 95.4118L91.9829 95.5408C91.0799 95.5838 90.1386 95.6268 89.2882 95.6937H89.2499C89.0002 95.7021 88.7565 95.6162 88.5673 95.453C88.3782 95.2898 88.2574 95.0613 88.2291 94.8131C88.2007 94.5649 88.267 94.3151 88.4145 94.1135C88.5621 93.9119 88.7802 93.7732 89.0254 93.7252C89.981 93.5723 90.8697 93.4624 91.787 93.343L94.5105 92.9942L99.9574 92.3205L98.7581 93.1901L101.787 84.5467C101.881 84.2794 102.027 84.0332 102.217 83.8223C102.406 83.6114 102.635 83.4398 102.89 83.3173C103.146 83.1949 103.423 83.124 103.706 83.1086C103.989 83.0933 104.272 83.1338 104.539 83.228C104.807 83.3221 105.053 83.4679 105.264 83.6572C105.475 83.8464 105.646 84.0753 105.769 84.3309C105.891 84.5865 105.962 84.8636 105.978 85.1466C105.993 85.4296 105.952 85.7128 105.858 85.9801C105.819 86.0767 105.775 86.1708 105.724 86.262Z" fill="#FFB9B6"/>
<path d="M87.5523 92.0425C87.727 92.1127 87.8963 92.1958 88.0588 92.2909C88.2277 92.3933 88.3876 92.51 88.5366 92.6397C88.8637 92.9331 89.0993 93.3147 89.215 93.7387L89.2533 93.8724C89.2774 93.9622 89.2837 94.0558 89.2717 94.1479C89.2596 94.2401 89.2296 94.3289 89.1832 94.4095C89.1369 94.49 89.0751 94.5606 89.0014 94.6172C88.9278 94.6739 88.8437 94.7155 88.754 94.7396C88.6642 94.7638 88.5706 94.7701 88.4785 94.758C88.3864 94.746 88.2975 94.716 88.217 94.6696C88.1364 94.6232 88.0658 94.5615 88.0092 94.4878C87.9525 94.4142 87.9109 94.3301 87.8868 94.2404C87.8557 94.1262 87.8557 94.0057 87.8868 93.8916C87.9307 93.6589 87.9007 93.4182 87.8008 93.2035C87.7435 93.0734 87.6747 92.9487 87.5953 92.8308C87.5116 92.7096 87.4173 92.5961 87.3134 92.4916V92.4677C87.2653 92.4186 87.2383 92.3526 87.2383 92.2838C87.2383 92.215 87.2653 92.1489 87.3134 92.0998C87.3459 92.0722 87.3845 92.0526 87.426 92.0427C87.4675 92.0327 87.5108 92.0327 87.5523 92.0425Z" fill="#FFB9B6"/>
<path d="M89.1306 93.5967C89.2836 93.6684 89.4194 93.7721 89.529 93.9006C89.6386 94.0292 89.7195 94.1797 89.7661 94.342C89.8473 94.6287 89.876 95.3884 89.5416 95.527C88.6378 95.8732 87.6356 95.8595 86.7417 95.4887C86.1683 95.3072 85.9628 95.2355 86.1396 94.6908C86.243 94.3639 86.3692 94.0446 86.5171 93.7352C86.5928 93.6 86.704 93.488 86.8388 93.4113C86.9735 93.3347 87.1266 93.2964 87.2816 93.3004C87.9118 93.2693 88.5417 93.3702 89.1306 93.5967Z" fill="#FFB9B6"/>
<path d="M87.479 94.1461C86.9653 94.0841 86.455 93.9964 85.95 93.8833C85.4722 93.7686 84.9562 93.6396 84.4689 93.4819C84.3968 93.4589 84.3368 93.4083 84.3019 93.3412C84.267 93.274 84.26 93.1958 84.2825 93.1236C84.3055 93.0552 84.3527 92.9976 84.4151 92.9616C84.4776 92.9255 84.5511 92.9135 84.6218 92.9277C85.0996 93.0328 85.5774 93.114 86.0552 93.1762C86.5329 93.2383 87.0394 93.2765 87.4885 93.2861C87.5491 93.2797 87.6104 93.2861 87.6684 93.3049C87.7263 93.3237 87.7797 93.3545 87.825 93.3953C87.8703 93.4361 87.9065 93.4859 87.9313 93.5416C87.956 93.5973 87.9689 93.6575 87.9689 93.7185C87.9689 93.7794 87.956 93.8397 87.9313 93.8953C87.9065 93.951 87.8703 94.0008 87.825 94.0416C87.7797 94.0824 87.7263 94.1132 87.6684 94.132C87.6104 94.1508 87.5491 94.1572 87.4885 94.1509L87.479 94.1461Z" fill="#FFB9B6"/>
<path d="M86.9474 94.7081C86.632 94.6794 86.3549 94.6365 86.0635 94.5839C85.772 94.5313 85.4949 94.4549 85.2178 94.3737C84.6548 94.2154 84.1115 93.9942 83.598 93.7143C83.5317 93.6779 83.4825 93.6169 83.461 93.5444C83.4396 93.4719 83.4476 93.3939 83.4834 93.3273C83.5179 93.2641 83.5746 93.216 83.6426 93.1922C83.7105 93.1684 83.7848 93.1705 83.8513 93.1983C84.3429 93.4148 84.8574 93.5751 85.385 93.6761C85.6478 93.7286 85.9106 93.7716 86.1781 93.8003C86.4384 93.8283 86.7 93.8426 86.9617 93.8433C87.0223 93.8369 87.0836 93.8434 87.1416 93.8622C87.1995 93.881 87.2529 93.9118 87.2982 93.9526C87.3434 93.9933 87.3797 94.0432 87.4044 94.0988C87.4292 94.1545 87.442 94.2148 87.442 94.2757C87.442 94.3366 87.4292 94.3969 87.4044 94.4526C87.3797 94.5082 87.3434 94.5581 87.2982 94.5989C87.2529 94.6396 87.1995 94.6704 87.1416 94.6892C87.0836 94.7081 87.0223 94.7145 86.9617 94.7081H86.9474Z" fill="#FFB9B6"/>
<path d="M86.4277 95.3124C86.1623 95.2567 85.9006 95.1849 85.6441 95.0973C85.3908 95.0113 85.1663 94.9206 84.9083 94.8202C84.4284 94.6185 83.9624 94.3855 83.5131 94.1226C83.4535 94.0838 83.4104 94.0242 83.3923 93.9554C83.3741 93.8866 83.3823 93.8135 83.415 93.7503C83.4478 93.6872 83.5029 93.6385 83.5696 93.6137C83.6363 93.5889 83.7098 93.5898 83.7759 93.6162C84.2225 93.8215 84.6822 93.997 85.1519 94.1417C85.3861 94.2134 85.6297 94.2803 85.8591 94.3329C86.0857 94.3884 86.3154 94.4299 86.5471 94.4571C86.6604 94.4715 86.7637 94.5294 86.835 94.6186C86.9064 94.7078 86.9402 94.8212 86.9294 94.9349C86.9234 94.9915 86.9063 95.0464 86.879 95.0963C86.8517 95.1463 86.8148 95.1903 86.7703 95.2258C86.7259 95.2614 86.6748 95.2878 86.6201 95.3034C86.5654 95.3191 86.5081 95.3238 86.4516 95.3171L86.4277 95.3124Z" fill="#FFB9B6"/>
<path d="M87.4574 95.3728C87.1526 95.3805 86.8476 95.3661 86.5448 95.3298C86.2456 95.2982 85.9487 95.2472 85.6561 95.1769C85.0576 95.0406 84.4903 94.7926 83.9838 94.4459C83.9292 94.4011 83.8931 94.3378 83.8823 94.2681C83.8715 94.1984 83.8868 94.1271 83.9252 94.0679C83.9637 94.0088 84.0226 93.9659 84.0907 93.9475C84.1588 93.929 84.2313 93.9364 84.2944 93.9681C84.7553 94.2277 85.261 94.3979 85.7851 94.4697C86.0506 94.5126 86.3189 94.5365 86.5878 94.5414C86.8525 94.5514 87.1176 94.5418 87.381 94.5127C87.4888 94.5115 87.5933 94.5504 87.6741 94.6218C87.7549 94.6933 87.8062 94.7923 87.8181 94.8995C87.83 95.0067 87.8017 95.1145 87.7385 95.202C87.6754 95.2894 87.582 95.3503 87.4765 95.3728H87.4574Z" fill="#FFB9B6"/>
<path d="M104.228 90.2805L99.8945 89.43L101.514 84.0739C101.514 84.0739 102.064 81.5033 103.645 81.5798C104.778 81.6324 108.567 83.3285 104.228 90.2805Z" fill="#F29E64"/>
<path d="M101.387 84.5039C101.225 85.3496 101 86.181 100.761 87.0028C100.637 87.4137 100.508 87.8198 100.365 88.2259C100.221 88.6321 100.073 89.0334 99.8867 89.43C99.9584 89.0048 100.064 88.5843 100.169 88.1686C100.274 87.7529 100.393 87.342 100.517 86.9311C100.761 86.1141 101.053 85.2971 101.387 84.5039Z" fill="#B85D25"/>
<path d="M104.23 90.2806C104.374 89.9939 104.522 89.712 104.641 89.4205C104.761 89.1291 104.904 88.8424 105.014 88.5462C105.246 87.9633 105.44 87.3665 105.597 86.7592C105.751 86.1516 105.849 85.531 105.888 84.9053C105.92 84.2662 105.883 83.6255 105.779 82.9941C106.011 83.6051 106.135 84.2518 106.146 84.9053C106.157 85.549 106.085 86.1913 105.931 86.8165C105.771 87.4431 105.547 88.0516 105.263 88.6322C104.988 89.2222 104.641 89.7759 104.23 90.2806Z" fill="#B85D25"/>
<g opacity="0.64">
<path d="M102.114 67.2978L104.622 63.3177L101.703 62.7109L102.114 67.2978Z" fill="#DB698B"/>
<path d="M104.378 63.6324C107.874 63.6324 110.709 60.798 110.709 57.3015C110.709 53.8051 107.874 50.9707 104.378 50.9707C100.881 50.9707 98.0469 53.8051 98.0469 57.3015C98.0469 60.798 100.881 63.6324 104.378 63.6324Z" fill="#DB698B"/>
<path d="M107.831 56.2461C107.989 56.7826 108.019 57.3483 107.92 57.8985C107.82 58.4488 107.594 58.9682 107.259 59.4158C106.924 59.8634 106.489 60.2267 105.99 60.477C105.49 60.7272 104.938 60.8575 104.379 60.8575C103.82 60.8575 103.269 60.7272 102.769 60.477C102.269 60.2267 101.834 59.8634 101.499 59.4158C101.164 58.9682 100.938 58.4488 100.838 57.8985C100.739 57.3483 100.769 56.7826 100.927 56.2461C101.167 55.5202 101.63 54.8885 102.25 54.4407C102.869 53.993 103.614 53.752 104.379 53.752C105.144 53.752 105.889 53.993 106.508 54.4407C107.128 54.8885 107.591 55.5202 107.831 56.2461Z" fill="white"/>
<path d="M106.16 58.42C105.971 58.707 105.697 58.9275 105.377 59.0507C105.06 59.1755 104.723 59.2403 104.383 59.2418C104.042 59.246 103.702 59.1844 103.384 59.0603C103.059 58.939 102.781 58.7162 102.591 58.4248C102.582 58.4061 102.58 58.3847 102.585 58.3644C102.59 58.3442 102.603 58.3266 102.62 58.3149C102.634 58.3069 102.649 58.3027 102.665 58.3027C102.681 58.3027 102.697 58.3069 102.711 58.3149C102.956 58.479 103.23 58.5957 103.518 58.6589C103.802 58.725 104.092 58.7603 104.383 58.764C104.676 58.7656 104.967 58.7335 105.253 58.6685C105.542 58.6083 105.816 58.4913 106.06 58.3245C106.066 58.3181 106.074 58.313 106.082 58.3096C106.09 58.3062 106.099 58.3044 106.108 58.3044C106.117 58.3044 106.126 58.3062 106.134 58.3096C106.142 58.313 106.149 58.3181 106.156 58.3245C106.168 58.337 106.175 58.3537 106.176 58.3713C106.177 58.389 106.171 58.4063 106.16 58.42Z" fill="#DB698B"/>
<path d="M106.283 56.6759C106.269 56.734 106.239 56.7869 106.196 56.8287C106.153 56.8704 106.099 56.8993 106.041 56.9121C105.982 56.9249 105.922 56.9211 105.865 56.901C105.809 56.8809 105.759 56.8455 105.722 56.7986C105.685 56.7518 105.661 56.6955 105.654 56.636C105.648 56.5766 105.658 56.5164 105.683 56.4623C105.709 56.4082 105.749 56.3624 105.799 56.3301C105.85 56.2977 105.908 56.2801 105.968 56.2793C106.062 56.2901 106.149 56.3379 106.208 56.4123C106.267 56.4867 106.294 56.5815 106.283 56.6759Z" fill="#DB698B"/>
<path d="M103.107 56.6759C103.093 56.7356 103.063 56.7903 103.02 56.8337C102.976 56.877 102.922 56.9073 102.862 56.9209C102.802 56.9346 102.74 56.9311 102.682 56.9108C102.624 56.8905 102.574 56.8544 102.535 56.8064C102.497 56.7585 102.474 56.7007 102.467 56.6399C102.46 56.579 102.471 56.5174 102.497 56.4623C102.524 56.4072 102.566 56.3608 102.618 56.3284C102.67 56.296 102.73 56.279 102.791 56.2793C102.886 56.2901 102.972 56.3379 103.031 56.4123C103.09 56.4867 103.117 56.5815 103.107 56.6759Z" fill="#DB698B"/>
</g>
<g opacity="0.64">
<path d="M73.4129 140.763C76.9093 140.763 79.7437 137.867 79.7437 134.294C79.7437 130.721 76.9093 127.824 73.4129 127.824C69.9164 127.824 67.082 130.721 67.082 134.294C67.082 137.867 69.9164 140.763 73.4129 140.763Z" fill="#DB698B"/>
<path d="M71.3546 132.674H69.5151C69.2565 132.674 69.0469 132.883 69.0469 133.142V136.702C69.0469 136.96 69.2565 137.17 69.5151 137.17H71.3546C71.6132 137.17 71.8229 136.96 71.8229 136.702V133.142C71.8229 132.883 71.6132 132.674 71.3546 132.674Z" fill="white"/>
<path d="M77.2799 132.544H75.3113C75.2605 132.544 75.2103 132.533 75.1636 132.513C75.1169 132.493 75.0746 132.464 75.0391 132.427C75.0036 132.391 74.9756 132.348 74.9567 132.301C74.9379 132.254 74.9285 132.203 74.9291 132.152V131.761L74.867 131.025C74.8573 130.873 74.7903 130.73 74.6794 130.625C74.5686 130.521 74.4222 130.462 74.2697 130.461C74.1903 130.462 74.1117 130.478 74.0386 130.509C73.9655 130.54 73.8993 130.585 73.8437 130.642C73.7882 130.699 73.7445 130.766 73.7151 130.84C73.6857 130.914 73.6712 130.993 73.6725 131.073V131.775C73.6726 131.893 73.6395 132.009 73.5769 132.109L73.4097 132.391C73.3237 132.531 73.2137 132.653 73.0848 132.754L72.564 133.141C72.5012 133.19 72.4505 133.252 72.4157 133.323C72.3809 133.395 72.363 133.473 72.3633 133.552V135.712C72.3622 135.791 72.3798 135.87 72.4147 135.941C72.4495 136.013 72.5007 136.075 72.564 136.123L72.951 136.419C73.0383 136.483 73.1436 136.518 73.252 136.519H76.5297C76.6309 136.52 76.7297 136.488 76.8116 136.429C76.9272 136.363 77.0179 136.26 77.0697 136.138C77.1215 136.015 77.1315 135.879 77.0983 135.75C77.0787 135.666 77.0798 135.579 77.1014 135.496C77.1231 135.413 77.1646 135.336 77.2225 135.272C77.2813 135.202 77.323 135.118 77.3446 135.029C77.3661 134.939 77.3669 134.846 77.3468 134.756C77.334 134.679 77.3368 134.6 77.3548 134.524C77.3728 134.447 77.4058 134.375 77.4519 134.312C77.513 134.234 77.5558 134.143 77.5773 134.047C77.5988 133.95 77.5984 133.85 77.5761 133.753C77.5619 133.682 77.563 133.608 77.5795 133.537C77.596 133.466 77.6274 133.4 77.6717 133.342C77.7225 133.267 77.7526 133.181 77.759 133.09C77.7653 133 77.7477 132.91 77.7079 132.829C77.6681 132.748 77.6075 132.679 77.5323 132.629C77.4571 132.579 77.37 132.55 77.2799 132.544Z" fill="white"/>
</g>
<g opacity="0.64">
<path d="M85.0468 19.8764C87.4586 19.8764 89.4138 17.8785 89.4138 15.4138C89.4138 12.9492 87.4586 10.9512 85.0468 10.9512C82.6349 10.9512 80.6797 12.9492 80.6797 15.4138C80.6797 17.8785 82.6349 19.8764 85.0468 19.8764Z" fill="#DB698B"/>
<path d="M86.4675 17.4023H87.7385C87.9153 17.4023 88.0586 17.259 88.0586 17.0822V14.6216C88.0586 14.4448 87.9153 14.3014 87.7385 14.3014H86.4675C86.2907 14.3014 86.1474 14.4448 86.1474 14.6216V17.0822C86.1474 17.259 86.2907 17.4023 86.4675 17.4023Z" fill="white"/>
<path d="M82.3851 14.2097H83.7421C83.813 14.2097 83.8811 14.1815 83.9313 14.1313C83.9815 14.0811 84.0096 14.0131 84.0096 13.9421V13.6697L84.0479 13.1633C84.055 13.0584 84.1011 12.9601 84.1772 12.8876C84.2533 12.815 84.3537 12.7736 84.4588 12.7715C84.514 12.7721 84.5685 12.7836 84.6193 12.8053C84.6701 12.827 84.7161 12.8585 84.7547 12.898C84.7933 12.9375 84.8237 12.9842 84.8443 13.0355C84.8648 13.0867 84.8751 13.1415 84.8745 13.1967V13.6745C84.8746 13.7558 84.8978 13.8353 84.9413 13.9039L85.056 14.0998C85.1138 14.1966 85.1901 14.281 85.2806 14.3482L85.6389 14.6158C85.6819 14.6492 85.7167 14.6919 85.7407 14.7407C85.7648 14.7896 85.7773 14.8433 85.7775 14.8977V16.3884C85.7773 16.4428 85.7648 16.4965 85.7407 16.5454C85.7167 16.5942 85.6819 16.6369 85.6389 16.6703L85.3714 16.871C85.3128 16.9171 85.2405 16.9423 85.1659 16.9427H82.9059C82.8359 16.9418 82.7677 16.9202 82.71 16.8805C82.6274 16.8354 82.5626 16.7635 82.5261 16.6767C82.4897 16.5899 82.4838 16.4933 82.5094 16.4028C82.5229 16.3453 82.5226 16.2854 82.5085 16.2281C82.4943 16.1708 82.4668 16.1177 82.4281 16.0731C82.3871 16.0267 82.3568 15.9718 82.3395 15.9123C82.3221 15.8528 82.3181 15.7902 82.3278 15.7291C82.3452 15.6223 82.3213 15.513 82.2609 15.4233C82.2179 15.3696 82.1878 15.3069 82.1729 15.2398C82.158 15.1727 82.1587 15.103 82.1749 15.0362C82.1912 14.9356 82.1672 14.8326 82.108 14.7496C82.0741 14.698 82.0546 14.6384 82.0513 14.5768C82.048 14.5151 82.0611 14.4538 82.0893 14.3989C82.1174 14.344 82.1597 14.2976 82.2116 14.2643C82.2636 14.2311 82.3235 14.2122 82.3851 14.2097Z" fill="white"/>
</g>
<g opacity="0.64">
<path d="M179.945 54.0581C182.357 54.0581 184.312 52.0601 184.312 49.5954C184.312 47.1308 182.357 45.1328 179.945 45.1328C177.533 45.1328 175.578 47.1308 175.578 49.5954C175.578 52.0601 177.533 54.0581 179.945 54.0581Z" fill="#DB698B"/>
<path d="M178.525 48.4766H177.254C177.077 48.4766 176.934 48.6199 176.934 48.7967V51.2573C176.934 51.4341 177.077 51.5775 177.254 51.5775H178.525C178.701 51.5775 178.845 51.4341 178.845 51.2573V48.7967C178.845 48.6199 178.701 48.4766 178.525 48.4766Z" fill="white"/>
<path d="M182.615 48.3913H181.253C181.183 48.3888 181.116 48.359 181.067 48.3082C181.018 48.2574 180.991 48.1896 180.991 48.119V47.8514L180.952 47.3401C180.944 47.2353 180.897 47.1375 180.82 47.0658C180.743 46.9942 180.642 46.954 180.537 46.9531C180.482 46.9531 180.428 46.964 180.377 46.9853C180.327 47.0065 180.281 47.0377 180.243 47.0768C180.204 47.116 180.174 47.1624 180.154 47.2134C180.134 47.2644 180.124 47.3188 180.126 47.3736V47.8514C180.126 47.9326 180.102 48.0121 180.059 48.0807L179.944 48.2719C179.888 48.371 179.811 48.4573 179.72 48.5251L179.361 48.7927C179.318 48.826 179.283 48.8688 179.259 48.9176C179.235 48.9665 179.223 49.0201 179.223 49.0746V50.5605C179.222 50.6151 179.234 50.6692 179.258 50.7182C179.282 50.7672 179.317 50.8098 179.361 50.8424L179.629 51.0479C179.687 51.0954 179.759 51.1208 179.834 51.1195H182.094C182.164 51.1187 182.232 51.0971 182.29 51.0574C182.371 51.0109 182.435 50.9387 182.47 50.8521C182.506 50.7656 182.511 50.6697 182.486 50.5796C182.472 50.5218 182.473 50.4615 182.488 50.4041C182.503 50.3466 182.532 50.2937 182.572 50.2499C182.613 50.2034 182.643 50.1484 182.66 50.089C182.678 50.0296 182.682 49.9671 182.672 49.9059C182.661 49.8531 182.662 49.7986 182.673 49.7459C182.685 49.6932 182.707 49.6435 182.739 49.6001C182.782 49.5465 182.812 49.4837 182.827 49.4166C182.842 49.3495 182.842 49.2799 182.825 49.2131C182.817 49.1633 182.819 49.1123 182.83 49.0631C182.842 49.0139 182.863 48.9674 182.892 48.9264C182.925 48.8749 182.943 48.8158 182.946 48.7549C182.949 48.694 182.935 48.6334 182.907 48.5793C182.879 48.5251 182.838 48.4793 182.786 48.4463C182.735 48.4133 182.676 48.3944 182.615 48.3913Z" fill="white"/>
</g>
</g>
<defs>
<clipPath id="clip0_1278_1549">
<rect width="206.051" height="150" fill="white" transform="translate(0.601562 0.970703)"/>
</clipPath>
</defs>
</svg>
