<svg width="111" height="109" viewBox="0 0 111 109" fill="none" xmlns="http://www.w3.org/2000/svg">
<path d="M46.6958 104.488C19.4078 100.351 -2.7687 74.5268 1.26044 45.8234C4.6973 21.344 26.1392 2.29405 51.8523 0.495076C53.7142 0.364284 55.5977 0.32404 57.4982 0.379375C71.8426 0.794195 84.5876 6.53705 94.0136 15.2274C103.395 23.8759 109.491 35.4436 110.601 47.5798C113.556 79.8688 80.6365 109.633 46.6962 104.488L46.6958 104.488Z" fill="#F4F7FA"/>
<path d="M68.6056 82.021C67.7678 81.9502 66.0076 81.0567 65.6446 80.6346C63.2295 77.8245 58.3661 72.8571 58.4233 68.9387C58.433 68.2697 61.3858 67.5178 61.7763 66.8867C63.5427 65.9502 64.2134 65.7347 65.4556 64.0189C69.1228 58.9529 59.8591 50.155 70.0221 46.4684C77.466 43.7678 83.957 46.0884 82.6263 34.3949C81.2957 22.7014 89.6435 0.915655 102.379 8.54957C109.688 12.9307 102.92 23.2246 106.899 30.4201C110.681 37.2577 107.974 43.1445 100.739 47.6688C93.5045 52.1931 97.6109 55.2431 100.061 61.7916C103.004 69.6577 90.8014 71.6149 85.0905 72.0375C80.4915 72.3776 69.0111 76.3498 68.6048 82.0206L68.6056 82.021Z" fill="url(#paint0_linear_18_5737)"/>
<mask id="mask0_18_5737" style="mask-type:luminance" maskUnits="userSpaceOnUse" x="58" y="6" width="51" height="77">
<path d="M68.6056 82.021C67.7678 81.9502 66.0076 81.0567 65.6446 80.6346C63.2295 77.8245 58.3661 72.8571 58.4233 68.9387C58.433 68.2697 61.3858 67.5178 61.7763 66.8867C63.5427 65.9502 64.2134 65.7347 65.4556 64.0189C69.1228 58.9529 59.8591 50.155 70.0221 46.4684C77.466 43.7678 83.957 46.0884 82.6263 34.3949C81.2957 22.7014 89.6435 0.915655 102.379 8.54957C109.688 12.9307 102.92 23.2246 106.899 30.4201C110.681 37.2577 107.974 43.1445 100.739 47.6688C93.5045 52.1931 97.6109 55.2431 100.061 61.7916C103.004 69.6577 90.8014 71.6149 85.0905 72.0375C80.4915 72.3776 69.0111 76.3498 68.6048 82.0206L68.6056 82.021Z" fill="white"/>
</mask>
<g mask="url(#mask0_18_5737)">
<g style="mix-blend-mode:soft-light">
<path d="M62.1532 75.1188L62.0678 74.9617C86.2665 61.8024 100.043 35.6986 98.9191 5.13426L99.0978 5.12769C99.6301 19.6131 96.6877 33.6276 90.5887 45.6558C84.177 58.3012 74.3438 68.4895 62.1528 75.1192L62.1532 75.1188Z" fill="#FCFDFE"/>
<path d="M101.66 64.9209C94.4064 62.8894 82.4443 63.3553 74.9945 65.9591L74.9357 65.79C82.4145 63.1757 94.4246 62.7087 101.708 64.7483L101.661 64.9205L101.66 64.9209Z" fill="#FCFDFE"/>
<path d="M66.874 72.481L66.7483 72.3533C69.6683 69.4705 71.0202 65.2209 70.7666 59.7222C70.5807 55.6905 69.5516 51.0934 67.7079 46.0591L67.8756 45.9976C69.7255 51.0493 70.7585 55.6642 70.9452 59.7141C71.2016 65.2654 69.8318 69.561 66.874 72.481Z" fill="#FCFDFE"/>
<path d="M91.3886 43.9146L91.2567 43.7938C96.482 38.0765 104.417 36.2574 110.154 35.7385L110.17 35.9169C104.465 36.4331 96.5752 38.2398 91.389 43.915L91.3886 43.9146Z" fill="#FCFDFE"/>
<path d="M97.1806 27.1512L97.002 27.1462C97.2475 18.4202 91.9086 10.9771 88.7044 7.31724L88.839 7.19922C92.0605 10.8792 97.428 18.3645 97.181 27.1516L97.1806 27.1512Z" fill="#FCFDFE"/>
</g>
</g>
<path d="M77.0311 92.5677C76.1751 93.0158 73.9189 93.236 73.3069 93.0507C69.2349 91.817 61.4616 90.003 59.1037 86.1698C58.7009 85.515 61.1001 82.9646 61.09 82.1117C62.2255 80.1139 62.7431 79.4912 62.89 77.0615C63.3246 69.8877 48.9265 67.0761 56.5069 57.2314C62.0592 50.0205 69.7804 48.2644 61.2884 37.7508C52.7963 27.2371 47.4698 0.968423 64.5169 0.50949C74.3001 0.245971 74.0798 14.4005 82.3688 18.9198C90.2454 23.2143 91.2478 30.5905 87.0215 39.4406C82.7952 48.2904 88.6545 48.7129 95.0628 53.5488C102.761 59.3574 92.1378 68.7849 86.8623 72.7183C82.6143 75.8859 73.9321 86.8206 77.0311 92.5681V92.5677Z" fill="url(#paint1_linear_18_5737)"/>
<mask id="mask1_18_5737" style="mask-type:luminance" maskUnits="userSpaceOnUse" x="53" y="0" width="45" height="94">
<path d="M77.0311 92.5677C76.1751 93.0158 73.9189 93.236 73.3069 93.0507C69.2349 91.817 61.4616 90.003 59.1037 86.1698C58.7009 85.515 61.1001 82.9646 61.09 82.1117C62.2255 80.1139 62.7431 79.4912 62.89 77.0615C63.3246 69.8877 48.9265 67.0761 56.5069 57.2314C62.0592 50.0205 69.7804 48.2644 61.2884 37.7508C52.7963 27.2371 47.4698 0.968423 64.5169 0.50949C74.3001 0.245971 74.0798 14.4005 82.3688 18.9198C90.2454 23.2143 91.2478 30.5905 87.0215 39.4406C82.7952 48.2904 88.6545 48.7129 95.0628 53.5488C102.761 59.3574 92.1378 68.7849 86.8623 72.7183C82.6143 75.8859 73.9321 86.8206 77.0311 92.5681V92.5677Z" fill="white"/>
</mask>
<g mask="url(#mask1_18_5737)">
<g style="mix-blend-mode:soft-light">
<path d="M66.5252 89.8586L66.3459 89.7588C81.6969 62.0711 78.9726 28.2672 59.0585 -0.666097L59.2278 -0.782959C68.6658 12.9297 74.4455 28.3295 75.942 43.7525C77.5155 59.9668 74.2592 75.9099 66.5256 89.859L66.5252 89.8586Z" fill="#FCFDFE"/>
<path d="M98.5387 55.5955C90.2562 58.1026 78.9478 65.9354 73.3306 73.0562L73.1693 72.9289C78.8087 65.7803 90.1623 57.9161 98.4792 55.3989L98.5387 55.5959V55.5955Z" fill="#FCFDFE"/>
<path d="M69.4765 84.3889L69.2763 84.3429C70.3313 79.7466 69.0242 74.7927 65.3913 69.6199C62.7277 65.8265 58.8988 62.0057 54.0107 58.2634L54.1355 58.1001C59.0399 61.8551 62.8835 65.6911 65.5591 69.5014C69.2268 74.7246 70.5447 79.7334 69.4761 84.3889H69.4765Z" fill="#FCFDFE"/>
<path d="M75.6444 41.5715L75.4422 41.5359C76.9855 32.7698 83.5573 26.1102 88.798 22.0669L88.9233 22.2298C83.7111 26.2507 77.1761 32.8704 75.644 41.5715H75.6444Z" fill="#FCFDFE"/>
<path d="M70.934 21.7481L70.7577 21.8534C65.6214 13.244 55.8617 9.32368 50.5015 7.75301L50.5591 7.55566C55.9483 9.13484 65.7617 13.0783 70.934 21.7481Z" fill="#FCFDFE"/>
</g>
</g>
<path d="M6.28541 85.7898C4.29172 85.9086 2.66028 84.6142 2.66028 82.9031V21.2358C2.66028 19.5247 4.29134 18.2036 6.28541 18.2899L6.56338 18.3019L98.4935 25.0574C99.9571 25.1209 101.142 23.5874 101.142 25.0427V77.4907C101.142 78.946 99.9571 80.2006 98.4935 80.288L6.76054 85.2097L6.46944 85.779L6.2858 85.7898H6.28541Z" fill="#BFC8D6"/>
<path d="M7.1143 85.7898C5.12061 85.9086 3.48917 84.6142 3.48917 82.9031V21.2358C3.48917 19.5247 5.12023 18.2036 7.1143 18.2899L99.3224 22.2887C100.786 22.3522 101.971 23.5874 101.971 25.0427V77.4907C101.971 78.946 100.786 80.2006 99.3224 80.288L7.1143 85.7898Z" fill="white"/>
<g style="mix-blend-mode:multiply" opacity="0.3">
<path d="M99.322 23.5231L7.11431 19.7263C6.04846 19.6826 5.1817 20.3872 5.1817 21.3008V82.8099C5.1817 83.7235 6.04846 84.4142 7.11431 84.353L99.3224 79.0533C100.107 79.008 100.742 78.3389 100.742 77.5581V24.9951C100.742 24.2142 100.107 23.5553 99.3224 23.5231H99.322Z" fill="#D8DEE8"/>
</g>
<path d="M7.1143 79.1144C6.69948 79.1349 6.36121 78.8625 6.36121 78.5073V21.3469C6.36121 20.9917 6.69909 20.7158 7.1143 20.7324L99.3224 24.3876C99.6286 24.3996 99.8771 24.6577 99.8771 24.9622V73.9721C99.8771 74.2766 99.6286 74.5371 99.3224 74.5522L7.1143 79.1148V79.1144Z" fill="#D8DEE8"/>
<g style="mix-blend-mode:multiply" opacity="0.4">
<path d="M89.6961 76.4707C81.9386 71.6677 87.3571 58.0112 78.6451 51.15C69.862 44.2324 57.5032 52.7168 51.3509 45.5527C46.7697 40.2184 52.1303 33.7775 47.7559 28.761C40.8965 20.8941 23.3364 31.7139 15.2688 23.9635C14.1233 22.863 12.9674 21.1936 12.3098 18.5151L7.1143 18.2899C5.12061 18.2036 3.48917 19.5247 3.48917 21.2358V82.9035C3.48917 84.6146 5.12023 85.909 7.1143 85.7902L99.3224 80.288C100.786 80.2006 101.971 78.946 101.971 77.4907V76.5581C95.8488 78.6376 92.1057 77.9628 89.6961 76.4707Z" fill="#D8DEE8"/>
</g>
<g style="mix-blend-mode:soft-light">
<path d="M12.2336 74.4526L34.4275 73.5254V61.8792L12.2336 62.4178V74.4526Z" fill="#F4F7FA"/>
</g>
<g style="mix-blend-mode:soft-light">
<g opacity="0.7">
<path d="M71.6891 54.3988L75.061 54.352V46.0505L71.6891 45.9639V54.3988Z" fill="#F4F7FA"/>
<path d="M65.604 54.4828L69.0412 54.4352V41.9786L65.604 41.9585V54.4828Z" fill="#F4F7FA"/>
<path d="M59.4002 54.5683L62.9048 54.5199V35.5775L59.4002 35.4746V54.5683Z" fill="#F4F7FA"/>
<path d="M53.0735 54.6559L56.6477 54.6064V40.3377L53.0735 40.2556V54.6559Z" fill="#F4F7FA"/>
<path d="M46.6212 54.7448L50.2665 54.6945V48.281L46.6212 48.2953V54.7448Z" fill="#F4F7FA"/>
<path d="M40.0386 54.8357L43.7573 54.7843V39.559L40.0386 39.5242V54.8357Z" fill="#F4F7FA"/>
<path d="M33.3218 54.9285L37.1167 54.8759V32.7105L33.3218 32.6362V54.9285Z" fill="#F4F7FA"/>
<path d="M26.4674 55.0231L30.3404 54.9697V38.64L26.4674 38.5994V55.0231Z" fill="#F4F7FA"/>
<path d="M19.4704 55.1199L23.4241 55.0653V29.4742L19.4704 29.3794V55.1199Z" fill="#F4F7FA"/>
<path d="M12.3264 55.2185L16.3633 55.1628V26.421L12.3264 26.3069V55.2185Z" fill="#F4F7FA"/>
</g>
</g>
<g style="mix-blend-mode:soft-light">
<path d="M78.1573 71.6995L94.7435 71.0064V69.3267L78.1573 69.9733V71.6995Z" fill="#F4F7FA"/>
</g>
<g style="mix-blend-mode:soft-light">
<path d="M78.1573 49.4173L94.7435 49.3186V47.6384L78.1573 47.6911V49.4173Z" fill="#F4F7FA"/>
</g>
<g style="mix-blend-mode:soft-light">
<path d="M78.1573 46.4623L94.7435 46.4422V44.7624L78.1573 44.7361V46.4623Z" fill="#F4F7FA"/>
</g>
<g style="mix-blend-mode:soft-light">
<path d="M78.1573 69.313L80.8604 69.2104V66.5632L78.1573 66.6542V69.313Z" fill="#F4F7FA"/>
</g>
<g style="mix-blend-mode:soft-light">
<path d="M18.3292 67.1217C19.7391 67.1747 19.9482 66.3578 21.3365 66.2785C23.6909 66.1442 24.2673 68.4377 26.5359 68.4029C28.3877 68.3743 28.8535 66.8261 30.6872 66.9975C32.0499 67.1252 32.3182 68.033 33.647 68.1634C33.9122 68.1893 34.1731 68.1792 34.4279 68.1421V73.5255L12.234 74.4522V64.9272C13.4236 65.0132 14.2923 65.2825 14.9139 65.5553C16.4101 66.2116 16.9069 67.0679 18.3292 67.1213V67.1217Z" fill="#F4F7FA"/>
</g>
<g style="mix-blend-mode:soft-light">
<path d="M12.3264 61.0968L75.061 59.6945V57.062L12.3264 58.2004V61.0968Z" fill="#F4F7FA"/>
</g>
<g style="mix-blend-mode:soft-light">
<path d="M37.1167 73.4134L75.061 71.8288V60.7126L37.1167 61.6228V73.4134Z" fill="#F4F7FA"/>
</g>
<path d="M90.7107 40.0751C93.2031 37.5803 93.2031 33.5354 90.7107 31.0407C88.2182 28.5459 84.1771 28.5459 81.6846 31.0406C79.1922 33.5354 79.1922 37.5803 81.6846 40.0751C84.1771 42.5699 88.2182 42.5699 90.7107 40.0751Z" fill="#F4F7FA"/>
<mask id="mask2_18_5737" style="mask-type:luminance" maskUnits="userSpaceOnUse" x="79" y="29" width="14" height="13">
<path d="M90.7107 40.0751C93.2031 37.5803 93.2031 33.5354 90.7107 31.0407C88.2182 28.5459 84.1771 28.5459 81.6846 31.0406C79.1922 33.5354 79.1922 37.5803 81.6846 40.0751C84.1771 42.5699 88.2182 42.5699 90.7107 40.0751Z" fill="white"/>
</mask>
<g mask="url(#mask2_18_5737)">
<g opacity="0.74">
<path d="M87.9495 35.4527C88.9211 34.4801 88.9211 32.9032 87.9495 31.9306C86.9778 30.958 85.4024 30.958 84.4307 31.9306C83.459 32.9032 83.459 34.4801 84.4307 35.4527C85.4024 36.4253 86.9778 36.4253 87.9495 35.4527Z" fill="url(#paint2_linear_18_5737)"/>
<path d="M81.4263 42.0048C81.4263 39.4467 83.5627 37.229 86.1977 37.229C88.8328 37.229 90.9691 39.4467 90.9691 42.0048H81.4263Z" fill="url(#paint3_linear_18_5737)"/>
</g>
</g>
<path d="M33.8337 99.8904C33.8337 99.8904 36.6184 101.307 36.6636 101.533C36.7092 101.759 34.8729 101.457 34.1233 101.489C33.3736 101.522 32.757 101.274 32.8247 100.919C32.8927 100.563 33.1548 99.6694 33.1548 99.6694L33.8333 99.89L33.8337 99.8904Z" fill="url(#paint4_linear_18_5737)"/>
<path d="M33.9357 98.7407L33.7664 100.144C33.7664 100.144 33.3257 100.319 33.0296 100.112L32.9031 98.5728L33.9357 98.7407Z" fill="url(#paint5_linear_18_5737)"/>
<path d="M20.8219 98.7744L20.498 99.3564C20.4075 99.5189 20.3804 99.7151 20.4237 99.9005C20.537 100.385 20.7632 101.328 20.8617 101.573C20.9959 101.908 22.7982 102.107 22.7982 102.107C22.7982 102.107 22.959 101.854 22.5848 101.549C22.2106 101.243 21.9701 101.195 21.8383 100.744C21.7065 100.292 21.6183 99.0167 21.6183 99.0167L20.8223 98.7744H20.8219Z" fill="url(#paint6_linear_18_5737)"/>
<path d="M22.17 97.296C22.0517 97.4016 21.473 99.3674 21.473 99.3674C21.473 99.3674 21.2855 99.6355 20.9298 99.2397C20.5741 98.8438 20.7686 99.062 20.7686 99.062L20.8354 97.1284L22.17 97.2956V97.296Z" fill="url(#paint7_linear_18_5737)"/>
<path d="M35.4678 70.552C35.6147 74.7373 35.6205 79.2845 35.4056 84.1424C35.1632 89.6124 34.6765 94.6684 34.0629 99.2516C33.8348 99.2597 33.5951 99.2612 33.3446 99.2531C33.1757 99.2477 33.0118 99.2388 32.8533 99.2264C32.5347 98.276 32.1585 97.0262 31.8214 95.5337C31.4669 93.9642 31.2535 92.556 31.1012 91.2098C30.565 86.4692 31.1932 86.0559 30.7583 82.5427C30.3728 79.4312 29.8247 79.3097 29.1813 74.8921C28.4832 70.0989 29.0027 69.3799 29.2556 69.1203C30.3315 68.0143 32.8587 68.7674 35.4678 70.5524V70.552Z" fill="url(#paint8_linear_18_5737)"/>
<path style="mix-blend-mode:multiply" opacity="0.3" d="M29.2556 69.1202C30.2816 68.0653 32.6287 68.7038 35.1071 70.3139C32.2556 73.7617 31.9448 75.9984 32.2865 77.4495C32.6727 79.0898 33.8476 79.5619 33.843 81.3554C33.8375 83.5595 32.06 84.1431 32.0979 86.4753C32.123 88.0173 32.9039 88.0014 33.0883 89.906C33.3064 92.1597 32.2861 92.9363 32.6167 94.6037C32.7589 95.3212 33.1645 96.2584 34.3204 97.2242C34.2373 97.9091 34.1515 98.5867 34.0625 99.2519C33.8345 99.26 33.5948 99.2612 33.3446 99.2534C33.1757 99.2484 33.0118 99.2391 32.8533 99.2267C32.5347 98.2764 32.1585 97.0269 31.8214 95.534C31.4669 93.9645 31.2535 92.5563 31.1012 91.2101C30.565 86.4695 31.1932 86.0562 30.7583 82.543C30.3728 79.4315 29.8247 79.31 29.1813 74.8924C28.4832 70.0992 29.0027 69.3802 29.2556 69.1206V69.1202Z" fill="url(#paint9_linear_18_5737)"/>
<path d="M33.7015 70.482C31.2462 74.5025 28.598 79.5058 26.2297 85.4948C24.4401 90.0206 23.1419 94.2702 22.189 98.0574C22.0598 98.1243 21.756 98.2575 21.367 98.2002C20.837 98.1216 20.5192 97.7428 20.4361 97.6372C20.0484 94.9223 20.0909 92.6229 20.2227 90.9637C20.307 89.9011 20.4562 88.1319 21.0612 85.9475C21.739 83.5008 22.2052 83.3634 23.0893 80.7747C24.0071 78.088 23.7848 77.4174 24.664 74.0551C25.025 72.6737 25.6293 70.6182 26.6267 68.1594C28.985 68.9337 31.3432 69.7076 33.7015 70.482Z" fill="url(#paint10_linear_18_5737)"/>
<path d="M34.3548 53.0133C37.0656 51.2411 38.2274 51.4454 39.0133 49.8538C39.7908 48.2793 39.7888 45.7815 38.5026 44.4581C38.4083 44.3609 37.4283 43.3843 36.1022 43.5514C34.0966 43.8045 33.9489 46.3406 31.6997 47.5023C29.7937 48.4867 27.715 47.7944 26.3081 47.3258C22.9208 46.1975 22.4178 44.063 20.6615 44.4031C18.4606 44.8296 18.2661 48.3714 16.0733 48.5896C14.6077 48.7355 14.2586 47.1966 12.3322 46.7729C10.0683 46.2748 7.58439 47.7472 6.19148 49.5373C3.64534 52.8098 4.3157 57.694 5.90926 60.6755C7.21828 63.125 10.0323 65.9424 12.403 65.336C14.276 64.8574 14.8857 62.4942 16.497 62.7291C17.6425 62.8963 17.6839 64.1419 19.0382 64.7831C21.2619 65.836 24.0067 63.8292 24.7556 63.2821C26.89 61.7222 26.5498 60.7243 29.302 57.5969C30.3891 56.3617 31.9544 54.5825 34.3552 53.013L34.3548 53.0133Z" fill="url(#paint11_linear_18_5737)"/>
<path d="M53.7718 46.1202C53.7718 46.1202 54.2299 45.4787 54.5206 45.0019C54.8113 44.5252 56.1683 43.1855 56.1683 43.1855C56.1683 43.1855 56.2715 43.398 55.9796 43.7381C55.6874 44.0783 55.0727 44.6614 55.2142 44.9079C55.3557 45.1544 55.7535 45.3719 55.4662 45.8378C55.179 46.3033 54.6795 45.9856 54.4243 46.359C54.1692 46.7324 53.9075 47.1399 53.9075 47.1399L53.7718 46.1202Z" fill="url(#paint12_linear_18_5737)"/>
<path d="M53.5931 45.7014C53.902 46.2246 54.2113 46.7477 54.5202 47.2709C54.1986 48.3227 53.6442 49.7831 52.6726 51.3239C52.2443 52.0034 50.9156 53.9974 48.6659 55.601C45.6037 57.7834 40.0251 59.82 38.3921 57.4975C36.935 55.4249 39.287 50.8309 39.72 50.0063C40.5968 50.4664 42.0373 51.0763 43.8887 51.2206C44.4957 51.2678 46.075 51.3758 47.8545 50.764C51.1479 49.6318 52.9761 46.7745 53.5931 45.7018V45.7014Z" fill="url(#paint13_linear_18_5737)"/>
<path d="M43.2926 52.7139C43.1383 53.489 40.7302 53.0734 40.2331 54.48C39.9663 55.235 40.5327 55.7144 40.5562 56.9964C40.5829 58.4316 39.8994 59.2469 39.3752 60.3757C38.6074 62.0296 38.6043 63.6505 38.5989 66.8925C38.5908 71.5077 39.6102 72.4357 38.74 73.9231C37.6073 75.8591 34.8872 75.9829 34.1519 76.0162C31.6374 76.1303 31.3393 74.7934 28.6107 74.634C25.4947 74.4517 25.0509 76.147 22.8226 75.4238C20.7867 74.7632 20.1021 73.0064 18.517 73.3702C17.5262 73.5973 17.2637 74.4057 16.3289 74.3182C15.3894 74.2304 14.4187 73.2986 14.3526 72.3432C14.2702 71.1556 15.5673 69.66 17.5996 69.6573C18.4072 69.9746 19.746 70.3422 21.2348 69.934C23.6743 69.2645 24.9431 66.9432 26.3522 64.3649C27.3272 62.5814 29.1191 59.3031 29.1404 55.0043C29.1493 53.2317 28.8497 52.7132 29.2815 51.7655C30.6833 48.6888 36.122 49.1477 36.5828 49.1922C40.2887 49.5498 43.4789 51.7775 43.293 52.7135L43.2926 52.7139Z" fill="url(#paint14_linear_18_5737)"/>
<path d="M44.5077 56.5862L37.6765 56.8845C37.6015 56.8876 37.5358 56.9418 37.5102 57.0207L34.2922 67.0116C34.2462 67.1548 34.3908 67.5135 34.5261 67.4973L41.28 66.4691C41.3488 66.461 41.4075 66.4103 41.4323 66.3379L44.7802 57.0126C44.8278 56.8745 44.6399 56.5808 44.5077 56.5866V56.5862Z" fill="url(#paint15_linear_18_5737)"/>
<path d="M44.6136 56.8305L37.7824 57.1288C37.7074 57.1319 37.6417 57.1861 37.6162 57.265L34.3981 67.2559C34.3521 67.3991 34.4557 67.5473 34.591 67.5311L41.3859 66.7134C41.4547 66.7053 41.5135 66.6546 41.5382 66.5822L44.793 57.1106C44.8406 56.9725 44.7462 56.8247 44.614 56.8305H44.6136Z" fill="url(#paint16_linear_18_5737)"/>
<path d="M42.7456 57.2026L43.0089 56.4063C43.0325 56.3343 42.9853 56.2581 42.9165 56.2581H40.4299C40.387 56.2581 40.3491 56.289 40.3359 56.3347L40.0858 57.2158C40.0653 57.2881 40.1148 57.3617 40.1824 57.3593L42.6559 57.275C42.6961 57.2734 42.7313 57.2452 42.7452 57.203L42.7456 57.2026Z" fill="url(#paint17_linear_18_5737)"/>
<path style="mix-blend-mode:multiply" opacity="0.3" d="M38.5402 65.1124C38.984 63.5023 38.2537 62.4536 38.9991 61.2022C40.0533 59.4323 42.3184 60.1814 43.0224 58.7531C43.2122 58.3681 43.3031 57.7943 43.0471 56.8988L44.6136 56.8307C44.7459 56.8249 44.8402 56.9724 44.7926 57.1109L41.5379 66.5825C41.5131 66.6548 41.4544 66.7051 41.3855 66.7137L37.2559 67.2109C37.9916 66.4931 38.3596 65.7675 38.5402 65.1128V65.1124Z" fill="url(#paint18_linear_18_5737)"/>
<path d="M33.5518 63.916C33.5518 63.916 34.5841 63.6861 34.9823 63.4056C35.3805 63.125 35.8026 62.6742 36.3895 62.699C36.9763 62.7237 37.5671 63.0577 37.2961 63.1343C37.0251 63.2109 36.5182 63.8126 36.1316 64.0498C35.7446 64.2867 34.8605 64.3083 34.6958 64.2952C34.5311 64.2824 33.8812 64.7197 33.8812 64.7197L33.5522 63.9156L33.5518 63.916Z" fill="url(#paint19_linear_18_5737)"/>
<path style="mix-blend-mode:multiply" opacity="0.3" d="M17.5992 69.6578C18.4069 69.9751 19.7456 70.3427 21.2344 69.9344C23.6739 69.265 24.9427 66.9436 26.3518 64.3653C27.3268 62.5818 29.1187 59.3035 29.14 55.0048C29.1489 53.2321 28.8493 52.7136 29.2811 51.7659C29.3499 51.6154 29.4307 51.4753 29.5177 51.3411C30.5828 52.1467 30.9957 52.9535 31.1163 53.6617C31.4101 55.3859 30.0249 56.7956 30.7455 58.2827C31.436 59.7071 33.1425 59.3132 33.4985 60.534C33.8824 61.8512 31.9935 62.6457 31.9104 64.6811C31.8102 67.1239 34.4349 68.32 33.9748 69.9538C33.5762 71.3697 31.3796 71.2679 31.3807 72.0275C31.3819 72.9306 31.3127 71.0659 33.9748 69.9538C34.7816 69.6167 38.5784 72.4218 39.0396 71.9296C39.139 72.7256 39.1212 73.2708 38.7392 73.9232C37.6065 75.8591 34.8864 75.983 34.1511 76.0163C31.6366 76.1304 31.3386 74.7935 28.61 74.634C25.494 74.4518 25.0502 76.147 22.8218 75.4238C20.786 74.7633 20.1013 73.0065 18.5163 73.3702C17.5254 73.5974 17.2629 74.4057 16.3281 74.3183C15.3887 74.2304 14.4179 73.2986 14.3518 72.3432C14.2695 71.1557 15.5665 69.6601 17.5989 69.6574L17.5992 69.6578Z" fill="url(#paint20_linear_18_5737)"/>
<path d="M33.5782 63.4371C33.8959 64.069 34.2133 64.7009 34.5311 65.3328C34.0413 65.6013 28.806 68.3735 25.0111 65.6292C24.5418 65.2898 23.295 64.3882 22.6227 62.6221C21.882 60.6757 22.2976 58.8659 22.567 57.6903C23.2343 54.7808 25.1217 51.7285 27.7993 50.5022C28.8222 50.0336 30.0365 49.7968 31.1785 49.5739C32.147 49.3846 33.6694 49.1532 33.7019 49.3173C33.7177 49.3974 33.364 49.4996 33.1185 49.6551C31.6096 50.6101 33.5252 54.5548 31.7523 56.4463C30.0535 58.2584 27.8491 57.9593 27.4939 59.6011C27.3288 60.3646 27.6705 61.0515 27.8229 61.3575C28.6726 63.0648 30.9605 63.829 33.5785 63.4371H33.5782Z" fill="url(#paint21_linear_18_5737)"/>
<path d="M37.1318 46.356C37.1318 46.356 36.5171 48.3561 35.7512 48.668C34.9854 48.9795 33.7749 49.3367 33.623 49.4756C33.471 49.6138 37.6915 51.1477 40.0579 50.4419C39.3837 50.1118 39.2031 50.0061 39.2031 50.0061C39.023 49.9005 38.687 49.7043 38.3723 49.392C38.1578 49.1796 37.8222 48.7841 37.5694 48.1267L37.7905 46.991L37.1321 46.3563L37.1318 46.356Z" fill="url(#paint22_linear_18_5737)"/>
<path d="M36.8557 47.2293C36.8557 47.2293 37.2122 48.1159 38.0573 47.9797C38.8142 47.8578 38.7756 45.7275 38.2614 45.365C38.0901 45.2442 37.7422 45.1982 37.4839 45.3038C37.3022 45.3781 36.7618 45.8734 36.8824 46.5994C36.7158 46.4999 36.5495 46.5158 36.4919 46.6048C36.4189 46.7178 36.5372 46.9233 36.5642 46.9697C36.6574 47.1311 36.7927 47.2019 36.8561 47.2293H36.8557Z" fill="url(#paint23_linear_18_5737)"/>
<g style="mix-blend-mode:multiply" opacity="0.3">
<path d="M54.1212 55.1975C54.1212 55.1975 51.7309 58.3721 51.6694 63.2319L50.7327 83.3422H54.659L54.1212 55.1975Z" fill="#BFC8D6"/>
</g>
<path d="M101.836 54.535L99.5068 54.4917L97.3739 54.4526L91.9229 54.3508L89.7436 54.3106L86.057 54.2421L83.8352 54.2014L72.03 53.9813L69.7004 53.9379L58.0947 53.7232L57.0575 53.7038C55.0804 53.6674 53.4207 55.0957 53.4207 56.8931V92.0251C53.4207 93.8225 55.075 95.1989 57.0532 95.1014L58.1291 95.0469V95.1912H58.1306L58.1794 95.0403L74.2306 94.0373L101.805 92.3637C103.493 92.2813 104.943 91.4211 104.943 89.7726V57.573C104.943 55.9261 103.525 54.5652 101.835 54.5342L101.836 54.535ZM93.9328 56.2403C94.1002 56.243 94.2629 56.2597 94.4218 56.2906C95.2801 56.4508 95.9988 56.9906 96.3834 57.72C96.5783 58.0869 96.6885 58.5009 96.6885 58.9401C96.6885 59.4184 96.5574 59.8661 96.3274 60.2523C95.9319 60.9217 95.2395 61.4054 94.4199 61.5409C94.2626 61.5672 94.0994 61.5815 93.9324 61.58C92.3984 61.5703 91.1501 60.3626 91.1501 58.8802C91.1501 57.3977 92.3984 56.2167 93.9324 56.2403H93.9328ZM80.2638 56.0298C80.4378 56.0325 80.6094 56.0492 80.7753 56.0801C81.6672 56.2434 82.4152 56.7886 82.8219 57.525C83.0338 57.9058 83.1521 58.338 83.1521 58.7939C83.1521 59.2764 83.0183 59.7295 82.7844 60.12C82.3708 60.8157 81.6393 61.318 80.7726 61.4573C80.6083 61.4836 80.4382 61.4979 80.2642 61.4964C78.6579 61.4867 77.3481 60.2496 77.3481 58.7323C77.3481 57.2151 78.6579 56.0047 80.2642 56.0298H80.2638ZM65.9303 55.8096C66.1143 55.8123 66.2952 55.8305 66.4696 55.8626C67.4129 56.0314 68.2027 56.599 68.6249 57.3633C68.8394 57.7483 68.9608 58.1832 68.9608 58.6422C68.9608 59.1441 68.8174 59.6154 68.5622 60.0201C68.1277 60.7201 67.3684 61.2263 66.4696 61.3687C66.2956 61.3981 66.1143 61.412 65.9303 61.4105C64.2443 61.3993 62.8692 60.1316 62.8692 58.5768C62.8692 57.022 64.2443 55.7837 65.9303 55.81V55.8096Z" fill="url(#paint24_linear_18_5737)"/>
<path d="M102.742 54.5518L99.4797 54.4903L97.3604 54.4512L91.9163 54.351L89.7402 54.3092L86.0551 54.2407L83.8345 54.2001L72.0297 53.9799L69.7004 53.9365L63.7136 53.8251L61.3186 53.7806L58.2242 53.7233C58.1809 53.7218 58.138 53.7218 58.0947 53.7233C57.32 53.7318 56.5986 53.9563 56.0229 54.3521C56.0187 54.3548 56.0148 54.3576 56.0106 54.3607C55.2555 54.885 54.7371 55.6717 54.6467 56.5849C54.6412 56.6476 54.5693 56.7118 54.5662 56.776C54.5647 56.8082 54.497 56.8403 54.497 56.8724V64.9509L62.1996 64.7362L104.807 63.5354L105.751 63.5103V57.55C105.751 55.9058 104.426 54.5824 102.742 54.5518ZM97.655 58.9515C97.655 59.1148 97.6395 59.2735 97.609 59.4287C97.3778 60.6642 96.259 61.5945 94.9074 61.5859C94.7416 61.5844 94.5788 61.5705 94.4199 61.5414C93.1229 61.3128 92.1336 60.2111 92.1336 58.8919C92.1336 57.5728 93.1229 56.492 94.4211 56.2912C94.5784 56.2649 94.7416 56.2537 94.9074 56.2564C95.6652 56.2676 96.3522 56.5729 96.8482 57.0597C97.3469 57.5476 97.655 58.2171 97.655 58.9519V58.9515ZM84.1642 58.8064C84.1642 58.9639 84.1503 59.1175 84.1225 59.2665C83.8913 60.5454 82.711 61.5116 81.286 61.5035C81.1105 61.502 80.9392 61.4869 80.7718 61.4575C79.7814 61.2833 78.9622 60.6375 78.593 59.7758C78.455 59.4577 78.3784 59.109 78.3784 58.7437C78.3784 58.1552 78.5763 57.6127 78.9108 57.1723C79.3441 56.6004 80.0087 56.1975 80.7749 56.0803C80.9408 56.0551 81.112 56.0428 81.2864 56.0455C82.0724 56.0579 82.7829 56.3647 83.301 56.8515C83.8345 57.3522 84.1646 58.0453 84.1646 58.8068L84.1642 58.8064ZM70.0217 58.6543C70.0217 58.8258 70.0051 58.9945 69.9714 59.1562C69.7163 60.4502 68.4861 61.4238 67.0024 61.4153C66.8199 61.4137 66.6417 61.3987 66.4688 61.3677C65.0408 61.1278 63.9513 59.9719 63.9513 58.5886C63.9513 57.2052 65.0408 56.0714 66.4688 55.8624C66.6417 55.8346 66.8199 55.8234 67.0024 55.8261C67.8355 55.8384 68.5878 56.1592 69.1341 56.6696C69.683 57.18 70.0217 57.8827 70.0217 58.654V58.6543Z" fill="url(#paint25_linear_18_5737)"/>
<path d="M105.751 63.276V89.7386C105.751 89.8934 105.743 90.0454 105.719 90.1944C105.498 91.6335 104.246 92.7898 102.719 92.8637L74.2495 94.2583L58.1794 95.1177L58.1519 95.192H58.1295C56.3489 95.192 54.8477 94.0663 54.6022 92.5185C54.5771 92.3637 54.497 92.1319 54.497 91.9702V63.1162L61.7299 63.1387L104.806 63.2741L105.75 63.2768L105.751 63.276Z" fill="white"/>
<path d="M88.0403 67.8853C88.0403 67.491 87.7449 67.1733 87.3312 67.1748L82.9395 67.193C82.5193 67.1945 81.995 67.5215 81.995 67.9197V71.9383C81.995 72.3365 82.5394 72.6514 82.9596 72.646L87.23 72.5899C87.6436 72.5845 88.0399 72.2587 88.0399 71.8644V67.8849L88.0403 67.8853Z" fill="#BFC8D6"/>
<path d="M95.6671 67.8482C95.6671 67.459 95.3292 67.1459 94.9264 67.1475L90.8466 67.1641C90.4372 67.1657 90.1256 67.4872 90.1256 67.88V71.8451C90.1256 72.2379 90.4318 72.551 90.8412 72.5459L94.9392 72.4918C95.342 72.4867 95.6671 72.1655 95.6671 71.7767V67.849V67.8482Z" fill="#BFC8D6"/>
<path d="M103.243 67.8122C103.243 67.4284 102.895 67.1188 102.503 67.1204L98.485 67.1335C98.0864 67.1351 97.7381 67.4489 97.7381 67.8366V71.7492C97.7381 72.1369 98.0714 72.4488 98.47 72.4434L102.498 72.3923C102.89 72.3873 103.243 72.0719 103.243 71.688V67.8122Z" fill="#BFC8D6"/>
<path d="M88.0403 75.1638C88.0403 74.7695 87.7449 74.4557 87.3312 74.4623L82.9395 74.5338C82.5193 74.5404 81.995 74.8724 81.995 75.2706V79.2892C81.995 79.6874 82.5394 79.9973 82.9596 79.9865L87.23 79.8777C87.6436 79.8673 88.0399 79.5372 88.0399 79.1429V75.1634L88.0403 75.1638Z" fill="#BFC8D6"/>
<path d="M95.6671 75.0321C95.6671 74.6428 95.3292 74.3336 94.9264 74.3402L90.8466 74.4075C90.4372 74.4141 90.1256 74.7391 90.1256 75.1319V79.0971C90.1256 79.4898 90.4318 79.799 90.8412 79.789L94.9392 79.6841C95.342 79.674 95.6671 79.3494 95.6671 78.9601V75.0325V75.0321Z" fill="url(#paint26_linear_18_5737)"/>
<path d="M103.243 74.9018C103.243 74.518 102.895 74.2123 102.503 74.2189L98.485 74.2815C98.0864 74.2881 97.7381 74.6058 97.7381 74.9935V78.9061C97.7381 79.2938 98.0714 79.6015 98.47 79.5914L102.498 79.4904C102.89 79.4803 103.243 79.1615 103.243 78.7776V74.9018Z" fill="#BFC8D6"/>
<path d="M63.9045 75.5873C63.9045 75.1768 63.5094 74.8482 63.0606 74.8556L58.525 74.9256C58.0688 74.933 57.7313 75.2716 57.7313 75.6864V79.8737C57.7313 80.2885 58.0522 80.6186 58.5087 80.607L63.0849 80.4936C63.5338 80.4824 63.9041 80.1426 63.9041 79.732V75.5877L63.9045 75.5873Z" fill="#BFC8D6"/>
<path d="M72.1626 75.4387C72.1626 75.0336 71.8445 74.7117 71.4076 74.7186L66.9007 74.791C66.4568 74.7979 66.0335 75.1365 66.0335 75.5455V79.6748C66.0335 80.0838 66.475 80.4054 66.9188 80.3941L71.3674 80.2808C71.8043 80.2695 72.1626 79.9317 72.1626 79.527V75.4387Z" fill="#BFC8D6"/>
<path d="M80.1289 75.3093C80.1289 74.9096 79.8061 74.5876 79.3812 74.5946L74.9404 74.6642C74.5085 74.6712 74.0423 75.004 74.0423 75.4076V79.4815C74.0423 79.8851 74.5194 80.2012 74.9512 80.19L79.3182 80.0828C79.7435 80.072 80.1289 79.7419 80.1289 79.3426V75.3093Z" fill="#BFC8D6"/>
<path d="M88.0403 82.442C88.0403 82.0477 87.7449 81.7374 87.3312 81.7494L82.9395 81.874C82.5193 81.886 81.995 82.2226 81.995 82.6208V86.6394C81.995 87.0375 82.5394 87.3425 82.9596 87.3266L87.23 87.1652C87.6436 87.1494 88.0399 86.8154 88.0399 86.4215V82.442H88.0403Z" fill="#BFC8D6"/>
<path d="M95.6671 82.2164C95.6671 81.8271 95.3292 81.5214 94.9264 81.533L90.8466 81.6511C90.4372 81.6627 90.1256 81.9916 90.1256 82.3843V86.3495C90.1256 86.7423 90.4318 87.048 90.8412 87.0325L94.9392 86.8769C95.342 86.8615 95.6671 86.5337 95.6671 86.1444V82.2168V82.2164Z" fill="#BFC8D6"/>
<path d="M63.9045 83.1682C63.9045 82.7576 63.5094 82.4341 63.0606 82.4469L58.525 82.5738C58.0688 82.587 57.7313 82.9298 57.7313 83.3447V87.5319C57.7313 87.9467 58.0522 88.2726 58.5087 88.2552L63.0849 88.0841C63.5338 88.0671 63.9041 87.7227 63.9041 87.3121V83.1678L63.9045 83.1682Z" fill="#BFC8D6"/>
<path d="M72.1626 82.916C72.1626 82.5109 71.8445 82.1928 71.4076 82.2052L66.9007 82.3337C66.4568 82.3464 66.0335 82.6893 66.0335 83.0987V87.2279C66.0335 87.6369 66.475 87.9535 66.9188 87.9368L71.3674 87.7681C71.8043 87.7515 72.1626 87.4094 72.1626 87.0046V82.9164V82.916Z" fill="#BFC8D6"/>
<path d="M80.1289 82.6865C80.1289 82.2867 79.8061 81.969 79.3812 81.981L74.9404 82.1053C74.5085 82.1176 74.0423 82.4555 74.0423 82.859V86.933C74.0423 87.3365 74.5194 87.6477 74.9512 87.631L79.3182 87.4697C79.7435 87.4534 80.1289 87.1191 80.1289 86.7197V82.6865Z" fill="#BFC8D6"/>
<path d="M66.7201 48.324C63.8918 48.2454 61.5459 50.5254 61.3189 53.7828L63.7135 53.8273C63.9088 51.8817 65.2089 50.4163 66.7201 50.453C68.3512 50.4925 69.7224 52.2957 69.7224 54.4012C69.7224 56.5066 68.3512 58.265 66.7201 58.2464C65.8696 58.2367 65.0863 57.7418 64.5285 56.9729C64.2049 57.4117 63.647 58.4174 64.1751 59.634C64.936 60.098 65.8027 60.3642 66.7201 60.3716C69.6679 60.3948 72.0451 57.7395 72.0451 54.4426C72.0451 51.1457 69.6679 48.4056 66.7201 48.3236V48.324Z" fill="white"/>
<path d="M80.9922 48.714C78.2956 48.6389 76.0595 50.8666 75.843 54.0467L78.1259 54.0892C78.3119 52.1893 79.5513 50.7579 80.9925 50.7931C82.5478 50.831 83.8557 52.5913 83.8557 54.6472C83.8557 56.7031 82.5478 58.4209 80.9925 58.4034C80.1818 58.3942 79.4349 57.9112 78.9026 57.1605C78.5941 57.5893 78.0621 58.571 78.5659 59.759C79.2915 60.2117 80.1177 60.4717 80.9925 60.4787C83.8039 60.5008 86.0713 57.907 86.0713 54.6871C86.0713 51.4672 83.8039 48.7926 80.9925 48.7144L80.9922 48.714Z" fill="white"/>
<path d="M94.6507 49.1013C92.0791 49.0297 89.947 51.2064 89.7405 54.3113L91.9171 54.352C92.0945 52.4969 93.2764 51.0984 94.6507 51.1317C96.1345 51.1677 97.3817 52.8862 97.3817 54.8945C97.3817 56.9028 96.1341 58.5807 94.6507 58.564C93.8775 58.5551 93.165 58.0838 92.6578 57.3509C92.3636 57.7696 91.8564 58.7285 92.3366 59.8886C93.0282 60.3305 93.8165 60.5843 94.6507 60.5909C97.3322 60.6118 99.4956 58.078 99.4956 54.9328C99.4956 51.7876 97.3326 49.1764 94.6507 49.1017V49.1013Z" fill="white"/>
<g style="mix-blend-mode:multiply" opacity="0.3">
<path d="M105.751 88.6564V89.7387C105.751 89.8935 105.743 90.0455 105.719 90.1945C105.502 91.6336 104.27 92.7898 102.744 92.8638L74.2491 94.2584L58.179 95.1178C58.1624 95.1178 58.1473 95.1921 58.1307 95.1921H58.1291C56.3597 95.1921 54.8515 94.0579 54.6018 92.5186C54.5767 92.3638 54.4966 92.132 54.4966 91.9703V56.8731C54.4966 56.841 54.5643 56.8089 54.5658 56.7768C54.5686 56.7125 54.6068 56.6483 54.6122 56.5856C54.7 55.6693 55.2242 54.8691 55.9793 54.3447C55.9874 54.3474 56.0059 54.3501 56.014 54.3532C57.8198 54.9461 60.1325 56.6429 61.3166 61.3258C61.4767 61.9578 61.6364 62.563 61.7952 63.1387C61.9499 63.6979 62.1068 64.2292 62.2657 64.7369C64.0951 70.5687 66.4194 73.0426 73.2405 72.6757C78.2616 72.4064 82.1157 72.5028 84.5439 74.508C84.5829 74.5386 84.622 74.5722 84.661 74.6055C85.5305 75.357 86.2132 76.3681 86.6953 77.7151C86.9253 78.3567 87.109 79.0749 87.2458 79.8766C87.2512 79.9045 87.257 79.9339 87.2613 79.9629C87.5052 81.4314 88.5834 82.3392 90.1244 82.9793C90.1368 82.9847 90.1496 82.989 90.1619 82.9948C91.6735 83.6154 93.6313 83.9807 95.6667 84.3739C95.6876 84.3766 95.7073 84.3808 95.7282 84.3851C99.0034 85.017 102.607 85.7197 104.844 87.6816C105.035 87.8476 105.214 88.0248 105.384 88.2114C105.513 88.3538 105.751 88.5016 105.751 88.6564Z" fill="#BFC8D6"/>
</g>
<g style="mix-blend-mode:multiply" opacity="0.3">
<path d="M105.751 89.6071V89.7383C105.751 89.8931 105.743 90.0451 105.719 90.1941C105.502 91.6332 104.27 92.7894 102.744 92.8634L74.2491 94.258C74.241 94.1728 74.2356 94.0865 74.2302 94.0014C74.205 93.65 74.1942 93.2956 74.1927 92.9388C74.1884 91.0717 74.5019 89.2824 75.0788 87.627C75.8226 85.4906 77.0056 83.576 78.5129 82.0057C79.537 80.9388 80.7088 80.0295 81.9962 79.3186C83.4366 78.5196 85.0194 77.9674 86.6957 77.7151C87.1372 77.6481 87.586 77.6021 88.0403 77.5785C88.2784 77.5646 88.5181 77.5576 88.7589 77.5576C88.873 77.556 89.5557 77.563 90.1244 77.5688C90.5033 77.5742 90.8292 77.5785 90.9046 77.5812C91.423 77.6005 91.9271 77.6497 92.4177 77.7236C93.5392 77.7948 94.6275 77.9999 95.6667 78.3234C96.4035 78.5521 97.1172 78.8392 97.7995 79.184C98.0559 79.3109 98.3079 79.4463 98.5546 79.5899C101.321 81.1907 103.541 83.7064 104.843 86.7494C105.048 87.225 105.226 87.7129 105.383 88.2121C105.527 88.668 105.75 89.1338 105.75 89.6079L105.751 89.6071Z" fill="#BFC8D6"/>
</g>
<path d="M105.702 92.8672C105.721 101.214 101.288 108.025 93.3943 108.249C93.2721 108.253 91.2579 108.249 91.135 108.249C83.0713 108.269 76.5192 101.414 76.5003 92.9384C76.4817 84.4628 83.0033 77.5761 91.0673 77.5564C91.256 77.556 93.0258 77.5734 93.213 77.5804C101.016 77.8725 105.684 84.5898 105.702 92.8672Z" fill="url(#paint27_linear_18_5737)"/>
<path d="M93.8311 108.387C101.895 108.387 108.432 101.516 108.432 93.0402C108.432 84.5647 101.895 77.6938 93.8311 77.6938C85.7674 77.6938 79.2304 84.5647 79.2304 93.0402C79.2304 101.516 85.7674 108.387 93.8311 108.387Z" fill="url(#paint28_linear_18_5737)"/>
<path style="mix-blend-mode:multiply" opacity="0.3" d="M93.8311 108C101.692 108 108.064 101.302 108.064 93.0401C108.064 84.7781 101.692 78.0803 93.8311 78.0803C85.9704 78.0803 79.5981 84.7781 79.5981 93.0401C79.5981 101.302 85.9704 108 93.8311 108Z" fill="url(#paint29_linear_18_5737)"/>
<path d="M93.8311 107.548C101.454 107.548 107.634 101.053 107.634 93.0402C107.634 85.0275 101.454 78.532 93.8311 78.532C86.2078 78.532 80.028 85.0275 80.028 93.0402C80.028 101.053 86.2078 107.548 93.8311 107.548Z" fill="url(#paint30_linear_18_5737)"/>
<path d="M93.5357 107.238C100.996 107.238 107.044 100.881 107.044 93.0402C107.044 85.1989 100.996 78.8423 93.5357 78.8423C86.0754 78.8423 80.0276 85.1989 80.0276 93.0402C80.0276 100.881 86.0754 107.238 93.5357 107.238Z" fill="url(#paint31_linear_18_5737)"/>
<path d="M94.9623 92.6334L105.252 96.6272C105.587 95.4989 105.768 94.2989 105.768 93.0548C105.768 86.648 100.982 81.4159 94.9623 81.0928V92.6338V92.6334Z" fill="url(#paint32_linear_18_5737)"/>
<g style="mix-blend-mode:multiply" opacity="0.54">
<path d="M90.1441 92.7179C89.0759 89.255 92.938 86.756 92.3291 82.7197C92.0605 80.9385 91.0147 79.4793 89.7289 78.3083C83.6496 80.1754 79.2146 86.0847 79.23 93.0755C79.2486 101.551 85.801 108.406 93.8647 108.386C95.8418 108.382 97.7261 107.963 99.4441 107.21C99.1951 102.312 97.694 99.5454 96.0977 97.8784C93.6374 95.3094 90.9587 95.3585 90.1441 92.7179Z" fill="#D8DEE8"/>
</g>
<path d="M93.4978 94.1652C93.9723 94.1652 94.3569 93.761 94.3569 93.2624C94.3569 92.7638 93.9723 92.3596 93.4978 92.3596C93.0234 92.3596 92.6388 92.7638 92.6388 93.2624C92.6388 93.761 93.0234 94.1652 93.4978 94.1652Z" fill="url(#paint33_linear_18_5737)"/>
<path d="M93.4979 86.0684C93.1982 86.0684 92.9551 86.3238 92.9551 86.6387V92.724C92.9551 93.039 93.1982 93.2944 93.4979 93.2944C93.7975 93.2944 94.0406 93.039 94.0406 92.724V86.6387C94.0406 86.3238 93.7975 86.0684 93.4979 86.0684Z" fill="url(#paint34_linear_18_5737)"/>
<path d="M93.4383 93.397C93.3212 93.26 93.1209 93.2484 92.9903 93.371L85.6812 100.4C85.5506 100.523 85.5397 100.734 85.6569 100.871C85.774 101.008 85.9743 101.02 86.1049 100.897L93.414 93.8679C93.5446 93.7448 93.5555 93.534 93.4383 93.397Z" fill="url(#paint35_linear_18_5737)"/>
<path d="M29.6592 20.5519C30.6474 21.0542 31.8891 20.5929 32.4323 19.5218C32.9755 18.4507 32.6148 17.1753 31.6266 16.6731C31.5756 16.6471 31.523 16.6251 31.4708 16.6042C31.6544 16.0114 31.7929 15.4143 31.8856 14.8168C31.9421 14.8168 31.9993 14.8157 32.0569 14.8106C33.1842 14.71 34.0792 13.673 34.0556 12.4943C34.032 11.3156 33.0988 10.4415 31.9715 10.5421C31.9127 10.5475 31.8547 10.5568 31.7971 10.5668C31.6792 9.98254 31.518 9.41216 31.3142 8.85997C31.366 8.82979 31.4179 8.79806 31.4681 8.76285C32.4327 8.08644 32.7412 6.75144 32.157 5.78094C31.5729 4.81045 30.3172 4.57208 29.3526 5.24849C29.3032 5.28331 29.2568 5.32046 29.2108 5.35877C28.83 4.93699 28.412 4.54655 27.9597 4.18977C27.9914 4.13753 28.0227 4.0849 28.051 4.02918C28.5941 2.95808 29.3043 1.78792 28.308 1.30151C26.0039 0.175847 25.0154 1.13937 24.4718 2.21048C24.4436 2.26581 24.4196 2.32231 24.3961 2.3788C23.8417 2.22402 23.2799 2.11683 22.7151 2.05763C22.7186 1.99804 22.7213 1.93844 22.7201 1.87808C22.6966 0.699402 23.0461 0.0616941 21.9141 0.0396375C19.446 -0.00834541 18.6133 1.06392 18.6369 2.24259C18.6381 2.30412 18.6431 2.36449 18.6493 2.42408C18.0837 2.58544 17.5281 2.79169 16.9877 3.04128C16.9621 2.98865 16.9355 2.93641 16.9049 2.88572C16.3208 1.91523 15.0651 1.67686 14.1005 2.35326C13.136 3.02967 12.8275 4.36467 13.4116 5.33517C13.4414 5.38508 13.4743 5.43152 13.5075 5.47718C13.0803 5.90477 12.6802 6.36912 12.3106 6.86714C12.2627 6.83695 12.2143 6.80793 12.1629 6.78162C11.1748 6.27935 9.93301 6.7406 9.38984 7.8117C8.84666 8.8828 9.20736 10.1582 10.1955 10.6605C10.2465 10.6864 10.2991 10.7085 10.3513 10.7294C10.1677 11.3222 10.0293 11.9193 9.93649 12.5167C9.87966 12.5167 9.82283 12.5179 9.76522 12.5229C8.63751 12.6235 7.74293 13.6606 7.76651 14.8393C7.79009 16.0179 8.72334 16.8921 9.85066 16.7915C9.90942 16.786 9.96741 16.7771 10.025 16.7667C10.1429 17.351 10.3041 17.9214 10.5079 18.4736C10.4561 18.5038 10.4043 18.5355 10.354 18.5707C9.38945 19.2471 9.08094 20.5821 9.66509 21.5526C10.2492 22.5231 12.1834 22.9739 13.148 22.2975C13.1974 22.2627 12.5654 22.0127 12.6114 21.9748C12.9922 22.3962 13.4101 22.787 13.8624 23.1438C13.8307 23.196 13.7994 23.2486 13.7715 23.3044C13.2284 24.3755 13.5891 25.6509 14.5772 26.1532C15.5654 26.6554 16.8071 26.1942 17.3503 25.1231C17.3785 25.0677 17.4025 25.0112 17.4261 24.9547C17.9804 25.1095 18.5422 25.2167 19.107 25.2759C19.1035 25.3355 19.1008 25.3951 19.102 25.4555C19.1256 26.6341 20.0588 27.5079 21.1861 27.4077C22.3134 27.3071 23.2084 26.27 23.1848 25.0913C23.1837 25.0298 23.1787 24.9694 23.1725 24.9099C23.7381 24.7485 24.2936 24.5422 24.8341 24.2927C24.8596 24.3453 24.8863 24.3975 24.9168 24.4482C25.501 25.4187 26.7566 25.6571 27.7212 24.9807C28.6858 24.3043 28.9943 22.9693 28.4101 21.9988C28.3803 21.9492 28.3475 21.9028 28.3142 21.8568C28.7414 21.4292 29.1416 20.9648 29.5111 20.4668C29.5591 20.497 29.6074 20.526 29.6588 20.5523L29.6592 20.5519ZM17.3399 20.7083C13.7518 18.8849 12.442 14.2542 14.4148 10.3652C16.3873 6.47631 20.8954 4.80194 24.4834 6.62567C28.0714 8.44902 29.3812 13.0798 27.4084 16.9687C25.4356 20.8576 20.9279 22.532 17.3399 20.7083Z" fill="url(#paint36_linear_18_5737)"/>
<path d="M32.0569 14.8105C33.1842 14.7099 34.0792 13.6729 34.0556 12.4942C34.032 11.3155 33.0988 10.4414 31.9714 10.542C31.9127 10.5474 31.8547 10.5567 31.7971 10.5668C31.6796 9.98247 31.518 9.41209 31.3142 8.8599C31.366 8.82972 31.4178 8.79799 31.4681 8.76277C32.4327 8.08637 33.6261 6.45186 32.9457 5.54637C31.654 3.82789 30.3172 4.57201 29.3526 5.24841C29.3031 5.28324 29.2567 5.32039 29.2107 5.35831C28.8296 4.93653 28.412 4.54608 27.9597 4.18931C27.9914 4.13707 28.0227 4.08444 28.0509 4.02872C28.3467 3.44596 28.3726 2.80322 28.1774 2.25684C27.2457 3.89831 26.3263 5.54637 25.4236 7.20372C28.286 9.30335 29.1976 13.4407 27.408 16.9682C25.8918 19.9575 22.8779 21.6357 19.9351 21.4256C19.8036 21.7665 19.6749 22.109 19.5342 22.4464C19.1526 23.3623 18.7192 24.2593 18.2855 25.1551C18.5584 25.2066 18.8325 25.2472 19.1074 25.2758C19.1039 25.3354 19.1012 25.395 19.1023 25.4554C19.1259 26.6341 19.8407 27.6355 21.8843 27.5272C23.0147 27.4672 23.2088 26.2699 23.1852 25.0913C23.1841 25.0297 23.179 24.9694 23.1728 24.9098C23.7384 24.7484 24.294 24.5422 24.8344 24.2926C24.86 24.3452 24.8866 24.3975 24.9172 24.4481C25.5013 25.4186 27.5279 25.8311 28.4928 25.1543C29.4574 24.4779 28.9946 22.9688 28.4105 21.9983C28.3807 21.9488 28.3479 21.902 28.3146 21.8563C28.7418 21.4287 29.1419 20.9644 29.5115 20.4663C29.5595 20.4965 29.6078 20.5255 29.6592 20.5515C30.6473 21.0537 31.8891 20.5925 32.4323 19.5214C32.9754 18.4503 32.6147 17.1749 31.6266 16.6726C31.5756 16.6467 31.523 16.6246 31.4708 16.6037C31.6544 16.0109 31.7928 15.4138 31.8856 14.8164C31.9421 14.8164 31.9993 14.8152 32.0569 14.8102V14.8105Z" fill="url(#paint37_linear_18_5737)"/>
<path d="M30.722 20.6729C31.7101 21.1752 32.9519 20.7139 33.495 19.6428C34.0382 18.5717 33.6775 17.2963 32.6894 16.794C32.6383 16.7681 32.5858 16.746 32.5336 16.7251C32.7172 16.1323 32.8556 15.5353 32.9484 14.9378C33.0048 14.9378 33.0617 14.9366 33.1197 14.9316C34.247 14.831 35.142 13.7939 35.1184 12.6153C35.0948 11.4366 34.1615 10.5624 33.0342 10.6631C32.9751 10.6685 32.9175 10.6778 32.8599 10.6878C32.742 10.1035 32.5807 9.53314 32.377 8.98095C32.4288 8.95038 32.4806 8.91903 32.5309 8.88382C33.4954 8.20742 33.8039 6.87241 33.2198 5.90192C32.6356 4.93142 31.38 4.69306 30.4154 5.36946C30.3659 5.40429 30.3195 5.44144 30.2735 5.47936C29.8923 5.05757 29.4748 4.66713 29.0225 4.31036C29.0542 4.25812 29.0855 4.20549 29.1137 4.14977C29.6569 3.07867 29.2962 1.80325 28.3081 1.30098C27.3199 0.798705 26.0782 1.25996 25.535 2.33106C25.5068 2.3864 25.4824 2.44289 25.4592 2.49939C24.9048 2.3446 24.3431 2.23742 23.7783 2.17821C23.7818 2.11862 23.7845 2.05903 23.7833 1.99866C23.7597 0.819988 22.8265 -0.054152 21.6991 0.0464572C20.5718 0.147066 19.6768 1.18412 19.7004 2.36279C19.7016 2.42432 19.707 2.48468 19.7128 2.54428C19.1472 2.70564 18.5917 2.91189 18.0512 3.16147C18.0257 3.10885 17.999 3.05661 17.9685 3.00592C17.3843 2.03542 16.1286 1.79706 15.1641 2.47346C14.1995 3.14987 13.891 4.48487 14.4752 5.45537C14.5049 5.5049 14.5378 5.55172 14.571 5.59738C14.1438 6.02497 13.7437 6.48932 13.3741 6.98734C13.3262 6.95715 13.2779 6.92813 13.2264 6.90182C12.2383 6.39955 10.9965 6.8608 10.4534 7.9319C9.9102 9.003 10.2709 10.2784 11.259 10.7807C11.3101 10.8066 11.3627 10.8287 11.4148 10.8496C11.2312 11.4424 11.0928 12.0395 11 12.6369C10.9432 12.6369 10.8864 12.6381 10.8288 12.6431C9.70105 12.7437 8.80646 13.7808 8.83005 14.9595C8.85363 16.1381 9.78688 17.0123 10.9142 16.9117C10.973 16.9062 11.031 16.897 11.0886 16.8869C11.2065 17.4708 11.3677 18.0416 11.5714 18.5938C11.5196 18.624 11.4678 18.6557 11.4176 18.6909C10.453 19.3673 10.1445 20.7023 10.7286 21.6728C11.3128 22.6433 12.5685 22.8817 13.533 22.2053C13.5825 22.1704 13.6289 22.1333 13.6749 22.095C14.0561 22.5164 14.4736 22.9072 14.9259 23.264C14.8942 23.3162 14.8629 23.3688 14.8351 23.4246C14.2919 24.4957 14.6526 25.7711 15.6408 26.2734C16.6289 26.7756 17.8707 26.3144 18.4138 25.2433C18.4421 25.1879 18.4664 25.1314 18.4896 25.0749C19.044 25.2297 19.6057 25.3369 20.1705 25.3961C20.1671 25.4557 20.1644 25.5153 20.1655 25.5757C20.1891 26.7543 21.1223 27.6285 22.2497 27.5279C23.377 27.4273 24.272 26.3902 24.2484 25.2115C24.2472 25.15 24.2422 25.0897 24.236 25.0301C24.8016 24.8687 25.3571 24.6624 25.8976 24.4129C25.9231 24.4655 25.9502 24.5177 25.9803 24.5684C26.5645 25.5389 27.8202 25.7773 28.7847 25.1009C29.7493 24.4245 30.0578 23.0895 29.4736 22.119C29.4439 22.0694 29.411 22.023 29.3778 21.977C29.805 21.5494 30.2051 21.085 30.5747 20.587C30.6226 20.6172 30.6709 20.6462 30.7224 20.6725L30.722 20.6729ZM18.4026 20.8292C14.8146 19.0059 13.5048 14.3752 15.4776 10.4862C17.4504 6.59728 21.9582 4.9233 25.5462 6.74665C29.1342 8.57 30.444 13.2007 28.4712 17.0897C26.4984 20.9786 21.9906 22.6526 18.4026 20.8292Z" fill="url(#paint38_linear_18_5737)"/>
<path d="M49.6815 28.7366C50.4018 29.1026 51.3064 28.7664 51.7027 27.9859C52.0985 27.2054 51.8357 26.2759 51.1154 25.9099C51.0783 25.8909 51.04 25.875 51.0018 25.8595C51.1355 25.4277 51.2364 24.9924 51.3041 24.557C51.3454 24.557 51.3868 24.5563 51.429 24.5524C52.2505 24.4793 52.9027 23.7235 52.8857 22.8645C52.8686 22.0054 52.1882 21.3685 51.3667 21.442C51.3238 21.4459 51.2817 21.4525 51.2395 21.4602C51.1537 21.0346 51.0362 20.6186 50.8877 20.2161C50.9256 20.1941 50.9631 20.1713 50.9998 20.1453C51.7027 19.6523 51.9277 18.6795 51.502 17.9722C51.0764 17.2648 50.1613 17.0911 49.4585 17.5841C49.4225 17.6092 49.3885 17.6367 49.3548 17.6642C49.0773 17.3569 48.7726 17.0721 48.4433 16.8125C48.4664 16.7745 48.4893 16.7358 48.5097 16.6956C48.9056 15.9151 49.4229 15.0622 48.6972 14.7078C47.0182 13.8874 46.2976 14.5898 45.9018 15.3703C45.8813 15.4109 45.8635 15.4519 45.8465 15.4929C45.4425 15.3799 45.0331 15.3018 44.6213 15.2588C44.624 15.2155 44.626 15.1721 44.6252 15.128C44.6078 14.269 44.8626 13.8042 44.038 13.788C42.2395 13.7532 41.6325 14.5344 41.6499 15.3935C41.6507 15.4384 41.6546 15.4821 41.6588 15.5258C41.2467 15.6435 40.8419 15.7936 40.448 15.9755C40.4294 15.9372 40.4097 15.8992 40.3877 15.8621C39.962 15.1547 39.047 14.981 38.3437 15.474C37.6409 15.967 37.4159 16.9398 37.8416 17.6471C37.8632 17.6835 37.8872 17.7172 37.9115 17.7508C37.6003 18.0623 37.3088 18.4009 37.0394 18.7639C37.0046 18.7418 36.969 18.7205 36.9319 18.7016C36.2116 18.3355 35.307 18.6718 34.9111 19.4523C34.5153 20.2328 34.7781 21.1623 35.4984 21.5283C35.5359 21.5473 35.5738 21.5631 35.612 21.5786C35.4783 22.0105 35.3774 22.4458 35.3097 22.8811C35.2684 22.8811 35.227 22.8819 35.1848 22.8858C34.3629 22.9593 33.7111 23.715 33.7281 24.5737C33.7451 25.4327 34.4256 26.0697 35.2471 25.9961C35.29 25.9923 35.3321 25.9857 35.3743 25.978C35.4601 26.4036 35.5776 26.8196 35.7261 27.222C35.6882 27.2441 35.6507 27.2669 35.614 27.2928C34.9111 27.7858 34.6861 28.7586 35.1122 29.466C35.5378 30.1734 36.9473 30.5019 37.6502 30.0089C37.6861 29.9838 37.2257 29.8015 37.2593 29.7736C37.5369 30.0809 37.8416 30.3657 38.1709 30.6253C38.1477 30.6633 38.1249 30.7019 38.1044 30.7422C37.7086 31.5227 37.9714 32.4522 38.6917 32.8182C39.4119 33.1843 40.3166 32.848 40.7128 32.0675C40.7333 32.0269 40.7511 31.9859 40.7681 31.9449C41.1721 32.0579 41.5815 32.136 41.9932 32.179C41.9905 32.2223 41.9886 32.266 41.9894 32.3098C42.0064 33.1688 42.6868 33.8057 43.5083 33.7322C44.3298 33.6591 44.982 32.903 44.965 32.0443C44.9642 31.9994 44.9604 31.9557 44.9557 31.912C45.3679 31.7943 45.7726 31.6442 46.1666 31.4623C46.1851 31.5006 46.2048 31.5386 46.2269 31.5757C46.6525 32.2831 47.5676 32.4568 48.2708 31.9638C48.9737 31.4708 49.1987 30.498 48.773 29.7907C48.7514 29.7543 48.7274 29.7206 48.703 29.687C49.0143 29.3755 49.3058 29.0369 49.5752 28.6739C49.61 28.6956 49.6456 28.7172 49.6827 28.7362L49.6815 28.7366ZM40.7035 28.8507C38.0886 27.5219 37.1341 24.1473 38.5718 21.3132C40.0092 18.4791 43.2945 17.259 45.9095 18.5878C48.5244 19.9166 49.4789 23.2913 48.0412 26.1254C46.6034 28.9595 43.3185 30.1796 40.7035 28.8507Z" fill="url(#paint39_linear_18_5737)"/>
<path d="M51.429 24.5525C52.2505 24.479 52.9027 23.7232 52.8857 22.8646C52.8687 22.0055 52.1882 21.3686 51.3667 21.4421C51.3238 21.446 51.2817 21.4526 51.2395 21.4603C51.1537 21.0346 51.0362 20.6187 50.8877 20.2162C50.9256 20.1942 50.9631 20.1713 50.9998 20.1454C51.7027 19.6524 52.5725 18.4614 52.0765 17.8016C51.1352 16.5494 50.1609 17.0915 49.4581 17.5845C49.4221 17.6097 49.3881 17.6372 49.3549 17.6646C49.0773 17.3574 48.7726 17.0726 48.4433 16.8129C48.4665 16.775 48.4893 16.7363 48.5098 16.6961C48.7251 16.2712 48.7444 15.803 48.6018 15.4048C47.9229 16.6009 47.2529 17.8024 46.5949 19.0101C48.681 20.5401 49.3452 23.5553 48.0412 26.1259C46.9363 28.3041 44.7396 29.5272 42.5952 29.374C42.4997 29.6224 42.4058 29.872 42.3033 30.1181C42.0253 30.7856 41.7095 31.4392 41.3932 32.092C41.592 32.1295 41.7918 32.1589 41.9921 32.1802C41.9894 32.2236 41.9875 32.2673 41.9882 32.311C42.0052 33.1701 42.5264 33.8999 44.0155 33.8209C44.8394 33.7772 44.9809 32.9046 44.9639 32.0456C44.9631 32.0007 44.9592 31.9569 44.9546 31.9132C45.3667 31.7956 45.7715 31.6454 46.1654 31.4636C46.184 31.5019 46.2037 31.5398 46.2257 31.5769C46.6514 32.2843 48.1286 32.5846 48.8314 32.0916C49.5342 31.5986 49.1971 30.4989 48.7715 29.7915C48.7498 29.7551 48.7259 29.7215 48.7015 29.6878C49.0127 29.3763 49.3042 29.0377 49.5737 28.6748C49.6085 28.6968 49.644 28.7181 49.6812 28.7371C50.4014 29.1031 51.306 28.7669 51.7023 27.9864C52.0982 27.2059 51.8353 26.2764 51.115 25.9103C51.0775 25.8914 51.0397 25.8755 51.0014 25.86C51.1352 25.4282 51.2361 24.9928 51.3037 24.5575C51.3451 24.5575 51.3864 24.5567 51.4286 24.5529L51.429 24.5525Z" fill="url(#paint40_linear_18_5737)"/>
<path d="M50.4559 28.8249C51.1761 29.1909 52.0807 28.8547 52.477 28.0742C52.8729 27.2937 52.61 26.3642 51.8898 25.9982C51.8527 25.9792 51.8144 25.9633 51.7761 25.9478C51.9099 25.516 52.0108 25.0807 52.0784 24.6453C52.1198 24.6453 52.1612 24.6446 52.2033 24.6407C53.0248 24.5672 53.677 23.8114 53.66 22.9528C53.6426 22.0937 52.9626 21.4568 52.1411 21.5303C52.0981 21.5342 52.056 21.5412 52.0139 21.5485C51.928 21.1229 51.8105 20.7069 51.6621 20.3044C51.6999 20.2824 51.7374 20.2596 51.7742 20.2336C52.477 19.7406 52.702 18.7678 52.2764 18.0605C51.8507 17.3531 50.9356 17.1794 50.2324 17.6723C50.1965 17.6975 50.1624 17.725 50.1292 17.7524C49.8516 17.4452 49.547 17.1604 49.2176 16.9008C49.2408 16.8628 49.2636 16.8241 49.2841 16.7839C49.68 16.0034 49.4171 15.0739 48.6968 14.7079C47.9766 14.3418 47.072 14.6781 46.6757 15.4586C46.6552 15.4988 46.6374 15.5402 46.6204 15.5812C46.2164 15.4682 45.807 15.3901 45.3953 15.3471C45.398 15.3038 45.3999 15.2604 45.3992 15.2163C45.3818 14.3573 44.7017 13.7203 43.8802 13.7939C43.0587 13.867 42.4065 14.6231 42.4235 15.4818C42.4243 15.5267 42.4281 15.5704 42.4328 15.6141C42.0207 15.7318 41.6159 15.8819 41.222 16.0638C41.2034 16.0255 41.1837 15.9875 41.1616 15.9504C40.736 15.243 39.8209 15.0693 39.1177 15.5623C38.4149 16.0552 38.1899 17.0281 38.6155 17.7354C38.6372 17.7718 38.6611 17.8055 38.6855 17.8391C38.3743 18.1506 38.0828 18.4892 37.8133 18.8522C37.7785 18.8301 37.7433 18.8088 37.7058 18.7899C36.9856 18.4238 36.081 18.7601 35.6851 19.5406C35.2892 20.3211 35.5521 21.2506 36.2723 21.6166C36.3098 21.6356 36.3477 21.6514 36.386 21.6669C36.2522 22.0988 36.1513 22.5341 36.0837 22.9694C36.0423 22.9694 36.0009 22.9702 35.9588 22.9741C35.1373 23.0476 34.4851 23.8033 34.5021 24.6624C34.5191 25.5214 35.1995 26.1584 36.021 26.0848C36.064 26.081 36.1061 26.0744 36.1482 26.0666C36.2341 26.4923 36.3516 26.9083 36.5 27.3107C36.4622 27.3328 36.4247 27.3556 36.3879 27.3815C35.6851 27.8745 35.4601 28.8473 35.8857 29.5547C36.3114 30.262 37.2265 30.4358 37.9297 29.9428C37.9656 29.9177 37.9997 29.8902 38.0329 29.8627C38.3105 30.17 38.6151 30.4548 38.9445 30.7144C38.9213 30.7523 38.8985 30.791 38.878 30.8313C38.4821 31.6118 38.745 32.5412 39.4653 32.9073C40.1855 33.2734 41.0901 32.9371 41.4864 32.1566C41.5069 32.1164 41.5247 32.075 41.5417 32.0339C41.9457 32.1469 42.3551 32.2251 42.7668 32.268C42.7641 32.3114 42.7622 32.3551 42.7629 32.3988C42.7803 33.2579 43.4604 33.8948 44.2819 33.8213C45.1034 33.7482 45.7556 32.992 45.7386 32.1334C45.7378 32.0885 45.734 32.0448 45.7293 32.001C46.1414 31.8834 46.5462 31.7333 46.9401 31.5514C46.9587 31.5897 46.9784 31.6276 47.0005 31.6648C47.4261 32.3721 48.3412 32.5459 49.044 32.0529C49.7468 31.5599 49.9718 30.5871 49.5462 29.8797C49.5246 29.8434 49.5006 29.8097 49.4762 29.776C49.7874 29.4645 50.0789 29.1259 50.3484 28.763C50.3832 28.7846 50.4184 28.8063 50.4559 28.8253V28.8249ZM41.4779 28.939C38.8629 27.6102 37.9084 24.2356 39.3462 21.4015C40.7839 18.5674 44.0689 17.3473 46.6838 18.6761C49.2988 20.0049 50.2533 23.3796 48.8155 26.2137C47.3778 29.0478 44.0928 30.2679 41.4779 28.939Z" fill="url(#paint41_linear_18_5737)"/>
<defs>
<linearGradient id="paint0_linear_18_5737" x1="77.1386" y1="16.1301" x2="90.3541" y2="83.6563" gradientUnits="userSpaceOnUse">
<stop stop-color="#E38DDD"/>
<stop offset="1" stop-color="#9571F6"/>
</linearGradient>
<linearGradient id="paint1_linear_18_5737" x1="46.702" y1="58.6868" x2="152.036" y2="2.14795" gradientUnits="userSpaceOnUse">
<stop stop-color="#FDF53F"/>
<stop offset="1" stop-color="#D93C65"/>
</linearGradient>
<linearGradient id="paint2_linear_18_5737" x1="89.737" y1="26.3543" x2="78.8766" y2="48.7788" gradientUnits="userSpaceOnUse">
<stop stop-color="#AA80F9"/>
<stop offset="1" stop-color="#6165D7"/>
</linearGradient>
<linearGradient id="paint3_linear_18_5737" x1="92.7954" y1="27.8255" x2="81.9458" y2="50.2268" gradientUnits="userSpaceOnUse">
<stop stop-color="#AA80F9"/>
<stop offset="1" stop-color="#6165D7"/>
</linearGradient>
<linearGradient id="paint4_linear_18_5737" x1="35.237" y1="94.9462" x2="34.4597" y2="104.831" gradientUnits="userSpaceOnUse">
<stop stop-color="#26264F"/>
<stop offset="1" stop-color="#444B8C"/>
</linearGradient>
<linearGradient id="paint5_linear_18_5737" x1="33.3941" y1="100.462" x2="33.5351" y2="90.2524" gradientUnits="userSpaceOnUse">
<stop stop-color="#FFC444"/>
<stop offset="1" stop-color="#F36F56"/>
</linearGradient>
<linearGradient id="paint6_linear_18_5737" x1="22.1712" y1="93.7904" x2="21.3915" y2="103.7" gradientUnits="userSpaceOnUse">
<stop stop-color="#26264F"/>
<stop offset="1" stop-color="#444B8C"/>
</linearGradient>
<linearGradient id="paint7_linear_18_5737" x1="21.4134" y1="100.277" x2="21.5544" y2="90.0691" gradientUnits="userSpaceOnUse">
<stop stop-color="#FFC444"/>
<stop offset="1" stop-color="#F36F56"/>
</linearGradient>
<linearGradient id="paint8_linear_18_5737" x1="35.573" y1="83.9307" x2="28.8311" y2="83.9307" gradientUnits="userSpaceOnUse">
<stop stop-color="#AB316D"/>
<stop offset="1" stop-color="#792D3D"/>
</linearGradient>
<linearGradient id="paint9_linear_18_5737" x1="35.1071" y1="83.9306" x2="28.8311" y2="83.9306" gradientUnits="userSpaceOnUse">
<stop stop-color="#AB316D"/>
<stop offset="1" stop-color="#792D3D"/>
</linearGradient>
<linearGradient id="paint10_linear_18_5737" x1="33.7015" y1="83.187" x2="20.1292" y2="83.187" gradientUnits="userSpaceOnUse">
<stop stop-color="#AB316D"/>
<stop offset="1" stop-color="#792D3D"/>
</linearGradient>
<linearGradient id="paint11_linear_18_5737" x1="24.0133" y1="48.5494" x2="11.0319" y2="60.4197" gradientUnits="userSpaceOnUse">
<stop stop-color="#26264F"/>
<stop offset="1" stop-color="#444B8C"/>
</linearGradient>
<linearGradient id="paint12_linear_18_5737" x1="56.1861" y1="45.1625" x2="53.7718" y2="45.1625" gradientUnits="userSpaceOnUse">
<stop stop-color="#FFC444"/>
<stop offset="1" stop-color="#F36F56"/>
</linearGradient>
<linearGradient id="paint13_linear_18_5737" x1="45.4734" y1="53.5211" x2="35.8438" y2="86.0083" gradientUnits="userSpaceOnUse">
<stop stop-color="#AA80F9"/>
<stop offset="1" stop-color="#6165D7"/>
</linearGradient>
<linearGradient id="paint14_linear_18_5737" x1="33.3949" y1="49.9406" x2="23.7653" y2="82.4282" gradientUnits="userSpaceOnUse">
<stop stop-color="#AA80F9"/>
<stop offset="1" stop-color="#6165D7"/>
</linearGradient>
<linearGradient id="paint15_linear_18_5737" x1="38.4887" y1="60.3134" x2="42.7196" y2="67.3193" gradientUnits="userSpaceOnUse">
<stop stop-color="#6165D7"/>
<stop offset="1" stop-color="#AA80F9"/>
</linearGradient>
<linearGradient id="paint16_linear_18_5737" x1="35.6163" y1="60.0612" x2="46.0878" y2="65.6296" gradientUnits="userSpaceOnUse">
<stop stop-color="#FF9085"/>
<stop offset="1" stop-color="#FB6FBB"/>
</linearGradient>
<linearGradient id="paint17_linear_18_5737" x1="40.3746" y1="52.9646" x2="41.6192" y2="57.0333" gradientUnits="userSpaceOnUse">
<stop stop-color="#26264F"/>
<stop offset="1" stop-color="#444B8C"/>
</linearGradient>
<linearGradient id="paint18_linear_18_5737" x1="36.0211" y1="59.3893" x2="46.4396" y2="64.9295" gradientUnits="userSpaceOnUse">
<stop stop-color="#FF9085"/>
<stop offset="1" stop-color="#FB6FBB"/>
</linearGradient>
<linearGradient id="paint19_linear_18_5737" x1="37.3637" y1="63.7089" x2="33.5515" y2="63.7089" gradientUnits="userSpaceOnUse">
<stop stop-color="#FFC444"/>
<stop offset="1" stop-color="#F36F56"/>
</linearGradient>
<linearGradient id="paint20_linear_18_5737" x1="39.0914" y1="63.6823" x2="14.3487" y2="63.6823" gradientUnits="userSpaceOnUse">
<stop stop-color="#AA80F9"/>
<stop offset="1" stop-color="#6165D7"/>
</linearGradient>
<linearGradient id="paint21_linear_18_5737" x1="32.0762" y1="49.5499" x2="22.4466" y2="82.0375" gradientUnits="userSpaceOnUse">
<stop stop-color="#AA80F9"/>
<stop offset="1" stop-color="#6165D7"/>
</linearGradient>
<linearGradient id="paint22_linear_18_5737" x1="36.9817" y1="50.3015" x2="33.6565" y2="42.3642" gradientUnits="userSpaceOnUse">
<stop stop-color="#FFC444"/>
<stop offset="1" stop-color="#F36F56"/>
</linearGradient>
<linearGradient id="paint23_linear_18_5737" x1="38.2372" y1="47.0107" x2="30.8586" y2="40.1604" gradientUnits="userSpaceOnUse">
<stop stop-color="#FFC444"/>
<stop offset="1" stop-color="#F36F56"/>
</linearGradient>
<linearGradient id="paint24_linear_18_5737" x1="-9.78432" y1="74.4475" x2="41.7385" y2="74.4475" gradientUnits="userSpaceOnUse">
<stop stop-color="#311944"/>
<stop offset="1" stop-color="#893976"/>
</linearGradient>
<linearGradient id="paint25_linear_18_5737" x1="54.497" y1="59.3366" x2="105.751" y2="59.3366" gradientUnits="userSpaceOnUse">
<stop stop-color="#FF9085"/>
<stop offset="1" stop-color="#FB6FBB"/>
</linearGradient>
<linearGradient id="paint26_linear_18_5737" x1="90.1252" y1="77.0644" x2="95.6671" y2="77.0644" gradientUnits="userSpaceOnUse">
<stop stop-color="#FF9085"/>
<stop offset="1" stop-color="#FB6FBB"/>
</linearGradient>
<linearGradient id="paint27_linear_18_5737" x1="78.9308" y1="80.7674" x2="104.284" y2="105.067" gradientUnits="userSpaceOnUse">
<stop stop-color="#AB316D"/>
<stop offset="1" stop-color="#792D3D"/>
</linearGradient>
<linearGradient id="paint28_linear_18_5737" x1="99.8636" y1="83.9684" x2="70.6223" y2="127.859" gradientUnits="userSpaceOnUse">
<stop stop-color="#FFC444"/>
<stop offset="1" stop-color="#F36F56"/>
</linearGradient>
<linearGradient id="paint29_linear_18_5737" x1="101.266" y1="82.6333" x2="92.4815" y2="94.9061" gradientUnits="userSpaceOnUse">
<stop stop-color="#FFC444"/>
<stop offset="1" stop-color="#F36F56"/>
</linearGradient>
<linearGradient id="paint30_linear_18_5737" x1="84.7004" y1="68.5902" x2="97.9441" y2="103.988" gradientUnits="userSpaceOnUse">
<stop stop-color="#FFC444"/>
<stop offset="1" stop-color="#F36F56"/>
</linearGradient>
<linearGradient id="paint31_linear_18_5737" x1="76.7353" y1="138.364" x2="103.107" y2="67.3517" gradientUnits="userSpaceOnUse">
<stop stop-color="#EBEFF2"/>
<stop offset="1" stop-color="white"/>
</linearGradient>
<linearGradient id="paint32_linear_18_5737" x1="103.284" y1="82.4638" x2="87.5989" y2="113.983" gradientUnits="userSpaceOnUse">
<stop stop-color="#FFC444"/>
<stop offset="1" stop-color="#F36F56"/>
</linearGradient>
<linearGradient id="paint33_linear_18_5737" x1="86.0743" y1="79.4105" x2="102.92" y2="110.785" gradientUnits="userSpaceOnUse">
<stop stop-color="#FF9085"/>
<stop offset="1" stop-color="#FB6FBB"/>
</linearGradient>
<linearGradient id="paint34_linear_18_5737" x1="87.5644" y1="78.6101" x2="104.41" y2="109.985" gradientUnits="userSpaceOnUse">
<stop stop-color="#FF9085"/>
<stop offset="1" stop-color="#FB6FBB"/>
</linearGradient>
<linearGradient id="paint35_linear_18_5737" x1="81.3954" y1="81.9225" x2="98.2414" y2="113.297" gradientUnits="userSpaceOnUse">
<stop stop-color="#FF9085"/>
<stop offset="1" stop-color="#FB6FBB"/>
</linearGradient>
<linearGradient id="paint36_linear_18_5737" x1="36.3779" y1="22.489" x2="20.9089" y2="13.4309" gradientUnits="userSpaceOnUse">
<stop stop-color="#FF9085"/>
<stop offset="1" stop-color="#FB6FBB"/>
</linearGradient>
<linearGradient id="paint37_linear_18_5737" x1="17.6441" y1="11.8178" x2="21.0813" y2="13.3633" gradientUnits="userSpaceOnUse">
<stop stop-color="#FF9085"/>
<stop offset="1" stop-color="#FB6FBB"/>
</linearGradient>
<linearGradient id="paint38_linear_18_5737" x1="32.326" y1="26.9122" x2="-5.51242" y2="-20.9718" gradientUnits="userSpaceOnUse">
<stop stop-color="#FF9085"/>
<stop offset="1" stop-color="#FB6FBB"/>
</linearGradient>
<linearGradient id="paint39_linear_18_5737" x1="54.5778" y1="30.1482" x2="43.3046" y2="23.5469" gradientUnits="userSpaceOnUse">
<stop stop-color="#FF9085"/>
<stop offset="1" stop-color="#FB6FBB"/>
</linearGradient>
<linearGradient id="paint40_linear_18_5737" x1="40.9255" y1="22.3716" x2="43.4302" y2="23.4978" gradientUnits="userSpaceOnUse">
<stop stop-color="#FF9085"/>
<stop offset="1" stop-color="#FB6FBB"/>
</linearGradient>
<linearGradient id="paint41_linear_18_5737" x1="51.6249" y1="33.372" x2="24.0494" y2="-1.52448" gradientUnits="userSpaceOnUse">
<stop stop-color="#FF9085"/>
<stop offset="1" stop-color="#FB6FBB"/>
</linearGradient>
</defs>
</svg>
