<svg width="33" height="16" viewBox="0 0 33 16" fill="none" xmlns="http://www.w3.org/2000/svg">
<path d="M0.881308 8.65712H23.6583C24.143 8.65712 24.5396 8.26054 24.5396 7.77582C24.5396 7.29111 24.143 6.89453 23.6583 6.89453H0.881308C0.396597 6.89453 1.52588e-05 7.29111 1.52588e-05 7.77582C1.52588e-05 8.26054 0.396597 8.65712 0.881308 8.65712Z" fill="white"/>
<path fill-rule="evenodd" clip-rule="evenodd" d="M31.6561 6.89453C31.1713 6.89453 30.7748 7.29111 30.7748 7.77582C30.7748 8.26054 31.1713 8.65712 31.6561 8.65712C32.1408 8.65712 32.5374 8.26054 32.5374 7.77582C32.5374 7.29111 32.1452 6.89453 31.6561 6.89453Z" fill="white"/>
<path d="M27.6594 8.65712C27.1727 8.65712 26.7781 8.26255 26.7781 7.77582C26.7781 7.2891 27.1727 6.89453 27.6594 6.89453C28.1461 6.89453 28.5407 7.2891 28.5407 7.77582C28.5407 8.26255 28.1461 8.65712 27.6594 8.65712Z" fill="white"/>
<path d="M6.73749 15.54C6.94019 15.54 7.14289 15.4695 7.30593 15.3285C7.67607 15.0112 7.72013 14.456 7.40727 14.0858L2.0402 7.77579L7.40727 1.46132C7.72454 1.09118 7.67607 0.535968 7.30593 0.218702C6.93578 -0.0985632 6.38057 -0.0500906 6.0633 0.320052L0.21152 7.20295C-0.0660868 7.53343 -0.0660868 8.01374 0.21152 8.34422L6.0633 15.2315C6.23956 15.4386 6.48632 15.54 6.73749 15.54Z" fill="white"/>
</svg>
