<svg width="17" height="16" viewBox="0 0 17 16" fill="none" xmlns="http://www.w3.org/2000/svg">
<g clip-path="url(#clip0_325_593)">
<path d="M12.948 7.1875C13.2932 7.1875 13.573 6.90768 13.573 6.5625C13.573 6.21732 13.2932 5.9375 12.948 5.9375C12.6028 5.9375 12.323 6.21732 12.323 6.5625C12.323 6.90768 12.6028 7.1875 12.948 7.1875Z" fill="#717171"/>
<path d="M14.3855 1.25H13.573V0.625C13.573 0.279813 13.2932 0 12.948 0C12.6028 0 12.323 0.279813 12.323 0.625V1.25H9.47925V0.625C9.47925 0.279813 9.19944 0 8.85425 0C8.50906 0 8.22925 0.279813 8.22925 0.625V1.25H5.41675V0.625C5.41675 0.279813 5.13694 0 4.79175 0C4.44656 0 4.16675 0.279813 4.16675 0.625V1.25H3.3855C2.007 1.25 0.885498 2.3715 0.885498 3.75V13.5C0.885498 14.8785 2.007 16 3.3855 16H8.16675C8.51194 16 8.79175 15.7202 8.79175 15.375C8.79175 15.0298 8.51194 14.75 8.16675 14.75H3.3855C2.69625 14.75 2.1355 14.1892 2.1355 13.5V3.75C2.1355 3.06075 2.69625 2.5 3.3855 2.5H4.16675V3.125C4.16675 3.47019 4.44656 3.75 4.79175 3.75C5.13694 3.75 5.41675 3.47019 5.41675 3.125V2.5H8.22925V3.125C8.22925 3.47019 8.50906 3.75 8.85425 3.75C9.19944 3.75 9.47925 3.47019 9.47925 3.125V2.5H12.323V3.125C12.323 3.47019 12.6028 3.75 12.948 3.75C13.2932 3.75 13.573 3.47019 13.573 3.125V2.5H14.3855C15.0747 2.5 15.6355 3.06075 15.6355 3.75V7.3125C15.6355 7.65769 15.9153 7.9375 16.2605 7.9375C16.6057 7.9375 16.8855 7.65769 16.8855 7.3125V3.75C16.8855 2.3715 15.764 1.25 14.3855 1.25Z" fill="#717171"/>
<path d="M13.1042 8.4375C11.0192 8.4375 9.323 10.1337 9.323 12.2188C9.323 14.3038 11.0192 16 13.1042 16C15.1892 16 16.8855 14.3038 16.8855 12.2188C16.8855 10.1337 15.1892 8.4375 13.1042 8.4375ZM13.1042 14.75C11.7085 14.75 10.573 13.6145 10.573 12.2188C10.573 10.823 11.7085 9.6875 13.1042 9.6875C14.5 9.6875 15.6355 10.823 15.6355 12.2188C15.6355 13.6145 14.5 14.75 13.1042 14.75Z" fill="#717171"/>
<path d="M14.0105 11.5938H13.7292V10.9375C13.7292 10.5923 13.4494 10.3125 13.1042 10.3125C12.7591 10.3125 12.4792 10.5923 12.4792 10.9375V12.2188C12.4792 12.5639 12.7591 12.8438 13.1042 12.8438H14.0105C14.3557 12.8438 14.6355 12.5639 14.6355 12.2188C14.6355 11.8736 14.3557 11.5938 14.0105 11.5938Z" fill="#717171"/>
<path d="M10.2292 7.1875C10.5744 7.1875 10.8542 6.90768 10.8542 6.5625C10.8542 6.21732 10.5744 5.9375 10.2292 5.9375C9.88407 5.9375 9.60425 6.21732 9.60425 6.5625C9.60425 6.90768 9.88407 7.1875 10.2292 7.1875Z" fill="#717171"/>
<path d="M7.5105 9.90625C7.85568 9.90625 8.1355 9.62643 8.1355 9.28125C8.1355 8.93607 7.85568 8.65625 7.5105 8.65625C7.16532 8.65625 6.8855 8.93607 6.8855 9.28125C6.8855 9.62643 7.16532 9.90625 7.5105 9.90625Z" fill="#717171"/>
<path d="M4.79175 7.1875C5.13693 7.1875 5.41675 6.90768 5.41675 6.5625C5.41675 6.21732 5.13693 5.9375 4.79175 5.9375C4.44657 5.9375 4.16675 6.21732 4.16675 6.5625C4.16675 6.90768 4.44657 7.1875 4.79175 7.1875Z" fill="#717171"/>
<path d="M4.79175 9.90625C5.13693 9.90625 5.41675 9.62643 5.41675 9.28125C5.41675 8.93607 5.13693 8.65625 4.79175 8.65625C4.44657 8.65625 4.16675 8.93607 4.16675 9.28125C4.16675 9.62643 4.44657 9.90625 4.79175 9.90625Z" fill="#717171"/>
<path d="M4.79175 12.625C5.13693 12.625 5.41675 12.3452 5.41675 12C5.41675 11.6548 5.13693 11.375 4.79175 11.375C4.44657 11.375 4.16675 11.6548 4.16675 12C4.16675 12.3452 4.44657 12.625 4.79175 12.625Z" fill="#717171"/>
<path d="M7.5105 12.625C7.85568 12.625 8.1355 12.3452 8.1355 12C8.1355 11.6548 7.85568 11.375 7.5105 11.375C7.16532 11.375 6.8855 11.6548 6.8855 12C6.8855 12.3452 7.16532 12.625 7.5105 12.625Z" fill="#717171"/>
<path d="M7.5105 7.1875C7.85568 7.1875 8.1355 6.90768 8.1355 6.5625C8.1355 6.21732 7.85568 5.9375 7.5105 5.9375C7.16532 5.9375 6.8855 6.21732 6.8855 6.5625C6.8855 6.90768 7.16532 7.1875 7.5105 7.1875Z" fill="#717171"/>
</g>
<defs>
<clipPath id="clip0_325_593">
<rect width="16" height="16" fill="white" transform="translate(0.885498)"/>
</clipPath>
</defs>
</svg>
