<svg width="111" height="101" viewBox="0 0 111 101" fill="none" xmlns="http://www.w3.org/2000/svg">
<g clip-path="url(#clip0_18_5879)">
<path d="M54.2095 12.6189C55.1649 8.51319 52.6111 4.41034 48.5054 3.45491C44.3997 2.49948 40.2969 5.05329 39.3414 9.15899C38.386 13.2647 40.9398 17.3675 45.0455 18.323C49.1512 19.2784 53.2541 16.7246 54.2095 12.6189Z" fill="#CFD8DD"/>
<path d="M103.443 39.9019C106.667 38.5413 108.178 34.8247 106.817 31.6006C105.457 28.3765 101.74 26.8658 98.5157 28.2264C95.2916 29.587 93.7809 33.3036 95.1415 36.5277C96.5021 39.7519 100.219 41.2625 103.443 39.9019Z" fill="#CFD8DD"/>
<path d="M6.1115 47.8109C9.46642 47.8109 12.1861 45.0912 12.1861 41.7363C12.1861 38.3813 9.46642 35.6616 6.1115 35.6616C2.75657 35.6616 0.0368652 38.3813 0.0368652 41.7363C0.0368652 45.0912 2.75657 47.8109 6.1115 47.8109Z" fill="#CFD8DD"/>
<path d="M16.5452 34.615C17.6647 39.26 21.6846 43.4083 20.7274 48.0897C19.9206 52.0393 15.9564 54.3364 12.7677 56.8006C10.158 58.8166 7.81976 61.3003 6.49677 64.3218C5.17377 67.3434 4.96781 70.9586 6.46527 73.8978C8.89803 78.6785 14.9 80.3965 20.2622 80.5443C28.5612 80.772 36.9135 78.3732 43.8265 73.7742C48.3601 70.7599 52.3436 66.8006 57.3836 64.7459C63.434 62.2816 70.6741 62.9722 76.1503 66.5365C80.0999 69.1074 83.1118 73.0158 87.3012 75.1723C94.2385 78.7391 103.708 76.1222 107.829 69.4999C111.951 62.8777 110.119 53.2266 103.856 48.5767C101.268 46.6552 98.1663 45.5794 95.1714 44.3897C92.1764 43.1975 89.1476 41.8018 86.9717 39.4224C84.7934 37.0454 83.6521 33.4544 84.9654 30.5103C86.8602 26.2627 92.5569 25.291 95.6027 21.7752C99.0095 17.8425 98.0281 11.2615 94.1997 7.73835C90.3713 4.21521 84.505 3.5319 79.5329 5.0657C74.5607 6.59951 70.3858 10.05 66.9329 13.9438C63.48 17.8353 60.6257 22.2162 57.3642 26.27C54.1173 30.3068 49.625 34.3364 44.4929 33.6482C38.8084 32.8874 35.4863 27.055 31.5779 23.5149C27.1873 19.5387 21.9874 20.3335 18.4231 25.2232C16.4822 27.8862 15.7747 31.4117 16.5477 34.6174L16.5452 34.615Z" fill="#CFD8DD"/>
<path d="M96.4386 91.981C96.4386 92.5334 92.3776 92.9817 87.3691 92.9817C82.3606 92.9817 78.2995 92.5334 78.2995 91.981C78.2995 91.4285 82.3606 90.9802 87.3691 90.9802C92.3776 90.9802 96.4386 91.4285 96.4386 91.981Z" fill="#B1BEC4"/>
<path d="M25.8474 91.981C25.8474 92.5334 21.7863 92.9817 16.7778 92.9817C11.7694 92.9817 7.7083 92.5334 7.7083 91.981C7.7083 91.4285 11.7694 90.9802 16.7778 90.9802C21.7863 90.9802 25.8474 91.4285 25.8474 91.981Z" fill="#B1BEC4"/>
<path d="M37.4054 93.5026C37.4054 94.135 32.7628 94.6463 27.0347 94.6463C21.3066 94.6463 16.664 94.135 16.664 93.5026C16.664 92.8702 21.3066 92.3589 27.0347 92.3589C32.7628 92.3589 37.4054 92.8702 37.4054 93.5026Z" fill="#B1BEC4"/>
<path d="M104.713 91.981C104.713 92.5334 101.735 92.9817 98.0621 92.9817C94.3887 92.9817 91.4107 92.5334 91.4107 91.981C91.4107 91.4285 94.3887 90.9802 98.0621 90.9802C101.735 90.9802 104.713 91.4285 104.713 91.981Z" fill="#B1BEC4"/>
<path d="M24.4759 91.9809H23.749V65.3151H3.79989V91.9809H3.07297V64.5881H24.4759V91.9809Z" fill="#FBBD06"/>
<path d="M108.644 91.9809H108.159V65.1938H87.97V91.9809H87.4854V64.7092H108.644V91.9809Z" fill="#FBBD06"/>
<path d="M81.8784 12.8872H28.3553V85.7246H81.8784V12.8872Z" fill="#7E57C2"/>
<path d="M30.2937 83.7862V14.8257H41.4398L44.8733 18.2616H65.4791L68.9126 14.8257H79.9424V83.7862H30.2937Z" fill="#4C3583"/>
<path d="M75.6996 17.49L32.0817 21.8052L38.0825 82.4613L81.7004 78.1461L75.6996 17.49Z" fill="#FAFAFA"/>
<path d="M49.2991 28.0071L35.5249 29.4573L35.75 31.5947L49.5241 30.1446L49.2991 28.0071Z" fill="#FBBD06"/>
<path d="M76.5052 69.099L40.5951 72.8796L40.877 75.5569L76.7871 71.7762L76.5052 69.099Z" fill="#CFD8DD"/>
<path d="M72.9333 25.5171L59.1592 26.9673L59.3842 29.1047L73.1583 27.6546L72.9333 25.5171Z" fill="#F6A1FE"/>
<path d="M40.8658 35.4532L36.2077 35.9436L36.6981 40.6016L41.3562 40.1112L40.8658 35.4532Z" fill="#9A5BFF"/>
<path d="M38.5879 39.708L37.1364 37.755L37.9143 37.1759L38.7647 38.322L43.1481 34.8013L43.7563 35.5573L38.5879 39.708Z" fill="#FBBD06"/>
<path d="M64.2281 32.9923L45.9212 34.9197L46.009 35.7535L64.3159 33.8261L64.2281 32.9923Z" fill="#26C0D4"/>
<path d="M73.1382 33.7204L46.096 36.5674L46.1317 36.9072L73.174 34.0601L73.1382 33.7204Z" fill="#26C0D4"/>
<path d="M73.2583 34.8742L46.2161 37.7212L46.2518 38.061L73.294 35.2139L73.2583 34.8742Z" fill="#26C0D4"/>
<path d="M73.3786 36.0302L46.3364 38.8772L46.3722 39.217L73.4144 36.37L73.3786 36.0302Z" fill="#26C0D4"/>
<path d="M41.8962 45.2308L37.2381 45.7212L37.7285 50.3792L42.3866 49.8888L41.8962 45.2308Z" fill="#9A5BFF"/>
<path d="M39.6176 49.4873L38.1662 47.5343L38.944 46.9576L39.7945 48.1013L44.1779 44.5806L44.786 45.3366L39.6176 49.4873Z" fill="#FBBD06"/>
<path d="M65.2585 42.7726L46.9516 44.7L47.0394 45.5337L65.3462 43.6064L65.2585 42.7726Z" fill="#26C0D4"/>
<path d="M74.1662 43.5006L47.124 46.3477L47.1597 46.6874L74.2019 43.8404L74.1662 43.5006Z" fill="#26C0D4"/>
<path d="M74.2889 44.6569L47.2467 47.5039L47.2825 47.8437L74.3247 44.9967L74.2889 44.6569Z" fill="#26C0D4"/>
<path d="M74.409 45.8104L47.3668 48.6575L47.4026 48.9972L74.4448 46.1502L74.409 45.8104Z" fill="#26C0D4"/>
<path d="M42.9244 55.0135L38.2664 55.5039L38.7568 60.162L43.4148 59.6716L42.9244 55.0135Z" fill="#9A5BFF"/>
<path d="M40.6475 59.2668L39.196 57.3138L39.9739 56.7371L40.8243 57.8808L45.2077 54.3601L45.8159 55.1161L40.6475 59.2668Z" fill="#FBBD06"/>
<path d="M66.2865 52.5529L47.9796 54.4802L48.0674 55.314L66.3742 53.3866L66.2865 52.5529Z" fill="#26C0D4"/>
<path d="M75.1966 53.2809L48.1544 56.1279L48.1901 56.4677L75.2323 53.6207L75.1966 53.2809Z" fill="#26C0D4"/>
<path d="M75.3169 54.4372L48.2747 57.2842L48.3105 57.624L75.3527 54.7769L75.3169 54.4372Z" fill="#26C0D4"/>
<path d="M75.4394 55.5907L48.3972 58.4377L48.433 58.7775L75.4752 55.9305L75.4394 55.5907Z" fill="#26C0D4"/>
<path d="M43.9572 64.7935L39.2992 65.2839L39.7896 69.942L44.4476 69.4516L43.9572 64.7935Z" fill="#9A5BFF"/>
<path d="M41.6773 69.0464L40.2259 67.0958L41.0037 66.5167L41.8542 67.6604L46.2375 64.1421L46.8457 64.8957L41.6773 69.0464Z" fill="#FBBD06"/>
<path d="M67.3168 62.3307L49.01 64.2581L49.0978 65.0918L67.4046 63.1645L67.3168 62.3307Z" fill="#26C0D4"/>
<path d="M76.227 63.0612L49.1848 65.9082L49.2205 66.248L76.2627 63.4009L76.227 63.0612Z" fill="#26C0D4"/>
<path d="M76.3473 64.215L49.3051 67.062L49.3409 67.4018L76.3831 64.5548L76.3473 64.215Z" fill="#26C0D4"/>
<path d="M76.4674 65.3686L49.4252 68.2156L49.461 68.5553L76.5032 65.7083L76.4674 65.3686Z" fill="#26C0D4"/>
<path d="M70.8171 14.9954H40.4027V20.8035H70.8171V14.9954Z" stroke="#FBBD06" stroke-width="3" stroke-miterlimit="10"/>
<path d="M66.0557 16.2262H44.9726L41.5392 11.1401H69.4917L66.0557 16.2262Z" fill="#FDA833"/>
<path d="M64.5341 13.6819C63.0318 13.7328 61.527 13.7546 60.0247 13.774C58.5224 13.7934 57.0177 13.791 55.5154 13.8031C54.0131 13.7934 52.5084 13.7934 51.0061 13.7764L48.7502 13.7425C47.999 13.7231 47.2479 13.711 46.4943 13.6819C47.2455 13.6553 47.9966 13.6432 48.7502 13.6214L51.0061 13.5874C52.5084 13.5681 54.0131 13.5681 55.5154 13.5608C57.0177 13.5705 58.5224 13.5681 60.0247 13.5899C61.527 13.6093 63.0318 13.6335 64.5341 13.6819Z" fill="#000412"/>
<path d="M56.034 0.175781C52.6198 0.175781 49.8503 2.94292 49.8503 6.35945C49.8503 9.77598 52.6174 12.5431 56.034 12.5431C59.4505 12.5431 62.2176 9.77598 62.2176 6.35945C62.2176 2.94292 59.4505 0.175781 56.034 0.175781ZM56.034 9.28651C54.4178 9.28651 53.1069 7.97564 53.1069 6.35945C53.1069 4.74326 54.4178 3.43238 56.034 3.43238C57.6501 3.43238 58.961 4.74326 58.961 6.35945C58.961 7.97564 57.6501 9.28651 56.034 9.28651Z" fill="#FDA833"/>
<path d="M20.4342 59.6377C20.2792 60.2386 20.1314 60.8396 19.9884 61.4405C19.6152 63.0034 19.2736 64.5735 18.9465 66.1364C18.8665 66.5095 18.7914 66.8875 18.7114 67.2583C18.4546 68.5304 18.2026 69.8001 17.9676 71.0722C17.7204 72.3443 17.4926 73.6212 17.2746 74.8909C16.8166 77.44 16.4216 79.9866 16.0655 82.5357C15.7383 85.0896 15.4355 87.6435 15.2973 90.2047L13.7272 90.1248C13.858 87.566 13.8193 84.9927 13.7563 82.417C13.6715 79.8461 13.5455 77.268 13.3492 74.685C13.2644 73.3959 13.165 72.1068 13.056 70.8202C12.9518 69.5263 12.8331 68.2372 12.7071 66.9433C12.4502 64.3603 12.1692 61.7773 11.7863 59.1895L19.734 59.6014L20.4318 59.6353L20.4342 59.6377Z" fill="#0C47A3"/>
<path d="M27.6962 59.4123C27.4321 61.2611 27.1801 63.1124 26.9353 64.9612C26.5404 67.9052 26.1672 70.8492 25.8062 73.7908C25.5033 76.1848 25.2271 78.5836 24.9533 80.9776C24.6843 83.3765 24.6601 87.8107 24.4493 90.2023L22.9542 90.1223C22.7434 87.7283 22.7144 83.3765 22.4454 80.9776C22.1716 78.5836 21.8954 76.1848 21.5925 73.7908C21.2726 71.1618 20.9407 68.54 20.5893 65.911C20.3955 64.4232 20.1944 62.9282 19.9884 61.438C19.9085 60.825 19.8212 60.2119 19.7364 59.5989C19.7243 59.5359 19.7195 59.4729 19.7073 59.4099H27.6962V59.4123Z" fill="#0C47A3"/>
<path d="M13.7369 90.1152L13.6666 91.8235L18.3843 91.8477C18.3843 91.8477 18.4037 90.9512 15.5808 90.9512L15.2344 90.1952L13.7369 90.1128V90.1152Z" fill="#2A3121"/>
<path d="M22.9349 90.1152L22.8646 91.8235L27.5823 91.8477C27.5823 91.8477 27.6017 90.9512 24.7788 90.9512L24.4323 90.1952L22.9349 90.1128V90.1152Z" fill="#2A3121"/>
<path d="M17.2673 42.1505C17.1583 42.1553 16.9111 42.1965 16.7221 42.2353C16.521 42.2692 16.315 42.3152 16.1139 42.3661C15.702 42.463 15.2949 42.589 14.8951 42.7223C14.0931 42.9961 13.3201 43.3475 12.6102 43.7642C12.3994 43.8902 12.191 44.0162 11.9971 44.1592C10.8462 44.9491 9.91329 45.9692 9.33902 47.205C9.00222 47.9319 8.77687 48.7218 8.6751 49.5651C8.59999 50.4059 8.58303 51.2782 8.70903 52.1602C8.89318 53.6891 9.35599 55.2253 9.95691 56.7228C10.1193 57.125 9.93995 57.5854 9.55226 57.7817C9.14033 57.9901 8.63876 57.8277 8.42068 57.4206C7.61138 55.9135 6.91838 54.3094 6.50404 52.5721C6.24719 51.5641 6.13088 50.5052 6.11392 49.4221C6.11877 48.339 6.29081 47.2292 6.647 46.1582C7.34484 44.0162 8.83503 42.1844 10.5748 40.8784C10.5918 40.8662 10.6039 40.8565 10.6208 40.8444C11.498 40.1805 12.443 39.6305 13.4146 39.1604C13.9065 38.9302 14.3984 38.7194 14.9097 38.5304C15.1665 38.4383 15.4258 38.3535 15.6875 38.2663C15.9613 38.1815 16.1866 38.1112 16.5477 38.0312L17.2625 42.148L17.2673 42.1505Z" fill="#DC6C56"/>
<path d="M35.874 35.1405C35.6899 36.2067 35.3022 37.2874 34.6722 38.2493C34.0422 39.2161 33.1893 40.0424 32.2394 40.6603C31.2944 41.2903 30.2646 41.7313 29.2324 42.0463C29.0555 42.0972 28.8835 42.1505 28.7066 42.1941C27.8416 42.4291 26.9717 42.5842 26.1066 42.6763C25.5663 42.7417 25.0332 42.7684 24.4953 42.7853C24.207 42.795 23.9162 42.7926 23.6278 42.7877C23.3904 42.7829 23.1772 42.7805 22.867 42.749L23.5648 38.213C23.6739 38.2469 23.9162 38.2881 24.0979 38.322C24.2966 38.3511 24.4905 38.3826 24.6892 38.4117C25.1011 38.4577 25.5227 38.4989 25.9419 38.5159C26.7657 38.5571 27.592 38.528 28.3746 38.4117C28.4885 38.3947 28.5976 38.3778 28.7066 38.3535C30.1556 38.1015 31.4616 37.5394 32.3727 36.5314C32.8597 35.9935 33.2426 35.3295 33.5067 34.5663C33.7417 33.7982 33.8847 32.9695 33.9186 32.0972C33.9962 30.5343 33.7538 28.906 33.3928 27.2922C33.3225 26.9796 33.497 26.6671 33.7999 26.5653C34.11 26.4611 34.4517 26.6186 34.5704 26.9215C35.2028 28.528 35.7311 30.2047 35.9273 32.0172C36.0412 33.0252 36.0364 34.0671 35.8765 35.1333L35.874 35.1405Z" fill="#DC6C56"/>
<path d="M28.7042 38.3585C28.5951 38.3803 28.4861 38.3997 28.3722 38.4166C27.5871 38.5305 26.7633 38.5596 25.9395 38.5208C25.5275 38.5039 25.1084 38.4627 24.7037 38.4166C24.4977 38.3876 24.2966 38.3585 24.0955 38.3246C24.0059 38.3076 23.9041 38.2906 23.8096 38.2713C22.7022 37.5007 21.3574 37.0476 19.906 37.0476C18.5685 37.0476 17.323 37.4377 16.269 38.0992C16.0606 38.1525 15.8886 38.2058 15.6947 38.2664C15.4306 38.3512 15.1738 38.4384 14.9169 38.5305C14.4081 38.7195 13.9138 38.9303 13.4219 39.1605C12.4478 39.6306 11.5028 40.1806 10.6281 40.8446C10.6111 40.8567 10.599 40.8664 10.5821 40.8785L12.002 44.1593C12.1958 44.0164 12.4018 43.8904 12.615 43.7644C12.7604 43.6771 12.9203 43.6069 13.0706 43.5269C13.0633 43.6529 13.0512 43.7765 13.0512 43.9025L11.7572 59.6161H27.8706L26.7609 43.9025C26.7609 43.4566 26.7148 43.0205 26.6325 42.5989C27.323 42.5044 28.0136 42.3808 28.7018 42.1942V38.3585H28.7042Z" fill="#FBBD06"/>
<path d="M19.0628 34.5759L18.3601 37.9416L21.5464 38.0336L20.1992 34.6632L19.0628 34.5759Z" fill="#DC6C56"/>
<path d="M19.0507 35.6614L21.3744 37.7283L20.9261 36.0442L19.0507 35.6614Z" fill="#954A2D"/>
<path d="M28.7042 42.1964C28.0306 42.4121 27.3473 42.5841 26.6615 42.7368L26.5573 42.7586L26.5089 42.6592C26.0315 41.6536 25.5857 40.6335 25.2416 39.5674C25.8256 40.5245 26.3078 41.5276 26.756 42.5453L26.6058 42.4678C27.2988 42.3491 27.9966 42.2521 28.7017 42.1964H28.7042Z" fill="#000412"/>
<path d="M11.9996 44.1617C12.3267 43.9 12.6683 43.6674 13.0124 43.4372L12.9712 43.4808C13.2329 42.9041 13.5237 42.3419 13.829 41.7871C14.1367 41.2346 14.4638 40.6918 14.8297 40.1685C14.6068 40.767 14.3475 41.3436 14.0689 41.9131C13.7854 42.4776 13.4897 43.0374 13.1626 43.5801L13.1432 43.6116L13.1214 43.6237C12.7531 43.8152 12.3824 44.0017 11.9971 44.1617H11.9996Z" fill="#000412"/>
<path d="M23.1214 31.6755L22.8694 36.5749L18.9925 36.2599L19.1912 31.5398L23.1214 31.6755Z" fill="#DC6C56"/>
<path d="M19.8285 34.6294C19.9981 34.3265 19.9981 33.9654 20.0248 33.6189C20.0538 33.2749 20.1314 32.9017 20.3979 32.6812C20.8777 32.2838 21.5804 32.6206 22.1886 32.7588C22.7386 32.8848 23.3444 32.8169 23.8217 32.5164C24.2991 32.2136 24.6286 31.6635 24.6019 31.099C24.5607 30.2218 23.5527 29.5336 22.7216 29.8147C22.1062 30.0231 21.6652 30.6361 21.0231 30.7476C20.5796 30.8227 20.1411 30.6386 19.7073 30.5198C19.2736 30.4011 18.7575 30.3648 18.428 30.6701C18.0863 30.9851 18.0984 31.5303 18.2317 31.9761C18.365 32.4195 18.5976 32.8436 18.6218 33.3064C18.6436 33.7522 18.4692 34.1835 18.2947 34.5954C18.2874 34.6148 19.4602 35.2909 19.8285 34.6318V34.6294Z" fill="#5652E7"/>
<path d="M27.8707 59.6184H11.8493L12.0553 61.1013L27.8707 59.6184Z" fill="#000412"/>
<path d="M12.5447 58.6032C14.8951 58.4844 17.2455 58.4772 19.5983 58.4602C21.9487 58.4772 24.299 58.4844 26.6518 58.6032C24.3015 58.7219 21.9511 58.7292 19.5983 58.7461C17.2479 58.7292 14.8975 58.7219 12.5447 58.6032Z" fill="#000412"/>
<path d="M19.9884 61.4405L21.9802 61.1013V76.9845L19.9884 61.4405Z" fill="#010101"/>
<path d="M9.03129 42.2571C9.03129 42.2571 10.0732 41.1716 10.5772 40.8784L11.9971 44.1593L9.02887 42.2547L9.03129 42.2571Z" fill="#010101"/>
<path d="M28.4376 64.6802C27.8949 65.3005 27.638 66.1583 27.7471 66.9724C27.8246 67.5612 28.0863 68.1379 28.0087 68.7291C27.8997 69.5651 27.1655 70.1515 26.567 70.7451C25.811 71.4939 25.1931 72.3952 24.8612 73.4057C24.5292 74.4161 24.4953 75.538 24.8612 76.5363C25.3458 77.8593 26.504 78.8745 27.8319 79.3446C29.1597 79.8147 30.6329 79.7711 31.9898 79.3955C33.4243 78.9981 34.7836 78.2033 35.6559 76.9991C36.5283 75.7948 36.8529 74.152 36.2956 72.7708C35.9637 71.9518 35.3506 71.254 35.1156 70.4011C34.6722 68.7873 35.6729 66.9458 34.9339 65.4459C34.5704 64.7117 33.8386 64.2125 33.0584 63.9605C31.5852 63.4856 29.545 63.4129 28.4376 64.6778V64.6802Z" fill="#F95448"/>
<path d="M36.7051 77.6728C36.756 77.7115 36.8142 77.7503 36.865 77.7891L38.3843 75.5598L38.3649 75.5405C37.1873 74.5422 35.9831 73.6166 34.74 72.7079C33.7902 71.7023 32.3363 71.1135 30.6571 71.1135C28.9004 71.1135 27.3642 71.7653 26.3974 72.8581C25.1641 73.7571 23.9695 74.6754 22.804 75.664C22.6828 75.7731 22.5544 75.8748 22.4333 75.9839L23.7781 78.3028C24.0083 78.1307 24.2384 77.9635 24.4711 77.7963C24.8054 77.5589 25.1568 77.336 25.4984 77.1033L26.1333 80.4011L24.2118 88.407H36.8142L35.2125 80.4011L35.7529 77.0258C36.0703 77.2415 36.3974 77.4498 36.71 77.6703L36.7051 77.6728Z" fill="#F6A1FE"/>
<path d="M22.002 85.6033L34.7909 96.0758L33.9235 97.3795L19.3269 89.6232C18.0596 88.9496 17.6501 87.331 18.4449 86.1364C19.2397 84.9418 20.8922 84.6947 22.002 85.6033Z" fill="#26C0D4"/>
<path d="M41.2629 90.6917L26.378 97.881L25.5615 96.5434L38.743 86.5725C39.8866 85.7075 41.5295 86.0176 42.2758 87.2413C43.0245 88.4649 42.552 90.069 41.2605 90.6917H41.2629Z" fill="#26C0D4"/>
<path d="M24.207 88.4092H36.8093L31.1176 94.067L24.207 88.4092Z" fill="#26C0D4"/>
<path d="M26.3998 89.2065C27.5871 90.0183 28.7163 90.9051 29.8285 91.8089C30.9334 92.7224 32.0262 93.6529 33.056 94.6584C31.8663 93.8467 30.7396 92.9623 29.6274 92.0561C28.5224 91.1426 27.4321 90.2121 26.3998 89.2065Z" fill="#000412"/>
<path d="M36.315 88.4092L30.6572 92.6907L33.795 88.4092H36.315Z" fill="#000412"/>
<path d="M30.8244 95.7342L29.6734 96.2915L28.3625 94.4258L30.8244 95.7342Z" fill="#000412"/>
<path d="M34.3548 74.3652H26.7536V83.396H34.3548V74.3652Z" fill="white"/>
<path d="M27.386 78.5136C27.1558 78.2374 26.7633 78.1938 26.475 78.3973C26.2641 78.55 26.0509 78.705 25.8353 78.8577C24.7643 79.6137 23.6569 80.3115 22.5278 80.8761C22.1498 81.0627 21.7645 81.2274 21.3865 81.351C21.0473 81.4722 20.7008 81.5376 20.4754 81.5303C20.5142 81.4407 20.5845 81.2686 20.7129 81.1014C21.1176 80.532 21.75 79.9359 22.3994 79.3908C22.8404 79.02 23.3032 78.6614 23.7781 78.3076L22.4333 75.9888C21.8493 76.4952 21.2799 77.021 20.7226 77.5783C20.049 78.2713 19.3899 78.9691 18.8205 79.9311C18.6799 80.1807 18.5443 80.4375 18.4425 80.7768C18.3334 81.0918 18.2704 81.5327 18.3601 82.0004C18.5079 82.5335 18.7696 82.9042 19.1864 83.1925C19.6104 83.4688 20.0393 83.5197 20.3979 83.5269C21.0909 83.5003 21.5973 83.3089 22.0698 83.1102C22.5447 82.9042 22.9664 82.6692 23.3759 82.4172C24.3572 81.8138 25.261 81.1548 26.1188 80.4496C26.5283 80.1298 26.9256 79.7906 27.3182 79.4489C27.4708 79.3132 27.5484 79.1291 27.5484 78.9425C27.5484 78.7898 27.4975 78.6348 27.3884 78.5136H27.386ZM20.4149 81.5327C20.364 81.4746 20.2622 81.494 20.4149 81.5327Z" fill="#F8AC70"/>
<path d="M42.7337 80.6458C42.632 80.3114 42.4963 80.0497 42.3557 79.8002C41.7863 78.8382 41.1248 78.1404 40.4536 77.4474C39.7873 76.7738 39.0894 76.1583 38.3843 75.5574L36.8651 77.7866C37.5241 78.2615 38.1735 78.7486 38.7744 79.2598C39.4141 79.805 40.049 80.4011 40.4536 80.9705C40.5893 81.1377 40.6596 81.3097 40.7032 81.3994C40.4924 81.4115 40.1338 81.3412 39.78 81.2201C39.4093 81.0989 39.024 80.9317 38.6388 80.7452C37.5556 80.2072 36.4919 79.5409 35.4597 78.8237C35.2028 78.6444 34.946 78.4578 34.6916 78.2736C34.5753 78.1912 34.4347 78.1452 34.2942 78.1452C34.1076 78.1452 33.9162 78.2276 33.7878 78.3827C33.5503 78.6589 33.5818 79.0757 33.8508 79.318C34.299 79.7081 34.7546 80.0934 35.2222 80.4641C36.0364 81.111 36.882 81.7192 37.7907 82.2838C38.2074 82.5334 38.6291 82.7708 39.104 82.9768C39.5789 83.1755 40.0853 83.3669 40.7759 83.3936C41.1345 83.3863 41.5634 83.3354 41.9874 83.0592C42.4042 82.7708 42.6659 82.4001 42.8089 81.8743C42.9058 81.3994 42.8404 80.9584 42.7313 80.6434L42.7337 80.6458ZM40.7662 81.4018C40.9067 81.363 40.8122 81.3509 40.7662 81.4018Z" fill="#F8AC70"/>
<path d="M25.496 77.1033C25.3628 77.1978 25.2271 77.285 25.0962 77.3747C25.2295 77.285 25.3628 77.1953 25.496 77.1033Z" fill="#E53C2F"/>
<path d="M29.5862 68.4746L29.0361 72.2837L32.6005 72.1601L30.8607 68.4916L29.5862 68.4746Z" fill="#F8AC70"/>
<path d="M29.6249 70.3599L30.851 71.3339L31.8227 70.5198L29.6249 70.3599Z" fill="#954A2D"/>
<path d="M33.9162 64.9517L32.9639 70.6047L29.6249 70.3599L29.5159 65.0752L33.9162 64.9517Z" fill="#F8AC70"/>
<path d="M32.3848 65.6688C32.5738 65.7391 32.7095 65.9063 32.8331 66.0638C33.119 66.4272 33.2886 66.8755 33.7127 67.1081C33.7829 67.1469 33.875 67.1614 33.938 67.1105C33.9695 67.0839 33.9865 67.0475 34.001 67.0112C34.1706 66.6065 34.2385 66.1631 34.3693 65.7488C34.5098 65.3005 34.5728 64.7723 34.2966 64.3894C34.0737 64.0793 33.6836 63.9436 33.3201 63.8248C32.7313 63.6334 32.1352 63.442 31.5198 63.3863C30.9043 63.3305 30.2549 63.425 29.7388 63.7667C29.2227 64.1084 28.8689 64.7287 28.9538 65.3417C29.0313 65.9111 29.7703 66.6986 30.3809 66.6865C31.1491 66.6695 31.5658 65.3611 32.3824 65.6712L32.3848 65.6688Z" fill="#F95448"/>
<path d="M36.8626 77.7889C36.441 77.6096 36.0436 77.3915 35.6632 77.1541L35.6099 77.1201L35.6002 77.045C35.4912 76.306 35.4282 75.5597 35.4912 74.7988C35.7262 75.5233 35.8377 76.2648 35.9007 77.0087L35.8353 76.902C36.1963 77.171 36.5452 77.4594 36.8651 77.7865L36.8626 77.7889Z" fill="#000412"/>
<path d="M23.7781 78.3074C24.2845 77.8107 24.837 77.3843 25.4064 76.9772L25.3385 77.0911C25.3725 76.7058 25.4185 76.323 25.4791 75.9425C25.5445 75.5621 25.6099 75.1793 25.7165 74.8013C25.7505 75.1914 25.7432 75.5791 25.7335 75.9668C25.7214 76.3545 25.6923 76.7373 25.6535 77.1226L25.6463 77.1977L25.5857 77.2389C25.009 77.6314 24.4178 78.007 23.7757 78.3099L23.7781 78.3074Z" fill="#000412"/>
<path d="M25.7165 87.5951C27.3448 87.4134 28.9731 87.3528 30.599 87.2825C32.2273 87.251 33.8556 87.2074 35.4863 87.2898C33.8629 87.474 32.2322 87.5321 30.6038 87.6024C28.9731 87.6339 27.3448 87.6751 25.7165 87.5951Z" fill="#000412"/>
<path d="M34.7909 96.0759L35.8207 96.6696L33.4873 99.7566C33.4873 99.7566 33.3347 98.1573 33.9235 97.3795L34.7909 96.0759Z" fill="#000412"/>
<path d="M25.6051 96.5049L24.5462 97.0428L26.71 100.251C26.71 100.251 26.9474 98.6614 26.4022 97.8545L25.6051 96.5049Z" fill="#000412"/>
<path d="M38.3819 75.5574L37.9215 78.5741L36.8626 77.789L38.3819 75.5574Z" fill="#000412"/>
<path d="M98.5055 77.4497L101.057 67.1565C101.454 65.5525 102.743 64.3191 104.364 63.9944C105.486 63.7691 106.378 64.9297 105.872 65.9547L99.9496 77.9779C99.8793 78.1209 99.7655 78.2396 99.6225 78.3172C99.0313 78.637 98.3407 78.1015 98.503 77.4497H98.5055Z" fill="#9A5BFF"/>
<path d="M102.911 66.5242C102.804 66.6623 102.756 66.8367 102.69 66.9991C102.63 67.1639 102.571 67.3286 102.513 67.4958C102.399 67.8278 102.29 68.1622 102.184 68.4965C101.97 69.1653 101.762 69.8365 101.559 70.5077C101.151 71.8501 100.752 73.1973 100.357 74.5421C99.5692 77.2366 98.7938 79.9358 98.0306 82.6351L97.6647 82.5261C98.4909 79.8413 99.3245 77.1614 100.175 74.4839C100.599 73.1464 101.028 71.8089 101.466 70.4762C101.687 69.8098 101.907 69.1435 102.138 68.4796C102.252 68.1476 102.368 67.8157 102.489 67.4861C102.55 67.3214 102.61 67.1566 102.676 66.9942C102.746 66.8343 102.799 66.6623 102.908 66.5242H102.911Z" fill="#010101"/>
<path d="M95.6148 77.2051L93.0633 66.9119C92.6659 65.3078 91.3768 64.0745 89.7558 63.7498C88.6339 63.5244 87.7422 64.6851 88.2486 65.7101L94.1706 77.7333C94.2409 77.8763 94.3548 77.995 94.4977 78.0725C95.0889 78.3924 95.7795 77.8569 95.6172 77.2051H95.6148Z" fill="#382364"/>
<path d="M91.2072 66.2793C91.3162 66.4174 91.3695 66.5895 91.4398 66.7494C91.5052 66.9117 91.5658 67.0765 91.6264 67.2413C91.7475 67.5708 91.8638 67.9028 91.9777 68.2347C92.2055 68.8986 92.4284 69.565 92.6489 70.2313C93.0875 71.564 93.5164 72.9015 93.9404 74.2391C94.7909 76.9166 95.6244 79.5965 96.4507 82.2812L96.0848 82.3903C95.3216 79.6886 94.5462 76.9917 93.7587 74.2972C93.3637 72.95 92.9663 71.6052 92.5568 70.2628C92.3533 69.5916 92.1449 68.9204 91.9317 68.2517C91.8251 67.9173 91.716 67.5829 91.6022 67.2509C91.544 67.0862 91.4883 66.919 91.4253 66.7542C91.3599 66.5943 91.3114 66.4198 91.2048 66.2793H91.2072Z" fill="#010101"/>
<path d="M96.7366 53.2505C98.457 52.4364 100.408 53.803 100.233 55.6978L97.9918 79.9939C97.9482 80.464 97.6017 80.8493 97.1389 80.9414C96.5719 81.0552 96.017 80.6966 95.8886 80.1321L91.9971 62.984C91.1006 59.0296 93.0705 54.9855 96.7342 53.2505H96.7366Z" fill="#F6A1FE"/>
<path d="M96.7148 58.7219L96.9062 82.5794H96.5234L96.7148 58.7219Z" fill="#010101"/>
<path d="M100.427 91.8475H91.9196L90.6136 82.2158H101.735L100.427 91.8475Z" fill="#FDA833"/>
<path d="M101.525 83.7739L90.9213 84.4839L101.316 85.298L101.525 83.7739Z" fill="#010101"/>
<path d="M83.3322 58.5597C82.4454 61.2323 81.5586 63.9026 80.7032 66.5825L78.1154 74.6125L78.1396 73.779C78.2729 76.5607 78.4449 79.3351 78.6073 82.1119C78.7793 84.8863 78.9659 87.6607 79.1767 90.4303L77.6211 90.6702C76.9862 87.966 76.3272 85.2667 75.6535 82.5699C74.9702 79.873 74.2942 77.1761 73.5818 74.4841L73.5334 74.3024L73.606 73.6481L74.5268 65.2619C74.8418 62.4681 75.1253 59.667 75.4088 56.866L83.3322 58.5597Z" fill="#303E9F"/>
<path d="M89.9205 59.788C89.9254 62.48 89.9787 64.1374 90.0441 66.8221C90.0659 68.1645 90.1241 69.502 90.1653 70.8444L90.2961 74.8643L90.3155 75.1478L89.9617 78.7412C89.8478 79.9382 89.717 81.1376 89.6201 82.3346C89.4068 84.731 89.2033 87.835 89.0507 90.2314H87.5847C87.4321 87.835 87.2285 84.731 87.0153 82.3346C86.9184 81.1376 86.7875 79.9382 86.6736 78.7412L86.3199 75.1478L86.3393 75.4313L85.3385 71.535C85.0017 70.2362 84.6819 68.9375 84.3257 67.6411C83.6351 65.0484 82.2031 60.7451 81.4543 58.1597L89.9205 59.7904V59.788Z" fill="#303E9F"/>
<path d="M82.884 38.6008L81.9802 44.1908C79.8794 43.682 77.7761 42.9768 75.7965 41.9228C74.8006 41.4067 73.8483 40.7719 72.9494 40.0789C72.3242 39.5627 71.7306 39.0127 71.1902 38.4118C70.96 38.1598 70.7371 37.9029 70.5312 37.6388C69.1112 35.824 68.5079 33.6989 68.1856 31.5279C68.0184 30.4399 67.9845 29.3568 68.0596 28.2858C68.1251 27.4062 68.2535 26.5945 68.4764 25.7319C68.5612 25.4048 68.9029 25.2133 69.2275 25.2981C69.5207 25.3733 69.7146 25.6471 69.6879 25.9475C69.6177 26.7084 69.5813 27.6073 69.6564 28.3342C69.7364 29.2502 69.9254 30.1443 70.2016 30.9851C70.7347 32.611 71.9753 33.9194 73.1456 35.0243C73.1917 35.0752 73.2377 35.1213 73.2838 35.1625C73.9089 35.7246 74.6019 36.2044 75.3288 36.6236C76.0848 37.0185 76.8529 37.3747 77.6816 37.6316C79.3196 38.1816 81.0885 38.4724 82.8864 38.5984L82.884 38.6008Z" fill="#EEAF6C"/>
<path d="M99.5425 52.1796C99.3754 53.5316 98.9586 54.8086 98.3964 55.9595C98.3843 55.9814 98.3795 56.0007 98.3674 56.0225C98.1154 56.6017 97.7834 57.1105 97.4805 57.6436C97.1364 58.1694 96.7875 58.6928 96.4144 59.1943C95.0502 60.9826 93.4921 62.5454 91.8541 63.9872C91.5561 64.2489 91.103 64.2222 90.834 63.9339C90.5699 63.6504 90.5748 63.2118 90.8413 62.9283C92.2951 61.3921 93.6351 59.7735 94.7255 58.0337C94.9775 57.6097 95.2174 57.1856 95.4403 56.7567C95.4815 56.6889 95.5154 56.6259 95.5493 56.5556C95.7795 56.0516 96.0412 55.5597 96.2011 55.0388C96.5961 54.0187 96.819 52.9646 96.8481 51.9469C96.9329 49.897 96.143 48.0191 94.7643 46.512C94.0761 45.756 93.2571 45.0921 92.3751 44.5081C91.9293 44.2271 91.4762 43.9532 91.0012 43.7109C90.7662 43.5898 90.5263 43.4759 90.2913 43.3669C90.0684 43.2699 89.7824 43.1488 89.6273 43.0979L91.0642 39.5311L91.1224 39.3882C91.1854 39.4173 91.2484 39.4463 91.2993 39.4681C91.5973 39.6111 91.8154 39.7371 92.0722 39.8801C92.3654 40.04 92.6441 40.212 92.9251 40.3889C93.4873 40.7378 94.018 41.1279 94.5389 41.5399C95.5687 42.3637 96.5379 43.299 97.3569 44.387C98.1759 45.4798 98.8399 46.7228 99.23 48.07C99.6201 49.41 99.717 50.8372 99.5401 52.182L99.5425 52.1796Z" fill="#EEAF6C"/>
<path d="M99.2348 48.0678C98.8447 46.723 98.1808 45.4799 97.3618 44.3847C96.5428 43.2968 95.576 42.3639 94.5438 41.5376C94.0228 41.1257 93.4897 40.7356 92.93 40.3867C92.6489 40.2098 92.3679 40.0377 92.0771 39.8778C91.8808 39.7688 91.6991 39.6694 91.498 39.5652C90.5869 38.5669 89.3681 37.8279 87.9433 37.5299C86.0703 37.1373 84.2215 37.5759 82.7677 38.5887C81.0109 38.4579 79.2809 38.1696 77.6792 37.6316C76.8481 37.3748 76.0824 37.0186 75.3264 36.6236C74.5995 36.2044 73.9065 35.7247 73.2814 35.1625C73.2353 35.1213 73.1893 35.0777 73.1432 35.0244L71.1902 38.4094C71.7282 39.0104 72.3242 39.5604 72.9494 40.0765C73.8484 40.7695 74.7982 41.4043 75.7965 41.9205C77.0686 42.5965 78.3892 43.1272 79.7291 43.556L74.8467 56.9653L92.1401 60.5878L93.1093 45.4291C93.136 45.3055 93.1481 45.1843 93.1675 45.0632C93.749 45.5042 94.2918 45.9815 94.7691 46.5073C96.1503 48.0145 96.9402 49.8924 96.853 51.9423C96.8239 52.9624 96.601 54.0164 96.206 55.0341C96.0461 55.5551 95.782 56.0469 95.5542 56.5509C95.5203 56.6188 95.4863 56.6818 95.4452 56.7521L98.3722 56.0179C98.3843 55.9961 98.3892 55.9767 98.4013 55.9549C98.9635 54.8039 99.3802 53.527 99.5474 52.1749C99.7243 50.8301 99.6274 49.4029 99.2373 48.0629L99.2348 48.0678Z" fill="#D51E57"/>
<path d="M93.1069 42.1045C93.1723 42.5963 93.2086 43.0906 93.2401 43.5825C93.2789 44.0768 93.2813 44.5687 93.3031 45.063V45.0751C93.2741 45.6349 93.2208 46.1922 93.1796 46.7519L93.0463 48.4287C92.9445 49.5457 92.8403 50.6627 92.6998 51.7749C92.7143 50.653 92.7652 49.5312 92.8161 48.4117L92.913 46.7325C92.9494 46.1728 92.9736 45.6131 93.0221 45.0533V45.0654C93.0245 44.5711 93.0075 44.0768 93.0269 43.5825C93.039 43.0882 93.0584 42.5939 93.102 42.0996L93.1069 42.1045Z" fill="#000412"/>
<path d="M81.4543 40.0474C81.2266 40.6628 80.96 41.2589 80.6959 41.855C80.4245 42.4486 80.1459 43.0374 79.8527 43.6214L79.8575 43.6069C79.4917 44.5785 79.1064 45.5429 78.6606 46.4855C78.9247 45.475 79.2494 44.4888 79.5959 43.5099V43.5051L79.6007 43.4978C79.8818 42.909 80.1798 42.3275 80.4827 41.7508C80.7953 41.1765 81.1054 40.6022 81.4519 40.0474H81.4543Z" fill="#000412"/>
<path d="M89.6492 35.5672L89.2518 38.9813L86.2011 38.0606L88.5442 35.2886L89.6492 35.5672Z" fill="#EEAF6C"/>
<path d="M89.3196 36.5993L86.4604 37.8254L87.42 36.3691L89.3196 36.5993Z" fill="#954A2D"/>
<path d="M86.7172 31.5303L85.4088 36.2601L89.1839 37.1857L90.49 32.6449L86.7172 31.5303Z" fill="#EEAF6C"/>
<path d="M87.3545 40.0474C87.1219 41.4188 86.8723 42.7879 86.6058 44.152L85.7844 48.2422L84.8975 52.3178C84.5947 53.6747 84.2724 55.0292 83.9356 56.3788C84.1682 55.0074 84.4178 53.6383 84.6819 52.2742L85.5057 48.184L86.3926 44.1084C86.6955 42.7515 87.0177 41.3994 87.3545 40.0474Z" fill="#000412"/>
<path d="M84.9121 38.2397L87.1243 41.6611L86.9184 41.6175L90.3155 39.3859L87.0831 41.8525L86.9571 41.9495L86.8772 41.8089L84.9121 38.2397Z" fill="#000412"/>
<path d="M75.2101 58.8019L89.9206 60.1273L75.3846 57.0815L75.2101 58.8019Z" fill="#000412"/>
<path d="M85.9346 34.358L86.4604 32.4583C86.4604 32.4583 87.5387 33.6528 89.9205 33.6528L89.6492 35.5646C89.6492 35.5646 90.8462 36.6017 92.7895 35.7027C94.883 34.7335 96.6542 29.7299 93.1626 27.7139C90.1071 25.9499 86.4652 26.3352 85.0453 29.599C83.5769 32.9744 85.9322 34.3555 85.9322 34.3555L85.9346 34.358Z" fill="#010101"/>
<path d="M79.1767 90.4277V91.8476H75.6996C75.6996 91.8476 76.8069 90.67 77.621 90.67L79.1767 90.4302V90.4277Z" fill="#010101"/>
<path d="M87.5677 90.2314V91.6514H91.0449C91.0449 91.6514 89.8648 90.2314 89.0507 90.2314H87.5677Z" fill="#010101"/>
<path d="M82.4187 61.3146L80.5142 60.5925L78.1154 74.6124L82.4187 61.3146Z" fill="#010101"/>
<path d="M94.7279 58.0314L95.4427 56.7545L98.3698 56.0227L94.7279 58.0314Z" fill="#010101"/>
</g>
<defs>
<clipPath id="clip0_18_5879">
<rect width="110" height="100.073" fill="white" transform="translate(0.0368652 0.175781)"/>
</clipPath>
</defs>
</svg>
