<svg width="17" height="9" viewBox="0 0 17 9" fill="none" xmlns="http://www.w3.org/2000/svg">
<path d="M15.9533 3.7807H4.72727C4.48837 3.7807 4.29291 3.97616 4.29291 4.21506C4.29291 4.45395 4.48837 4.64941 4.72727 4.64941H15.9533C16.1922 4.64941 16.3876 4.45395 16.3876 4.21506C16.3876 3.97616 16.1922 3.7807 15.9533 3.7807Z" fill="#606060"/>
<path fill-rule="evenodd" clip-rule="evenodd" d="M0.785433 4.64941C1.02433 4.64941 1.21979 4.45395 1.21979 4.21506C1.21979 3.97616 1.02433 3.7807 0.785433 3.7807C0.546536 3.7807 0.351074 3.97616 0.351074 4.21506C0.351074 4.45395 0.544364 4.64941 0.785433 4.64941Z" fill="#606060"/>
<path d="M2.75528 3.7807C2.99517 3.7807 3.18964 3.97517 3.18964 4.21506C3.18964 4.45495 2.99517 4.64941 2.75528 4.64941C2.51539 4.64941 2.32092 4.45495 2.32092 4.21506C2.32092 3.97517 2.51539 3.7807 2.75528 3.7807Z" fill="#606060"/>
<path d="M13.0669 0.388306C12.967 0.388306 12.8671 0.423055 12.7868 0.492552C12.6043 0.648922 12.5826 0.922568 12.7368 1.105L15.3821 4.21501L12.7368 7.32719C12.5805 7.50962 12.6043 7.78326 12.7868 7.93963C12.9692 8.096 13.2428 8.07211 13.3992 7.88968L16.2834 4.49734C16.4202 4.33446 16.4202 4.09773 16.2834 3.93485L13.3992 0.540332C13.3123 0.438258 13.1907 0.388306 13.0669 0.388306Z" fill="#606060"/>
</svg>
