<svg width="333" height="248" viewBox="0 0 333 248" fill="none" xmlns="http://www.w3.org/2000/svg">
<g clip-path="url(#clip0_503_1134)">
<path d="M299.378 228.51H277.362V228.676H299.378V228.51Z" fill="#EBEBEB"/>
<path d="M220.489 230.318H214.712V230.485H220.489V230.318Z" fill="#EBEBEB"/>
<path d="M276.698 222.342H263.942V222.508H276.698V222.342Z" fill="#EBEBEB"/>
<path d="M63.9003 223.458H35.1909V223.624H63.9003V223.458Z" fill="#EBEBEB"/>
<path d="M74.0304 223.458H69.8228V223.624H74.0304V223.458Z" fill="#EBEBEB"/>
<path d="M149.982 226.263H87.7104V226.43H149.982V226.263Z" fill="#EBEBEB"/>
<path d="M158.789 188.168H30.4313C28.3374 188.168 26.6357 186.466 26.6357 184.373V3.94693C26.6357 1.85306 28.3374 0.151367 30.4313 0.151367H158.789C160.883 0.151367 162.585 1.85306 162.585 3.94693V184.373C162.585 186.466 160.883 188.168 158.789 188.168ZM30.4313 0.317548C28.4305 0.317548 26.8019 1.94612 26.8019 3.94693V184.373C26.8019 186.373 28.4305 188.002 30.4313 188.002H158.789C160.79 188.002 162.419 186.373 162.419 184.373V3.94693C162.419 1.94612 160.79 0.317548 158.789 0.317548H30.4313Z" fill="#EBEBEB"/>
<path d="M302.569 188.168H174.211C172.117 188.168 170.415 186.466 170.415 184.373V3.94693C170.415 1.85306 172.117 0.151367 174.211 0.151367H302.569C304.662 0.151367 306.364 1.85306 306.364 3.94693V184.373C306.364 186.466 304.662 188.168 302.569 188.168ZM174.211 0.317548C172.21 0.317548 170.581 1.94612 170.581 3.94693V184.373C170.581 186.373 172.21 188.002 174.211 188.002H302.569C304.569 188.002 306.198 186.373 306.198 184.373V3.94693C306.198 1.94612 304.569 0.317548 302.569 0.317548H174.211Z" fill="#EBEBEB"/>
<path d="M332.681 217.815H0.319336V217.981H332.681V217.815Z" fill="#EBEBEB"/>
<path d="M79.6407 172.846C79.0824 166.425 72.5282 164.026 64.7576 164.704C56.9936 165.382 50.9579 168.891 51.5163 175.306L79.6407 172.846Z" fill="#F0F0F0"/>
<path d="M64.5051 161.766C68.1079 161.453 69.2579 158.409 68.9455 154.799C68.6331 151.196 66.9713 148.398 63.3618 148.71C59.759 149.023 58.6091 152.067 58.9215 155.677C59.2339 159.279 60.8957 162.078 64.5051 161.766Z" fill="#F0F0F0"/>
<path d="M226.391 36.0595C226.564 38.047 225.095 39.8019 223.108 39.9747C221.12 40.1475 219.365 38.6785 219.193 36.691C219.02 34.7035 220.489 32.9486 222.476 32.7758C224.464 32.6029 226.219 34.072 226.391 36.0595Z" fill="#F5F5F5"/>
<path d="M246.38 34.3115C246.553 36.299 245.084 38.0538 243.096 38.2267C241.109 38.3995 239.354 36.9305 239.181 34.9429C239.008 32.9554 240.477 31.2006 242.465 31.0277C244.452 30.8549 246.207 32.3239 246.38 34.3115Z" fill="#F5F5F5"/>
<path d="M266.374 32.5632C266.547 34.5507 265.078 36.3056 263.091 36.4784C261.103 36.6512 259.348 35.1822 259.175 33.1947C259.003 31.2071 260.472 29.4523 262.459 29.2794C264.447 29.1066 266.202 30.5756 266.374 32.5632Z" fill="#F5F5F5"/>
<path d="M228.173 56.4333C228.346 58.4208 226.877 60.1757 224.889 60.3485C222.901 60.5213 221.147 59.0523 220.974 57.0648C220.801 55.0773 222.27 53.3224 224.258 53.1496C226.245 52.9767 228 54.4458 228.173 56.4333Z" fill="#F5F5F5"/>
<path d="M248.161 54.6852C248.334 56.6728 246.865 58.4276 244.877 58.6005C242.89 58.7733 241.135 57.3042 240.962 55.3167C240.789 53.3292 242.258 51.5743 244.246 51.4015C246.233 51.2287 247.988 52.6977 248.161 54.6852Z" fill="#F5F5F5"/>
<path d="M268.156 52.9369C268.329 54.9245 266.86 56.6793 264.872 56.8522C262.885 57.025 261.13 55.556 260.957 53.5684C260.784 51.5809 262.253 49.826 264.241 49.6532C266.228 49.4804 267.983 50.9494 268.156 52.9369Z" fill="#F5F5F5"/>
<path d="M229.954 76.8071C230.127 78.7946 228.658 80.5495 226.671 80.7223C224.683 80.8951 222.928 79.4261 222.756 77.4386C222.583 75.451 224.052 73.6962 226.039 73.5233C228.027 73.3505 229.782 74.8195 229.954 76.8071Z" fill="#F5F5F5"/>
<path d="M249.949 75.0588C250.122 77.0463 248.653 78.8012 246.665 78.974C244.678 79.1468 242.923 77.6778 242.75 75.6903C242.577 73.7027 244.046 71.9479 246.034 71.775C248.021 71.6022 249.776 73.0713 249.949 75.0588Z" fill="#F5F5F5"/>
<path d="M269.937 73.3107C270.11 75.2982 268.641 77.0531 266.654 77.2259C264.666 77.3988 262.911 75.9297 262.738 73.9422C262.566 71.9547 264.035 70.1998 266.022 70.027C268.01 69.8542 269.765 71.3232 269.937 73.3107Z" fill="#F5F5F5"/>
<path d="M265.617 74.4872L224.543 78.0834L260.957 33.8328L223.646 37.0966C223.207 37.1365 222.828 36.8108 222.788 36.3787C222.749 35.94 223.074 35.5611 223.506 35.5212L264.58 31.925L228.166 76.1756L265.477 72.9118C265.916 72.872 266.295 73.1977 266.334 73.6297C266.374 74.0685 266.049 74.4474 265.617 74.4872Z" fill="#E6E6E6"/>
<path d="M266.248 153.47C266.115 153.077 265.763 152.785 265.351 152.758C263.469 152.632 261.874 151.927 260.618 150.664C258.976 149.016 258.012 146.503 257.853 143.525C257.826 142.967 257.361 142.535 256.802 142.535C256.184 142.535 255.699 143.053 255.732 143.665C255.925 147.161 257.101 150.146 259.116 152.167C260.684 153.742 262.712 154.666 265.018 154.866C265.058 154.866 265.111 154.872 265.171 154.879C265.936 154.939 266.514 154.194 266.261 153.47H266.248Z" fill="#F0F0F0"/>
<path d="M264.121 166.232C255.314 165.461 248.959 159.459 246.945 150.086C246.818 149.488 247.197 148.903 247.802 148.797C248.361 148.697 248.899 149.056 249.019 149.608C250.82 158.036 256.477 163.434 264.307 164.119C272.895 164.87 282.115 159.22 283.764 144.981C283.83 144.403 284.335 143.977 284.914 144.031C285.505 144.084 285.951 144.609 285.877 145.201C284.295 158.628 275.468 167.236 264.114 166.239L264.121 166.232Z" fill="#F0F0F0"/>
<path d="M247.503 140.747C246.911 140.694 246.466 140.169 246.539 139.577C248.121 126.15 256.949 117.541 268.302 118.539C278.246 119.409 284.947 126.854 285.997 138.068C286.05 138.66 285.592 139.178 285 139.211C284.422 139.245 283.93 138.806 283.877 138.234C282.919 128.13 276.95 121.437 268.123 120.659C259.534 119.908 250.315 125.558 248.666 139.796C248.6 140.375 248.095 140.8 247.516 140.747H247.503Z" fill="#F0F0F0"/>
<path d="M264.553 160.536C262.918 160.389 261.382 160.011 259.966 159.392C259.395 159.14 259.156 158.449 259.455 157.903C259.714 157.425 260.299 157.219 260.797 157.438C262.12 158.023 263.589 158.362 265.165 158.449C271.679 158.821 278.552 154.208 279.223 143.067C279.636 136.2 277.289 130.656 272.895 128.004C272.423 127.718 272.251 127.127 272.49 126.628C272.762 126.07 273.467 125.864 273.999 126.183C279.077 129.247 281.809 135.509 281.344 143.186C280.693 153.935 273.992 161.081 265.038 160.569C264.872 160.562 264.706 160.549 264.54 160.536H264.553Z" fill="#F0F0F0"/>
<path d="M255.087 153.908C254.575 154.261 253.871 154.094 253.558 153.556C251.671 150.299 250.793 146.091 251.066 141.578C251.684 131.294 257.853 124.308 266.221 124.175C266.84 124.162 267.345 124.687 267.312 125.305C267.278 125.864 266.833 126.296 266.275 126.309C260.066 126.429 253.831 131.122 253.193 141.711C252.947 145.819 253.731 149.614 255.413 152.519C255.692 152.998 255.546 153.603 255.087 153.915V153.908Z" fill="#F0F0F0"/>
<path d="M269.618 153.038C269.399 152.546 269.592 151.974 270.05 151.695C272.842 150.013 274.564 146.477 274.591 142.222C274.61 138.812 273.627 135.928 271.805 134.1C270.403 132.69 268.588 131.979 266.408 131.986C263.131 131.992 260.478 133.787 259.009 136.951C258.777 137.45 258.205 137.682 257.687 137.496C257.102 137.284 256.822 136.606 257.088 136.041C258.91 132.159 262.32 129.872 266.408 129.859C269.133 129.859 271.519 130.803 273.314 132.604C275.541 134.837 276.751 138.261 276.724 142.242C276.691 147.268 274.577 151.482 271.127 153.543C270.582 153.868 269.878 153.622 269.618 153.044V153.038Z" fill="#F0F0F0"/>
<path d="M261.961 145.22C261.356 145.466 260.678 145.114 260.525 144.483C260.452 144.197 260.399 143.898 260.352 143.592C259.747 139.617 261.888 136.154 265.324 135.535C267.099 135.216 268.681 135.635 269.891 136.712C270.383 137.151 270.343 137.935 269.811 138.314L269.745 138.361C269.339 138.646 268.814 138.587 268.435 138.261C267.71 137.643 266.8 137.43 265.703 137.623C263.084 138.088 262.087 140.813 262.459 143.266C262.492 143.505 262.539 143.738 262.592 143.957C262.718 144.476 262.459 145.014 261.961 145.214V145.22Z" fill="#F0F0F0"/>
<path d="M265.477 149.315H265.47C264.739 149.249 264.334 148.424 264.726 147.806L264.819 147.66C265.018 147.348 265.364 147.175 265.736 147.201C266.049 147.221 266.388 147.201 266.733 147.142C269.02 146.729 270.07 144.602 270.05 142.435C270.05 141.897 270.422 141.432 270.954 141.345C271.579 141.252 272.171 141.717 272.177 142.349C272.244 145.819 270.196 148.684 267.105 149.235C266.547 149.335 266.002 149.362 265.484 149.315H265.477Z" fill="#F0F0F0"/>
<path d="M265.949 145.387C264.819 145.287 263.975 144.523 263.662 143.432C263.483 142.801 264.015 142.189 264.666 142.249L264.912 142.269C265.291 142.302 265.603 142.562 265.729 142.921C265.789 143.093 265.909 143.246 266.128 143.266C266.64 143.313 266.727 142.575 266.74 142.429C266.747 142.322 266.773 141.917 266.594 141.678C266.421 141.445 266.308 141.172 266.328 140.88C266.408 139.936 267.604 139.55 268.209 140.288C268.688 140.873 268.933 141.691 268.854 142.615C268.701 144.356 267.471 145.52 265.936 145.387H265.949Z" fill="#F0F0F0"/>
<path d="M245.954 121.596C245.369 121.543 244.937 121.031 244.99 120.446L245.795 111.227L255.014 112.031C255.599 112.084 256.031 112.596 255.978 113.181C255.925 113.766 255.413 114.198 254.828 114.145L247.729 113.526L247.111 120.626C247.058 121.211 246.546 121.643 245.961 121.59L245.954 121.596Z" fill="#F0F0F0"/>
<path d="M289.779 125.432C289.194 125.379 288.762 124.867 288.816 124.282L289.434 117.182L282.334 116.564C281.75 116.511 281.317 115.999 281.371 115.414C281.424 114.829 281.936 114.397 282.521 114.45L291.74 115.255L290.936 124.474C290.883 125.059 290.371 125.492 289.786 125.438L289.779 125.432Z" fill="#F0F0F0"/>
<path d="M286.516 174.987L277.296 174.183C276.711 174.129 276.279 173.618 276.332 173.033C276.385 172.448 276.897 172.016 277.482 172.069L284.581 172.687L285.199 165.588C285.253 165.003 285.764 164.571 286.349 164.624C286.934 164.677 287.366 165.189 287.313 165.774L286.509 174.993L286.516 174.987Z" fill="#F0F0F0"/>
<path d="M249.79 171.769L240.57 170.965L241.374 161.745C241.427 161.16 241.939 160.728 242.524 160.782C243.109 160.835 243.541 161.347 243.488 161.932L242.87 169.031L249.969 169.649C250.554 169.702 250.986 170.214 250.933 170.799C250.88 171.384 250.368 171.816 249.783 171.763L249.79 171.769Z" fill="#F0F0F0"/>
<path d="M49.994 151.821C49.635 151.854 49.316 151.588 49.2827 151.23L48.7842 145.559L54.4543 145.061C54.8132 145.028 55.1323 145.294 55.1655 145.653C55.1988 146.011 54.9329 146.331 54.5739 146.364L50.2133 146.743L50.5922 151.103C50.6255 151.462 50.3596 151.781 50.0006 151.814L49.994 151.821Z" fill="#E0E0E0"/>
<path d="M76.9421 149.468C76.5832 149.501 76.2641 149.235 76.2309 148.876L75.852 144.516L71.4914 144.895C71.1325 144.928 70.8134 144.662 70.7801 144.303C70.7469 143.944 71.0128 143.625 71.3718 143.592L77.0418 143.093L77.5404 148.763C77.5736 149.122 77.3077 149.441 76.9488 149.475L76.9421 149.468Z" fill="#E0E0E0"/>
<path d="M79.7338 173.87L74.0637 174.368C73.7047 174.402 73.3857 174.136 73.3524 173.777C73.3192 173.418 73.5851 173.099 73.944 173.066L78.3046 172.687L77.9257 168.326C77.8925 167.967 78.1584 167.648 78.5173 167.615C78.8763 167.582 79.1953 167.848 79.2286 168.206L79.7271 173.877L79.7338 173.87Z" fill="#E0E0E0"/>
<path d="M57.1465 175.844L51.4764 176.343L50.9779 170.673C50.9447 170.314 51.2106 169.995 51.5695 169.961C51.9285 169.928 52.2475 170.194 52.2808 170.553L52.6597 174.913L57.0202 174.535C57.3792 174.501 57.6983 174.767 57.7315 175.126C57.7647 175.485 57.4988 175.804 57.1399 175.837L57.1465 175.844Z" fill="#E0E0E0"/>
<path d="M76.4835 57.3176L54.7935 59.212L54.3482 54.1335C53.8895 48.8689 57.7981 44.2092 63.0627 43.7506C68.3273 43.2919 72.987 47.2005 73.4457 52.4651L73.7049 55.4165L76.8358 55.1439L76.5765 52.1926C75.965 45.1997 69.7764 40.0082 62.7902 40.6197C55.7973 41.2313 50.6058 47.4199 51.2173 54.4061L51.6627 59.5112C49.1368 60.003 47.342 62.3296 47.568 64.9486L49.1168 82.6568C49.3628 85.4553 51.8289 87.5292 54.634 87.2833L78.9163 85.1562C81.7148 84.9102 83.7887 82.4441 83.5428 79.639L81.994 61.9307C81.7481 59.1323 79.2819 57.0583 76.4768 57.3043L76.4835 57.3176ZM67.2704 70.9643L67.8022 77.0598C67.8886 78.0636 67.1507 78.941 66.147 79.0341C65.1433 79.1205 64.2658 78.3826 64.1728 77.3789L63.641 71.2834C62.8433 70.7915 62.2783 69.9539 62.1853 68.9502C62.039 67.2685 63.2821 65.7795 64.9705 65.6333C66.6522 65.487 68.1412 66.73 68.2874 68.4184C68.3738 69.4222 67.9617 70.3461 67.2637 70.971L67.2704 70.9643Z" fill="#EBEBEB"/>
<path d="M113.615 67.5809L111.421 64.0047C110.231 64.1709 109.261 64.1709 108.071 64.0047L105.877 67.5809L105.458 67.4679C104.043 67.089 102.68 66.524 101.404 65.7861L101.025 65.5668L101.955 61.6848C102.028 61.3724 102.348 61.1796 102.66 61.2527C102.972 61.3259 103.165 61.6449 103.092 61.9573L102.367 64.9818C103.318 65.5003 104.308 65.9124 105.339 66.2182L107.479 62.7284L107.865 62.7949C109.108 63.001 110.371 63.001 111.614 62.7949L111.999 62.7284L114.14 66.2182C115.163 65.9124 116.16 65.5003 117.111 64.9818L116.16 61.0068L116.48 60.7808C117.35 60.1559 118.121 59.4181 118.786 58.5806C118.986 58.3346 119.338 58.2748 119.59 58.4609C119.856 58.6537 119.923 59.0326 119.717 59.2918C119.065 60.1161 118.314 60.8539 117.477 61.4987L118.454 65.5734L118.075 65.7928C116.799 66.5306 115.436 67.0957 114.027 67.4745L113.608 67.5875L113.615 67.5809ZM100.174 59.7771C99.9877 59.5643 99.8083 59.3516 99.6421 59.1256L95.5673 60.1028L95.348 59.7239C94.6101 58.4476 94.0451 57.0849 93.6662 55.6691L93.5532 55.2503L97.1294 53.0567C97.0497 52.4585 97.0098 51.9134 97.0098 51.3816C97.0098 50.8498 97.0497 50.3048 97.1294 49.7065L93.5532 47.5129L93.6662 47.0942C94.0451 45.6783 94.6101 44.3156 95.348 43.0393L95.5673 42.6604L99.6421 43.6376C100.327 42.7469 101.118 41.9558 102.008 41.2712L101.271 38.1869C101.198 37.8744 101.39 37.5554 101.703 37.4823C102.015 37.4091 102.334 37.6019 102.407 37.9143L103.325 41.7564L103.006 41.9891C101.982 42.7269 101.091 43.6176 100.353 44.6413L100.127 44.9604L96.1456 44.0098C95.6338 44.9604 95.215 45.9508 94.9159 46.9811L98.4057 49.1216L98.3459 49.5071C98.2329 50.1918 98.1797 50.8033 98.1797 51.3816C98.1797 51.9599 98.2329 52.5715 98.3459 53.2561L98.4124 53.6417L94.9226 55.7821C95.2283 56.8057 95.6405 57.8028 96.1523 58.7534L100.134 57.8028L100.36 58.1219C100.579 58.421 100.805 58.7135 101.051 58.9927C101.257 59.2253 101.251 59.571 101.025 59.7904L101.005 59.8103C100.772 60.0363 100.393 60.0164 100.181 59.7704L100.174 59.7771ZM123.931 60.1028L122.429 59.7438C122.116 59.6707 121.924 59.3516 121.997 59.0392C122.07 58.7268 122.389 58.534 122.701 58.6071L123.353 58.76C123.865 57.8095 124.283 56.819 124.582 55.7887L121.093 53.6483L121.159 53.2628C121.272 52.5781 121.325 51.9666 121.325 51.3883C121.325 50.8099 121.272 50.1984 121.159 49.5137L121.099 49.1282L124.589 46.9878C124.283 45.9641 123.871 44.967 123.359 44.0165L119.378 44.967L119.145 44.648C118.407 43.6243 117.516 42.7336 116.493 41.9957L116.174 41.7631L117.124 37.7814C116.174 37.2629 115.183 36.8508 114.153 36.545L112.013 40.0348L111.627 39.975C110.384 39.7756 109.121 39.7756 107.878 39.975L107.492 40.0348L105.352 36.545C105.219 36.5849 105.086 36.6248 104.953 36.6713C104.654 36.771 104.335 36.6115 104.229 36.319C104.116 36.0132 104.275 35.6676 104.588 35.5612C104.88 35.4681 105.173 35.3817 105.465 35.302L105.884 35.189L108.077 38.7652C109.267 38.599 110.231 38.599 111.428 38.7652L113.621 35.189L114.04 35.302C115.456 35.6809 116.819 36.2459 118.088 36.9837L118.467 37.2031L117.49 41.2778C118.381 41.9625 119.172 42.7535 119.856 43.6442L123.931 42.6671L124.15 43.046C124.888 44.3223 125.453 45.6849 125.832 47.1008L125.945 47.5196L122.369 49.7132C122.449 50.3114 122.489 50.8631 122.489 51.3883C122.489 51.9134 122.449 52.4651 122.369 53.0634L125.945 55.2569L125.832 55.6757C125.453 57.0916 124.888 58.4543 124.15 59.7305L123.931 60.1094V60.1028ZM109.586 57.0849C106.615 56.9985 104.142 54.5257 104.056 51.5544C103.969 48.5632 106.21 46.0638 109.094 45.7248C109.44 45.6849 109.753 45.9575 109.753 46.3098C109.753 46.6023 109.533 46.8548 109.241 46.8881C106.695 47.1739 104.78 49.5869 105.312 52.2989C105.658 54.0604 107.08 55.483 108.842 55.8286C111.733 56.3936 114.279 54.1801 114.279 51.3883C114.279 50.451 113.993 49.547 113.462 48.7892C113.295 48.5499 113.342 48.2242 113.561 48.0314C113.827 47.7988 114.233 47.8453 114.432 48.1378C115.097 49.0883 115.449 50.225 115.449 51.3949C115.449 54.5922 112.804 57.1846 109.586 57.0916V57.0849Z" fill="#F0F0F0"/>
<path d="M72.3153 116.239L70.8994 113.932C70.135 114.038 69.5035 114.038 68.7391 113.932L67.3232 116.239L67.0507 116.165C66.14 115.919 65.256 115.554 64.4317 115.082L64.1858 114.942L64.784 112.436C64.8305 112.23 65.0366 112.111 65.2427 112.157C65.4487 112.204 65.5684 112.41 65.5218 112.616L65.0499 114.57C65.6614 114.902 66.3062 115.168 66.9709 115.368L68.3536 113.114L68.6062 113.154C69.4105 113.287 70.2281 113.287 71.0257 113.154L71.2783 113.114L72.661 115.368C73.3257 115.168 73.9705 114.902 74.582 114.57L73.9638 111.998L74.1699 111.851C74.7349 111.446 75.2334 110.974 75.6589 110.429C75.7852 110.269 76.0112 110.229 76.1773 110.349C76.3502 110.475 76.3901 110.721 76.2571 110.887C75.8317 111.419 75.3464 111.898 74.808 112.31L75.4395 114.942L75.1936 115.082C74.3693 115.56 73.4919 115.926 72.5745 116.165L72.302 116.239H72.3153ZM63.634 111.2C63.5144 111.067 63.4014 110.921 63.2884 110.781L60.6561 111.413L60.5165 111.167C60.0379 110.342 59.6723 109.465 59.433 108.548L59.3599 108.275L61.6665 106.859C61.6133 106.474 61.5867 106.121 61.5867 105.776C61.5867 105.43 61.6133 105.078 61.6665 104.692L59.3599 103.276L59.433 103.004C59.6789 102.093 60.0445 101.209 60.5165 100.385L60.6561 100.139L63.2884 100.77C63.7271 100.192 64.2456 99.6803 64.8172 99.2416L64.3386 97.2474C64.2921 97.048 64.4118 96.8419 64.6178 96.7954C64.8172 96.7488 65.0233 96.8685 65.0698 97.0746L65.6614 99.554L65.4554 99.7069C64.7973 100.179 64.219 100.757 63.7404 101.422L63.5941 101.628L61.0217 101.01C60.6893 101.621 60.4234 102.266 60.224 102.931L62.4774 104.313L62.4375 104.566C62.3644 105.011 62.3312 105.404 62.3312 105.776C62.3312 106.148 62.3644 106.547 62.4375 106.986L62.4774 107.238L60.224 108.621C60.4234 109.286 60.6893 109.93 61.0217 110.542L63.5941 109.924L63.7404 110.13C63.88 110.322 64.0329 110.515 64.1858 110.695C64.3187 110.848 64.312 111.067 64.1725 111.207L64.1592 111.22C64.0063 111.366 63.767 111.353 63.6274 111.193L63.634 111.2ZM78.9825 111.413L78.012 111.18C77.8059 111.133 77.6863 110.927 77.7328 110.721C77.7793 110.515 77.9854 110.396 78.1915 110.442L78.6102 110.542C78.9426 109.93 79.2085 109.286 79.4079 108.621L77.1545 107.238L77.1944 106.986C77.2675 106.54 77.3007 106.148 77.3007 105.776C77.3007 105.404 77.2675 105.005 77.1944 104.566L77.1545 104.313L79.4079 102.931C79.2085 102.266 78.9426 101.621 78.6102 101.01L76.0378 101.628L75.8915 101.422C75.4196 100.764 74.8413 100.185 74.1765 99.7069L73.9705 99.554L74.5887 96.9815C73.9771 96.6491 73.3323 96.3833 72.6676 96.1838L71.285 98.4372L71.0324 98.3974C70.2281 98.2644 69.4105 98.2644 68.6062 98.3974L68.3536 98.4372L66.9709 96.1838C66.8845 96.2104 66.7981 96.237 66.7117 96.2636C66.5189 96.3234 66.3129 96.2237 66.2464 96.031C66.1733 95.8315 66.2796 95.6055 66.479 95.5457C66.6652 95.4859 66.8579 95.426 67.0441 95.3795L67.3166 95.3064L68.7325 97.613C69.5035 97.5066 70.1217 97.5066 70.8928 97.613L72.3087 95.3064L72.5812 95.3795C73.4919 95.6255 74.3759 95.9911 75.2002 96.463L75.4461 96.6026L74.8147 99.2349C75.393 99.6736 75.9048 100.192 76.3435 100.764L78.9758 100.132L79.1154 100.378C79.594 101.202 79.9596 102.08 80.1989 102.997L80.272 103.27L77.9655 104.686C78.0186 105.071 78.0452 105.423 78.0452 105.769C78.0452 106.115 78.0186 106.467 77.9655 106.853L80.272 108.268L80.1989 108.541C79.953 109.452 79.5874 110.336 79.1154 111.16L78.9758 111.406L78.9825 111.413ZM69.7162 109.465C67.7952 109.412 66.1999 107.81 66.14 105.895C66.0869 103.961 67.5293 102.346 69.3972 102.133C69.6232 102.107 69.8226 102.286 69.8226 102.512C69.8226 102.705 69.683 102.864 69.4902 102.884C67.8484 103.07 66.612 104.626 66.951 106.381C67.177 107.517 68.0943 108.435 69.231 108.661C71.0989 109.026 72.7407 107.597 72.7407 105.796C72.7407 105.191 72.5546 104.606 72.209 104.114C72.1026 103.961 72.1292 103.748 72.2688 103.622C72.4416 103.469 72.7008 103.502 72.8338 103.689C73.2592 104.3 73.4919 105.038 73.4919 105.789C73.4919 107.856 71.7835 109.525 69.7029 109.472L69.7162 109.465Z" fill="#E6E6E6"/>
<path d="M166.5 247.468C237.68 247.468 295.383 244.099 295.383 239.943C295.383 235.788 237.68 232.419 166.5 232.419C95.3196 232.419 37.6167 235.788 37.6167 239.943C37.6167 244.099 95.3196 247.468 166.5 247.468Z" fill="#F5F5F5"/>
<path d="M241.913 60.5547H220.27L204.961 235.543H226.604C232.76 235.543 238.204 230.538 238.742 224.382L252.096 71.722C252.635 65.5667 248.068 60.5613 241.913 60.5613V60.5547Z" fill="#407BFF"/>
<path d="M237.499 60.5547H164.247C158.091 60.5547 152.647 65.56 152.109 71.7154L138.755 224.376C138.216 230.531 142.783 235.536 148.938 235.536H222.191C228.346 235.536 233.79 230.531 234.328 224.376L247.683 71.7154C248.221 65.56 243.654 60.5547 237.499 60.5547Z" fill="#407BFF"/>
<path opacity="0.3" d="M237.499 60.5547H164.247C158.091 60.5547 152.647 65.56 152.109 71.7154L138.755 224.376C138.216 230.531 142.783 235.536 148.938 235.536H222.191C228.346 235.536 233.79 230.531 234.328 224.376L247.683 71.7154C248.221 65.56 243.654 60.5547 237.499 60.5547Z" fill="white"/>
<path opacity="0.4" d="M237.187 64.1309H217.877C216.74 64.1309 215.67 64.8753 215.244 65.9721C213.682 70.007 209.727 72.7723 205.519 72.7723H194.1C189.885 72.7723 186.415 70.007 185.565 65.9721C185.332 64.882 184.395 64.1309 183.258 64.1309H163.948C159.76 64.1309 156.064 67.5276 155.699 71.7153L142.344 224.376C141.979 228.563 145.076 231.96 149.264 231.96H222.516C226.704 231.96 230.4 228.563 230.766 224.376L244.12 71.7153C244.486 67.5276 241.388 64.1309 237.2 64.1309H237.187Z" fill="white"/>
<path d="M218.933 147.062H167.67C166.148 147.062 165.024 145.832 165.157 144.31L165.416 141.378C165.549 139.856 166.892 138.626 168.408 138.626H219.671C221.193 138.626 222.317 139.856 222.184 141.378L221.924 144.31C221.792 145.832 220.449 147.062 218.933 147.062Z" fill="white"/>
<path d="M217.83 159.718H166.567C165.045 159.718 163.921 158.488 164.054 156.966L164.313 154.035C164.446 152.512 165.789 151.283 167.305 151.283H218.568C220.09 151.283 221.214 152.512 221.081 154.035L220.821 156.966C220.689 158.488 219.346 159.718 217.83 159.718Z" fill="white"/>
<path opacity="0.1" d="M203.359 66.9959C203.213 68.6843 201.724 70.047 200.042 70.047C198.36 70.047 197.111 68.6776 197.257 66.9959C197.403 65.3075 198.892 63.9448 200.574 63.9448C202.255 63.9448 203.505 65.3142 203.359 66.9959Z" fill="black"/>
<path opacity="0.1" d="M201.976 66.9958C201.896 67.9198 201.085 68.6643 200.161 68.6643C199.237 68.6643 198.559 67.9198 198.639 66.9958C198.719 66.0719 199.53 65.3274 200.454 65.3274C201.378 65.3274 202.056 66.0719 201.976 66.9958Z" fill="black"/>
<g opacity="0.8">
<path d="M228.167 72.0808C227.675 72.0808 227.309 71.682 227.349 71.1835L227.495 69.5483C227.542 69.0564 227.974 68.6509 228.466 68.6509C228.958 68.6509 229.323 69.0497 229.284 69.5483L229.137 71.1835C229.091 71.6754 228.659 72.0808 228.167 72.0808Z" fill="white"/>
<path d="M235.319 72.0809C234.827 72.0809 234.462 71.6821 234.502 71.1835L234.834 67.3481C234.874 66.8562 235.312 66.4507 235.804 66.4507C236.296 66.4507 236.662 66.8495 236.622 67.3481L236.29 71.1835C236.25 71.6754 235.811 72.0809 235.319 72.0809Z" fill="white"/>
<path d="M231.743 72.081C231.251 72.081 230.885 71.6821 230.925 71.1836L231.165 68.4516C231.211 67.9597 231.643 67.5542 232.135 67.5542C232.627 67.5542 232.993 67.953 232.953 68.4516L232.713 71.1836C232.674 71.6755 232.235 72.081 231.743 72.081Z" fill="white"/>
</g>
<g opacity="0.8">
<path d="M166.926 72.0808H162.432C162.153 72.0808 161.947 71.8548 161.974 71.5756L162.186 69.1627C162.213 68.8835 162.459 68.6575 162.738 68.6575H167.231C167.511 68.6575 167.717 68.8835 167.69 69.1627L167.477 71.5756C167.451 71.8548 167.205 72.0808 166.926 72.0808Z" fill="white"/>
<path d="M169.006 71.4292C168.727 71.4292 168.521 71.2032 168.548 70.9241L168.647 69.8206C168.674 69.5414 168.92 69.3154 169.199 69.3154C169.478 69.3154 169.684 69.5414 169.658 69.8206L169.558 70.9241C169.532 71.2032 169.286 71.4292 169.006 71.4292Z" fill="white"/>
</g>
<path d="M210.487 127.769C219.432 119.206 220.324 105.622 212.48 97.4275C204.635 89.233 191.025 89.5317 182.08 98.0946C173.135 106.658 172.243 120.242 180.087 128.436C187.932 136.631 201.542 136.332 210.487 127.769Z" fill="white"/>
<path d="M196.36 112.111C190.716 112.111 185.957 114.258 185.551 118.917L185.099 124.089H205.526L205.978 118.917C206.384 114.258 202.003 112.111 196.36 112.111Z" fill="#407BFF"/>
<path d="M196.545 109.977C199.164 109.977 200.368 107.856 200.6 105.237C200.826 102.618 199.995 100.498 197.376 100.498C194.757 100.498 193.554 102.618 193.322 105.237C193.096 107.856 193.926 109.977 196.545 109.977Z" fill="#407BFF"/>
<path d="M216.594 142.688C215.198 142.688 214.028 143.22 213.922 144.37L213.809 145.646H218.854L218.967 144.37C219.067 143.22 217.983 142.688 216.594 142.688Z" fill="#407BFF"/>
<path d="M216.64 142.163C217.285 142.163 217.584 141.637 217.644 140.993C217.704 140.348 217.491 139.823 216.846 139.823C216.202 139.823 215.902 140.348 215.843 140.993C215.783 141.637 215.996 142.163 216.64 142.163Z" fill="#407BFF"/>
<path d="M201.059 172.374H181.111C178.777 172.374 177.056 170.487 177.262 168.153C177.468 165.82 179.522 163.932 181.848 163.932H201.797C204.13 163.932 205.852 165.82 205.646 168.153C205.439 170.487 203.385 172.374 201.059 172.374Z" fill="#407BFF"/>
<path d="M198.653 219.417H177.302C174.842 219.417 173.021 217.422 173.234 214.956L174.596 199.382C174.809 196.922 176.983 194.922 179.442 194.922H200.793C203.253 194.922 205.074 196.916 204.861 199.382L203.499 214.956C203.286 217.416 201.112 219.417 198.653 219.417Z" fill="#407BFF"/>
<g opacity="0.6">
<path d="M192.072 203.324C192.198 201.842 191.108 200.638 189.626 200.638C188.143 200.638 186.841 201.842 186.708 203.324C186.628 204.208 186.993 204.979 187.612 205.471L187.14 210.835C187.06 211.713 187.711 212.431 188.595 212.431C189.48 212.431 190.251 211.719 190.33 210.835L190.802 205.471C191.5 204.979 191.999 204.208 192.079 203.324H192.072Z" fill="white"/>
</g>
<path d="M200.986 198.172H198.234L198.905 190.468C199.311 185.842 195.874 182.073 191.241 182.073C186.608 182.073 182.513 185.842 182.108 190.468L181.437 198.172H178.685L179.356 190.468C179.894 184.32 185.332 179.321 191.48 179.321C197.629 179.321 202.189 184.32 201.651 190.468L200.979 198.172H200.986Z" fill="#407BFF"/>
<path d="M216.932 154.487L216.999 153.749C217.065 152.991 216.507 152.379 215.749 152.379C214.991 152.379 214.327 152.991 214.26 153.749L214.194 154.487C213.895 154.487 213.629 154.733 213.602 155.032L213.429 156.999C213.403 157.298 213.629 157.544 213.928 157.544H216.667C216.966 157.544 217.232 157.298 217.258 156.999L217.431 155.032C217.458 154.733 217.232 154.487 216.932 154.487ZM215.716 152.718C216.288 152.718 216.706 153.184 216.66 153.749L216.593 154.487H214.533L214.599 153.749C214.646 153.177 215.151 152.718 215.723 152.718H215.716Z" fill="#407BFF"/>
<path d="M175.707 155.278L174.749 155.078C174.636 155.052 174.577 154.939 174.623 154.826L175.022 153.882C175.108 153.682 174.862 153.529 174.709 153.689L173.985 154.434C173.898 154.52 173.759 154.52 173.692 154.434L173.101 153.689C172.975 153.529 172.702 153.676 172.755 153.882L172.988 154.826C173.014 154.939 172.935 155.058 172.822 155.078L171.831 155.278C171.618 155.318 171.592 155.617 171.798 155.663L172.755 155.863C172.868 155.889 172.928 156.002 172.881 156.115L172.483 157.059C172.396 157.259 172.642 157.411 172.795 157.252L173.52 156.507C173.606 156.421 173.746 156.421 173.812 156.507L174.404 157.252C174.53 157.411 174.803 157.265 174.749 157.059L174.517 156.115C174.49 156.002 174.57 155.883 174.683 155.863L175.673 155.663C175.886 155.623 175.913 155.324 175.707 155.278Z" fill="#263238"/>
<path d="M181.995 155.278L181.037 155.078C180.924 155.052 180.865 154.939 180.911 154.826L181.31 153.882C181.396 153.682 181.15 153.529 180.998 153.689L180.273 154.434C180.187 154.52 180.047 154.52 179.981 154.434L179.389 153.689C179.263 153.529 178.99 153.676 179.043 153.882L179.276 154.826C179.302 154.939 179.223 155.058 179.11 155.078L178.119 155.278C177.907 155.318 177.88 155.617 178.086 155.663L179.043 155.863C179.156 155.889 179.216 156.002 179.17 156.115L178.771 157.059C178.684 157.259 178.93 157.411 179.083 157.252L179.808 156.507C179.894 156.421 180.034 156.421 180.1 156.507L180.692 157.252C180.818 157.411 181.091 157.265 181.037 157.059L180.805 156.115C180.778 156.002 180.858 155.883 180.971 155.863L181.961 155.663C182.174 155.623 182.201 155.324 181.995 155.278Z" fill="#263238"/>
<path d="M188.283 155.278L187.326 155.078C187.213 155.052 187.153 154.939 187.2 154.826L187.599 153.882C187.685 153.682 187.439 153.529 187.286 153.689L186.562 154.434C186.475 154.52 186.336 154.52 186.269 154.434L185.677 153.689C185.551 153.529 185.279 153.676 185.332 153.882L185.564 154.826C185.591 154.939 185.511 155.058 185.398 155.078L184.408 155.278C184.195 155.318 184.169 155.617 184.375 155.663L185.332 155.863C185.445 155.889 185.505 156.002 185.458 156.115L185.059 157.059C184.973 157.259 185.219 157.411 185.372 157.252L186.096 156.507C186.183 156.421 186.322 156.421 186.389 156.507L186.98 157.252C187.107 157.411 187.379 157.265 187.326 157.059L187.093 156.115C187.067 156.002 187.147 155.883 187.26 155.863L188.25 155.663C188.463 155.623 188.489 155.324 188.283 155.278Z" fill="#263238"/>
<path d="M194.578 155.278L193.621 155.078C193.508 155.052 193.448 154.939 193.495 154.826L193.893 153.882C193.98 153.682 193.734 153.529 193.581 153.689L192.856 154.434C192.77 154.52 192.63 154.52 192.564 154.434L191.972 153.689C191.846 153.529 191.574 153.676 191.627 153.882L191.859 154.826C191.886 154.939 191.806 155.058 191.693 155.078L190.703 155.278C190.49 155.318 190.463 155.617 190.67 155.663L191.627 155.863C191.74 155.889 191.8 156.002 191.753 156.115L191.354 157.059C191.268 157.259 191.514 157.411 191.667 157.252L192.391 156.507C192.478 156.421 192.617 156.421 192.684 156.507L193.275 157.252C193.402 157.411 193.674 157.265 193.621 157.059L193.388 156.115C193.362 156.002 193.441 155.883 193.554 155.863L194.545 155.663C194.758 155.623 194.784 155.324 194.578 155.278Z" fill="#263238"/>
<path d="M200.866 155.278L199.909 155.078C199.796 155.052 199.736 154.939 199.783 154.826L200.182 153.882C200.268 153.682 200.022 153.529 199.869 153.689L199.145 154.434C199.058 154.52 198.919 154.52 198.852 154.434L198.26 153.689C198.134 153.529 197.862 153.676 197.915 153.882L198.147 154.826C198.174 154.939 198.094 155.058 197.981 155.078L196.991 155.278C196.778 155.318 196.752 155.617 196.958 155.663L197.915 155.863C198.028 155.889 198.088 156.002 198.041 156.115L197.642 157.059C197.556 157.259 197.802 157.411 197.955 157.252L198.679 156.507C198.766 156.421 198.905 156.421 198.972 156.507L199.563 157.252C199.69 157.411 199.962 157.265 199.909 157.059L199.676 156.115C199.65 156.002 199.73 155.883 199.843 155.863L200.833 155.663C201.046 155.623 201.072 155.324 200.866 155.278Z" fill="#263238"/>
<path d="M207.155 155.278L206.198 155.078C206.085 155.052 206.025 154.939 206.071 154.826L206.47 153.882C206.557 153.682 206.311 153.529 206.158 153.689L205.433 154.434C205.347 154.52 205.207 154.52 205.141 154.434L204.549 153.689C204.423 153.529 204.15 153.676 204.203 153.882L204.436 154.826C204.463 154.939 204.383 155.058 204.27 155.078L203.279 155.278C203.067 155.318 203.04 155.617 203.246 155.663L204.203 155.863C204.316 155.889 204.376 156.002 204.33 156.115L203.931 157.059C203.844 157.259 204.09 157.411 204.243 157.252L204.968 156.507C205.054 156.421 205.194 156.421 205.26 156.507L205.852 157.252C205.978 157.411 206.251 157.265 206.198 157.059L205.965 156.115C205.938 156.002 206.018 155.883 206.131 155.863L207.122 155.663C207.334 155.623 207.361 155.324 207.155 155.278Z" fill="#263238"/>
<path d="M191.992 141.511H180.18C179.449 141.511 178.797 142.109 178.737 142.841C178.671 143.572 179.216 144.17 179.947 144.17H191.759C192.491 144.17 193.142 143.572 193.202 142.841C193.268 142.109 192.723 141.511 191.992 141.511Z" fill="#263238"/>
<path d="M203.983 141.511H197.13C196.399 141.511 195.747 142.109 195.688 142.841C195.621 143.572 196.166 144.17 196.897 144.17H203.751C204.482 144.17 205.133 143.572 205.193 142.841C205.26 142.109 204.715 141.511 203.983 141.511Z" fill="#263238"/>
<path d="M213.031 201.768C208.577 203.55 204.675 206.142 202.003 209.087C200.434 207.751 198.207 206.827 195.542 206.402L195.229 206.355L195.09 207.924L195.263 207.99C197.895 208.987 200.042 210.755 201.465 213.102L201.691 213.468L201.936 213.075C204.675 208.688 208.67 205.019 213.184 202.732L213.336 202.653L213.43 201.609L213.037 201.768H213.031Z" fill="#263238"/>
<path opacity="0.2" d="M153.631 70.8911C152.8 72.3535 152.255 73.9821 152.102 75.7104L142.205 188.859H172.835L178.99 165.268L176.963 141.677L183.118 118.086L181.091 94.4954L187.246 70.9044H153.638L153.631 70.8911Z" fill="black"/>
<path d="M178.432 87.8349L184.587 64.2439H107.127L100.979 87.8349L102.999 111.433L96.8506 135.024L98.8713 158.615L92.7227 182.212H170.176L176.331 158.615L174.304 135.024L180.459 111.433L178.432 87.8349Z" fill="#407BFF"/>
<path opacity="0.7" d="M178.432 87.8349L184.587 64.2439H107.127L100.979 87.8349L102.999 111.433L96.8506 135.024L98.8713 158.615L92.7227 182.212H170.176L176.331 158.615L174.304 135.024L180.459 111.433L178.432 87.8349Z" fill="white"/>
<path opacity="0.5" d="M178.432 87.8349H100.979L107.127 64.2439H184.587L178.432 87.8349Z" fill="white"/>
<path opacity="0.5" d="M174.304 135.024H96.8506L102.999 111.433H180.459L174.304 135.024Z" fill="white"/>
<path opacity="0.5" d="M170.176 182.212H92.7227L98.8713 158.615H176.331L170.176 182.212Z" fill="white"/>
<path opacity="0.2" d="M168.069 97.6996C167.404 97.9056 166.554 98.0319 165.623 98.0319C164.254 98.0319 163.057 97.7594 162.373 97.3539C162.186 97.2409 161.98 97.1877 161.774 97.1877C161.581 97.1877 161.395 97.2409 161.216 97.3406C161.203 97.3473 161.189 97.3473 161.176 97.3606C161.176 97.3606 161.163 97.3672 161.149 97.3739C160.897 97.5201 160.578 97.6531 160.206 97.7528C159.567 97.9322 158.776 98.0386 157.926 98.0386C157.693 98.0386 157.467 98.0319 157.247 98.0186C156.583 97.9721 155.978 97.8658 155.479 97.7062C155.393 97.6796 155.307 97.6597 155.22 97.6597C154.615 97.6198 154.077 98.0851 154.077 98.7233V99.4412H123.971C121.638 99.4412 119.75 101.329 119.75 103.662V107.916C119.75 110.25 121.638 112.137 123.971 112.137H158.225C158.298 112.137 158.371 112.131 158.451 112.124C158.823 112.43 159.202 112.736 159.614 113.041C160.099 113.414 160.618 113.786 161.156 114.178C161.528 114.451 162.047 114.451 162.419 114.178C166.726 111.054 169.492 108.9 169.492 102.977V98.7233C169.492 97.9921 168.78 97.4935 168.089 97.7129L168.069 97.6996Z" fill="black"/>
<path d="M157.553 97.0879H123.306C120.975 97.0879 119.085 98.9777 119.085 101.309V105.556C119.085 107.888 120.975 109.777 123.306 109.777H157.553C159.884 109.777 161.774 107.888 161.774 105.556V101.309C161.774 98.9777 159.884 97.0879 157.553 97.0879Z" fill="#407BFF"/>
<path d="M164.965 95.6854C163.595 95.6854 162.399 95.4129 161.714 95.0074C161.342 94.7814 160.89 94.7814 160.518 95.0074C159.833 95.4129 158.63 95.6854 157.267 95.6854C156.337 95.6854 155.486 95.5591 154.821 95.3531C154.123 95.1337 153.418 95.6389 153.418 96.3634V100.618C153.418 106.54 156.184 108.694 160.491 111.818C160.863 112.091 161.382 112.091 161.754 111.818C166.061 108.694 168.827 106.54 168.827 100.618V96.3634C168.827 95.6322 168.115 95.1337 167.424 95.3531C166.759 95.5591 165.909 95.6854 164.978 95.6854H164.965Z" fill="#407BFF"/>
<path opacity="0.3" d="M164.965 95.6854C163.595 95.6854 162.399 95.4129 161.714 95.0074C161.342 94.7814 160.89 94.7814 160.518 95.0074C159.833 95.4129 158.63 95.6854 157.267 95.6854C156.337 95.6854 155.486 95.5591 154.821 95.3531C154.123 95.1337 153.418 95.6389 153.418 96.3634V100.618C153.418 106.54 156.184 108.694 160.491 111.818C160.863 112.091 161.382 112.091 161.754 111.818C166.061 108.694 168.827 106.54 168.827 100.618V96.3634C168.827 95.6322 168.115 95.1337 167.424 95.3531C166.759 95.5591 165.909 95.6854 164.978 95.6854H164.965Z" fill="white"/>
<path opacity="0.2" d="M160.518 95.0075C159.833 95.413 158.63 95.6855 157.267 95.6855C156.337 95.6855 155.486 95.5592 154.821 95.3531C154.123 95.1338 153.418 95.639 153.418 96.3635V100.618C153.418 106.54 156.184 108.694 160.491 111.818C160.677 111.951 160.903 112.024 161.123 112.024V94.8413C160.917 94.8413 160.71 94.8945 160.524 95.0075H160.518Z" fill="white"/>
<path d="M167.291 99.4611C164.506 100.611 162.126 102.293 160.564 104.201C159.474 103.336 157.979 102.738 156.224 102.466L156.018 102.432V103.449L156.137 103.489C157.899 104.134 159.388 105.277 160.445 106.8L160.611 107.039L160.75 106.78C162.273 103.941 164.652 101.562 167.444 100.079L167.537 100.026V99.3481L167.291 99.4479V99.4611Z" fill="#263238"/>
<path d="M183.218 70.8779H180.28C178.651 70.8779 177.441 69.5551 177.588 67.9266L177.847 64.9885C177.987 63.3599 179.429 62.0371 181.058 62.0371H183.996C185.624 62.0371 186.834 63.3599 186.688 64.9885L186.428 67.9266C186.289 69.5551 184.846 70.8779 183.218 70.8779Z" fill="#407BFF"/>
<path d="M184.441 64.9819L183.803 64.2839L182.194 65.7596L180.851 64.2839L180.087 64.9819L181.436 66.4576L179.834 67.9333L180.473 68.6379L182.075 67.1622L183.424 68.6379L184.182 67.9333L182.832 66.4576L184.441 64.9819Z" fill="white"/>
<path d="M117.556 96.2305C119.258 98.085 120.887 99.9995 122.495 101.94C124.104 103.875 125.673 105.842 127.221 107.83C127.288 107.916 127.261 107.883 127.281 107.91C127.288 107.923 127.288 107.943 127.301 107.95C127.321 107.969 127.328 108.003 127.348 108.016C127.381 108.063 127.421 108.102 127.467 108.149C127.56 108.235 127.693 108.295 127.833 108.322C127.906 108.335 127.979 108.342 128.059 108.335C128.099 108.335 128.139 108.328 128.179 108.328C128.198 108.328 128.218 108.315 128.238 108.315C128.272 108.302 128.252 108.328 128.345 108.275L130.006 107.371C132.24 106.188 134.493 105.031 136.82 103.994L138.768 106.407C136.893 108.136 134.939 110.289 132.965 111.871L131.476 113.041C131.436 113.075 131.276 113.181 131.176 113.247C131.063 113.32 130.95 113.4 130.831 113.467C130.591 113.6 130.346 113.733 130.086 113.832C129.574 114.052 129.029 114.191 128.478 114.278C127.368 114.444 126.218 114.331 125.141 113.945C124.602 113.753 124.084 113.493 123.612 113.168C123.373 113.008 123.147 112.829 122.927 112.642C122.814 112.549 122.714 112.45 122.615 112.35L122.349 112.084C120.587 110.283 118.852 108.461 117.151 106.6C115.449 104.746 113.767 102.871 112.159 100.937L117.55 96.2305H117.556Z" fill="#B55B52"/>
<path d="M135.916 105.463L137.465 100.485L141.546 102.519C141.546 102.519 140.955 106.148 137.983 106.78L135.916 105.463Z" fill="#B55B52"/>
<path d="M139.1 99.1086L142.783 100.119L141.546 102.519L137.465 100.485L139.1 99.1086Z" fill="#B55B52"/>
<path d="M96.0988 97.5866C95.6535 99.7005 95.1151 101.794 94.5434 103.875C93.9784 105.962 93.3602 108.036 92.7154 110.097L92.4761 110.874L92.3565 111.26C92.3299 111.346 92.3166 111.366 92.29 111.42C92.2169 111.612 92.1703 111.825 92.1637 112.051C92.1504 112.496 92.2568 112.988 92.5492 113.414C92.5758 113.48 92.8018 113.726 92.9813 113.919L93.533 114.517L94.6232 115.734C95.3411 116.558 96.0523 117.382 96.7303 118.246L94.4171 120.925C93.4599 120.38 92.5426 119.795 91.6253 119.203L90.2626 118.306L89.5912 117.847C89.3652 117.688 89.1791 117.582 88.8135 117.276C87.5505 116.206 86.6066 114.683 86.261 112.988C86.0815 112.144 86.0416 111.267 86.1413 110.396C86.1679 110.19 86.2078 109.944 86.241 109.764L86.3141 109.366L86.4537 108.568C86.826 106.434 87.2248 104.307 87.6702 102.2C88.1155 100.086 88.5875 97.9788 89.1591 95.8916L96.1121 97.5733L96.0988 97.5866Z" fill="#B55B52"/>
<path d="M94.4639 118.067L97.2092 116.664L98.419 121.324C98.419 121.324 96.2187 122.168 94.517 121.084L94.4705 118.067H94.4639Z" fill="#B55B52"/>
<path d="M100.991 115.175L101.118 119.449L98.0533 121.457L96.9897 116.757L100.991 115.175Z" fill="#B55B52"/>
<path d="M109.958 75.6108C110.025 75.9432 110.251 76.1692 110.47 76.1293C110.683 76.0828 110.809 75.7836 110.736 75.4513C110.663 75.1189 110.437 74.8929 110.224 74.9328C110.011 74.9793 109.892 75.2784 109.958 75.6108Z" fill="#263238"/>
<path d="M110.225 76.1758C110.225 76.1758 111.361 77.924 112.372 78.6751C111.9 79.3399 110.856 79.2933 110.856 79.2933L110.225 76.1824V76.1758Z" fill="#A02724"/>
<path d="M108.383 74.0222C108.337 74.0222 108.29 74.0023 108.25 73.969C108.17 73.8959 108.164 73.7696 108.237 73.6898C108.981 72.8855 109.879 73.0318 109.919 73.0384C110.025 73.0584 110.098 73.1581 110.078 73.2644C110.058 73.3708 109.959 73.4439 109.852 73.424C109.852 73.424 109.121 73.3176 108.529 73.9557C108.49 73.9956 108.436 74.0222 108.383 74.0222Z" fill="#263238"/>
<path d="M100.373 80.2439C101.104 83.295 101.836 88.8787 99.2231 90.9127C99.2231 90.9127 100.247 94.0037 107.2 94.0037C114.844 94.0037 110.856 92.0095 110.856 92.0095C106.681 91.1986 106.794 87.5758 107.519 85.2028L100.38 80.2373L100.373 80.2439Z" fill="#B55B52"/>
<path d="M98.4055 91.4776C97.9468 90.6334 97.4483 89.6629 98.4853 89.3572C99.6286 89.0248 106.96 88.4066 109.114 89.0315C108.449 90.208 109.573 91.6571 109.573 91.6571L98.4055 91.4776Z" fill="#263238"/>
<path d="M104.481 234.114H109.274L109.752 224.462H104.953L104.481 234.114Z" fill="#B55B52"/>
<path d="M74.0435 232.784L78.9026 233.037L81.8539 223.531L76.9948 223.272L74.0435 232.784Z" fill="#B55B52"/>
<path d="M78.7564 232.651L74.1831 231.661C74.0169 231.628 73.8441 231.708 73.7776 231.867L72.189 235.31C72.0228 235.669 72.2421 236.088 72.6277 236.161C74.2297 236.48 75.0273 236.553 77.0414 236.992C78.2778 237.258 81.0763 237.943 82.7846 238.308C84.4597 238.667 85.0846 237.039 84.4199 236.733C81.4286 235.364 80.1789 234.167 79.3746 233.044C79.2284 232.844 79.009 232.705 78.7697 232.651H78.7564Z" fill="#263238"/>
<path d="M109.021 233.629H104.468C104.295 233.629 104.149 233.748 104.115 233.915L103.291 237.617C103.205 238.003 103.497 238.368 103.889 238.361C105.531 238.335 107.904 238.235 109.965 238.235C112.378 238.235 114.465 238.368 117.29 238.368C118.998 238.368 119.477 236.64 118.759 236.48C115.495 235.769 112.837 235.689 110.018 233.954C109.712 233.768 109.373 233.629 109.014 233.629H109.021Z" fill="#263238"/>
<path d="M90.5354 92.3219C86.9127 94.0435 85.9355 104.473 85.9355 104.473L94.8894 108.608C94.8894 108.608 97.1095 105.331 97.2824 100.186C97.4618 94.7947 94.2379 90.5537 90.5421 92.3152L90.5354 92.3219Z" fill="#263238"/>
<path opacity="0.4" d="M95.3945 98.7563C93.7792 101.262 93.9321 105.151 94.4904 108.428L94.8893 108.614C94.8893 108.614 97.1161 105.337 97.2823 100.192C97.2889 99.8731 97.2889 99.554 97.2823 99.2416L95.3945 98.7563Z" fill="black"/>
<path d="M115.522 92.0693C115.522 92.0693 119.956 97.0813 115.768 128.091H93.4733C93.3204 124.667 95.4674 107.976 92.1704 91.85C92.1704 91.85 95.9926 91.0855 99.6353 90.9061C102.487 90.7665 106.608 90.68 109.114 90.9061C112.418 91.2052 115.522 92.0627 115.522 92.0627V92.0693Z" fill="#407BFF"/>
<path opacity="0.6" d="M115.522 92.0693C115.522 92.0693 119.956 97.0813 115.768 128.091H93.4733C93.3204 124.667 95.4674 107.976 92.1704 91.85C92.1704 91.85 95.9926 91.0855 99.6353 90.9061C102.487 90.7665 106.608 90.68 109.114 90.9061C112.418 91.2052 115.522 92.0627 115.522 92.0627V92.0693Z" fill="#FAFAFA"/>
<path opacity="0.2" d="M117.47 101.548L117.384 101.475L112.95 99.1086C112.498 105.935 115.549 110.216 117.364 112.084C117.616 107.71 117.61 104.26 117.463 101.548H117.47Z" fill="black"/>
<path opacity="0.2" d="M109.752 224.462L109.506 229.434H104.707L104.953 224.462H109.752Z" fill="black"/>
<path opacity="0.2" d="M76.9949 223.272L81.854 223.531L80.3318 228.43L75.4727 228.178L76.9949 223.272Z" fill="black"/>
<path d="M98.831 77.1464C99.9012 81.1414 100.327 83.5344 102.793 85.1962C106.502 87.6955 111.122 84.8239 111.261 80.5897C111.394 76.7808 109.619 70.8847 105.332 70.0804C101.111 69.2894 97.7608 73.1514 98.831 77.1464Z" fill="#B55B52"/>
<path d="M107.864 128.097C107.864 128.097 103.132 159.951 100.539 171.883C97.6942 184.951 82.4455 228.185 82.4455 228.185L74.9873 226.569C74.9873 226.569 84.546 191.339 86.9324 173.066C87.863 165.94 88.9864 154.447 90.4089 144.862C91.7848 135.582 93.4799 128.097 93.4799 128.097H107.864Z" fill="#263238"/>
<path d="M84.2339 225.685L82.8447 228.384L74.4492 226.569L75.1538 224.043L84.2339 225.685Z" fill="#407BFF"/>
<path opacity="0.6" d="M84.2339 225.685L82.8447 228.384L74.4492 226.569L75.1538 224.043L84.2339 225.685Z" fill="white"/>
<path opacity="0.6" d="M104.873 139.444C99.4028 140.514 99.9811 160.915 100.639 171.404C102.215 163.986 104.528 149.721 106.103 139.59C105.738 139.411 105.332 139.351 104.873 139.444Z" fill="black"/>
<path d="M115.768 128.097C115.768 128.097 117.995 159.26 117.536 171.969C117.064 185.19 110.796 228.477 110.796 228.477H103.736C103.736 228.477 103.477 185.962 103.165 172.979C102.819 158.828 101.111 128.097 101.111 128.097H115.761H115.768Z" fill="#263238"/>
<path d="M112.159 225.659L111.76 228.59H103.172L102.939 225.971L112.159 225.659Z" fill="#407BFF"/>
<path opacity="0.6" d="M112.159 225.659L111.76 228.59H103.172L102.939 225.971L112.159 225.659Z" fill="white"/>
<path d="M112.923 97.9055C112.923 106.268 117.377 109.711 117.377 109.711L124.609 102.638C124.609 102.638 122.15 98.4041 118.766 94.5088C114.585 89.7029 112.923 92.5213 112.923 97.9055Z" fill="#263238"/>
<path opacity="0.2" d="M111.009 82.1052C110.823 82.6171 110.344 83.4878 109.134 83.8335C107.366 84.3387 107.346 85.8343 107.346 85.8343L107.366 85.8609C109.048 85.3025 110.45 83.9133 111.009 82.1052Z" fill="black"/>
<path d="M109.134 69.2029C110.623 67.3217 108.33 67.2353 108.33 67.2353C108.928 64.9952 106.243 66.1983 106.243 66.1983C104.634 63.9782 103.724 66.6769 103.724 66.6769C102.055 64.7958 101.749 67.8668 101.749 67.8668C100.074 65.4804 99.2233 68.9237 99.2233 68.9237C97.6812 66.4443 96.7373 69.6748 96.7373 69.6748C93.5533 68.5381 95.0688 71.8418 95.0688 71.8418C92.3501 71.9149 94.5304 74.0221 94.5304 74.0221C91.2733 74.0288 94.1449 75.8966 94.1449 75.8966C91.5591 77.5917 94.8029 78.0503 94.8029 78.0503C92.6958 81.3474 96.3185 80.1243 96.3185 80.1243C94.8495 83.3881 98.1066 81.9523 98.1066 81.9523C97.8939 85.103 99.7152 84.2455 100.593 83.6606C100.759 84.2921 101.078 84.9701 101.663 85.0432C102.8 85.1895 103.019 83.049 103.019 83.049C103.019 83.049 104.076 83.8667 104.953 83.4213C105.837 82.9759 105.505 81.8525 105.505 81.8525C105.505 81.8525 106.183 82.3577 106.801 81.8725C107.18 81.58 107.18 79.4595 106.701 78.7151L108.43 78.037C108.43 78.037 109.713 77.8576 109.141 76.1625C108.569 74.4675 109.055 73.1314 109.055 73.1314C111.009 72.2141 109.407 71.1173 109.407 71.1173C111.667 69.6549 109.141 69.1896 109.141 69.1896L109.134 69.2029Z" fill="#263238"/>
<path d="M105.631 77.3124C105.904 78.3627 106.595 79.2601 107.313 79.7985C108.397 80.6028 109.208 79.8118 109.128 78.582C109.061 77.4786 108.41 75.7237 107.213 75.398C106.037 75.0723 105.319 76.1093 105.625 77.3124H105.631Z" fill="#B55B52"/>
</g>
<defs>
<clipPath id="clip0_503_1134">
<rect width="332.361" height="247.317" fill="white" transform="translate(0.319336 0.151367)"/>
</clipPath>
</defs>
</svg>
