<svg width="28" height="29" viewBox="0 0 28 29" fill="none" xmlns="http://www.w3.org/2000/svg">
<path d="M14.1071 26.4036H9.31694C8.65555 26.4036 8.11938 26.9397 8.11938 27.6011C8.11938 28.2625 8.65555 28.7987 9.31694 28.7987H14.1071C14.7685 28.7987 15.3047 28.2625 15.3047 27.6011C15.3047 26.9397 14.7685 26.4036 14.1071 26.4036Z" fill="white"/>
<path d="M20.0949 24.0084H3.32916V14.428C3.32916 12.2047 4.21235 10.0725 5.78444 8.50045C7.35653 6.92836 9.48875 6.04517 11.712 6.04517C13.9353 6.04517 16.0675 6.92836 17.6396 8.50045C19.2117 10.0725 20.0949 12.2047 20.0949 14.428V24.0084ZM5.72426 21.6133H17.6998V14.428C17.6998 12.84 17.0689 11.317 15.946 10.194C14.8231 9.07112 13.3001 8.44027 11.712 8.44027C10.124 8.44027 8.60096 9.07112 7.47804 10.194C6.35511 11.317 5.72426 12.84 5.72426 14.428V21.6133Z" fill="white"/>
<path d="M21.2924 21.6135H2.13163C1.47024 21.6135 0.934082 22.1497 0.934082 22.8111C0.934082 23.4725 1.47024 24.0086 2.13163 24.0086H21.2924C21.9538 24.0086 22.49 23.4725 22.49 22.8111C22.49 22.1497 21.9538 21.6135 21.2924 21.6135Z" fill="white"/>
<path d="M12.9096 8.44035H10.5145V4.8477C10.5145 4.53009 10.6406 4.22549 10.8652 4.0009C11.0898 3.77632 11.3944 3.65015 11.712 3.65015C12.0296 3.65015 12.3342 3.77632 12.5588 4.0009C12.7834 4.22549 12.9096 4.53009 12.9096 4.8477V8.44035Z" fill="white"/>
<circle cx="20.0436" cy="7.85654" r="7.82578" fill="#FF4000"/>
</svg>
