<svg width="32" height="32" viewBox="0 0 32 32" fill="none" xmlns="http://www.w3.org/2000/svg">
<circle cx="15.7693" cy="16.2246" r="15.3833" fill="white"/>
<path d="M15.7707 17.4397C14.6399 17.4397 13.5345 17.1044 12.5943 16.4761C11.6541 15.8479 10.9213 14.955 10.4886 13.9103C10.0559 12.8656 9.94265 11.7161 10.1632 10.607C10.3839 9.49798 10.9284 8.47925 11.7279 7.67968C12.5275 6.8801 13.5462 6.33559 14.6553 6.11499C15.7643 5.89438 16.9139 6.0076 17.9586 6.44033C19.0033 6.87306 19.8962 7.60585 20.5244 8.54606C21.1526 9.48626 21.4879 10.5916 21.4879 11.7224C21.4879 13.2387 20.8856 14.6929 19.8134 15.7651C18.7412 16.8373 17.287 17.4397 15.7707 17.4397ZM15.7707 7.91089C15.0168 7.91089 14.2799 8.13443 13.6531 8.55324C13.0263 8.97206 12.5378 9.56733 12.2493 10.2638C11.9608 10.9603 11.8853 11.7266 12.0324 12.466C12.1795 13.2054 12.5425 13.8845 13.0755 14.4176C13.6086 14.9506 14.2877 15.3136 15.0271 15.4607C15.7664 15.6077 16.5328 15.5323 17.2293 15.2438C17.9257 14.9553 18.521 14.4668 18.9398 13.84C19.3586 13.2132 19.5822 12.4762 19.5822 11.7224C19.5822 10.7115 19.1806 9.74205 18.4658 9.02725C17.751 8.31246 16.7815 7.91089 15.7707 7.91089Z" fill="#0554F1"/>
<path d="M15.7707 26.4443C13.3465 26.447 10.9939 25.6235 9.1005 24.1098C8.59076 23.7093 8.20419 23.1733 7.9851 22.5632C7.766 21.9531 7.72326 21.2936 7.86176 20.6603C8.15737 19.3747 8.76252 18.1808 9.62458 17.1823C9.71403 17.0793 9.82455 16.9967 9.94866 16.9402C10.0728 16.8836 10.2076 16.8543 10.344 16.8543C10.4804 16.8543 10.6152 16.8836 10.7394 16.9402C10.8635 16.9967 10.974 17.0793 11.0634 17.1823C11.2111 17.3549 11.2922 17.5746 11.2922 17.8017C11.2922 18.0288 11.2111 18.2485 11.0634 18.4211C10.3941 19.1831 9.92572 20.1002 9.70081 21.0891C9.64152 21.3727 9.66374 21.6673 9.76492 21.9388C9.8661 22.2103 10.0421 22.4476 10.2725 22.6233C11.8274 23.8762 13.7642 24.5594 15.7611 24.5594C17.758 24.5594 19.6948 23.8762 21.2497 22.6233C21.4801 22.4476 21.6561 22.2103 21.7573 21.9388C21.8585 21.6673 21.8807 21.3727 21.8214 21.0891C21.6038 20.091 21.1385 19.1636 20.4683 18.3925C20.3207 18.2199 20.2396 18.0002 20.2396 17.7731C20.2396 17.546 20.3207 17.3263 20.4683 17.1537C20.5578 17.0507 20.6683 16.9682 20.7924 16.9116C20.9165 16.855 21.0514 16.8257 21.1878 16.8257C21.3242 16.8257 21.459 16.855 21.5831 16.9116C21.7072 16.9682 21.8177 17.0507 21.9072 17.1537C22.7693 18.1522 23.3744 19.3462 23.67 20.6317C23.8153 21.2684 23.777 21.9332 23.5594 22.5489C23.3418 23.1645 22.9539 23.7058 22.4408 24.1098C20.5474 25.6235 18.1948 26.447 15.7707 26.4443Z" fill="#6CA4FF"/>
</svg>
