<svg width="17" height="18" viewBox="0 0 17 18" fill="none" xmlns="http://www.w3.org/2000/svg">
<path d="M16.5096 16.445L12.5202 12.4555C13.7371 11.0651 14.3659 9.25605 14.2738 7.41059C14.1817 5.56513 13.3759 3.82772 12.0267 2.5653C10.6774 1.30289 8.8903 0.614319 7.0428 0.645028C5.1953 0.675737 3.43207 1.42332 2.12551 2.72988C0.818949 4.03644 0.0713664 5.79967 0.0406576 7.64717C0.00994872 9.49467 0.698518 11.2818 1.96093 12.631C3.22335 13.9803 4.96076 14.7861 6.80622 14.8782C8.65168 14.9703 10.4607 14.3415 11.8512 13.1246L15.8406 17.114C15.9299 17.2002 16.0494 17.2479 16.1734 17.2468C16.2975 17.2457 16.4162 17.196 16.5039 17.1082C16.5916 17.0205 16.6414 16.9019 16.6424 16.7778C16.6435 16.6537 16.5958 16.5342 16.5096 16.445ZM1.03482 7.78994C1.03482 6.57344 1.39555 5.38425 2.07141 4.37277C2.74726 3.36128 3.70788 2.57292 4.83178 2.10739C5.95568 1.64185 7.1924 1.52004 8.38552 1.75737C9.57865 1.9947 10.6746 2.5805 11.5348 3.4407C12.395 4.3009 12.9808 5.39686 13.2181 6.58999C13.4555 7.78312 13.3337 9.01983 12.8681 10.1437C12.4026 11.2676 11.6142 12.2283 10.6027 12.9041C9.59126 13.58 8.40208 13.9407 7.18557 13.9407C5.55486 13.9389 3.99146 13.2902 2.83836 12.1371C1.68527 10.9841 1.03666 9.42066 1.03482 7.78994Z" fill="#AEAEAE"/>
</svg>
