<svg width="110" height="91" viewBox="0 0 110 91" fill="none" xmlns="http://www.w3.org/2000/svg">
<g clip-path="url(#clip0_18_6027)">
<path opacity="0.2" d="M55.1847 90.4027C85.1592 90.4027 109.458 89.5325 109.458 88.4591C109.458 87.3858 85.1592 86.5156 55.1847 86.5156C25.2103 86.5156 0.911194 87.3858 0.911194 88.4591C0.911194 89.5325 25.2103 90.4027 55.1847 90.4027Z" fill="black"/>
<path d="M43.5836 42.1749L42.7216 43.5736L41.6327 45.3394C41.3656 45.7722 40.8144 45.9344 40.3558 45.715C39.8962 45.4966 39.6768 44.9663 39.846 44.4873L40.6887 42.0911L41.2741 40.4292C41.9948 41.0694 42.7679 41.6534 43.5836 42.1752V42.1749Z" fill="#29ABE2"/>
<path d="M65.6662 45.9134C65.2161 46.1501 64.6604 46.0109 64.376 45.5877L63.3591 44.0755L62.4398 42.7086C63.2471 42.2549 64.0177 41.7416 64.7434 41.177L65.3726 42.7623L66.1273 44.6645C66.3152 45.1375 66.1163 45.6767 65.6662 45.913V45.9134Z" fill="#29ABE2"/>
<path d="M53.4578 41.4339C45.3237 41.4339 38.7059 34.8162 38.7059 26.682C38.7059 18.5479 45.3237 11.9302 53.4578 11.9302C61.5919 11.9302 68.21 18.5479 68.21 26.682C68.21 34.8162 61.5923 41.4339 53.4578 41.4339ZM53.4578 12.5396C45.6597 12.5396 39.3157 18.8839 39.3157 26.682C39.3157 34.4802 45.66 40.8241 53.4578 40.8241C61.2556 40.8241 67.6002 34.4798 67.6002 26.682C67.6002 18.8843 61.2559 12.5396 53.4578 12.5396Z" fill="black"/>
<path d="M63.6735 36.8979C69.3156 31.2559 69.3156 22.1084 63.6735 16.4663C58.0315 10.8243 48.884 10.8243 43.2419 16.4663C37.5999 22.1084 37.5999 31.2559 43.2419 36.8979C48.884 42.5399 58.0315 42.5399 63.6735 36.8979Z" fill="#F2F2F2"/>
<path d="M51.9266 40.2453C51.6206 40.211 51.3118 40.1658 51.008 40.111L51.2769 38.6247C51.5471 38.6734 51.822 38.7137 52.0944 38.7441L51.9266 40.2453ZM55.4974 40.1792L55.2734 38.6851C55.5444 38.6445 55.8175 38.5939 56.085 38.5346L56.4111 40.0096C56.11 40.0764 55.8027 40.1333 55.4974 40.1789V40.1792ZM47.6043 39.0158C47.3258 38.8836 47.0482 38.7398 46.7782 38.5883L47.5184 37.2712C47.7583 37.4061 48.0053 37.5337 48.2522 37.6513L47.6043 39.0158ZM59.7692 38.7851L59.0693 37.4464C59.3128 37.3192 59.5541 37.1821 59.7876 37.0394L60.5769 38.3275C60.3144 38.4883 60.0427 38.6423 59.7692 38.7851ZM43.9189 36.4451C43.6978 36.2289 43.4815 36.0032 43.277 35.7735L44.404 34.7676C44.586 34.9715 44.7782 35.1725 44.975 35.3647L43.9193 36.4455L43.9189 36.4451ZM63.3535 36.0802L62.2582 35.0397C62.4476 34.8404 62.6324 34.6323 62.8069 34.4214L63.97 35.3856C63.7736 35.6226 63.5658 35.8562 63.3531 36.0802H63.3535ZM41.2642 32.8224C41.125 32.5468 40.9939 32.2634 40.8745 31.9797L42.2662 31.3929C42.3725 31.6448 42.4888 31.8963 42.6128 32.1415L41.2642 32.8224ZM65.8718 32.3595L64.4982 31.7306C64.6123 31.4816 64.7194 31.2247 64.8165 30.9675L66.2297 31.5006C66.1206 31.79 66.0001 32.079 65.8718 32.3595ZM39.9315 28.5325C39.8899 28.2273 39.8584 27.9164 39.8379 27.6083L41.3451 27.5076C41.3635 27.7811 41.3914 28.0577 41.4281 28.3294L39.9312 28.5325H39.9315ZM67.0402 28.0202L65.5369 27.8736C65.5634 27.6012 65.5811 27.3239 65.5896 27.0487L65.5906 27.0186L67.1006 27.0642L67.0996 27.0942C67.0904 27.403 67.0702 27.7146 67.0406 28.0202H67.0402ZM41.5451 24.3346L40.0626 24.0445C40.122 23.7417 40.1923 23.4372 40.2721 23.1393L41.7313 23.5301C41.6603 23.7947 41.5977 24.0654 41.5451 24.3346ZM65.2652 23.8587C65.202 23.5923 65.1281 23.3245 65.0465 23.0627L66.4887 22.6126C66.5809 22.9076 66.6636 23.2089 66.735 23.5085L65.2656 23.859L65.2652 23.8587ZM42.9505 20.5963L41.644 19.8377C41.7991 19.5706 41.9652 19.3056 42.1379 19.0502L43.3897 19.896C43.2364 20.1232 43.0887 20.3588 42.9505 20.5963ZM63.7093 20.1818C63.5623 19.9504 63.4054 19.7211 63.2433 19.5003L64.4604 18.6057C64.643 18.8538 64.8194 19.1117 64.9847 19.3721L63.7093 20.1818ZM45.4979 17.5165L44.5072 16.376C44.7397 16.174 44.9824 15.9772 45.2283 15.7913L46.1398 16.9961C45.9208 17.1618 45.7049 17.3367 45.4979 17.5165ZM61.0432 17.2056C60.8291 17.0339 60.6062 16.8671 60.3808 16.7106L61.2439 15.4709C61.4969 15.6468 61.7474 15.8341 61.988 16.0273L61.0432 17.206V17.2056ZM48.9023 15.4267L48.3349 14.0269C48.6204 13.911 48.9136 13.804 49.2061 13.7079L49.6767 15.1434C49.4167 15.2285 49.1563 15.3239 48.9023 15.4267ZM57.5572 15.2532C57.2993 15.1607 57.0346 15.0759 56.7711 15.0013L57.1823 13.5478C57.4791 13.6319 57.7769 13.7273 58.0674 13.8312L57.5572 15.2532ZM52.7992 14.5604L52.719 13.0518C53.0257 13.0356 53.338 13.0295 53.6468 13.0338L53.6256 14.5442C53.3504 14.5403 53.0723 14.5456 52.7992 14.5601V14.5604Z" fill="#1B2F4C"/>
<path opacity="0.2" d="M53.4578 12.2346C45.4795 12.2346 39.0105 18.7022 39.0105 26.6816C39.0105 34.661 45.4791 41.1289 53.4578 41.1289C61.4365 41.1289 67.9047 34.6602 67.9047 26.6816C67.9047 18.7029 61.4361 12.2346 53.4578 12.2346ZM53.4578 39.8997C46.1582 39.8997 40.24 33.9812 40.24 26.6819C40.24 19.3827 46.1585 13.4641 53.4578 13.4641C60.757 13.4641 66.6756 19.3813 66.6756 26.6819C66.6756 33.9826 60.757 39.8997 53.4578 39.8997Z" fill="black"/>
<path d="M53.4578 41.4339C45.3237 41.4339 38.7059 34.8162 38.7059 26.682C38.7059 18.5479 45.3237 11.9302 53.4578 11.9302C61.5919 11.9302 68.21 18.5479 68.21 26.682C68.21 34.8162 61.5923 41.4339 53.4578 41.4339ZM53.4578 12.5396C45.6597 12.5396 39.3157 18.8839 39.3157 26.682C39.3157 34.4802 45.66 40.8241 53.4578 40.8241C61.2556 40.8241 67.6002 34.4798 67.6002 26.682C67.6002 18.8843 61.2559 12.5396 53.4578 12.5396Z" fill="black"/>
<path d="M75.7456 19.1196L73.8067 20.9388C73.4152 21.3058 72.7715 21.1179 72.6433 20.5961C71.9677 17.8343 70.669 15.3198 68.9035 13.2067C68.0316 12.1616 67.0452 11.2155 65.9637 10.3873C63.7481 8.68864 61.1337 7.48282 58.2864 6.93661C57.7208 6.82814 57.5144 6.12825 57.9341 5.73432L60.7277 3.1128C64.3201 -0.257723 69.8585 -0.262316 73.453 2.97501C73.6519 3.15166 73.8431 3.33962 74.0286 3.53712L75.7015 5.31989L76.1696 5.81875C79.7252 9.60971 79.5352 15.5639 75.7453 19.1196H75.7456Z" fill="#FBB03B"/>
<g opacity="0.4">
<path d="M77.4394 7.5177C77.1882 7.15804 76.9066 6.8118 76.5982 6.48111L76.13 5.98224L74.4571 4.19947C74.2717 4.00197 74.0805 3.81402 73.8816 3.63736C70.2867 0.400038 64.7483 0.404631 61.1563 3.77515L58.3627 6.39667C58.214 6.53552 58.1444 6.715 58.1419 6.89165L59.193 7.13437L61.6184 4.85768C62.5872 3.94862 63.6983 3.28689 64.8741 2.86504C65.3493 3.09327 66.2845 3.24873 67.3607 3.24873C68.8781 3.24873 70.1147 2.93994 70.1772 2.55343C71.6883 2.90178 73.1277 3.62464 74.3441 4.72024C74.543 4.89689 74.7341 5.08485 74.9196 5.28235L76.5925 7.06512L77.0606 7.56399C77.4507 7.97982 77.7948 8.4211 78.0934 8.88216C78.281 9.17223 78.4505 9.46865 78.6042 9.77214C78.3251 8.98427 77.9372 8.22466 77.4397 7.51735L77.4394 7.5177Z" fill="white"/>
</g>
<g opacity="0.2">
<path d="M75.6821 4.72109L75.2139 4.22222L73.9392 2.86377C75.345 6.35901 74.561 10.5075 71.6487 13.2403L70.1797 14.6189C71.0591 16.1222 71.7307 17.7612 72.1557 19.4987C72.2836 20.0206 72.9277 20.2085 73.3191 19.8414L75.2581 18.0223C79.048 14.4666 79.2381 8.5124 75.6824 4.72144L75.6821 4.72109Z" fill="black"/>
</g>
<path d="M73.329 21.4351C73.2322 21.4351 73.1344 21.421 73.0379 21.3924C72.6917 21.2895 72.4338 21.0193 72.3476 20.6688C71.6992 18.0187 70.4273 15.506 68.6697 13.402C67.8125 12.375 66.8399 11.4423 65.7786 10.6297C63.5648 8.93238 60.9542 7.75906 58.2292 7.23617C57.8533 7.1641 57.5537 6.8917 57.4473 6.52532C57.3417 6.16071 57.448 5.77278 57.7254 5.5124L60.5189 2.89053C62.3059 1.2141 64.6385 0.280318 67.0872 0.260886C69.5204 0.247814 71.8551 1.12542 73.6573 2.74815C73.8562 2.92515 74.0561 3.12053 74.2512 3.32827L76.3922 5.60956C80.0567 9.51675 79.8602 15.6766 75.9541 19.3414L74.0152 21.1606C73.824 21.3397 73.5802 21.4348 73.3287 21.4348L73.329 21.4351ZM67.1702 0.887648C64.9215 0.887648 62.673 1.70519 60.9362 3.33499L58.1426 5.9565C58.0317 6.06073 57.9907 6.20982 58.0327 6.35503C58.0755 6.50236 58.1917 6.608 58.3436 6.63697C61.1612 7.17752 63.8605 8.39077 66.1488 10.1453C67.2458 10.9851 68.2517 11.9492 69.1374 13.0109C70.9541 15.1855 72.2691 17.7834 72.9393 20.5232C72.9736 20.6628 73.0725 20.7667 73.2107 20.8076C73.3485 20.8486 73.493 20.8144 73.5979 20.7161L75.5365 18.897C79.1974 15.4622 79.3818 9.68881 75.947 6.02681L73.8056 3.74552C73.6233 3.55121 73.4364 3.36855 73.2499 3.2025C71.5346 1.6575 69.3515 0.887648 67.1695 0.887648H67.1702Z" fill="#1B2F4C"/>
<path d="M76.7624 3.65967C76.7624 4.11437 76.5724 4.56696 76.2003 4.88776L75.7015 5.31949L74.0286 3.53672C73.8431 3.33922 73.6519 3.15127 73.453 2.97461L74.0823 2.43194C74.7603 1.84651 75.7834 1.92212 76.3685 2.60011C76.6331 2.90607 76.7624 3.28411 76.7624 3.65967Z" fill="#FBB03B"/>
<path opacity="0.2" d="M75.9113 2.34605C75.6919 2.09202 75.4114 1.92279 75.1104 1.84082C75.3591 2.14184 75.4821 2.50786 75.4821 2.87212C75.4821 3.32682 75.292 3.7794 74.92 4.09985L74.5992 4.37754L75.2443 5.06507L75.7432 4.63334C76.1152 4.31254 76.3053 3.86031 76.3053 3.40525C76.3053 3.02969 76.176 2.65165 75.9113 2.34569V2.34605Z" fill="black"/>
<path d="M75.6799 5.74128L73.8063 3.74512C73.624 3.5508 73.4368 3.36814 73.2506 3.20209L72.9906 2.97067L73.8834 2.20082C74.2727 1.86448 74.7705 1.70019 75.2828 1.73799C75.7958 1.7758 76.2632 2.0111 76.5996 2.40079C76.9013 2.74986 77.0673 3.19679 77.0673 3.65962C77.0673 4.22066 76.8239 4.75239 76.3996 5.11841L75.6799 5.74128ZM73.9106 2.98268C74.0254 3.09292 74.1392 3.20845 74.2512 3.32786L75.7237 4.89689L76.0011 4.65699C76.2915 4.4065 76.4579 4.0433 76.4579 3.65962C76.4579 3.34306 76.3445 3.0378 76.1382 2.79932C75.9082 2.53293 75.5884 2.37182 75.2379 2.34603C74.8875 2.32059 74.5476 2.43259 74.2815 2.66224L73.9102 2.98233L73.9106 2.98268Z" fill="#1B2F4C"/>
<path d="M48.3024 7.17991C48.2791 7.18486 48.2547 7.18839 48.2317 7.1944C47.9219 7.25411 47.6149 7.32229 47.31 7.39931C44.9372 7.99428 42.746 9.05031 40.8413 10.4674V10.4685C39.7489 11.2793 38.7501 12.2085 37.8647 13.2387H37.8637C36.0078 15.3946 34.6433 17.9857 33.9459 20.839C33.8692 21.1524 33.6056 21.3449 33.3241 21.3707C33.2619 21.3757 33.1986 21.3732 33.135 21.3623C33.0093 21.3379 32.8863 21.2792 32.7828 21.1817L30.8439 19.3625C27.6602 16.3764 27.0176 11.6962 29.0003 8.02855C29.3769 7.32971 29.8504 6.66762 30.4195 6.0617L30.8877 5.56284L32.5606 3.78007C32.746 3.58257 32.9372 3.39461 33.1361 3.21796C33.1774 3.18122 33.2191 3.14483 33.2605 3.1095C36.8574 -0.0193668 42.3107 0.0244429 45.8614 3.35575L48.655 5.97727C49.0744 6.3712 48.8684 7.07109 48.3027 7.17956L48.3024 7.17991Z" fill="#FBB03B"/>
<g opacity="0.4">
<path d="M48.2317 7.1949C47.9219 7.25461 47.6149 7.3228 47.31 7.39982L44.7407 4.98781C43.8419 4.14518 42.8237 3.51347 41.7436 3.08915C41.3268 3.26227 40.5156 3.29901 39.6037 3.15628C38.7233 3.01743 37.9795 2.74786 37.6209 2.46734C35.5955 2.6136 33.6127 3.40995 32.0154 4.85002C31.8165 5.02667 31.6254 5.21463 31.4399 5.41213L29.767 7.1949L29.2989 7.69377C29.1964 7.80364 29.0964 7.91564 29 8.02905C29.3766 7.33022 29.85 6.66812 30.4192 6.06221L30.8873 5.56334L32.5602 3.78057C32.7457 3.58307 32.9368 3.39511 33.1357 3.21846C33.1771 3.18172 33.2188 3.14533 33.2601 3.11C36.8416 0.483534 41.8956 0.695516 45.2516 3.84416L48.0452 6.46568C48.2611 6.66812 48.3109 6.95218 48.2317 7.1949Z" fill="white"/>
</g>
<g opacity="0.2">
<path d="M35.9992 15.5165L34.0603 13.6973C31.4982 11.2935 30.5838 7.79398 31.3572 4.60718L30.9064 5.08732C27.3507 8.87827 27.5408 14.8325 31.3307 18.3882L33.2696 20.2073C33.6611 20.5744 34.3048 20.3864 34.4331 19.8646C34.8023 18.3539 35.3601 16.9181 36.0773 15.5801C36.0505 15.561 36.0243 15.5402 35.9992 15.5165Z" fill="black"/>
</g>
<path d="M33.2601 21.6788C33.0085 21.6788 32.7648 21.5841 32.5736 21.4046L30.6347 19.5851C26.7286 15.9203 26.5321 9.76042 30.1966 5.85323L32.3376 3.5716C32.5334 3.36315 32.7337 3.16742 32.9329 2.99041C34.7334 1.36874 37.0673 0.49043 39.5012 0.504562C41.95 0.523641 44.2825 1.45742 46.0691 3.13385L48.8627 5.75572C49.1401 6.01611 49.2464 6.40439 49.1408 6.76864C49.0344 7.13502 48.7352 7.40742 48.3593 7.47949C45.7596 7.97871 43.2565 9.07254 41.113 10.6451L41.0222 10.7133C39.9485 11.5103 38.9635 12.4268 38.0951 13.4376L38.0032 13.5436C36.1992 15.6726 34.8998 18.2171 34.2409 20.9114C34.155 21.2619 33.8968 21.5325 33.5505 21.6353C33.4541 21.6639 33.3558 21.6781 33.259 21.6781L33.2601 21.6788ZM39.4178 1.13132C37.2362 1.13132 35.0542 1.90082 33.3396 3.44511C33.1523 3.61152 32.9654 3.79418 32.7824 3.9892L30.6411 6.27049C27.2066 9.93213 27.3907 15.7058 31.0516 19.1406L32.9905 20.9598C33.0951 21.058 33.24 21.0919 33.3777 21.0513C33.5159 21.0103 33.6148 20.9065 33.6491 20.7669C34.3412 17.9348 35.7187 15.2628 37.6319 13.0401L37.7248 12.9342C38.5664 11.9696 39.5111 11.0899 40.5357 10.3162V10.3155L40.6586 10.2229C42.8951 8.5599 45.5183 7.40424 48.2444 6.88064C48.3964 6.85132 48.5126 6.74603 48.5553 6.59871C48.5974 6.45314 48.5564 6.30405 48.4455 6.19983L45.6519 3.57831C43.915 1.94852 41.6659 1.13097 39.4175 1.13097L39.4178 1.13132Z" fill="#1B2F4C"/>
<path d="M29.8263 3.90357C29.8263 4.35827 30.0164 4.81085 30.3884 5.13165L30.8873 5.56339L32.5602 3.78062C32.7457 3.58312 32.9368 3.39516 33.1357 3.21851L32.5065 2.67584C31.8285 2.09041 30.8053 2.16602 30.2203 2.84401C29.9556 3.14997 29.8263 3.52801 29.8263 3.90357Z" fill="#FBB03B"/>
<path opacity="0.2" d="M31.5628 4.19672C31.1908 3.87592 31.0007 3.42369 31.0007 2.96864C31.0007 2.6602 31.0894 2.35071 31.2675 2.08008C31.0396 2.1737 30.8294 2.31962 30.6573 2.51888C30.3927 2.82484 30.2634 3.20288 30.2634 3.57844C30.2634 4.03314 30.4534 4.48573 30.8255 4.80653L31.3243 5.23826L31.9705 4.54967L31.5632 4.19708L31.5628 4.19672Z" fill="black"/>
<path d="M30.9088 5.98502L30.1888 5.36179C29.7645 4.99612 29.5214 4.4644 29.5214 3.90335C29.5214 3.44052 29.6878 2.99359 29.9896 2.64417C30.3255 2.25483 30.7933 2.01953 31.3063 1.98173C31.8193 1.94357 32.3161 2.10821 32.7058 2.44456L33.5982 3.21441L33.3382 3.44582C33.152 3.61152 32.9647 3.79418 32.7821 3.98885L30.9088 5.98502ZM31.4494 2.58623C31.4165 2.58623 31.3837 2.58765 31.3508 2.58977C31.0004 2.61556 30.6806 2.77666 30.451 3.0427C30.2446 3.28118 30.1312 3.58679 30.1312 3.903C30.1312 4.28633 30.2976 4.64988 30.5877 4.90002L30.8654 5.14027L32.338 3.57089C32.4503 3.45147 32.5641 3.33594 32.6786 3.22571L32.3076 2.90562C32.0663 2.69752 31.7649 2.58553 31.4498 2.58553L31.4494 2.58623Z" fill="#1B2F4C"/>
<path d="M54.3054 7.07153H52.2664V8.31163H54.3054V7.07153Z" fill="#FBB03B"/>
<path d="M54.6103 8.6165H51.9619V6.7666H54.6103V8.6165ZM52.5714 8.0067H54.0005V7.3764H52.5714V8.0067Z" fill="#1B2F4C"/>
<path d="M55.1982 5.06079H51.2256C51.1366 5.06079 51.0525 5.0827 50.9779 5.12191C50.8073 5.21095 50.6914 5.38901 50.6914 5.59393V6.53902C50.6914 6.83402 50.9302 7.0718 51.2256 7.0718H55.1982C55.4932 7.0718 55.7324 6.83402 55.7324 6.53902V5.59393C55.7324 5.29998 55.4935 5.06114 55.1982 5.06114V5.06079Z" fill="#FBB03B"/>
<path opacity="0.3" d="M53.6072 4.97778H52.8452V7.08136H53.6072V4.97778Z" fill="white"/>
<path opacity="0.2" d="M55.2445 5.59368V6.53877C55.2445 6.83378 55.0056 7.07155 54.7103 7.07155H53.9482C54.1202 6.98252 54.2382 6.80693 54.2382 6.59954V5.65445C54.2382 5.3605 53.9994 5.12167 53.7041 5.12167H50.9776C51.0521 5.0828 51.1362 5.06055 51.2253 5.06055H54.7103C55.0053 5.06055 55.2445 5.29938 55.2445 5.59333V5.59368Z" fill="black"/>
<path opacity="0.2" d="M51.2217 5.59368V6.53877C51.2217 6.83378 51.4606 7.07155 51.7559 7.07155H52.518C52.346 6.98252 52.228 6.80693 52.228 6.59954V5.65445C52.228 5.3605 52.4668 5.12167 52.7621 5.12167H55.4886C55.414 5.0828 55.33 5.06055 55.2409 5.06055H51.7559C51.4609 5.06055 51.2217 5.29938 51.2217 5.59333V5.59368Z" fill="black"/>
<path d="M55.1978 7.37632H51.2252C50.7628 7.37632 50.3865 7.0004 50.3865 6.53863V5.59354C50.3865 5.13177 50.7628 4.75586 51.2252 4.75586H55.1978C55.6603 4.75586 56.0365 5.13177 56.0365 5.59354V6.53863C56.0365 7.0004 55.6603 7.37632 55.1978 7.37632ZM51.2252 5.36566C51.0988 5.36566 50.996 5.46812 50.996 5.59354V6.53863C50.996 6.66441 51.0988 6.76651 51.2252 6.76651H55.1978C55.3243 6.76651 55.4271 6.66406 55.4271 6.53863V5.59354C55.4271 5.46777 55.3243 5.36566 55.1978 5.36566H51.2252Z" fill="#1B2F4C"/>
<path d="M37.8644 13.5444H37.8633V12.9346L37.8644 13.5444Z" fill="black"/>
<path d="M38.3757 16.1904C38.3757 16.1904 38.3742 16.192 38.3742 16.194Z" fill="#FBB03B"/>
<path d="M38.5929 16.4045L38.3759 16.1929H38.0693L38.1565 15.9788L38.3735 16.1904H38.6801L38.5929 16.4045Z" fill="black"/>
<path d="M43.3678 11.3271C42.0874 12.1722 40.9169 13.1721 39.8877 14.3013C39.3426 14.8962 38.8377 15.5269 38.3756 16.19C38.4014 16.1278 38.9292 14.8171 38.5939 13.9352C38.477 13.6268 38.2537 13.3707 37.8647 13.2389C38.1622 12.8926 38.4731 12.5573 38.7964 12.2341H38.7974C39.4341 11.5949 40.1167 11.006 40.841 10.4683C40.9067 10.9071 41.0897 11.1841 41.3299 11.3498C42.0567 11.8571 43.3042 11.3522 43.3674 11.3264L43.3678 11.3271Z" fill="#FBB03B"/>
<path opacity="0.2" d="M41.3299 11.3504C40.0093 12.2492 39.1083 13.261 38.5936 13.9355C38.4766 13.627 38.2533 13.3709 37.8643 13.2391C38.1618 12.8929 38.4727 12.5576 38.796 12.2343H38.7971C39.4337 11.5952 40.1163 11.0062 40.8406 10.4685C40.9063 10.9073 41.0893 11.1843 41.3296 11.35L41.3299 11.3504Z" fill="black"/>
<path opacity="0.2" d="M40.4035 13.5351C39.9195 14.1806 39.4786 14.8575 39.0836 15.5627C39.1094 15.4758 39.8248 13.032 38.2862 12.6759C38.5483 12.3021 38.825 11.9378 39.115 11.5849H39.1161C39.156 11.581 40.4392 11.4704 40.4032 13.5348L40.4035 13.5351Z" fill="black"/>
<path d="M37.068 18.599L38.093 16.0757C38.2799 15.6157 38.5597 14.5862 38.2823 13.9806C38.1806 13.7591 38.0124 13.6111 37.7672 13.5284L37.3387 13.3839L37.6333 13.0408C38.5311 11.9958 39.5493 11.0482 40.6594 10.2243L41.0671 9.92188L41.1427 10.4236C41.1953 10.7733 41.3328 11.0069 41.5628 11.1379C42.1637 11.4803 43.2092 11.063 43.2533 11.045L43.536 11.5821C41.6002 12.8589 39.9485 14.4678 38.6261 16.3647L37.0684 18.599H37.068ZM38.3541 13.1444C38.5639 13.2889 38.7254 13.4835 38.8367 13.7266C38.9949 14.0718 39.0271 14.4749 38.9999 14.8589C39.9061 13.751 40.9325 12.7547 42.0687 11.8799C41.7913 11.8689 41.5101 11.8099 41.2607 11.6679C40.9904 11.5139 40.7918 11.2853 40.6671 10.9853C39.834 11.6361 39.0585 12.3604 38.3544 13.1447L38.3541 13.1444Z" fill="#1B2F4C"/>
<path d="M40.536 10.4692V10.4678H41.1458L40.536 10.4692Z" fill="black"/>
<path d="M43.3674 11.328C43.3674 11.328 43.369 11.3264 43.371 11.3264Z" fill="#FBB03B"/>
<path d="M43.3674 11.6323V11.3278L43.153 11.1116L43.3699 11.0215V11.6313V11.3264L43.5843 11.5423L43.3674 11.6323Z" fill="black"/>
<path d="M68.3672 15.9462C67.7772 15.1294 67.1222 14.3623 66.4089 13.6536C65.4235 12.6732 64.3261 11.8037 63.1383 11.065C63.197 11.0858 64.559 11.5638 65.3892 11.1296C65.6549 10.9908 65.8673 10.7576 65.9637 10.387C66.6209 10.8894 67.2427 11.4356 67.8246 12.0221C68.2012 12.4001 68.5612 12.7951 68.9036 13.206C68.5573 13.2961 68.3316 13.4646 68.1902 13.6755C67.6635 14.4584 68.3086 15.8254 68.3669 15.9459L68.3672 15.9462Z" fill="#DD9536"/>
<path opacity="0.2" d="M68.9039 13.2062C68.5577 13.2963 68.3319 13.4648 68.1906 13.6758C67.236 12.477 66.1446 11.6323 65.3896 11.1299C65.6553 10.991 65.8676 10.7578 65.9641 10.3872C66.6212 10.8896 67.243 11.4358 67.8249 12.0223C68.2015 12.4003 68.5616 12.7953 68.9039 13.2062Z" fill="black"/>
<path opacity="0.2" d="M67.8398 15.3999C67.284 14.559 66.6618 13.7655 65.9785 13.0282C66.3594 11.9665 67.1978 11.5605 67.4607 11.457C67.8214 11.8503 68.1644 12.2601 68.4898 12.6848C66.8445 13.0423 67.7719 15.2434 67.8398 15.3999Z" fill="black"/>
<path d="M68.1234 16.1309C66.7307 14.1979 64.9992 12.5805 62.9776 11.3245L60.6302 9.86572L63.239 10.778C63.7245 10.9479 64.6953 11.1553 65.255 10.8567C65.4669 10.7437 65.6023 10.5653 65.6687 10.3109L65.7846 9.86678L66.1492 10.1459C67.2465 10.9861 68.252 11.9502 69.1381 13.0119L69.4459 13.3807L68.9809 13.5019C68.6813 13.58 68.4856 13.7288 68.3821 13.9563C68.1217 14.53 68.4824 15.4939 68.6435 15.8168L68.1234 16.1312V16.1309ZM64.4996 11.6174C65.6747 12.4788 66.7388 13.4694 67.6829 14.5799C67.668 14.282 67.703 13.9775 67.827 13.704C67.9486 13.4362 68.1393 13.2285 68.3969 13.0826C67.6956 12.2809 66.9222 11.5404 66.0912 10.8744C65.9609 11.0952 65.7772 11.269 65.5422 11.3945C65.2274 11.5623 64.8561 11.6181 64.4996 11.6174Z" fill="#1B2F4C"/>
<path d="M65.6588 10.3876V10.3862H66.2686L65.6588 10.3876Z" fill="black"/>
<path d="M63.1395 11.0658C63.1395 11.0658 63.1379 11.0658 63.1359 11.0642Z" fill="#FBB03B"/>
<path d="M63.1383 11.3702L62.9203 11.2797L63.1359 11.0642L63.1383 10.7607V11.0618L63.3514 10.8487L63.1383 11.0618V11.3702Z" fill="black"/>
<path d="M68.9707 13.1907C68.9473 13.1956 68.9254 13.2016 68.9035 13.2066Z" fill="#FBB03B"/>
<path d="M68.3723 15.9562C68.3723 15.9562 68.3708 15.9547 68.3708 15.9526Z" fill="#FBB03B"/>
<path d="M68.1531 16.1671L68.0659 15.9526H68.3708L68.5895 15.741L68.6767 15.9551H68.0673H68.3718L68.1531 16.1671Z" fill="black"/>
<path opacity="0.2" d="M64.7434 41.1775C64.0177 41.742 63.2471 42.2554 62.4398 42.709L63.3591 44.076C64.058 43.6785 64.7296 43.2394 65.3723 42.7627L64.743 41.1775H64.7434ZM40.6887 42.0908C41.3264 42.6225 41.9994 43.1125 42.7007 43.5612C42.7081 43.5662 42.7142 43.5697 42.7216 43.5732L43.5836 42.1745C42.7679 41.6527 41.9948 41.0687 41.2741 40.4285L40.6887 42.0904V42.0908Z" fill="black"/>
<path d="M68.3718 15.9551C68.3718 15.9551 68.3708 15.9541 68.3708 15.9527C68.3697 15.9502 68.3683 15.9491 68.3672 15.9466C66.9614 13.9982 65.1847 12.3373 63.1387 11.0654C63.1387 11.0654 63.1376 11.0654 63.1362 11.0643C60.3889 9.35858 57.1576 8.35626 53.6959 8.3121C53.6168 8.31104 53.5373 8.31104 53.4581 8.31104C53.379 8.31104 53.2995 8.31104 53.2204 8.3121C49.5856 8.35838 46.2041 9.46069 43.3702 11.3265C43.3692 11.3265 43.3692 11.3275 43.3678 11.3275C41.4119 12.6178 39.7146 14.2699 38.3756 16.1904C38.3756 16.1915 38.3745 16.1915 38.3745 16.1929C36.3027 19.167 35.0884 22.7824 35.0884 26.6818C35.0884 32.152 37.4796 37.0636 41.2744 40.4289C41.9952 41.069 42.7682 41.6531 43.584 42.1749C46.4362 43.9955 49.8237 45.0515 53.4585 45.0515C56.7216 45.0515 59.7848 44.2004 62.4405 42.7091C63.2478 42.2554 64.0184 41.7421 64.7441 41.1775C69.0558 37.8144 71.8285 32.5724 71.8285 26.6814C71.8285 22.6781 70.5482 18.9727 68.3729 15.9548L68.3718 15.9551ZM53.4578 41.1291C45.4795 41.1291 39.0105 34.6605 39.0105 26.6818C39.0105 18.7031 45.4791 12.2348 53.4578 12.2348C61.4365 12.2348 67.9047 18.7024 67.9047 26.6818C67.9047 34.6612 61.4361 41.1291 53.4578 41.1291Z" fill="#29ABE2"/>
<g opacity="0.2">
<path d="M64.743 38.983C64.0173 39.5476 63.2468 40.061 62.4395 40.5146C59.7837 42.0059 56.7205 42.857 53.4574 42.857C49.8226 42.857 46.4352 41.801 43.5829 39.9804C42.7671 39.4586 41.9941 38.8746 41.2734 38.2344C37.6312 35.0041 35.2831 30.349 35.1004 25.1431C35.092 25.3706 35.0874 25.5988 35.0874 25.8285C35.0874 31.2987 37.4785 36.2103 41.2734 39.5755C41.9941 40.2157 42.7671 40.7997 43.5829 41.3216C46.4352 43.1421 49.8226 44.1982 53.4574 44.1982C56.7205 44.1982 59.7837 43.3471 62.4395 41.8558C63.2468 41.4021 64.0173 40.8888 64.743 40.3242C69.0547 36.9611 71.8275 31.7191 71.8275 25.8281C71.8275 25.5999 71.8229 25.3731 71.8144 25.147C71.6158 30.768 68.8926 35.7457 64.7427 38.9827L64.743 38.983Z" fill="black"/>
</g>
<g opacity="0.4">
<path d="M64.7713 14.3015C64.0456 13.737 63.2751 13.2236 62.4678 12.77C59.812 11.2787 56.7488 10.4276 53.4857 10.4276C49.8509 10.4276 46.4634 11.4836 43.6112 13.3042C42.7954 13.826 42.0224 14.41 41.3017 15.0502C37.6595 18.2805 35.3114 22.9356 35.1287 28.1415C35.1203 27.914 35.1157 27.6858 35.1157 27.4561C35.1157 21.9859 37.5068 17.0743 41.3017 13.7091C42.0224 13.0689 42.7954 12.4849 43.6112 11.963C46.4634 10.1425 49.8509 9.08643 53.4857 9.08643C56.7488 9.08643 59.812 9.93754 62.4678 11.4288C63.2751 11.8825 64.0456 12.3958 64.7713 12.9604C69.083 16.3235 71.8558 21.5655 71.8558 27.4565C71.8558 27.6847 71.8512 27.9115 71.8427 28.1376C71.6441 22.5166 68.9209 17.5389 64.771 14.3019L64.7713 14.3015Z" fill="white"/>
</g>
<path d="M53.4578 45.3566C49.8877 45.3566 46.4165 44.3454 43.4194 42.4323C42.5905 41.9019 41.8005 41.3049 41.0713 40.6573C37.0751 37.1129 34.7832 32.0193 34.7832 26.682C34.7832 22.8758 35.9191 19.2181 38.0693 16.0977V16.0602L38.1424 15.9917C39.5009 14.0496 41.1939 12.4007 43.1756 11.0892L43.2424 11.0225H43.2784C46.2373 9.09483 49.6714 8.05294 53.2161 8.00771C53.3762 8.00524 53.5387 8.00524 53.7005 8.00771C57.0714 8.05046 60.3631 9.00227 63.2245 10.761H63.2256L63.2994 10.8069C65.3818 12.1014 67.1667 13.7659 68.6043 15.7546L68.6764 15.8217V15.8571C70.9379 19.0287 72.1328 22.7698 72.1328 26.6827C72.1328 32.4779 69.5077 37.8488 64.9307 41.419C64.1908 41.9949 63.403 42.5185 62.5893 42.976C59.8148 44.5341 56.657 45.3576 53.4582 45.3576L53.4578 45.3566ZM38.6074 16.3913C36.5045 19.4209 35.393 22.9786 35.393 26.6816C35.393 31.8444 37.6103 36.772 41.4762 40.2008C42.1817 40.8275 42.9459 41.4052 43.7476 41.9182C46.6465 43.7688 50.0043 44.7468 53.4578 44.7468C56.5524 44.7468 59.6067 43.9504 62.2904 42.4432C63.0779 42.0009 63.84 41.4939 64.5558 40.9371C68.9834 37.4835 71.523 32.2878 71.523 26.6816C71.523 22.874 70.3535 19.235 68.1411 16.1556L68.0669 16.0864V16.051C66.7004 14.1768 65.0137 12.6028 63.0514 11.3701H63.0126L62.9468 11.3051C60.1695 9.58769 56.9704 8.65815 53.6924 8.61681C53.6122 8.6154 53.5355 8.61752 53.4543 8.6154C53.378 8.6154 53.3016 8.6154 53.2253 8.61646C49.7757 8.66062 46.4355 9.6799 43.5625 11.5648L43.4957 11.6316H43.4607C41.584 12.8826 39.9764 14.4481 38.6809 16.2863V16.3227L38.6077 16.3913H38.6074ZM53.4578 41.4335C45.3237 41.4335 38.7059 34.8157 38.7059 26.6816C38.7059 18.5475 45.3237 11.9297 53.4578 11.9297C61.5919 11.9297 68.21 18.5475 68.21 26.6816C68.21 34.8157 61.5923 41.4335 53.4578 41.4335ZM53.4578 12.5392C45.6597 12.5392 39.3157 18.8835 39.3157 26.6816C39.3157 34.4797 45.66 40.8237 53.4578 40.8237C61.2556 40.8237 67.6002 34.4794 67.6002 26.6816C67.6002 18.8838 61.2559 12.5392 53.4578 12.5392Z" fill="#1B2F4C"/>
<path d="M40.7858 46.1183C40.5968 46.1183 40.4053 46.077 40.2241 45.99C39.6228 45.7046 39.3362 45.0146 39.5585 44.3857L41.137 39.9001L41.4765 40.2015C42.1821 40.8283 42.9463 41.4059 43.7479 41.9186L44.0005 42.08L41.892 45.4997C41.6475 45.8957 41.2239 46.1183 40.7858 46.1183ZM41.4129 40.953L40.1336 44.5885C40.0156 44.9224 40.1672 45.2884 40.4866 45.44C40.807 45.5929 41.1875 45.4809 41.373 45.1799L43.1678 42.2691C42.5573 41.8645 41.969 41.4236 41.4126 40.9533L41.4129 40.953Z" fill="#1B2F4C"/>
<path d="M65.2016 46.3339C64.7812 46.3339 64.3721 46.1297 64.123 45.758L62.0024 42.6051L62.2904 42.4433C63.0779 42.001 63.84 41.494 64.5558 40.9372L64.8766 40.6877L66.4103 44.5529C66.6562 45.1729 66.3975 45.8739 65.8079 46.1837C65.6146 46.2855 65.4065 46.3339 65.2016 46.3339ZM62.8751 42.8107L64.6285 45.4181C64.8257 45.7117 65.2108 45.8089 65.5238 45.6439C65.8365 45.4796 65.9739 45.1069 65.8432 44.7776L64.6074 41.6636C64.0513 42.0773 63.4708 42.4617 62.8747 42.8107H62.8751Z" fill="#1B2F4C"/>
<path d="M53.6606 28.1416C54.445 28.1416 55.0809 27.5057 55.0809 26.7213C55.0809 25.9369 54.445 25.301 53.6606 25.301C52.8762 25.301 52.2403 25.9369 52.2403 26.7213C52.2403 27.5057 52.8762 28.1416 53.6606 28.1416Z" fill="#1B2F4C"/>
<path d="M55.0713 22.3325L53.8832 20.2745C53.7842 20.1035 53.5373 20.1035 53.4387 20.2745L52.2506 22.3325C52.1516 22.5035 52.2753 22.7176 52.4728 22.7176H53.0522V26.8661H54.2697V22.7176H54.8491C55.0466 22.7176 55.1703 22.5038 55.0713 22.3325Z" fill="#1B2F4C"/>
<path d="M49.6018 31.9844L54.4403 26.5739L53.7807 25.9839L48.9751 31.3576L48.7182 31.1008C48.5755 30.9581 48.3321 31.0234 48.2798 31.2181L47.8487 32.8263C47.7964 33.021 47.9749 33.1994 48.1695 33.1471L49.7778 32.7161C49.9724 32.6638 50.0378 32.4204 49.8951 32.2776L49.6011 31.9837L49.6018 31.9844Z" fill="#1B2F4C"/>
<path d="M53.4688 27.189L59.8116 30.5885C59.8431 30.6076 59.8735 30.5627 59.8441 30.5408L54.0867 26.2581L53.4688 27.1894V27.189Z" fill="#1B2F4C"/>
<path d="M80.2082 53.1877C80.2082 57.5652 76.66 61.1138 72.2822 61.1138H28.7046C28.2425 61.1138 27.8669 60.7393 27.8669 60.2771V59.6493C27.8669 59.1872 28.2425 58.8127 28.7046 58.8127H71.7787C73.3322 58.8127 74.738 58.1835 75.7562 57.1652C76.7745 56.147 77.4037 54.7412 77.4037 53.1877C77.4037 50.0808 74.8857 47.5628 71.7787 47.5628H28.7046C28.2425 47.5628 27.8669 47.1883 27.8669 46.7262V46.0983C27.8669 45.6362 28.2425 45.2617 28.7046 45.2617H72.2825C74.4713 45.2617 76.4529 46.1496 77.8867 47.5833C79.3218 49.0173 80.2082 50.9987 80.2082 53.1874V53.1877Z" fill="#999999"/>
<g opacity="0.4">
<path d="M28.7046 46.6029H72.2825C74.4713 46.6029 76.4529 47.4908 77.8867 48.9245C79.2412 50.278 80.1061 52.1198 80.199 54.1629C80.2047 54.0417 80.2082 53.9199 80.2082 53.7973C80.2082 51.6085 79.3218 49.6269 77.8867 48.1931C76.4526 46.7591 74.4713 45.8716 72.2825 45.8716H28.7046C28.2425 45.8716 27.8669 46.2461 27.8669 46.7082V47.336C27.8669 47.3537 27.8683 47.3707 27.8694 47.388C27.8962 46.9502 28.2598 46.6033 28.7046 46.6033V46.6029Z" fill="white"/>
</g>
<g opacity="0.2">
<path d="M72.2825 59.7723H28.7046C28.2598 59.7723 27.8966 59.4253 27.8694 58.9876C27.8683 59.0049 27.8669 59.0219 27.8669 59.0395V59.6673C27.8669 60.1295 28.2425 60.504 28.7046 60.504H72.2825C76.66 60.504 80.2086 56.9557 80.2086 52.5779C80.2086 52.4553 80.2047 52.3335 80.1994 52.2119C80.0083 56.4198 76.5377 59.7723 72.2825 59.7723Z" fill="black"/>
</g>
<path d="M72.2825 61.4183H28.7046C28.0747 61.4183 27.562 60.9063 27.562 60.2771V59.6489C27.562 59.0197 28.0747 58.5074 28.7046 58.5074H71.7787C73.2001 58.5074 74.5363 57.9541 75.5407 56.9493C76.5455 55.9445 77.0988 54.6087 77.0988 53.1874C77.0988 50.2539 74.7122 47.8673 71.7784 47.8673H28.7046C28.0747 47.8673 27.562 47.3554 27.562 46.7261V46.0983C27.562 45.4691 28.0747 44.9568 28.7046 44.9568H72.2825C74.4808 44.9568 76.5476 45.8132 78.1022 47.3677C79.6567 48.9212 80.5131 50.988 80.5131 53.1877C80.5131 57.7263 76.8207 61.4186 72.2822 61.4186L72.2825 61.4183ZM28.7046 59.1172C28.4106 59.1172 28.1718 59.3557 28.1718 59.6489V60.2771C28.1718 60.57 28.411 60.8088 28.7046 60.8088H72.2825C76.4847 60.8088 79.9037 57.3899 79.9037 53.1877C79.9037 51.1513 79.1108 49.2374 77.6715 47.7991C76.2318 46.3594 74.3179 45.5666 72.2825 45.5666H28.7046C28.4106 45.5666 28.1718 45.8051 28.1718 46.0983V46.7261C28.1718 47.0194 28.411 47.2579 28.7046 47.2579H71.7787C75.0486 47.2579 77.7086 49.9179 77.7086 53.1877C77.7086 54.7719 77.0917 56.2611 75.9717 57.3807C74.8521 58.5007 73.3629 59.1172 71.7787 59.1172H28.7046Z" fill="#1B2F4C"/>
<path d="M77.4037 53.1877C77.4037 54.7412 76.7745 56.147 75.7562 57.1652C74.738 58.1834 73.3322 58.8127 71.7787 58.8127H29.9178C35.5039 51.1149 29.9178 47.5627 29.9178 47.5627H71.7787C74.8857 47.5627 77.4037 50.0807 77.4037 53.1877Z" fill="#F2F2F2"/>
<g opacity="0.2">
<path d="M31.6384 49.4978H70.7397C73.8466 49.4978 76.3646 52.0158 76.3646 55.1227C76.3646 55.694 76.2788 56.2448 76.1208 56.7642C76.9225 55.7919 77.4041 54.5462 77.4041 53.1877C77.4041 50.0807 74.886 47.5627 71.7791 47.5627H29.9178C29.9178 47.5627 30.9089 48.193 31.6388 49.4978H31.6384Z" fill="black"/>
<path d="M29.9178 58.8127H30.1033C30.2814 58.4817 30.4379 58.1598 30.5739 57.8472C30.3743 58.1616 30.157 58.4831 29.9178 58.8127Z" fill="black"/>
</g>
<path d="M71.7787 59.1172H29.3197L29.6709 58.6331C31.6165 55.9519 32.3977 53.5039 31.9928 51.3565C31.5476 48.9943 29.7712 47.8305 29.7536 47.8192L28.8784 47.2578H71.7787C75.0486 47.2575 77.7086 49.9175 77.7086 53.1873C77.7086 54.7715 77.0917 56.2607 75.9717 57.3803C74.8521 58.5003 73.3629 59.1168 71.7787 59.1168V59.1172ZM30.505 58.5074H71.7787C73.2001 58.5074 74.5363 57.9541 75.5407 56.9493C76.5455 55.9445 77.0988 54.6087 77.0988 53.1873C77.0988 50.2538 74.7122 47.8673 71.7784 47.8673H30.7672C31.3964 48.4746 32.2754 49.5819 32.5895 51.2311C33.0068 53.4198 32.3055 55.8657 30.5047 58.5074H30.505Z" fill="#1B2F4C"/>
<path d="M79.4854 66.6544C79.4854 69.7136 77.0052 72.1938 73.9459 72.1938H28.5081C28.0874 72.1938 27.7447 71.8525 27.7447 71.4303V70.628C27.7447 70.2061 28.0874 69.8645 28.5081 69.8645H73.658C74.5444 69.8645 75.3467 69.5048 75.9283 68.9243C76.5088 68.3428 76.8684 67.5405 76.8684 66.654C76.8684 64.8797 75.4308 63.4421 73.658 63.4421H28.5081C28.0874 63.4421 27.7447 63.1008 27.7447 62.6786V61.8763C27.7447 61.4544 28.0874 61.1128 28.5081 61.1128H73.9455C75.4757 61.1128 76.8599 61.7321 77.8623 62.7359C78.8657 63.7382 79.4854 65.1235 79.4854 66.6537V66.6544Z" fill="#C7B299"/>
<g opacity="0.5">
<path d="M28.5081 62.3329H73.9455C75.4757 62.3329 76.8599 62.9523 77.8623 63.956C78.7985 64.8912 79.4002 66.1599 79.4765 67.5689C79.4818 67.4679 79.4854 67.3665 79.4854 67.264C79.4854 65.7339 78.866 64.3485 77.8623 63.3462C76.8599 62.3428 75.4761 61.7231 73.9455 61.7231H28.5081C28.0874 61.7231 27.7447 62.0644 27.7447 62.4866V63.0964C27.7447 62.6746 28.0874 62.3329 28.5081 62.3329Z" fill="white"/>
</g>
<g opacity="0.2">
<path d="M73.9455 70.879H28.5081C28.0962 70.879 27.7599 70.608 27.7461 70.2695C27.7461 70.2766 27.7447 70.2837 27.7447 70.2907V70.9539C27.7447 71.3026 28.0874 71.5845 28.5081 71.5845H73.9455C77.0048 71.5845 79.485 69.535 79.485 67.0068C79.485 66.888 79.4779 66.7704 79.467 66.6538C79.249 69.0171 76.861 70.879 73.9452 70.879H73.9455Z" fill="black"/>
</g>
<path d="M73.9456 72.4991H28.5082C27.9192 72.4991 27.4401 72.02 27.4401 71.431V70.6287C27.4401 70.0397 27.9192 69.5606 28.5082 69.5606H73.658C74.4331 69.5606 75.163 69.2586 75.7131 68.7095C76.2615 68.1598 76.5639 67.4299 76.5639 66.6547C76.5639 65.0518 75.2602 63.7477 73.658 63.7477H28.5082C27.9192 63.7477 27.4401 63.2686 27.4401 62.6793V61.877C27.4401 61.288 27.9192 60.8086 28.5082 60.8086H73.9456C75.5072 60.8086 76.9748 61.4166 78.0778 62.5211C79.1819 63.6237 79.7899 65.0917 79.7899 66.6544C79.7899 69.8769 77.168 72.4987 73.9456 72.4987V72.4991ZM28.5082 70.1701C28.2552 70.1701 28.0496 70.3757 28.0496 70.6287V71.431C28.0496 71.684 28.2552 71.8896 28.5082 71.8896H73.9456C76.832 71.8896 79.1805 69.5412 79.1805 66.6547C79.1805 65.2549 78.6357 63.9403 77.6471 62.9524C76.6589 61.9632 75.3446 61.4188 73.9459 61.4188H28.5082C28.2552 61.4188 28.0496 61.6244 28.0496 61.8773V62.6797C28.0496 62.9327 28.2552 63.1383 28.5082 63.1383H73.658C75.5962 63.1383 77.1733 64.7158 77.1733 66.6551C77.1733 67.5931 76.808 68.4756 76.1442 69.1409C75.4785 69.8051 74.596 70.1704 73.658 70.1704H28.5082V70.1701Z" fill="#1B2F4C"/>
<path d="M76.8684 66.6543C76.8684 67.5407 76.5088 68.3431 75.9283 68.9246C75.3467 69.5051 74.5444 69.8647 73.658 69.8647H29.6737C32.8439 66.6822 30.2224 63.4424 30.2224 63.4424H73.6576C75.4305 63.4424 76.8681 64.88 76.8681 66.6543H76.8684Z" fill="#F2F2F2"/>
<g opacity="0.2">
<path d="M72.9347 64.8337C74.7076 64.8337 76.1452 66.2713 76.1452 68.0456C76.1452 68.3003 76.1145 68.548 76.0583 68.7854C76.5614 68.218 76.8684 67.4722 76.8684 66.6543C76.8684 64.88 75.4308 63.4424 73.658 63.4424H30.2227C30.2227 63.4424 30.658 63.9805 30.9594 64.8337H72.9347Z" fill="black"/>
<path d="M29.6737 69.865H29.9963C30.1281 69.6156 30.2312 69.369 30.3093 69.127C30.1295 69.3721 29.9189 69.6188 29.6737 69.865Z" fill="black"/>
</g>
<path d="M73.6579 70.1701H28.9399L29.4578 69.65C32.4012 66.6954 30.0856 63.758 29.9857 63.6343L29.584 63.1379H73.6579C75.5962 63.1379 77.1733 64.7154 77.1733 66.6547C77.1733 67.5927 76.808 68.4753 76.1441 69.1406C75.4785 69.8048 74.596 70.1701 73.6579 70.1701ZM30.3598 69.5603H73.6579C74.4331 69.5603 75.163 69.2582 75.7131 68.7092C76.2614 68.1594 76.5639 67.4295 76.5639 66.6544C76.5639 65.0514 75.2602 63.7474 73.6579 63.7474H30.7852C31.3632 64.7529 32.3312 67.1395 30.3598 69.5603Z" fill="#1B2F4C"/>
<path d="M83.2972 85.6571C83.3703 85.7825 83.4116 85.9277 83.4116 86.0839C83.4116 86.5559 83.0301 86.9375 82.558 86.9375H27.5486C25.5136 86.9375 23.6697 86.1118 22.3359 84.7781C21.0022 83.4444 20.1765 81.6015 20.1765 79.5665C20.1765 79.4227 20.1801 79.28 20.1889 79.1372C20.1939 79.0567 20.1999 78.9761 20.2073 78.8959C20.2536 78.3815 20.3536 77.8802 20.5023 77.4011C20.756 76.5694 21.1534 75.8013 21.6657 75.1244C23.0118 73.3441 25.1458 72.1941 27.5493 72.1941H82.5443C82.7831 72.1941 83.0004 72.2916 83.1576 72.4488C83.3148 72.605 83.4123 72.8219 83.4123 73.0622C83.4123 73.5412 83.0233 73.9302 82.5443 73.9302H51.4539C48.4126 73.9302 45.9458 76.397 45.9458 79.4382V79.7223C45.9458 80.5734 46.1398 81.3807 46.4846 82.1C46.5687 82.2746 46.6613 82.4452 46.7627 82.6084C47.7322 84.1828 49.4708 85.23 51.4535 85.23H82.5584C82.7584 85.23 82.94 85.2971 83.0852 85.413C83.112 85.4324 83.1375 85.4557 83.1618 85.4801C83.2141 85.5324 83.2608 85.5924 83.2972 85.6567V85.6571Z" fill="#F43150"/>
<path d="M33.0587 86.9375C26.4813 78.9507 33.5177 72.1941 33.5177 72.1941H40.3788C40.3788 72.1941 33.3424 78.9507 39.9199 86.9375H33.0587Z" fill="#E6E6E6"/>
<g opacity="0.2">
<path d="M83.2971 85.6571C83.1495 85.9133 82.8739 86.0839 82.558 86.0839H27.5486C25.5135 86.0839 23.6696 85.2582 22.3359 83.9245C21.0958 82.6844 20.2945 81.0041 20.1885 79.1372C20.1801 78.997 20.1762 78.8557 20.1762 78.7129C20.1762 78.4875 20.1861 78.2628 20.2066 78.0424C20.2394 77.6777 20.2991 77.3206 20.3832 76.9729C20.4185 77.1167 20.4578 77.2594 20.5016 77.4007C20.8577 78.5652 21.494 79.6078 22.3356 80.4491C23.6696 81.7831 25.5132 82.6085 27.5482 82.6085H46.762C47.7314 84.1828 49.47 85.23 51.4528 85.23H82.5577C82.7576 85.23 82.9392 85.2971 83.0845 85.413C83.1113 85.4324 83.1367 85.4557 83.1611 85.4801C83.2134 85.5324 83.26 85.5925 83.2964 85.6568L83.2971 85.6571Z" fill="black"/>
</g>
<g opacity="0.3">
<path d="M26.6543 73.9013H81.6493C81.8882 73.9013 82.1054 73.9988 82.2627 74.156C82.3962 74.2885 82.486 74.4648 82.5103 74.6619H82.5435C83.0226 74.6619 83.4116 74.2729 83.4116 73.7939C83.4116 73.5536 83.3141 73.3367 83.1569 73.1805C82.9997 73.0233 82.7824 72.9258 82.5435 72.9258H27.5486C25.1563 72.9258 23.0316 74.0655 21.6844 75.8321C22.9952 74.6337 24.7384 73.9013 26.6543 73.9013Z" fill="white"/>
</g>
<path d="M82.558 87.2423H27.5486C25.498 87.2423 23.5704 86.4435 22.1201 84.9936C20.6701 83.5433 19.8713 81.616 19.8713 79.5665C19.8713 75.3332 23.3153 71.8892 27.5486 71.8892H82.5436C82.8562 71.8892 83.1505 72.0114 83.3724 72.2333C83.5939 72.4534 83.7165 72.7477 83.7165 73.0621C83.7165 73.709 83.1905 74.2351 82.5436 74.2351H51.4531C48.5843 74.2351 46.25 76.569 46.25 79.4382V79.7223C46.25 82.5911 48.584 84.9254 51.4531 84.9254H82.558C82.8675 84.9254 83.1583 85.0459 83.3773 85.2645C83.596 85.4836 83.7165 85.7744 83.7165 86.0839C83.7165 86.7226 83.1968 87.2423 82.558 87.2423ZM27.5486 72.499C23.6516 72.499 20.4811 75.6695 20.4811 79.5665C20.4811 81.4531 21.2163 83.2274 22.5514 84.5625C23.8862 85.8977 25.6612 86.6329 27.5486 86.6329H82.558C82.8605 86.6329 83.1067 86.3866 83.1067 86.0842C83.1067 85.9376 83.0498 85.7998 82.946 85.6963C82.8421 85.5928 82.7043 85.5355 82.558 85.5355H51.4531C48.248 85.5355 45.6402 82.9278 45.6402 79.7226V79.4386C45.6402 76.2334 48.248 73.6257 51.4531 73.6257H82.5436C82.8541 73.6257 83.1071 73.373 83.1071 73.0621C83.1071 72.9116 83.0488 72.7707 82.9424 72.665C82.8347 72.5576 82.6937 72.4986 82.5439 72.4986H27.5486V72.499Z" fill="#1B2F4C"/>
<path d="M80.8509 85.2303H51.4531C48.4119 85.2303 45.9451 82.7646 45.9451 79.7222V79.4382C45.9451 76.397 48.4119 73.9302 51.4531 73.9302H80.8509C80.8509 73.9302 75.9124 78.8284 80.8509 85.2303Z" fill="#F2F2F2"/>
<path opacity="0.2" d="M47.7742 81.6704V81.3863C47.7742 78.3451 50.241 75.8783 53.2822 75.8783H79.5189C80.1337 74.6428 80.8509 73.9302 80.8509 73.9302H51.4531C48.4119 73.9302 45.9451 76.397 45.9451 79.4382V79.7223C45.9451 81.6654 46.9524 83.3719 48.4716 84.3523C48.0279 83.5584 47.7742 82.6441 47.7742 81.6704Z" fill="black"/>
<path d="M81.4713 85.5351H51.4531C48.248 85.5351 45.6402 82.9274 45.6402 79.7222V79.4382C45.6402 76.233 48.248 73.6252 51.4531 73.6252H81.5911L81.0657 74.1467C81.054 74.1584 79.8662 75.3578 79.2829 77.2932C78.506 79.8727 79.1147 82.4805 81.0922 85.0437L81.4709 85.5348L81.4713 85.5351ZM51.4531 74.235C48.5843 74.235 46.25 76.569 46.25 79.4382V79.7222C46.25 82.591 48.584 84.9253 51.4531 84.9253H80.2478C77.9941 81.7191 78.1516 78.9142 78.7074 77.0905C79.1084 75.7762 79.7546 74.7926 80.1874 74.235H51.4528H51.4531Z" fill="#1B2F4C"/>
<path opacity="0.3" d="M51.5096 77.313L77.4853 77.3144C77.5895 77.3144 77.6736 77.23 77.6736 77.1261C77.6736 77.0219 77.5891 76.9374 77.4853 76.9374L51.5096 76.936C51.4054 76.936 51.3213 77.0205 51.321 77.1243C51.321 77.2286 51.4054 77.3127 51.5093 77.313H51.5096Z" fill="black"/>
<path opacity="0.3" d="M49.8965 78.9168L76.8069 78.9182C76.9112 78.9182 76.9953 78.8337 76.9956 78.7299C76.9956 78.6256 76.9112 78.5416 76.8073 78.5412L49.8968 78.5398C49.7926 78.5398 49.7085 78.6242 49.7082 78.7281C49.7082 78.8323 49.7926 78.9168 49.8965 78.9168Z" fill="black"/>
<path opacity="0.3" d="M49.4001 80.5203L76.8688 80.5217C76.973 80.5217 77.0571 80.4373 77.0574 80.3334C77.0574 80.2292 76.973 80.1451 76.8691 80.1447L49.4004 80.1433C49.2962 80.1433 49.2118 80.2278 49.2118 80.3316C49.2118 80.4358 49.2962 80.5199 49.4001 80.5203Z" fill="black"/>
<path opacity="0.3" d="M77.3055 81.9374C77.3055 81.8332 77.221 81.7487 77.1171 81.7487L48.945 81.7473C48.8408 81.7473 48.7567 81.8318 48.7567 81.9356C48.7567 82.0395 48.8412 82.1239 48.945 82.1239L77.1171 82.1254C77.2214 82.1254 77.3055 82.0409 77.3055 81.937V81.9374Z" fill="black"/>
<path opacity="0.3" d="M77.6443 83.1984L49.5184 83.197C49.4142 83.197 49.3301 83.2815 49.3298 83.3853C49.3298 83.4896 49.4142 83.574 49.5181 83.574L77.6439 83.5754C77.7482 83.5754 77.8326 83.491 77.8326 83.3871C77.8326 83.2829 77.7482 83.1988 77.6443 83.1988V83.1984Z" fill="black"/>
<path opacity="0.3" d="M33.3301 50.9594L71.4643 50.9573C71.4714 50.9573 71.477 50.9516 71.477 50.9446V50.593C71.477 50.586 71.4714 50.5803 71.4643 50.5803L33.3301 50.5824C33.323 50.5824 33.3174 50.5881 33.3174 50.5952V50.9467C33.3174 50.9538 33.323 50.9594 33.3301 50.9594Z" fill="black"/>
<path opacity="0.3" d="M34.2889 52.5632L72.8475 52.5611C72.8546 52.5611 72.8602 52.5554 72.8602 52.5483V52.1968C72.8602 52.1897 72.8546 52.1841 72.8475 52.1841L34.2889 52.1862C34.2819 52.1862 34.2762 52.1919 34.2762 52.1989V52.5505C34.2762 52.5575 34.2819 52.5632 34.2889 52.5632Z" fill="black"/>
<path opacity="0.3" d="M34.2013 54.1672L73.5495 54.1651C73.5566 54.1651 73.5622 54.1594 73.5622 54.1523V53.8008C73.5622 53.7937 73.5566 53.7881 73.5495 53.7881L34.2013 53.7902C34.1943 53.7902 34.1886 53.7959 34.1886 53.8029V54.1545C34.1886 54.1615 34.1943 54.1672 34.2013 54.1672Z" fill="black"/>
<path opacity="0.3" d="M33.8505 55.7707L74.1929 55.7686C74.1999 55.7686 74.2056 55.7629 74.2056 55.7559V55.4043C74.2056 55.3973 74.1999 55.3916 74.1929 55.3916L33.8505 55.3937C33.8434 55.3937 33.8378 55.3994 33.8378 55.4064V55.758C33.8378 55.765 33.8434 55.7707 33.8505 55.7707Z" fill="black"/>
<path opacity="0.3" d="M33.105 57.2204L73.3817 57.2183C73.3887 57.2183 73.3944 57.2126 73.3944 57.2056V56.854C73.3944 56.847 73.3887 56.8413 73.3817 56.8413L33.105 56.8434C33.0979 56.8434 33.0923 56.8491 33.0923 56.8561V57.2077C33.0923 57.2148 33.0979 57.2204 33.105 57.2204Z" fill="black"/>
<path opacity="0.3" d="M32.6086 65.5116L72.3483 65.5091C72.4006 65.5091 72.4426 65.4667 72.4426 65.4145V65.3862C72.4426 65.3339 72.4002 65.2915 72.3483 65.2915L32.6086 65.294C32.5563 65.294 32.5143 65.3364 32.5143 65.3887V65.4169C32.5143 65.4692 32.5567 65.5116 32.6086 65.5116Z" fill="black"/>
<path opacity="0.3" d="M33.5173 66.3132V66.3415C33.5173 66.3938 33.5597 66.4362 33.6116 66.4362L73.795 66.4337C73.8473 66.4337 73.8894 66.3913 73.8894 66.339V66.3107C73.8894 66.2585 73.847 66.2161 73.795 66.2161L33.6116 66.2185C33.5593 66.2185 33.5173 66.2609 33.5173 66.3132Z" fill="black"/>
<path opacity="0.3" d="M33.4258 67.2375V67.2658C33.4258 67.3181 33.4682 67.3605 33.5201 67.3605L74.5296 67.358C74.5819 67.358 74.6239 67.3156 74.6239 67.2633V67.2351C74.6239 67.1828 74.5815 67.1404 74.5296 67.1404L33.5201 67.1429C33.4679 67.1429 33.4258 67.1853 33.4258 67.2375Z" fill="black"/>
<path opacity="0.3" d="M75.2973 68.1594C75.2973 68.1071 75.2549 68.0647 75.203 68.0647L33.153 68.0675C33.1008 68.0675 33.0587 68.1099 33.0587 68.1622V68.1905C33.0587 68.2428 33.1011 68.2852 33.153 68.2852L75.203 68.2823C75.2553 68.2823 75.2973 68.2399 75.2973 68.1876V68.1594Z" fill="black"/>
<path opacity="0.3" d="M74.3543 68.9001L32.373 68.9026C32.3207 68.9026 32.2786 68.945 32.2786 68.9973V69.0256C32.2786 69.0779 32.321 69.1203 32.373 69.1203L74.3543 69.1178C74.4066 69.1178 74.4487 69.0754 74.4487 69.0231V68.9948C74.4487 68.9425 74.4063 68.9001 74.3543 68.9001Z" fill="black"/>
<path d="M40.5654 87.2422H32.9146L32.8231 87.1313C29.3352 82.8962 29.6529 78.9961 30.5333 76.4703C31.4833 73.7453 33.2322 72.0452 33.306 71.9742L33.3943 71.8894H41.1338L40.589 72.4141C40.5717 72.4307 38.86 74.0993 37.9619 76.6933C36.7666 80.1451 37.5043 83.5269 40.1541 86.7441L40.5647 87.2426L40.5654 87.2422ZM33.2032 86.6324H39.2896C36.2222 82.591 36.5486 78.8965 37.3945 76.47C38.0477 74.5957 39.079 73.2065 39.6832 72.4985H33.6448C33.2887 72.8698 31.8854 74.4286 31.1014 76.6926C29.92 80.1048 30.6269 83.4481 33.2029 86.6324H33.2032Z" fill="#1B2F4C"/>
<path d="M103.721 86.9375H6.60469C6.35031 86.9375 6.14398 87.1438 6.14398 87.3982C6.14398 87.6526 6.35031 87.8589 6.60469 87.8589H103.721C103.975 87.8589 104.181 87.6526 104.181 87.3982C104.181 87.1438 103.975 86.9375 103.721 86.9375Z" fill="#1B2F4C"/>
</g>
<defs>
<clipPath id="clip0_18_6027">
<rect width="108.547" height="90.1417" fill="white" transform="translate(0.911194 0.260986)"/>
</clipPath>
</defs>
</svg>
