<svg width="304" height="226" viewBox="0 0 304 226" fill="none" xmlns="http://www.w3.org/2000/svg">
<path d="M128.288 221.395C189.047 233.558 242.302 219.776 271.626 195.349C283.691 185.279 295.914 169.818 300.396 151.908C316.667 86.745 268.683 32.8181 231.442 53.1764C170.643 86.3106 161.58 62.7731 111.997 12.4597C74.4791 -25.5321 -44.3538 27.6643 17.5507 139.507C28.9619 160.374 44.7777 178.507 63.9002 192.647C83.0226 206.788 104.994 216.597 128.288 221.395Z" fill="#F3F3F3"/>
<path d="M164.677 198.374H143.227C129.149 198.374 117.728 183.118 117.728 164.282V127.348C117.728 108.526 129.093 93.2558 143.227 93.2558C143.227 93.2558 162.063 85.3719 158.639 89.8465C152.119 98.3697 131.422 107.433 131.55 127.732V164.665C131.607 183.345 150.812 198.119 164.677 198.374Z" fill="#4054D5"/>
<path d="M177.987 84.8888C185.43 90.2442 188.825 103.597 188.825 114.876V164.296C188.825 175.66 186.268 188.615 178.881 193.971C175.856 196.172 145.528 194.709 142.076 194.908C129.916 194.027 120.399 180.618 120.399 164.296V127.362C120.399 111.055 130.342 99.9037 142.076 96.7502C151.167 94.3211 176.822 79.9738 177.987 84.8888ZM138.752 92.0767C126.138 96.949 117.785 109.123 117.785 127.377V164.31C117.785 182.564 128.524 197.465 142.005 198.403C145.968 198.19 176.751 199.44 180.046 197.053C188.015 191.3 191.41 177.336 191.41 164.381V114.876C191.41 101.907 186.069 84.6047 178.086 78.8516C174.762 76.4651 153.696 86.2951 138.752 92.0767Z" fill="#6A85FA"/>
<path d="M245.106 90.5283C245.106 90.5283 227.179 67.9988 206.227 66.9334C185.274 65.868 155.287 82.2182 153.667 98.8383C152.048 115.458 149.917 157.293 149.107 166.128C148.298 174.964 145.087 202.337 164.932 209.298C184.777 216.258 186.382 218.957 198.172 218.688C209.962 218.418 251.797 210.647 254.752 207.963C257.706 205.278 245.106 90.5283 245.106 90.5283Z" fill="#506AED"/>
<path d="M179.109 214.597C159.847 195.661 174.066 127.49 183.37 106.04C192.675 84.5905 235.362 82.9569 245.035 90.4857C252.55 96.3382 258.914 208.63 258.914 208.63C258.914 208.63 192.732 228.035 179.109 214.597Z" fill="#9FB8FC"/>
<path d="M186.723 213.062V163.145C186.72 157.028 188.903 151.112 192.877 146.463C196.852 141.813 202.357 138.737 208.4 137.789L239.026 133.726C262.877 130.189 272.65 147.505 272.65 160.048L269.951 200.136C269.951 202.977 264.795 207.593 268.914 205.818C276.429 202.636 237.776 220.591 194.877 220.563C193.847 220.614 192.817 220.46 191.847 220.11C190.877 219.759 189.987 219.219 189.228 218.521C188.469 217.823 187.857 216.981 187.427 216.043C186.997 215.106 186.757 214.093 186.723 213.062Z" fill="#6A85FA"/>
<path d="M177.646 199.255V172.478C177.646 165.162 176.68 161.213 171.182 158.784L153.98 155.83C149.278 154.707 145.03 160.262 145.03 167.52L144.917 191.215C144.879 191.931 144.997 192.647 145.262 193.314C145.527 193.981 145.932 194.583 146.451 195.079C149.193 197.28 160.486 201.911 174.549 203.602C176.211 203.829 177.646 201.812 177.646 199.255Z" fill="#6A85FA"/>
<path d="M173.285 198.971V175.248C173.285 167.932 169.79 161.696 165.06 160.56L153.98 157.903C149.278 156.781 145.031 162.321 145.031 169.594V191.413C144.994 192.132 145.112 192.85 145.377 193.519C145.641 194.188 146.047 194.792 146.565 195.292C149.306 197.493 156.125 201.613 170.188 203.332C171.85 203.516 173.285 201.513 173.285 198.971Z" fill="#9FB8FC"/>
<path d="M198.215 212.537V171.626C198.212 165.509 200.395 159.593 204.369 154.943C208.344 150.294 213.849 147.218 219.892 146.27L249.084 141.681C251.994 141.226 254.969 141.406 257.803 142.21C260.637 143.014 263.263 144.422 265.501 146.337C267.739 148.252 269.536 150.63 270.767 153.306C271.999 155.982 272.636 158.893 272.636 161.838V199.496C272.638 200.874 272.264 202.225 271.553 203.405C270.841 204.584 269.821 205.546 268.602 206.187C261.385 209.98 243.402 217.097 206.34 220.066C205.303 220.144 204.262 220.007 203.28 219.664C202.299 219.321 201.398 218.78 200.636 218.073C199.873 217.367 199.264 216.51 198.848 215.557C198.431 214.605 198.216 213.576 198.215 212.537Z" fill="#9FB8FC"/>
<path d="M195.487 109.904L193.769 104.975L195.317 104.435L196.979 109.393L195.487 109.904ZM198.84 108.782L197.348 103.796L198.911 103.313L200.417 108.327L198.84 108.782ZM202.235 107.773L200.814 102.745L202.405 102.304L203.755 107.362L202.235 107.773ZM205.658 106.864L204.394 101.793L205.999 101.41L207.178 106.495L205.658 106.864ZM209.096 106.069L208.002 100.955L209.622 100.628L210.63 105.756L209.096 106.069ZM212.562 105.387L211.639 100.245L213.272 99.9748L214.11 105.131L212.562 105.387ZM241.853 105.032C241.853 105.032 241.37 104.918 240.433 104.748L241.342 99.6055C242.45 99.8043 243.046 99.9464 243.103 99.9606L241.825 105.032L242.464 102.503L241.853 105.032ZM216.042 104.833L215.304 99.6623L216.937 99.435L217.605 104.62L216.042 104.833ZM238.586 104.464C238.117 104.393 237.606 104.336 237.052 104.279L237.62 99.0799C238.217 99.0799 238.771 99.2077 239.282 99.2788L238.586 104.464ZM219.537 104.393L218.997 99.1935L220.631 99.0373L221.099 104.236L219.537 104.393ZM235.162 104.094L233.6 103.995L233.898 98.7674L235.56 98.881L235.162 104.094ZM223.088 104.094L222.719 98.8668L224.367 98.7674L224.651 103.995L223.088 104.094ZM226.597 103.91L226.441 98.6821H228.088L228.159 103.91H226.597ZM231.668 103.91H230.105V98.6821H231.767L231.668 103.91Z" fill="white"/>
<path d="M211.454 164.878L211.184 159.665L212.775 159.565L213.073 164.793L211.454 164.878ZM215.105 164.665L214.75 159.452L216.341 159.338L216.724 164.551L215.105 164.665ZM218.755 164.395L218.315 159.182L219.906 159.04L220.375 164.253L218.755 164.395ZM222.406 164.054L221.881 158.855L223.472 158.699L224.011 163.898L222.406 164.054ZM226.043 163.671L225.446 158.486L227.023 158.287L227.648 163.486L226.043 163.671ZM229.665 163.23L228.997 158.045L230.588 157.847L231.284 163.017L229.665 163.23ZM233.302 162.733L232.563 157.562L234.126 157.335L234.907 162.506L233.302 162.733ZM236.91 162.193L236.1 157.037L237.677 156.781L238.515 161.938L236.91 162.193ZM240.518 161.597L239.637 156.454L241.214 156.17L242.123 161.327L240.518 161.597ZM244.126 160.958L243.174 155.815L244.737 155.517L245.717 160.659L244.126 160.958ZM247.72 160.261L246.697 155.133L248.245 154.821L249.311 159.935L247.72 160.261ZM251.3 159.523L250.206 154.409L251.754 154.068L252.891 159.182L251.3 159.523ZM254.865 158.727L253.7 153.628L255.249 153.272L256.456 158.358L254.865 158.727ZM258.445 157.875L257.181 152.804L258.715 152.406L260.022 157.477L258.445 157.875ZM261.996 156.952L260.576 151.909L262.081 151.483L263.502 156.497L261.996 156.952Z" fill="white"/>
<path d="M231.341 77.431C231.341 77.431 179.99 81.9624 171.438 104.563C162.886 127.163 159.15 139.522 159.15 139.522C159.15 139.522 154.022 108.469 159.15 94.4488C161.21 88.8378 183.171 66.8765 216.468 69.0925C223.244 71.4364 231.341 77.431 231.341 77.431Z" fill="#4054D5"/>
<path d="M158.682 139.891C158.497 139.65 158.497 139.65 158.81 138.471L159.974 138.783C159.832 139.352 159.747 139.65 159.747 139.692L159.165 139.55L158.682 139.891ZM160.514 136.823L159.349 136.496C159.477 136.028 159.634 135.516 159.804 134.934L160.955 135.289C160.798 135.843 160.642 136.354 160.514 136.823ZM161.537 133.357L160.386 133.002C160.528 132.519 160.699 132.007 160.855 131.468L162.006 131.823C161.835 132.363 161.679 132.874 161.537 133.357ZM162.617 129.919L161.48 129.55C161.636 129.053 161.807 128.541 161.977 128.016L163.128 128.385C162.958 128.915 162.787 129.427 162.617 129.919ZM163.767 126.496L162.631 126.098C162.801 125.601 162.972 125.09 163.156 124.578L164.293 124.976C164.108 125.487 163.938 125.999 163.767 126.524V126.496ZM164.961 123.087L163.824 122.675C164.009 122.177 164.179 121.666 164.378 121.155L165.5 121.567C165.316 122.078 165.131 122.589 164.961 123.087ZM166.196 119.692L165.074 119.265C165.259 118.768 165.443 118.271 165.642 117.76L166.765 118.186C166.58 118.697 166.381 119.194 166.196 119.692ZM167.489 116.311L166.367 115.87L166.949 114.379L168.071 114.819L167.489 116.311ZM168.824 112.958L167.702 112.504C167.901 112.007 168.1 111.509 168.313 111.012L169.421 111.467C169.222 111.964 169.009 112.461 168.824 112.958ZM170.245 109.606L169.137 109.151C169.336 108.654 169.549 108.157 169.762 107.731L170.87 108.2C170.6 108.626 170.358 109.123 170.188 109.606H170.245ZM171.665 106.296L170.557 105.813C170.77 105.316 170.984 104.833 171.211 104.393L172.305 104.876L171.665 106.296ZM173.086 102.986L171.978 102.489C172.205 102.006 172.418 101.509 172.645 101.069L173.739 101.566L173.086 102.986ZM174.506 99.7049L173.413 99.1935L173.555 98.9094C173.739 98.5116 173.952 98.0997 174.18 97.7019L175.217 98.3269C175.008 98.681 174.818 99.0462 174.648 99.4208L174.506 99.7049ZM176.325 96.7502L175.373 95.9973C175.714 95.5854 176.083 95.1592 176.467 94.7473L177.347 95.5854C177.035 95.9689 176.694 96.3666 176.381 96.6934L176.325 96.7502ZM178.754 94.2358L177.958 93.3267C178.356 92.9858 178.796 92.6307 179.237 92.2897L179.975 93.2415C179.606 93.5682 179.194 93.8523 178.882 94.2358H178.754ZM181.595 92.0909L180.913 91.0965C181.353 90.7982 181.822 90.4999 182.333 90.2158L182.973 91.2386C182.504 91.5227 182.064 91.8068 181.637 92.0909H181.595ZM184.649 90.2442L184.066 89.193L185.487 88.4401L186.041 89.5055L184.649 90.2442ZM187.845 88.639L187.334 87.5452L188.754 86.8776L189.223 87.9856L187.845 88.639ZM191.141 87.2185L190.686 86.0963L192.206 85.4997L192.632 86.6361L191.141 87.2185ZM194.507 85.94L194.11 84.8036L195.63 84.278L196.027 85.4286L194.507 85.94ZM197.931 84.8036L197.561 83.653L199.11 83.17L199.451 84.3206L197.931 84.8036ZM201.383 83.7666L201.056 82.6018L202.604 82.1756L202.931 83.3405C202.462 83.4683 201.937 83.6104 201.425 83.7666H201.383ZM204.863 82.8291L204.565 81.6501L206.127 81.2523L206.425 82.4313L204.863 82.8291ZM208.372 81.9626L208.102 80.7835L209.678 80.4284L209.934 81.6074L208.372 81.9626ZM211.909 81.1813L211.653 80.0022L213.23 79.6755L213.471 80.8546L211.909 81.1813ZM215.446 80.4568L215.218 79.2778L216.809 78.9795L217.023 80.1585L215.446 80.4568ZM218.997 79.8034L218.798 78.6243L220.389 78.3402L220.588 79.5335L218.997 79.8034ZM222.577 79.2068L222.378 78.0277L223.983 77.772L224.168 78.9653L222.577 79.2068ZM226.156 78.6812L225.986 77.4879L227.591 77.2607L227.747 78.4681L226.156 78.6812ZM229.75 78.2124L229.608 77.005L231.228 76.8345L231.356 78.0277L229.75 78.2124Z" fill="white"/>
<path d="M158.412 138.727C158.327 138.201 158.241 137.661 158.17 137.136L159.364 136.951C159.435 137.477 159.52 138.002 159.605 138.542L158.412 138.727ZM157.872 135.147L157.659 133.542L158.852 133.385L159.065 134.976L157.872 135.147ZM157.403 131.539C157.332 130.999 157.275 130.473 157.219 129.934L158.412 129.806C158.412 130.331 158.54 130.857 158.597 131.397L157.403 131.539ZM157.006 127.945C157.006 127.405 156.892 126.865 156.849 126.34L158.057 126.226C158.057 126.752 158.156 127.291 158.199 127.831L157.006 127.945ZM156.679 124.323C156.679 123.783 156.594 123.243 156.565 122.717L157.773 122.632C157.773 123.158 157.844 123.697 157.886 124.237L156.679 124.323ZM156.437 120.7C156.437 120.16 156.437 119.621 156.366 119.081H157.574C157.574 119.606 157.574 120.132 157.645 120.686L156.437 120.7ZM156.295 117.064C156.295 116.524 156.295 115.984 156.295 115.458H157.503C157.503 115.984 157.503 116.524 157.503 117.064H156.295ZM157.46 113.441H156.253C156.253 112.887 156.253 112.362 156.253 111.836H157.46C157.46 112.319 157.46 112.873 157.46 113.427V113.441ZM157.531 109.833H156.324C156.324 109.279 156.324 108.739 156.395 108.214L157.602 108.285C157.574 108.739 157.574 109.279 157.574 109.819L157.531 109.833ZM157.73 106.254L156.523 106.154C156.523 105.6 156.608 105.06 156.665 104.549L157.858 104.662C157.815 105.216 157.773 105.685 157.73 106.239V106.254ZM158.071 102.674L156.878 102.532C156.953 101.963 157.024 101.424 157.091 100.912L158.284 101.097C158.208 101.589 158.137 102.11 158.071 102.66V102.674ZM158.611 99.1367L157.432 98.9094C157.531 98.3696 157.631 97.8298 157.744 97.3184L158.923 97.5741C158.824 98.1139 158.71 98.5827 158.611 99.1225V99.1367ZM159.406 95.6564L158.241 95.3297C158.454 94.6194 158.582 94.2643 158.597 94.2501L158.781 93.7813V93.7103L159.037 93.8524H159.193L159.847 94.2075L159.648 94.6336C159.648 94.6336 159.577 95.074 159.406 95.6422V95.6564ZM160.969 92.6591L159.989 91.9489C160.301 91.5227 160.628 91.0823 160.997 90.642L161.921 91.4091C161.58 91.821 161.253 92.2329 160.969 92.6449V92.6591ZM163.227 89.9317L162.347 89.1078L163.469 87.9288L164.321 88.7953C163.938 89.1504 163.568 89.5908 163.256 89.9175L163.227 89.9317ZM165.77 87.4174L164.96 86.5367L166.168 85.4571L166.963 86.3804C166.537 86.7497 166.097 87.0623 165.77 87.4032V87.4174ZM168.498 85.1162L167.745 84.1644L169.037 83.1701L169.762 84.136C169.321 84.4485 168.938 84.7752 168.498 85.1019V85.1162ZM171.339 82.9712L170.643 81.9768L171.978 81.0677L172.645 82.0621L171.339 82.9712ZM174.322 80.9682L173.668 79.9454L175.089 79.0931L175.714 80.1301L174.322 80.9682ZM177.39 79.1073L176.779 78.0562L178.2 77.2607L178.796 78.3119C178.328 78.5533 177.873 78.8232 177.461 79.0931L177.39 79.1073ZM180.529 77.3459L179.961 76.2805L181.382 75.5277L181.936 76.6072L180.529 77.3459ZM183.74 75.6981L183.2 74.6185L183.356 74.5475L184.649 73.9225L185.174 75.0021L183.882 75.6271L183.74 75.6981ZM186.979 74.1781L186.496 73.0701L187.987 72.4309L188.456 73.5531L186.979 74.1781ZM190.303 72.7576L189.862 71.6354L191.382 71.0672L191.794 72.2036L190.303 72.7576ZM193.683 71.5644L193.3 70.4138L194.848 69.9308L195.203 71.0814C194.735 71.2519 194.223 71.4223 193.712 71.5928L193.683 71.5644ZM197.121 70.5416L196.809 69.3768C197.348 69.2347 197.874 69.0927 198.385 68.979L198.655 70.1439L197.121 70.5416ZM200.601 69.7319L200.374 68.5529L201.965 68.2546L202.164 69.4478C201.695 69.5615 201.17 69.7035 200.63 69.7035L200.601 69.7319ZM216.227 69.6325C215.761 69.4871 215.286 69.3685 214.807 69.2774L215.034 68.0841C215.591 68.1874 216.141 68.325 216.682 68.4961L216.227 69.6325ZM204.124 69.1637L203.968 67.9563L205.587 67.7858L205.701 68.9933L204.124 69.1637ZM212.804 68.9933C212.292 68.9933 211.767 68.8938 211.241 68.8654V67.6722C211.795 67.6722 212.349 67.7432 212.875 67.8L212.804 68.9933ZM207.675 68.8512V67.658H209.309V68.8654L207.675 68.8512Z" fill="white"/>
<path d="M156.935 160.446C155.692 165.835 153.617 170.996 150.784 175.745C150.676 175.934 150.648 176.157 150.705 176.366C150.763 176.575 150.901 176.753 151.089 176.86C151.277 176.968 151.501 176.996 151.71 176.939C151.919 176.881 152.097 176.743 152.204 176.555C155.104 171.705 157.232 166.433 158.511 160.929C158.71 159.864 157.162 159.423 156.935 160.446Z" fill="#4054D5"/>
<path d="M167.517 183.473C164.391 176.56 162.829 169.041 162.943 161.455C162.917 161.26 162.822 161.082 162.674 160.953C162.527 160.823 162.337 160.752 162.141 160.752C161.945 160.752 161.755 160.823 161.607 160.953C161.46 161.082 161.364 161.26 161.338 161.455C161.229 169.326 162.853 177.124 166.097 184.297C166.48 185.234 167.858 184.41 167.517 183.473Z" fill="#4054D5"/>
<path d="M165.784 156.17C164.833 155.261 162.943 155.247 161.651 155.133C159.647 154.955 157.628 155.027 155.642 155.347C155.536 155.361 155.435 155.4 155.346 155.461C155.258 155.522 155.186 155.602 155.134 155.696C155.083 155.79 155.055 155.895 155.052 156.002C155.049 156.109 155.071 156.216 155.116 156.312C154.703 158.054 154.479 159.835 154.449 161.625C154.449 162.705 154.378 163.585 155.543 163.926C157.547 164.302 159.583 164.492 161.622 164.495C162.745 164.608 164.336 165.105 165.074 163.955C165.7 162.493 166.052 160.928 166.111 159.338C166.267 158.273 166.651 156.994 165.784 156.17Z" fill="#000038"/>
<path d="M151.139 174.822C150.923 174.799 150.705 174.836 150.509 174.93C150.313 175.024 150.147 175.171 150.031 175.354C149.914 175.537 149.851 175.75 149.848 175.967C149.846 176.184 149.904 176.398 150.017 176.583C150.389 176.933 150.804 177.234 151.253 177.478C151.509 177.652 151.822 177.719 152.127 177.666C152.432 177.613 152.704 177.444 152.886 177.194C153.582 176.072 151.892 175.277 151.139 174.822Z" fill="#000038"/>
<path d="M168.299 183.132C167.603 182.294 166.566 183.288 165.926 183.871C165.833 183.931 165.751 184.008 165.685 184.098C165.547 184.25 165.471 184.447 165.471 184.652C165.471 184.857 165.547 185.054 165.685 185.206C165.822 185.338 166.001 185.417 166.19 185.43C166.38 185.443 166.568 185.389 166.722 185.277C167.317 185.089 167.852 184.746 168.27 184.283C168.421 184.131 168.508 183.927 168.513 183.713C168.518 183.499 168.442 183.291 168.299 183.132Z" fill="#000038"/>
<path d="M160.458 137.008H157.872C156.813 137.008 155.954 137.866 155.954 138.926V142.718C155.954 143.777 156.813 144.636 157.872 144.636H160.458C161.517 144.636 162.375 143.777 162.375 142.718V138.926C162.375 137.866 161.517 137.008 160.458 137.008Z" fill="#4054D5"/>
<path d="M159.704 138.357H158.611C157.991 138.357 157.488 138.86 157.488 139.479V142.164C157.488 142.784 157.991 143.286 158.611 143.286H159.704C160.324 143.286 160.827 142.784 160.827 142.164V139.479C160.827 138.86 160.324 138.357 159.704 138.357Z" fill="#6A85FA"/>
<path d="M159.151 152.278C159.754 152.278 160.35 152.141 160.893 151.877C161.436 151.613 161.912 151.229 162.286 150.755C162.659 150.28 162.92 149.727 163.049 149.137C163.177 148.547 163.17 147.936 163.029 147.349L161.608 141.354H156.764L155.344 147.349C155.206 147.93 155.2 148.534 155.325 149.118C155.451 149.701 155.706 150.25 156.071 150.722C156.436 151.195 156.902 151.579 157.435 151.849C157.967 152.118 158.554 152.265 159.151 152.278Z" fill="#9FB8FC"/>
<path d="M159.151 150.517C159.559 150.515 159.962 150.421 160.329 150.242C160.696 150.063 161.018 149.803 161.27 149.482C161.523 149.161 161.7 148.787 161.788 148.389C161.876 147.99 161.873 147.576 161.779 147.179H156.537C156.44 147.575 156.435 147.988 156.521 148.387C156.607 148.786 156.782 149.161 157.034 149.482C157.286 149.803 157.607 150.063 157.973 150.243C158.34 150.422 158.743 150.516 159.151 150.517Z" fill="#506AED"/>
<path d="M194.669 104.494L190.984 105.326C189.453 105.672 188.492 107.192 188.838 108.723L190.064 114.155C190.409 115.685 191.93 116.646 193.461 116.3L197.147 115.468C198.677 115.123 199.638 113.602 199.292 112.072L198.066 106.64C197.721 105.109 196.2 104.149 194.669 104.494Z" fill="#4054D5"/>
<path d="M194.1 106.594L192.506 106.953C191.618 107.152 191.06 108.034 191.26 108.922L192.129 112.789C192.329 113.677 193.211 114.234 194.098 114.035L195.692 113.677C196.58 113.477 197.138 112.595 196.939 111.707L196.069 107.841C195.87 106.953 194.988 106.395 194.1 106.594Z" fill="#6A85FA"/>
<path d="M197.803 126.794C198.67 126.598 199.482 126.208 200.177 125.653C200.872 125.098 201.431 124.392 201.814 123.59C202.197 122.787 202.393 121.908 202.387 121.019C202.381 120.13 202.174 119.253 201.78 118.456L197.746 110.316L190.771 111.893L190.629 120.97C190.616 121.859 190.805 122.74 191.181 123.546C191.558 124.352 192.112 125.062 192.803 125.623C193.493 126.184 194.302 126.58 195.168 126.783C196.034 126.986 196.935 126.99 197.803 126.794Z" fill="white"/>
<path d="M197.235 124.266C197.827 124.134 198.381 123.869 198.855 123.491C199.328 123.112 199.709 122.63 199.969 122.082C200.228 121.534 200.358 120.933 200.349 120.327C200.341 119.721 200.194 119.124 199.92 118.583L192.377 120.288C192.362 120.894 192.485 121.494 192.737 122.045C192.99 122.595 193.365 123.081 193.833 123.465C194.302 123.848 194.852 124.12 195.441 124.259C196.031 124.398 196.644 124.4 197.235 124.266Z" fill="#506AED"/>
<path d="M214.467 159.205L210.693 159.024C209.126 158.948 207.794 160.158 207.719 161.725L207.452 167.287C207.377 168.854 208.586 170.186 210.153 170.261L213.928 170.442C215.495 170.518 216.826 169.308 216.902 167.741L217.169 162.179C217.244 160.612 216.035 159.28 214.467 159.205Z" fill="#4054D5"/>
<path d="M213.321 161.126L211.69 161.047C210.781 161.003 210.008 161.704 209.964 162.613L209.773 166.572C209.729 167.481 210.43 168.253 211.339 168.297L212.971 168.376C213.88 168.42 214.652 167.719 214.696 166.81L214.888 162.851C214.932 161.942 214.23 161.17 213.321 161.126Z" fill="#6A85FA"/>
<path d="M211.554 181.569C212.443 181.611 213.33 181.451 214.148 181.1C214.966 180.749 215.694 180.217 216.277 179.544C216.859 178.872 217.282 178.075 217.512 177.215C217.742 176.355 217.774 175.454 217.605 174.58L215.815 165.66L208.713 165.319L206.156 174.041C205.902 174.897 205.847 175.801 205.996 176.682C206.144 177.564 206.492 178.399 207.013 179.125C207.534 179.852 208.213 180.45 209 180.873C209.787 181.297 210.661 181.535 211.554 181.569Z" fill="white"/>
<path d="M211.653 178.97C212.255 179.001 212.857 178.894 213.412 178.657C213.967 178.421 214.46 178.061 214.855 177.604C215.249 177.148 215.534 176.608 215.688 176.025C215.843 175.442 215.862 174.831 215.744 174.239L208.017 173.87C207.846 174.449 207.809 175.059 207.909 175.654C208.008 176.25 208.242 176.814 208.593 177.306C208.943 177.797 209.401 178.202 209.931 178.491C210.461 178.779 211.05 178.943 211.653 178.97Z" fill="#506AED"/>
<path d="M72.4847 216.429H52.1854C52.1854 213.758 53.2465 211.196 55.1353 209.307C57.0241 207.419 59.5858 206.357 62.2569 206.357H62.399C63.7221 206.356 65.0326 206.615 66.2554 207.12C67.4781 207.626 68.5892 208.368 69.5248 209.303C70.4604 210.239 71.2021 211.35 71.7076 212.573C72.2131 213.795 72.4723 215.106 72.4704 216.429H72.4847Z" fill="#93B1FB"/>
<path d="M124.902 216.429H104.602C104.601 215.106 104.86 213.795 105.365 212.573C105.871 211.35 106.613 210.239 107.548 209.303C108.484 208.368 109.595 207.626 110.818 207.12C112.04 206.615 113.351 206.356 114.674 206.357H114.83C116.153 206.356 117.464 206.615 118.687 207.12C119.909 207.626 121.02 208.368 121.956 209.303C122.892 210.239 123.633 211.35 124.139 212.573C124.644 213.795 124.904 215.106 124.902 216.429Z" fill="#93B1FB"/>
<path d="M104.148 144.394H49.515V149.636H104.148V144.394Z" fill="#93B1FB"/>
<path d="M108.111 167.222H53.4779V172.464H108.111V167.222Z" fill="#93B1FB"/>
<path d="M112.927 190.036H58.2937V195.277H112.927V190.036Z" fill="#93B1FB"/>
<path d="M64.9417 211.386H58.6488L43.776 124.422H50.0689L64.9417 211.386Z" fill="#93B1FB"/>
<path d="M117.33 211.386H111.023L96.1504 124.422H102.443L117.33 211.386Z" fill="#93B1FB"/>
<path d="M74.1892 216.429H94.4885C94.4903 215.106 94.2311 213.795 93.7256 212.573C93.2201 211.35 92.4784 210.239 91.5428 209.303C90.6072 208.368 89.4962 207.626 88.2734 207.12C87.0506 206.615 85.7401 206.356 84.417 206.357H84.2607C82.9376 206.356 81.6271 206.615 80.4043 207.12C79.1816 207.626 78.0705 208.368 77.135 209.303C76.1994 210.239 75.4575 211.35 74.9521 212.573C74.4466 213.795 74.1873 215.106 74.1892 216.429Z" fill="#3D51C6"/>
<path d="M21.7722 216.429H42.0715C42.0733 215.106 41.8141 213.795 41.3086 212.573C40.8031 211.35 40.0614 210.239 39.1258 209.303C38.1902 208.368 37.0792 207.626 35.8564 207.12C34.6336 206.615 33.3231 206.356 32 206.357H31.8437C30.5206 206.356 29.2101 206.615 27.9873 207.12C26.7645 207.626 25.6535 208.368 24.7179 209.303C23.7823 210.239 23.0405 211.35 22.5351 212.573C22.0296 213.795 21.7704 215.106 21.7722 216.429Z" fill="#3D51C6"/>
<path d="M42.5399 149.622H97.1731V144.38H42.5399V149.622Z" fill="#3D51C6"/>
<path d="M38.5767 172.464H93.2098V167.222H38.5767V172.464Z" fill="#3D51C6"/>
<path d="M33.747 195.277H88.3802V190.036H33.747V195.277Z" fill="#3D51C6"/>
<path d="M81.7465 211.386H88.0394L102.912 124.422H96.6193L81.7465 211.386Z" fill="#3D51C6"/>
<path d="M29.3717 211.386H35.6646L50.5374 124.422H44.2445L29.3717 211.386Z" fill="#3D51C6"/>
<path d="M43.9324 129.465H107.529C108.864 129.461 110.143 128.928 111.086 127.983C112.028 127.037 112.558 125.757 112.558 124.422C112.558 123.087 112.028 121.806 111.086 120.861C110.143 119.916 108.864 119.383 107.529 119.379H43.9324C43.2701 119.379 42.6144 119.509 42.0025 119.763C41.3907 120.016 40.8348 120.388 40.3665 120.856C39.8983 121.324 39.5268 121.88 39.2734 122.492C39.0199 123.104 38.8895 123.759 38.8895 124.422C38.8895 125.084 39.0199 125.74 39.2734 126.352C39.5268 126.963 39.8983 127.519 40.3665 127.988C40.8348 128.456 41.3907 128.827 42.0025 129.081C42.6144 129.334 43.2701 129.465 43.9324 129.465Z" fill="#506AED"/>
<path d="M180.217 6.4051L141.209 23.5792C141.002 23.6686 140.815 23.7982 140.659 23.9605C140.502 24.1228 140.379 24.3145 140.298 24.5246C140.216 24.7347 140.176 24.9589 140.182 25.1843C140.187 25.4097 140.237 25.6319 140.329 25.8378L167.517 87.531C167.704 87.9475 168.047 88.2735 168.473 88.4384C168.898 88.6033 169.372 88.5938 169.79 88.4117L208.712 71.2376C208.919 71.1482 209.107 71.0185 209.263 70.8562C209.42 70.694 209.542 70.5022 209.624 70.2922C209.706 70.0821 209.746 69.8579 209.74 69.6325C209.735 69.407 209.685 69.1849 209.593 68.979L182.447 7.28581C182.261 6.87984 181.924 6.56161 181.509 6.39751C181.093 6.23341 180.63 6.23612 180.217 6.4051Z" fill="#9FB8FC"/>
<path d="M179.904 8.06714C175.525 11.9118 170.07 14.317 164.278 14.9567L191.666 77.2465C196.045 73.4019 201.5 70.9967 207.292 70.3569L179.904 8.06714Z" fill="white"/>
<path d="M161.48 13.2519L120.285 31.3636C120.064 31.4591 119.864 31.5977 119.697 31.7713C119.529 31.9449 119.398 32.15 119.311 32.3748C119.224 32.5995 119.182 32.8393 119.188 33.0803C119.195 33.3213 119.249 33.5586 119.348 33.7784L148.198 99.3496C148.294 99.5692 148.432 99.7677 148.605 99.9337C148.777 100.1 148.981 100.23 149.204 100.317C149.427 100.404 149.665 100.447 149.905 100.441C150.144 100.436 150.38 100.384 150.599 100.287L191.794 82.1755C192.239 81.9795 192.587 81.615 192.763 81.1622C192.939 80.7094 192.927 80.2052 192.732 79.7606L163.881 14.1895C163.685 13.7486 163.323 13.4029 162.873 13.2274C162.424 13.0518 161.923 13.0607 161.48 13.2519Z" fill="#BED3FC"/>
<path d="M169.609 14.9724L168.543 15.4419L193.558 72.2397L194.624 71.7702L169.609 14.9724Z" fill="#D1E1FD"/>
<path d="M173.423 14.5145L172.357 14.9829L196.381 69.6869L197.448 69.2185L173.423 14.5145Z" fill="#D1E1FD"/>
<path d="M176.71 13.0558L175.644 13.5242L199.668 68.2281L200.735 67.7598L176.71 13.0558Z" fill="#D1E1FD"/>
<path d="M179.498 10.6128L178.432 11.0823L203.447 67.8801L204.513 67.4106L179.498 10.6128Z" fill="#D1E1FD"/>
<path d="M132.701 45.7677L130.357 40.4266L131.436 39.9578L133.397 44.3898L136.096 43.1965L136.493 44.1057L132.701 45.7677Z" fill="#516AD6"/>
<path d="M136.692 40.8385C136.466 40.3726 136.34 39.8645 136.323 39.347C136.335 39.0221 136.397 38.701 136.507 38.3952C136.611 38.0994 136.776 37.8285 136.99 37.5997C137.295 37.2916 137.657 37.0456 138.056 36.8753C138.402 36.709 138.777 36.6144 139.161 36.5973C139.544 36.5802 139.927 36.6409 140.286 36.7758C141.003 37.1556 141.571 37.766 141.898 38.5082C142.225 39.2505 142.293 40.0815 142.09 40.8669C141.954 41.2242 141.745 41.549 141.475 41.8205C141.206 42.0921 140.883 42.3043 140.527 42.4437C140.181 42.6143 139.803 42.7123 139.417 42.7319C139.031 42.7514 138.645 42.692 138.283 42.5573C137.547 42.216 136.976 41.5984 136.692 40.8385ZM137.8 40.3129C137.985 40.8249 138.348 41.2534 138.823 41.5204C139.026 41.6117 139.246 41.6589 139.469 41.6589C139.692 41.6589 139.912 41.6117 140.116 41.5204C140.316 41.433 140.495 41.3043 140.642 41.1428C140.789 40.9812 140.9 40.7903 140.968 40.5828C141.097 40.0459 141.026 39.4804 140.769 38.9918C140.592 38.4795 140.233 38.05 139.76 37.7844C139.56 37.6934 139.342 37.6463 139.121 37.6463C138.901 37.6463 138.683 37.6934 138.482 37.7844C138.272 37.8603 138.082 37.9848 137.929 38.1477C137.776 38.3107 137.664 38.5074 137.601 38.7219C137.459 39.258 137.531 39.8282 137.8 40.3129Z" fill="#516AD6"/>
<path d="M144.903 40.3981L142.545 35.0143L144.832 34.0057C145.245 33.7964 145.693 33.6617 146.153 33.608C146.457 33.5831 146.76 33.6688 147.005 33.8495C147.274 34.034 147.485 34.2898 147.616 34.5882C147.786 34.9534 147.812 35.3697 147.687 35.753C147.527 36.162 147.231 36.5032 146.849 36.7189C147.117 36.7452 147.379 36.8073 147.63 36.9036C147.983 37.0782 148.321 37.2825 148.639 37.5144L149.747 38.2673L148.454 38.8497L147.147 38.0116C146.678 37.7275 146.38 37.5428 146.224 37.4718C146.09 37.4137 145.943 37.3893 145.798 37.4008C145.601 37.4283 145.409 37.4857 145.23 37.5713L145.002 37.6707L145.997 39.9293L144.903 40.3981ZM144.633 36.8184L145.428 36.4633C145.764 36.3357 146.084 36.1688 146.38 35.9661C146.487 35.8733 146.562 35.7489 146.593 35.6109C146.633 35.462 146.633 35.3053 146.593 35.1564C146.527 34.9932 146.407 34.8577 146.252 34.7728C146.092 34.7154 145.916 34.7154 145.755 34.7728L144.945 35.0996L144.093 35.4831L144.633 36.8184Z" fill="#516AD6"/>
<path d="M151.309 37.5854L148.937 32.2017L152.943 30.4402L153.341 31.3493L150.5 32.6278L151.025 33.821L153.738 32.642L154.136 33.537L151.423 34.7302L152.076 36.1507L155.074 34.8296L155.486 35.7387L151.309 37.5854Z" fill="#516AD6"/>
<path d="M157.276 34.9574L154.903 29.5736L156.537 28.8634L159.122 32.1022L158.483 27.9969L160.117 27.2866L162.475 32.6704L161.466 33.1107L159.605 28.8492L160.401 33.5653L159.35 34.0199L156.423 30.2555L158.284 34.5171L157.276 34.9574Z" fill="#516AD6"/>
<path d="M138.283 54.0777L135.911 48.6939L137.005 48.2109L139.377 53.6089L138.283 54.0777Z" fill="#516AD6"/>
<path d="M141.408 52.6573L139.107 47.3303L140.854 46.5632C141.278 46.3599 141.72 46.1982 142.175 46.0802C142.523 46.0141 142.882 46.0799 143.184 46.2649C143.538 46.4727 143.813 46.7926 143.965 47.1741C144.096 47.4639 144.159 47.7796 144.15 48.0974C144.135 48.354 144.057 48.603 143.923 48.8218C143.813 49.0216 143.657 49.1921 143.468 49.319C143.126 49.5525 142.759 49.7478 142.374 49.9014L141.664 50.214L142.559 52.2453L141.408 52.6573ZM140.527 47.7138L141.195 49.2338L141.792 48.9781C142.092 48.8714 142.371 48.7127 142.616 48.5093C142.731 48.3981 142.81 48.2545 142.843 48.0974C142.864 47.9219 142.832 47.7441 142.751 47.587C142.67 47.43 142.544 47.3009 142.388 47.2167C142.213 47.1592 142.024 47.1592 141.849 47.2167C141.573 47.2922 141.306 47.397 141.053 47.5292L140.527 47.7138Z" fill="#516AD6"/>
<path d="M146.21 48.4952L147.218 47.927C147.386 48.21 147.647 48.4259 147.957 48.5378C148.257 48.6228 148.578 48.5871 148.852 48.4383C149.146 48.3418 149.394 48.1393 149.548 47.8701C149.597 47.7707 149.622 47.6613 149.622 47.5505C149.622 47.4397 149.597 47.3303 149.548 47.2309C149.494 47.1154 149.405 47.0206 149.292 46.961C149.129 46.9207 148.958 46.9207 148.795 46.961L147.815 47.1031C147.347 47.2045 146.862 47.2045 146.394 47.1031C146.035 46.9888 145.729 46.7498 145.531 46.4293C145.333 46.1088 145.256 45.728 145.315 45.3558C145.377 45.0396 145.53 44.7485 145.755 44.5177C146.033 44.2338 146.366 44.0112 146.735 43.8643C147.262 43.5847 147.872 43.504 148.454 43.637C148.688 43.71 148.903 43.833 149.084 43.9973C149.266 44.1616 149.409 44.3634 149.505 44.5887L148.44 45.1143C148.32 44.8947 148.122 44.7276 147.886 44.6455C147.623 44.5954 147.351 44.6407 147.119 44.7734C146.852 44.8693 146.623 45.0486 146.465 45.2848C146.428 45.3469 146.408 45.4181 146.408 45.4907C146.408 45.5634 146.428 45.6346 146.465 45.6968C146.493 45.759 146.534 45.8142 146.585 45.8585C146.637 45.9027 146.698 45.9348 146.764 45.9524C147.153 45.9995 147.548 45.9754 147.929 45.8814C148.366 45.78 148.815 45.7371 149.264 45.7536C149.565 45.7655 149.856 45.8642 150.102 46.0377C150.368 46.2343 150.576 46.4992 150.703 46.8043C150.831 47.1094 150.873 47.4433 150.826 47.7707C150.771 48.1199 150.607 48.4429 150.358 48.694C150.05 49.0024 149.683 49.2442 149.278 49.4043C148.733 49.6915 148.102 49.7723 147.502 49.6316C146.939 49.4369 146.475 49.0288 146.21 48.4952Z" fill="#516AD6"/>
<path d="M150.84 42.1454L151.92 41.6624L153.213 44.5887C153.335 44.8913 153.478 45.1855 153.639 45.4694C153.776 45.6615 153.978 45.7977 154.207 45.853C154.482 45.9037 154.766 45.8638 155.017 45.7393C155.271 45.6485 155.487 45.473 155.628 45.2421C155.725 45.0595 155.755 44.8482 155.713 44.6455C155.614 44.3261 155.495 44.013 155.358 43.708L154.037 40.7391L155.13 40.2561L156.38 43.0971C156.597 43.5529 156.768 44.0287 156.892 44.5177C156.956 44.7885 156.956 45.0708 156.892 45.3416C156.803 45.6095 156.652 45.8528 156.451 46.0518C156.175 46.3239 155.847 46.5366 155.486 46.6769C155.096 46.8732 154.671 46.9891 154.235 47.0178C153.947 47.0118 153.662 46.9491 153.397 46.8331C153.179 46.7163 152.985 46.5569 152.829 46.3644C152.551 45.9497 152.318 45.5069 152.133 45.0433L150.84 42.1454Z" fill="#516AD6"/>
<path d="M159.577 44.7307L157.204 39.3469L158.838 38.6224L161.423 41.8754L160.784 37.7701L162.418 37.0457L164.776 42.4436L163.767 42.884L161.906 38.6224L162.702 43.3385L161.651 43.7931L158.724 40.0287L160.585 44.2903L159.577 44.7307Z" fill="#516AD6"/>
<path d="M151.039 87.4457L148.681 82.0903L149.775 81.6216L151.721 86.0536L154.434 84.8604L154.832 85.7695L151.039 87.4457Z" fill="#516AD6"/>
<path d="M155.031 82.488C154.814 82.044 154.688 81.5609 154.662 81.0675C154.66 80.7365 154.722 80.4084 154.846 80.1015C154.95 79.8057 155.115 79.5348 155.329 79.306C155.634 78.9979 155.996 78.7519 156.395 78.5816C156.74 78.4153 157.116 78.3207 157.5 78.3036C157.883 78.2865 158.266 78.3472 158.625 78.4821C159.315 78.8674 159.863 79.4657 160.185 80.1876C160.508 80.9096 160.588 81.7166 160.415 82.488C160.277 82.8449 160.065 83.1686 159.793 83.4379C159.522 83.7072 159.196 83.916 158.838 84.0506C158.493 84.2192 158.118 84.3162 157.734 84.3357C157.351 84.3552 156.968 84.2969 156.608 84.1642C156.247 84.0031 155.922 83.772 155.651 83.4843C155.38 83.1965 155.17 82.8579 155.031 82.488ZM156.125 81.9624C156.31 82.4787 156.679 82.9086 157.162 83.1699C157.362 83.2609 157.58 83.308 157.801 83.308C158.021 83.308 158.239 83.2609 158.44 83.1699C158.644 83.0858 158.827 82.9584 158.977 82.7965C159.126 82.6346 159.239 82.4421 159.307 82.2323C159.399 81.6914 159.333 81.1352 159.116 80.631C158.899 80.1268 158.541 79.6962 158.085 79.3913C157.885 79.2965 157.667 79.2473 157.446 79.2473C157.225 79.2473 157.006 79.2965 156.806 79.3913C156.596 79.4672 156.407 79.5917 156.254 79.7546C156.101 79.9175 155.988 80.1143 155.926 80.3288C155.782 80.8866 155.863 81.4787 156.153 81.9766L156.125 81.9624Z" fill="#516AD6"/>
<path d="M163.256 82.0621L160.884 76.6783L163.171 75.6697C163.588 75.4707 164.034 75.3366 164.492 75.272C164.795 75.2508 165.097 75.3362 165.344 75.5134C165.616 75.6937 165.829 75.9508 165.955 76.2521C166.136 76.6139 166.166 77.0326 166.04 77.4169C165.879 77.8295 165.577 78.1716 165.188 78.3829C165.46 78.4094 165.727 78.4715 165.983 78.5675C166.328 78.7486 166.66 78.9527 166.978 79.1784L168.1 79.9455L166.793 80.5137L165.5 79.6898C165.205 79.4896 164.896 79.3092 164.577 79.15C164.445 79.0839 164.298 79.0545 164.151 79.0647C163.949 79.0982 163.753 79.1604 163.568 79.2494L163.355 79.3346L164.35 81.5933L163.256 82.0621ZM162.972 78.4823L163.781 78.1272C164.117 77.9996 164.437 77.8327 164.733 77.63C164.834 77.5346 164.903 77.4107 164.932 77.2749C164.956 77.1196 164.932 76.9607 164.861 76.8203C164.805 76.6555 164.688 76.5182 164.534 76.4368C164.368 76.3862 164.19 76.3862 164.023 76.4368L163.256 76.8061L162.404 77.1896L162.972 78.4823Z" fill="#516AD6"/>
<path d="M169.648 79.2492L167.276 73.8654L171.268 72.104L171.665 73.0131L168.824 74.2916L169.35 75.499L172.049 74.3058L172.447 75.2149L169.748 76.394L170.387 77.8145L173.398 76.4792L173.796 77.3883L169.648 79.2492Z" fill="#516AD6"/>
<path d="M175.614 76.6215L173.199 71.2377L174.819 70.5274L177.418 73.7662L176.765 69.6752L178.399 68.9507L180.771 74.3345L179.762 74.789L177.887 70.5274L178.697 75.2436L177.646 75.6982L174.705 71.9338L176.58 76.1953L175.614 76.6215Z" fill="#516AD6"/>
<path d="M33.321 192.365L30.3664 201.229L29.7271 207.494C27.9906 204.593 26.4023 201.606 24.9684 198.545L27.3407 190.32L33.321 192.365Z" fill="#F4D8D5"/>
<path d="M68.7344 173.572L66.6605 180.589L71.334 184.78C67.0958 184.82 62.9729 183.4 59.6573 180.76L62.0154 172.507L68.7344 173.572Z" fill="#F4D8D5"/>
<path d="M69.601 108.214C69.601 108.214 93.6788 128.641 93.0112 133.783C92.3435 138.926 72.3426 172.507 72.3426 172.507L60.7086 172.052C60.7086 172.052 64.061 151.909 73.7205 136.283C74.1325 135.616 64.2457 130.786 55.2538 125.047C52.7395 124.266 48.279 124.394 47.2279 122.916C44.5715 119.166 47.2279 113.797 47.2279 113.797C47.2279 113.797 61.5467 109.72 69.601 108.214Z" fill="white"/>
<path d="M52.8245 104.321C52.8245 104.321 46.7731 146.056 45.3526 153.926C44.3866 159.04 34.7555 195.76 34.7555 195.76L24.6698 192.55C24.6698 192.55 26.6159 161.654 27.7665 151.795C27.9086 150.488 29.4854 102.617 33.4486 98.9944C37.0993 95.5852 44.6849 103.299 52.8245 104.321Z" fill="white"/>
<path d="M38.4349 194.099C38.0174 195.551 37.5049 196.975 36.9007 198.36C36.645 198.488 22.6955 194.198 22.241 194.099C21.7864 193.999 23.6615 189.368 23.6615 189.368C23.6615 189.368 38.0087 192.223 38.4349 194.099Z" fill="#93B1FB"/>
<path d="M124.49 70.8684L131.18 69.2632L132.999 74.7322L126.194 76.7067L124.49 70.8684Z" fill="#F4D8D5"/>
<path d="M55.6941 48.4668L56.1061 56.1944C56.1061 56.1944 55.6515 60.9105 52.8389 60.9105C48.8898 60.9105 44.0174 57.1319 42.8952 55.4983L42.2844 42.5432L55.6941 48.4668Z" fill="#F4D8D5"/>
<path d="M92.3292 86.3803C92.3292 86.3803 93.7497 90.4288 127.047 77.6157C127.047 77.6157 127.118 72.3172 125.626 69.8455C125.626 69.8455 98.4232 72.6865 95.2981 75.5275C92.1729 78.3686 92.3292 86.3803 92.3292 86.3803Z" fill="#9D0089"/>
<path d="M53.1086 50.8817H53.5206C54.8796 50.8323 56.2154 50.515 57.4514 49.948C58.6875 49.381 59.7994 48.5755 60.7233 47.5777C61.6472 46.5799 62.3649 45.4094 62.8353 44.1334C63.3057 42.8575 63.5194 41.5013 63.4643 40.1425L63.2654 35.5684L62.8534 25.4685C62.8387 25.1244 62.6886 24.8 62.4358 24.5659C62.1831 24.3318 61.8482 24.207 61.5039 24.2185L43.0372 24.9998C42.8674 25.0053 42.7003 25.0442 42.5456 25.1143C42.3909 25.1844 42.2515 25.2843 42.1354 25.4083C42.0193 25.5323 41.9288 25.678 41.869 25.8371C41.8093 25.9961 41.7814 26.1653 41.7871 26.3351L42.4121 41.009C42.5266 43.7348 43.7166 46.3042 45.7214 48.1545C47.7261 50.0049 50.3824 50.9855 53.1086 50.8817Z" fill="#F4D8D5"/>
<path d="M63.1234 28.0112L63.0382 31.4772C63.0382 31.4772 58.9329 30.8096 57.4981 31.9176C56.0634 33.0256 54.998 33.9063 54.998 33.9063L55.7935 29.3039L61.1205 27.2583L63.1234 28.0112Z" fill="#DBB5BF"/>
<path d="M35.9916 26.4629C35.5686 26.3842 35.1419 26.3273 34.7131 26.2924C33.804 26.2924 33.7898 24.8719 34.7131 24.8719C35.3436 24.9016 35.9707 24.9823 36.5881 25.1134C36.4162 24.4551 36.335 23.7765 36.3467 23.0962C36.3467 22.9079 36.4215 22.7272 36.5547 22.594C36.6879 22.4608 36.8686 22.386 37.0569 22.386C37.2453 22.386 37.426 22.4608 37.5592 22.594C37.6924 22.7272 37.7672 22.9079 37.7672 23.0962C37.7385 23.4603 37.7385 23.826 37.7672 24.19C39.1877 20.795 43.1794 13.5219 51.9724 15.8942C59.4301 17.8971 65.2827 16.6897 66.76 15.0703C66.76 15.0703 70.3255 22.315 65.4389 27.1447C63.6065 28.963 60.1404 29.9858 58.0096 30.4971C55.8788 31.0085 53.5208 35.5684 54.16 38.935C54.5527 41.0421 54.6483 43.1938 54.4441 45.3274C54.0522 46.4707 53.3578 47.4865 52.4349 48.2668C51.512 49.0472 50.3949 49.563 49.2024 49.7594C46.2558 50.1617 43.2588 49.5773 40.6793 48.0974C36.3893 45.0575 30.4373 30.1136 35.9916 26.4629Z" fill="#000038"/>
<path d="M56.0067 35.128C56.0067 35.128 54.4726 32.6847 52.5549 34.3183C49.8133 36.6479 53.0663 41.7618 56.8165 39.5742C58.1375 38.7787 57.3278 35.824 56.0067 35.128Z" fill="#F4D8D5"/>
<path d="M55.5235 35.6109C55.4683 35.4131 55.3708 35.2296 55.2377 35.0731C55.1047 34.9166 54.9393 34.7908 54.753 34.7043C54.5667 34.6179 54.3638 34.573 54.1584 34.5725C53.9529 34.5721 53.7499 34.6162 53.5632 34.7018C53.0987 35.0249 52.7705 35.5087 52.642 36.0596C52.5134 36.6106 52.5936 37.1896 52.8671 37.6849C53.3785 38.665 54.2877 39.5174 54.7849 39.1054C55.282 38.6935 53.9325 37.9832 53.8189 37.3156C53.7052 36.6479 54.0888 35.895 54.586 36.0797C55.0831 36.2644 55.6372 36.0939 55.5235 35.6109Z" fill="#DBB5BF"/>
<path d="M133.169 65.1151C132.322 65.5368 131.568 66.1235 130.951 66.8406C130.334 67.5578 129.866 68.3911 129.576 69.2915C129.555 69.3898 129.555 69.4915 129.576 69.5898C129.535 69.727 129.53 69.8726 129.562 70.0121C129.595 70.1515 129.663 70.2802 129.76 70.3853C129.861 71.4991 130.243 72.5692 130.868 73.4962C131.326 74.327 131.984 75.03 132.783 75.5411C133.582 76.0522 134.496 76.3553 135.442 76.4225H135.655C137.701 76.7066 142.63 76.1526 142.843 72.9848C143.633 72.365 144.222 71.5245 144.534 70.5699C144.617 70.2543 144.617 69.9226 144.535 69.6066C144.453 69.2907 144.291 69.0012 144.065 68.7659C144.67 67.8795 144.941 66.8077 144.832 65.7402C144.704 64.9305 144.136 64.4475 143.497 64.6038C143.221 64.6902 142.978 64.8587 142.801 65.0867C142.809 64.6421 142.669 64.2073 142.403 63.8509C142.347 63.776 142.268 63.7215 142.178 63.6958C142.088 63.6702 141.993 63.6747 141.906 63.7088C141.607 63.8083 141.536 63.9645 141.295 64.1776C140.315 65.0583 139.633 66.3652 138.553 67.2033C137.072 68.352 135.302 69.0697 133.439 69.2773C133.61 69.0784 133.766 68.8653 133.936 68.6523C134.76 67.5869 135.982 67.8141 136.778 66.9476C136.969 66.7447 137.1 66.4919 137.156 66.2182C137.211 65.9445 137.188 65.6607 137.09 65.3993C136.479 63.9077 134.05 64.7174 133.169 65.1151Z" fill="#F4D8D5"/>
<path d="M55.8078 50.5122C54.8642 50.626 53.9104 50.626 52.9668 50.5122L55.8078 52.8277V50.5122Z" fill="#DBB5BF"/>
<path d="M42.043 54.2908C39.9406 53.6942 31.6022 55.5977 29.443 62.5157C26.6019 71.5502 23.8603 95.5711 26.1616 98.9378C28.4628 102.304 37.3411 101.651 37.7104 98.3696C38.0797 95.0882 50.1258 56.5779 42.043 54.2908Z" fill="#9D0089"/>
<path d="M30.3803 113.91L29.7411 118.498C29.7411 118.498 55.7934 123.342 69.1889 116.197L30.3803 113.91Z" fill="#93B1FB"/>
<path d="M57.2568 52.4441L56.4471 54.5606L42.3129 55.2709L41.2902 52.7424C41.2902 52.7424 50.0832 52.2878 57.2568 52.4441Z" fill="#D3E1FD"/>
<path d="M76.2916 114.336C76.2916 114.336 56.0634 121.169 34.8834 117.319C32.9231 116.964 30.9628 116.524 29.0024 115.97L34.1163 59.7597C34.2343 58.4905 34.7885 57.3014 35.6847 56.3948C36.5808 55.4883 37.7635 54.9204 39.0313 54.7879C47.7817 53.8834 56.6087 54.0264 65.3251 55.214C65.3251 55.214 74.5159 107.276 76.2916 114.336Z" fill="url(#paint0_linear_368_716)"/>
<path d="M58.3221 59.6319C59.2659 64.6377 60.5811 69.5664 62.257 74.3769C64.3593 79.5902 67.6692 88.1133 67.5555 91.6646C67.4419 95.2159 68.8482 102.901 70.6806 105.983C72.5131 109.066 73.3512 115.203 73.3512 115.203L76.2917 114.336L65.7373 57.3164L58.3221 59.6319Z" fill="#9D0089"/>
<path d="M59.5578 55.5976C58.2225 57.3307 56.9015 65.7827 62.5267 70.3568C69.8708 76.3372 91.136 87.8292 95.1134 86.9343C99.0909 86.0394 101.79 77.5731 98.8778 75.9963C95.9658 74.4195 64.6149 48.9496 59.5578 55.5976Z" fill="#9D0089"/>
<path d="M64.7712 40.114C65.1121 40.5402 62.4131 40.6112 62.4131 40.6112V35.0996L64.7712 40.114Z" fill="#F4D8D5"/>
<path d="M20.1384 202.792C21.6722 201.282 23.2894 199.859 24.9824 198.53C25.6643 198.26 26.4029 201.741 30.3662 201.272L33.2072 209.312C33.2072 209.312 39.8126 210.917 40.6223 214.014C40.6223 214.014 31.8719 214.667 29.8406 213.46C27.8092 212.253 22.6954 202.522 20.1384 202.792Z" fill="#000038"/>
<path d="M40.608 213.971V216.244C40.608 216.244 26.9995 216.898 25.6642 216.244C24.3289 215.591 19.0872 203.971 20.1383 202.792C23.2777 199.283 27.1699 212.238 29.8263 213.417C32.4827 214.596 40.608 213.971 40.608 213.971Z" fill="#393958"/>
<path d="M58.251 189.965C58.251 189.965 58.1374 182.862 59.5863 180.76C59.9982 180.149 63.72 183.274 66.5895 180.589L72.7261 184.339C72.7261 184.339 84.2749 188.814 84.2749 191.442C80.299 191.46 76.3251 191.261 72.371 190.845C70.0555 190.547 60.6091 190.448 58.251 189.965Z" fill="#000038"/>
<path d="M58.251 189.965V193.203C58.251 193.203 84.005 194.425 84.2749 194.226C84.5448 194.027 84.2749 191.499 84.2749 191.499C84.2749 191.499 61.4187 190.234 58.251 189.965Z" fill="#393958"/>
<path d="M48.2648 124.067L55.1685 125.047L73.6353 136.283C73.6353 136.283 61.8592 154.523 61.433 169.907L63.6206 170.617C63.6206 170.617 69.8283 145.048 75.4535 137.945C76.7604 136.283 80.7805 137.121 80.6668 136.525C80.5532 135.928 69.9277 129.663 68.081 128.825C66.2344 127.987 57.4981 122.021 48.2648 124.067Z" fill="#93B1FB"/>
<path d="M28.7753 131.425L27.7099 151.795C27.7099 151.795 25.082 174.964 25.3661 181.2C25.3661 181.2 28.6333 155.29 29.7413 154.21C30.8493 153.131 32.7528 152.051 31.1618 150.389C29.5708 148.727 28.7753 131.425 28.7753 131.425Z" fill="#93B1FB"/>
<path d="M74.5158 172.293C74.1392 173.744 73.6646 175.168 73.0952 176.555C72.8396 176.683 58.7622 172.947 58.2792 172.876C57.7963 172.805 59.5435 168.089 59.5435 168.089C59.5435 168.089 74.0186 170.447 74.5158 172.293Z" fill="#93B1FB"/>
<mask id="mask0_368_716" style="mask-type:luminance" maskUnits="userSpaceOnUse" x="225" y="161" width="59" height="57">
<path d="M284 161.37H225.446V217.693H284V161.37Z" fill="white"/>
</mask>
<g mask="url(#mask0_368_716)">
<path d="M282.722 198.005C282.011 191.755 274.752 193.928 271.911 197.55C267.412 203.536 263.631 210.03 260.647 216.898C266.329 167.109 274.198 172.62 273.644 171.697C272.309 169.523 269.042 167.989 266.712 169.268C262.721 171.47 262.451 178.316 261.641 182.138C259.667 191.172 257.934 200.249 256.854 209.397C255.59 203.062 253.445 196.982 248.729 193.346C242.805 188.786 234.41 189.666 228.955 194.354C228.671 194.354 227.122 196.144 227.918 196.584C228.287 197.138 254.055 188.274 254.155 229.157C254.143 229.286 254.157 229.415 254.196 229.539C254.235 229.662 254.297 229.777 254.381 229.876C254.464 229.975 254.566 230.056 254.681 230.116C254.795 230.175 254.921 230.212 255.05 230.222C254.51 231.643 256.726 232.197 257.266 230.833C257.706 229.725 258.161 228.617 258.615 227.523C258.878 227.494 259.123 227.372 259.305 227.179C259.487 226.987 259.595 226.736 259.61 226.472C259.61 225.989 259.695 225.506 259.752 225.052C276.301 191.385 282.849 198.261 282.722 198.005Z" fill="#6A85FA"/>
<path d="M279.611 215.236C272.181 209.269 265.661 212.494 260.59 218.077C265.349 202.039 261.044 181.967 243.089 178.302C241.91 178.061 253.857 184.567 255.377 202.138C255.768 207.988 255.381 213.863 254.226 219.611C253.061 213.304 250.916 206.954 245.93 203.687C239.779 199.667 231.284 204.937 229.04 210.988C228.99 211.13 228.966 211.279 228.969 211.429C228.728 212.48 242.649 199.127 248.856 213.531C250.371 216.852 251.611 220.292 252.564 223.816C252.564 224.199 252.663 224.597 252.706 224.98C251.716 223.565 250.485 222.334 249.069 221.344C245.22 218.773 240.83 219.199 236.469 219.852C235.503 220.009 249.254 220.96 252.564 231.984C252.814 232.184 253.107 232.324 253.42 232.392C253.733 232.459 254.058 232.453 254.368 232.373C254.679 232.293 254.966 232.141 255.208 231.931C255.449 231.72 255.638 231.456 255.76 231.16C258.218 231.913 260.405 229.057 261.257 226.898C267.678 210.718 279.966 215.52 279.611 215.236Z" fill="#506AED"/>
</g>
<defs>
<linearGradient id="paint0_linear_368_716" x1="76.2916" y1="86.3376" x2="29.0024" y2="86.3376" gradientUnits="userSpaceOnUse">
<stop stop-color="#AE2BB6"/>
<stop offset="1" stop-color="#DB006F"/>
</linearGradient>
</defs>
</svg>
