<svg width="304" height="226" viewBox="0 0 304 226" fill="none" xmlns="http://www.w3.org/2000/svg">
<path d="M128.288 221.395C189.047 233.558 242.302 219.776 271.626 195.349C283.691 185.279 295.914 169.818 300.396 151.908C316.667 86.745 268.683 32.8181 231.442 53.1764C170.643 86.3106 161.58 62.7731 111.997 12.4597C74.4791 -25.5321 -44.3538 27.6643 17.5507 139.507C28.9619 160.374 44.7777 178.507 63.9002 192.647C83.0226 206.788 104.994 216.597 128.288 221.395Z" fill="#F3F3F3"/>
<path d="M74.7518 200.076C74.7497 203.283 75.8032 206.401 77.7497 208.949H157.167C156.454 208.01 155.852 206.99 155.374 205.911C155.186 205.47 155.026 205.015 154.878 204.573C154.526 203.47 154.305 202.329 154.223 201.174C154.203 200.813 154.203 200.451 154.223 200.09C154.223 199.849 154.223 199.594 154.223 199.354C154.239 198.904 154.288 198.457 154.37 198.015C154.425 197.51 154.515 197.009 154.638 196.516C154.638 196.423 154.638 196.302 154.731 196.195C154.865 195.74 154.999 195.285 155.173 194.857C155.667 193.56 156.347 192.343 157.194 191.243H77.7497C75.8115 193.781 74.7585 196.883 74.7518 200.076Z" fill="#E7EDFD"/>
<path d="M99.2034 201.201V202.539H154.383C154.305 202.096 154.251 201.649 154.223 201.201H99.2034Z" fill="#97ADF5"/>
<path d="M99.2034 198.029V199.367H154.196C154.212 198.918 154.261 198.471 154.343 198.029H99.2034Z" fill="#97ADF5"/>
<path d="M99.2034 194.857V196.195H154.704C154.838 195.74 154.972 195.285 155.146 194.857H99.2034Z" fill="#97ADF5"/>
<path d="M99.2034 204.6V205.938H155.414C155.226 205.497 155.066 205.042 154.919 204.6H99.2034Z" fill="#97ADF5"/>
<path opacity="0.19" d="M99.8457 191.243L99.2034 198.698H154.249C154.482 195.983 155.495 193.394 157.167 191.243H99.8457Z" fill="#252866"/>
<path d="M157.89 193.144H101.264V191.243H157.89C158.142 191.243 158.383 191.343 158.562 191.521C158.74 191.7 158.84 191.941 158.84 192.193C158.84 192.445 158.74 192.687 158.562 192.865C158.383 193.044 158.142 193.144 157.89 193.144Z" fill="url(#paint0_linear_368_834)"/>
<path d="M157.89 208.99H101.264V207.089H157.89C158.142 207.089 158.383 207.189 158.562 207.368C158.74 207.546 158.84 207.788 158.84 208.04C158.84 208.292 158.74 208.533 158.562 208.712C158.383 208.89 158.142 208.99 157.89 208.99Z" fill="url(#paint1_linear_368_834)"/>
<path d="M37.1174 208.99H103.861C101.93 206.434 100.886 203.319 100.886 200.116C100.886 196.914 101.93 193.799 103.861 191.243H37.1174C35.1872 193.799 34.1428 196.914 34.1428 200.116C34.1428 203.319 35.1872 206.434 37.1174 208.99Z" fill="url(#paint2_linear_368_834)"/>
<path d="M40.4098 207.089H100.167C98.4106 205.192 97.4351 202.702 97.4351 200.117C97.4351 197.531 98.4106 195.041 100.167 193.144H40.4098C38.6536 195.041 37.6781 197.531 37.6781 200.117C37.6781 202.702 38.6536 205.192 40.4098 207.089Z" fill="#9F008B"/>
<path d="M43.9967 202.552V198.256H44.8666V201.816H47.0481V202.552H43.9967Z" fill="white"/>
<path d="M48.1453 200.411C48.1325 200.031 48.201 199.652 48.3461 199.3C48.4385 199.079 48.5751 198.878 48.7476 198.711C48.9065 198.542 49.0975 198.405 49.3097 198.31C49.6087 198.197 49.9268 198.142 50.2465 198.149C50.5388 198.126 50.8326 198.167 51.1077 198.268C51.3827 198.37 51.6323 198.53 51.8392 198.738C52.0392 198.961 52.1932 199.221 52.2919 199.503C52.3907 199.786 52.4324 200.085 52.4146 200.384C52.4347 200.683 52.394 200.983 52.2951 201.266C52.1962 201.549 52.0411 201.809 51.8392 202.03C51.4209 202.408 50.8772 202.618 50.3134 202.618C49.7496 202.618 49.2059 202.408 48.7877 202.03C48.5751 201.819 48.4083 201.566 48.2978 201.288C48.1873 201.009 48.1354 200.711 48.1453 200.411ZM49.042 200.411C49.0163 200.812 49.1403 201.207 49.39 201.522C49.4957 201.644 49.6276 201.741 49.7758 201.806C49.924 201.871 50.0848 201.902 50.2465 201.897C50.4083 201.903 50.5695 201.873 50.7179 201.808C50.8662 201.743 50.9979 201.645 51.1031 201.522C51.3512 201.202 51.4705 200.801 51.4377 200.398C51.4684 200.001 51.3543 199.606 51.1165 199.287C51.0068 199.166 50.872 199.072 50.7217 199.009C50.5714 198.947 50.4091 198.918 50.2465 198.925C50.0841 198.92 49.9225 198.95 49.7724 199.012C49.6224 199.074 49.4874 199.168 49.3766 199.287C49.1422 199.603 49.0241 199.991 49.042 200.384V200.411Z" fill="white"/>
<path d="M53.8199 202.552V198.216H55.6535C55.9968 198.2 56.3406 198.241 56.6706 198.337C56.8774 198.416 57.0518 198.562 57.1658 198.752C57.296 198.955 57.3613 199.193 57.3532 199.434C57.3628 199.727 57.2626 200.014 57.0721 200.237C56.845 200.471 56.5405 200.614 56.2156 200.639C56.3898 200.734 56.5478 200.856 56.684 201C56.8696 201.221 57.0353 201.459 57.1792 201.709L57.7146 202.552H56.6706L56.0282 201.602C55.8898 201.383 55.7378 201.173 55.5732 200.973C55.5001 200.89 55.4084 200.826 55.3056 200.786C55.1589 200.767 55.0105 200.767 54.8639 200.786H54.6899V202.593L53.8199 202.552ZM54.6899 200.05H55.3323C55.5944 200.084 55.8598 200.084 56.1219 200.05C56.2225 200.019 56.3083 199.952 56.3628 199.862C56.4314 199.77 56.4647 199.656 56.4565 199.541C56.464 199.414 56.4207 199.289 56.336 199.193C56.2542 199.097 56.1398 199.035 56.0148 199.019H54.6765L54.6899 200.05Z" fill="white"/>
<path d="M58.9594 202.552V198.216H62.1713V198.952H59.8694V199.916H62.0375V200.639H59.8694V201.816H62.2918V202.552H58.9594Z" fill="white"/>
<path d="M63.764 202.552V198.216H65.1024L65.8786 201.174L66.6683 198.216H68.0066V202.552H67.1902V199.14L66.3337 202.552H65.4906L64.634 199.14V202.552H63.764Z" fill="white"/>
<path d="M71.687 202.552V198.216H72.5569V202.552H71.687Z" fill="white"/>
<path d="M74.1898 202.552V198.216H75.5282C75.8775 198.204 76.2271 198.227 76.572 198.283C76.8217 198.348 77.04 198.5 77.1877 198.711C77.3333 198.933 77.4196 199.189 77.4384 199.454C77.4571 199.718 77.4077 199.984 77.2948 200.224C77.2081 200.392 77.0845 200.538 76.9334 200.652C76.7956 200.747 76.6412 200.815 76.4783 200.853C76.1776 200.902 75.873 200.925 75.5683 200.92H75.0062V202.552H74.1898ZM75.0731 198.952V200.184H75.5416C75.7755 200.194 76.0097 200.171 76.2374 200.117C76.3451 200.072 76.438 199.998 76.5051 199.903C76.574 199.804 76.6114 199.688 76.6122 199.568C76.6148 199.497 76.603 199.426 76.5777 199.359C76.5525 199.292 76.5142 199.231 76.465 199.18C76.3769 199.073 76.2534 199.002 76.117 198.979C75.9075 198.967 75.6975 198.967 75.488 198.979L75.0731 198.952Z" fill="white"/>
<path d="M78.7133 201.147L79.5564 201.054C79.5837 201.295 79.6979 201.519 79.8776 201.683C80.0548 201.826 80.2792 201.897 80.5066 201.883C80.7305 201.904 80.9541 201.842 81.1357 201.709C81.2019 201.662 81.2559 201.6 81.2931 201.528C81.3304 201.456 81.3498 201.376 81.3498 201.294C81.3517 201.199 81.3236 201.105 81.2695 201.027C81.1769 200.942 81.0674 200.878 80.9483 200.839L80.2523 200.652C79.8938 200.587 79.555 200.44 79.2619 200.224C79.1121 200.095 78.9982 199.93 78.9314 199.745C78.8645 199.559 78.8471 199.359 78.8809 199.165C78.9146 198.971 78.9983 198.788 79.1238 198.636C79.2493 198.484 79.4122 198.367 79.5965 198.297C79.8638 198.188 80.1514 198.138 80.4397 198.149C80.8782 198.117 81.3141 198.24 81.6709 198.497C81.8063 198.619 81.9153 198.768 81.9912 198.933C82.0672 199.099 82.1085 199.279 82.1126 199.461H81.2293C81.2115 199.276 81.1257 199.104 80.9885 198.979C80.8291 198.866 80.6343 198.814 80.4397 198.832C80.229 198.823 80.0201 198.874 79.8374 198.979C79.7931 199.011 79.7576 199.053 79.7342 199.102C79.7108 199.151 79.7003 199.206 79.7036 199.26C79.7036 199.31 79.7157 199.36 79.7391 199.404C79.7624 199.448 79.7961 199.486 79.8374 199.514C80.0846 199.661 80.3569 199.761 80.6405 199.809C80.9642 199.873 81.2788 199.976 81.5772 200.117C81.7719 200.222 81.9375 200.374 82.0591 200.558C82.1766 200.762 82.2384 200.993 82.2384 201.227C82.2384 201.462 82.1766 201.693 82.0591 201.897C81.9172 202.109 81.7175 202.276 81.4836 202.378C81.1805 202.494 80.8576 202.548 80.5334 202.539C80.0807 202.567 79.6334 202.429 79.2753 202.151C78.9714 201.896 78.7715 201.539 78.7133 201.147Z" fill="white"/>
<path d="M83.6785 198.216H84.5619V200.572C84.5429 200.812 84.5429 201.054 84.5619 201.294C84.5949 201.462 84.6907 201.61 84.8295 201.709C84.9991 201.823 85.2009 201.879 85.405 201.87C85.604 201.89 85.8036 201.838 85.9671 201.723C86.0282 201.679 86.0798 201.623 86.1189 201.558C86.158 201.494 86.1837 201.422 86.1946 201.348C86.2142 201.103 86.2142 200.857 86.1946 200.612V198.216H87.0646V200.491C87.1014 200.861 87.1014 201.233 87.0646 201.602C87.028 201.802 86.9352 201.988 86.7969 202.137C86.6582 202.296 86.4839 202.42 86.2883 202.499C86.0211 202.588 85.7401 202.629 85.4585 202.619C85.1405 202.636 84.8222 202.591 84.5217 202.485C84.3247 202.403 84.1503 202.274 84.0131 202.111C83.899 201.969 83.8168 201.805 83.7722 201.629C83.6973 201.268 83.6658 200.9 83.6785 200.531V198.216Z" fill="white"/>
<path d="M88.8044 202.552V198.216H90.1428L90.9324 201.174L91.7086 198.216H93.047V202.552H92.2306V199.14L91.374 202.552H90.5309L89.6744 199.14V202.552H88.8044Z" fill="white"/>
<path d="M66.9626 156.888C66.9543 160.092 68.0086 163.207 69.9604 165.748H144.305C143.589 164.81 142.987 163.79 142.512 162.71C142.325 162.282 142.164 161.826 142.017 161.371C141.792 160.699 141.622 160.01 141.508 159.31C141.508 158.855 141.388 158.4 141.361 157.972C141.341 157.615 141.341 157.258 141.361 156.901C141.361 156.66 141.361 156.406 141.361 156.165C141.378 155.716 141.427 155.269 141.508 154.827C141.563 154.325 141.657 153.828 141.789 153.341C141.802 153.231 141.829 153.123 141.87 153.02C142.003 152.565 142.137 152.11 142.311 151.682C142.802 150.384 143.483 149.166 144.332 148.068H69.9604C68.0197 150.599 66.9662 153.699 66.9626 156.888Z" fill="#E7EDFD"/>
<path d="M91.4141 157.959V159.297H141.508C141.508 158.842 141.388 158.387 141.361 157.959H91.4141Z" fill="#97ADF5"/>
<path d="M91.4141 154.787V156.125H141.334C141.351 155.676 141.401 155.229 141.481 154.787H91.4141Z" fill="#97ADF5"/>
<path d="M91.4141 151.628V152.967H141.843C141.977 152.512 142.111 152.057 142.284 151.628H91.4141Z" fill="#97ADF5"/>
<path d="M91.4141 161.372V162.71H142.512C142.325 162.282 142.164 161.827 142.017 161.372H91.4141Z" fill="#97ADF5"/>
<path opacity="0.19" d="M91.9895 148.015L91.3605 155.469H141.334C141.564 152.754 142.578 150.165 144.252 148.015H91.9895Z" fill="#252866"/>
<path d="M145.015 149.915H93.4752V148.015H145.015C145.141 148.013 145.266 148.036 145.383 148.083C145.499 148.13 145.606 148.2 145.695 148.288C145.785 148.377 145.856 148.482 145.905 148.598C145.953 148.714 145.978 148.839 145.978 148.965C145.978 149.091 145.953 149.216 145.905 149.332C145.856 149.448 145.785 149.553 145.695 149.642C145.606 149.73 145.499 149.8 145.383 149.847C145.266 149.894 145.141 149.917 145.015 149.915Z" fill="#5E80FA"/>
<path d="M145.015 165.748H93.4752V163.848H145.015C145.141 163.846 145.266 163.869 145.383 163.916C145.499 163.963 145.606 164.033 145.695 164.121C145.785 164.209 145.856 164.315 145.905 164.431C145.953 164.547 145.978 164.672 145.978 164.798C145.978 164.924 145.953 165.048 145.905 165.164C145.856 165.281 145.785 165.386 145.695 165.474C145.606 165.563 145.499 165.633 145.383 165.68C145.266 165.726 145.141 165.75 145.015 165.748Z" fill="#5E80FA"/>
<path d="M41.9357 165.748H96.0047C94.0651 163.199 93.0148 160.084 93.0148 156.881C93.0148 153.678 94.0651 150.564 96.0047 148.015H41.9357C39.9897 150.561 38.9354 153.677 38.9354 156.881C38.9354 160.086 39.9897 163.202 41.9357 165.748Z" fill="#93B1FB"/>
<path d="M45.2948 163.847H92.3777C90.6225 161.952 89.6475 159.464 89.6475 156.881C89.6475 154.298 90.6225 151.81 92.3777 149.915H45.2948C43.5396 151.81 42.5646 154.298 42.5646 156.881C42.5646 159.464 43.5396 161.952 45.2948 163.847Z" fill="#5E80FA"/>
<path d="M59.3607 178.449C59.3039 182.917 60.401 187.324 62.546 191.243H142.579C141.794 189.847 141.148 188.377 140.652 186.854C140.451 186.238 140.277 185.582 140.116 184.926C139.877 183.948 139.699 182.956 139.581 181.955C139.501 181.3 139.434 180.617 139.407 180.001C139.38 179.386 139.407 178.957 139.407 178.449C139.407 177.94 139.407 177.74 139.407 177.392C139.42 176.737 139.473 176.085 139.568 175.438C139.568 174.701 139.728 173.992 139.862 173.269C139.862 173.122 139.862 172.962 139.956 172.814C140.09 172.159 140.25 171.476 140.438 170.86C140.949 169.044 141.677 167.296 142.606 165.654H62.546C60.401 169.574 59.3039 173.981 59.3607 178.449Z" fill="#E7EDFD"/>
<path d="M85.6993 180.001V181.955H139.635C139.554 181.299 139.487 180.617 139.461 180.001H85.6993Z" fill="#97ADF5"/>
<path d="M85.6993 175.438V177.391H139.434C139.446 176.737 139.5 176.085 139.594 175.438H85.6993Z" fill="#97ADF5"/>
<path d="M85.6993 170.86V172.814H139.983C140.116 172.159 140.277 171.476 140.464 170.86H85.6993Z" fill="#97ADF5"/>
<path d="M85.6993 184.926V186.853H140.705C140.505 186.238 140.331 185.582 140.17 184.926H85.6993Z" fill="#97ADF5"/>
<path opacity="0.19" d="M86.3819 165.654L85.6993 176.361H139.487C139.715 172.574 141.187 167.461 142.632 165.654H86.3819Z" fill="#252866"/>
<path d="M143.248 168.398H87.9075V165.721H143.248C143.564 165.721 143.867 165.847 144.09 166.07C144.314 166.294 144.439 166.596 144.439 166.912V167.287C144.419 167.589 144.284 167.872 144.063 168.078C143.842 168.284 143.55 168.399 143.248 168.398Z" fill="#506AED"/>
<path d="M143.248 191.257H87.9075V188.58H143.248C143.564 188.58 143.867 188.706 144.09 188.929C144.314 189.152 144.439 189.455 144.439 189.771V190.146C144.422 190.449 144.288 190.733 144.067 190.94C143.845 191.147 143.551 191.261 143.248 191.257Z" fill="#506AED"/>
<path d="M32.4197 191.243H90.651C88.5355 187.311 87.4281 182.915 87.4281 178.449C87.4281 173.983 88.5355 169.587 90.651 165.654H32.4331C30.3176 169.587 29.2102 173.983 29.2102 178.449C29.2102 182.915 30.3176 187.311 32.4331 191.243H32.4197Z" fill="#5E80FA"/>
<path d="M36.047 188.5H86.73C84.8148 185.502 83.7972 182.019 83.7972 178.462C83.7972 174.905 84.8148 171.422 86.73 168.425H36.047C34.1318 171.422 33.1141 174.905 33.1141 178.462C33.1141 182.019 34.1318 185.502 36.047 188.5Z" fill="#506AED"/>
<path d="M39.6069 181.955V175.786H40.865V180.911H43.9967V181.955H39.6069Z" fill="white"/>
<path d="M45.5491 178.877C45.5338 178.333 45.6295 177.791 45.8302 177.285C45.9729 176.966 46.1724 176.675 46.4191 176.428C46.6433 176.185 46.9172 175.993 47.2221 175.866C47.6479 175.698 48.1028 175.616 48.5604 175.625C48.968 175.605 49.3754 175.67 49.7559 175.818C50.1364 175.965 50.4815 176.192 50.7687 176.481C51.0571 176.802 51.2789 177.176 51.4213 177.583C51.5637 177.989 51.624 178.42 51.5985 178.85C51.6455 179.719 51.3473 180.57 50.7687 181.219C50.4814 181.504 50.1378 181.727 49.76 181.872C49.3821 182.017 48.9781 182.082 48.5738 182.062C48.1674 182.082 47.7614 182.017 47.3814 181.872C47.0013 181.727 46.6554 181.505 46.3655 181.219C46.0804 180.903 45.8613 180.533 45.7211 180.131C45.5809 179.728 45.5224 179.302 45.5491 178.877ZM46.8875 178.877C46.8457 179.453 47.0171 180.025 47.3693 180.483C47.5251 180.659 47.717 180.799 47.9318 180.893C48.1465 180.988 48.3793 181.035 48.614 181.032C48.8471 181.038 49.0786 180.992 49.2917 180.897C49.5047 180.802 49.6938 180.661 49.8453 180.483C50.1994 180.021 50.3709 179.444 50.327 178.864C50.3757 178.293 50.2086 177.725 49.8586 177.271C49.7051 177.094 49.5134 176.953 49.2978 176.861C49.0822 176.768 48.8484 176.725 48.614 176.736C48.3781 176.729 48.1434 176.773 47.9262 176.865C47.709 176.958 47.5145 177.096 47.356 177.271C47.0088 177.718 46.8289 178.272 46.8474 178.837L46.8875 178.877Z" fill="white"/>
<path d="M53.6863 181.955V175.732H56.363C56.8546 175.71 57.3466 175.764 57.8217 175.893C58.1205 176.011 58.3737 176.222 58.5445 176.495C58.7294 176.786 58.8226 177.127 58.8122 177.472C58.8273 177.896 58.6841 178.311 58.4106 178.636C58.0796 178.965 57.6442 179.169 57.1793 179.212C57.4256 179.354 57.6509 179.529 57.8485 179.734C58.1148 180.046 58.3522 180.382 58.5579 180.737L59.3207 181.955H57.8217L56.9116 180.617C56.7117 180.297 56.488 179.993 56.2425 179.707C56.1407 179.589 56.0122 179.497 55.8678 179.439C55.6621 179.389 55.4505 179.366 55.2387 179.372H54.9844V181.969L53.6863 181.955ZM54.9443 178.368H55.8544C56.2354 178.388 56.6174 178.361 56.9919 178.288C57.1363 178.244 57.2598 178.149 57.3399 178.021C57.4297 177.881 57.4763 177.718 57.4738 177.552C57.476 177.368 57.4145 177.188 57.2998 177.044C57.174 176.915 57.0095 176.83 56.8314 176.803H54.9309L54.9443 178.368Z" fill="white"/>
<path d="M61.0605 181.955V175.732H65.6912V176.789H62.3186V178.128H65.4503V179.171H62.3186V180.871H65.8116V181.915L61.0605 181.955Z" fill="white"/>
<path d="M67.8993 181.955V175.732H69.773L70.9106 179.974L72.0214 175.732H73.9084V181.955H72.7441V177.057L71.5128 181.955H70.2949L69.0636 177.057V181.955H67.8993Z" fill="white"/>
<path d="M69.1039 137.174C69.0522 140.94 69.9742 144.656 71.7805 147.961H139.22C138.556 146.784 138.013 145.541 137.6 144.254C137.42 143.723 137.268 143.182 137.145 142.635C136.947 141.809 136.795 140.974 136.69 140.132C136.623 139.583 136.57 139.021 136.543 138.486C136.516 137.95 136.543 137.602 136.543 137.147C136.543 136.692 136.543 136.545 136.543 136.251C136.543 135.702 136.543 135.14 136.663 134.605C136.784 134.069 136.811 133.387 136.918 132.784C136.938 132.658 136.965 132.533 136.998 132.41C137.118 131.848 137.239 131.299 137.399 130.75C137.832 129.218 138.447 127.744 139.233 126.36H71.8341C70.0046 129.668 69.064 133.394 69.1039 137.174Z" fill="#E7EDFD"/>
<path d="M91.2936 138.513V140.159H136.797C136.73 139.61 136.677 139.048 136.65 138.513H91.2936Z" fill="#97ADF5"/>
<path d="M91.2936 134.685V136.331H136.583C136.583 135.782 136.583 135.22 136.704 134.685H91.2936Z" fill="#97ADF5"/>
<path d="M91.2936 130.831V132.49H137.038C137.159 131.928 137.279 131.379 137.44 130.831H91.2936Z" fill="#97ADF5"/>
<path d="M91.2936 142.688V144.308H137.654C137.474 143.776 137.322 143.236 137.199 142.688H91.2936Z" fill="#97ADF5"/>
<path opacity="0.19" d="M91.8691 126.468L91.2936 135.541H136.623C136.811 132.356 138.055 128.047 139.3 126.468H91.8691Z" fill="#252866"/>
<path d="M139.795 128.743H93.1675V126.427H139.795C140.062 126.427 140.317 126.533 140.505 126.721C140.693 126.91 140.799 127.165 140.799 127.431V127.739C140.799 128.005 140.693 128.26 140.505 128.449C140.317 128.637 140.062 128.743 139.795 128.743Z" fill="#5E80FA"/>
<path d="M139.795 148.015H93.1675V145.7H139.795C140.062 145.7 140.317 145.805 140.505 145.994C140.693 146.182 140.799 146.437 140.799 146.703V147.011C140.799 147.277 140.693 147.533 140.505 147.721C140.317 147.909 140.062 148.015 139.795 148.015Z" fill="#5E80FA"/>
<path d="M46.4058 148.015H95.4561C93.6709 144.7 92.7363 140.993 92.7363 137.228C92.7363 133.463 93.6709 129.756 95.4561 126.441H46.4058C44.6206 129.756 43.686 133.463 43.686 137.228C43.686 140.993 44.6206 144.7 46.4058 148.015Z" fill="#93B1FB"/>
<path d="M49.4572 145.7H92.1637C90.5447 143.171 89.6841 140.231 89.6841 137.228C89.6841 134.225 90.5447 131.285 92.1637 128.756H49.4572C47.8381 131.285 46.9777 134.225 46.9777 137.228C46.9777 140.231 47.8381 143.171 49.4572 145.7Z" fill="#E7EDFD"/>
<path d="M52.4548 140.186V134.979H53.5121V139.302H56.1888V140.186H52.4548Z" fill="#506AED"/>
<path d="M57.4869 137.589C57.4728 137.131 57.555 136.675 57.7279 136.251C57.8481 135.985 58.0108 135.741 58.2097 135.528C58.4022 135.326 58.6347 135.167 58.8923 135.06C59.2523 134.909 59.6398 134.837 60.0298 134.846C60.3711 134.83 60.712 134.886 61.0301 135.01C61.3483 135.135 61.6368 135.325 61.8767 135.568C62.1219 135.836 62.31 136.151 62.4297 136.494C62.5493 136.837 62.598 137.2 62.5727 137.562C62.6168 138.291 62.3715 139.008 61.8901 139.557C61.6492 139.798 61.3606 139.988 61.0426 140.112C60.7247 140.237 60.3843 140.293 60.0432 140.279C59.6997 140.297 59.3563 140.242 59.0356 140.117C58.715 139.993 58.4244 139.802 58.1829 139.557C57.9411 139.292 57.7549 138.981 57.6354 138.643C57.5158 138.306 57.4653 137.947 57.4869 137.589ZM58.5844 137.589C58.5536 138.069 58.6962 138.544 58.986 138.928C59.1158 139.076 59.2766 139.193 59.457 139.272C59.6375 139.35 59.8331 139.388 60.0298 139.383C60.2266 139.388 60.4222 139.35 60.6026 139.272C60.783 139.193 60.9439 139.076 61.0738 138.928C61.3662 138.545 61.5132 138.07 61.4886 137.589C61.5231 137.109 61.3802 136.633 61.0871 136.251C60.9545 136.104 60.791 135.988 60.6082 135.911C60.4253 135.835 60.2278 135.8 60.0298 135.809C59.8319 135.8 59.6344 135.835 59.4516 135.911C59.2687 135.988 59.1051 136.104 58.9726 136.251C58.6815 136.626 58.5258 137.088 58.5309 137.562L58.5844 137.589Z" fill="#506AED"/>
<path d="M64.3529 140.186V134.939H66.5612C66.9717 134.918 67.3829 134.964 67.7791 135.073C68.0341 135.171 68.2502 135.35 68.3947 135.582C68.5459 135.832 68.6246 136.119 68.6222 136.411C68.6324 136.769 68.5083 137.118 68.2743 137.388C67.9949 137.668 67.6246 137.839 67.2304 137.87C67.4448 137.985 67.6392 138.135 67.8059 138.312C68.0311 138.579 68.2327 138.866 68.4081 139.168L69.0505 140.186H67.7122L66.9493 139.048C66.7795 138.777 66.5917 138.518 66.3872 138.272C66.3015 138.173 66.1905 138.099 66.066 138.058C65.8926 138.006 65.7116 137.983 65.5307 137.991H65.3166V140.186H64.3529ZM65.4102 137.161H66.1998C66.5181 137.176 66.837 137.153 67.1501 137.094C67.2734 137.058 67.3786 136.977 67.4445 136.866C67.5257 136.754 67.5638 136.616 67.5516 136.478C67.5611 136.324 67.5135 136.172 67.4178 136.05C67.3124 135.937 67.1699 135.866 67.0163 135.849C66.7577 135.835 66.4986 135.835 66.24 135.849H65.4102V137.161Z" fill="#506AED"/>
<path d="M70.576 140.186V134.939H74.4706V135.836H71.6467V137H74.3234V137.884H71.6467V139.316H74.5911V140.199L70.576 140.186Z" fill="#506AED"/>
<path d="M76.4114 140.186V134.939H77.9906L78.9543 138.513L79.8911 134.939H81.4837V140.186H80.4933V136.05L79.4494 140.186H78.4323L77.3884 136.05V140.186H76.4114Z" fill="#506AED"/>
<path d="M51.1165 159.765V154.412H52.2005V158.829H54.8772V159.739L51.1165 159.765Z" fill="white"/>
<path d="M56.2559 157.115C56.2452 156.656 56.3319 156.2 56.5101 155.777C56.6293 155.504 56.7971 155.254 57.0053 155.041C57.2034 154.836 57.4399 154.673 57.7013 154.559C58.0657 154.408 58.4578 154.335 58.8522 154.345C59.2028 154.328 59.553 154.385 59.8803 154.512C60.2076 154.639 60.5048 154.833 60.7527 155.081C61.2482 155.645 61.5029 156.38 61.462 157.129C61.5037 157.874 61.2486 158.605 60.7527 159.163C60.5063 159.41 60.2114 159.603 59.8866 159.729C59.5617 159.856 59.214 159.914 58.8656 159.899C58.5153 159.913 58.1658 159.855 57.8388 159.729C57.5119 159.602 57.2146 159.41 56.9652 159.163C56.7148 158.887 56.5228 158.564 56.4009 158.212C56.279 157.86 56.2296 157.487 56.2559 157.115ZM57.3801 157.115C57.3507 157.597 57.4982 158.073 57.795 158.454C57.9264 158.608 58.091 158.73 58.2764 158.811C58.4619 158.892 58.6634 158.93 58.8656 158.922C59.0646 158.93 59.2628 158.893 59.4457 158.814C59.6286 158.736 59.7916 158.617 59.9229 158.467C60.1887 158.052 60.33 157.569 60.33 157.075C60.33 156.582 60.1887 156.099 59.9229 155.683C59.7841 155.537 59.617 155.421 59.4318 155.341C59.2466 155.262 59.0471 155.221 58.8455 155.221C58.644 155.221 58.4445 155.262 58.2593 155.341C58.0741 155.421 57.907 155.537 57.7682 155.683C57.4717 156.084 57.3335 156.579 57.3801 157.075V157.115Z" fill="white"/>
<path d="M63.2821 159.766V154.412H65.5573C65.9774 154.394 66.3977 154.443 66.802 154.559C67.0629 154.653 67.2846 154.832 67.431 155.068C67.5907 155.32 67.6743 155.613 67.6719 155.911C67.6839 156.28 67.5546 156.639 67.3105 156.915C67.0257 157.197 66.6522 157.372 66.2533 157.41C66.469 157.529 66.6635 157.683 66.8287 157.865C67.0664 158.131 67.2729 158.423 67.4443 158.735L68.1002 159.779H66.7618L65.9856 158.615C65.8154 158.336 65.6229 158.072 65.4101 157.825C65.3266 157.72 65.2153 157.641 65.0889 157.597C64.9106 157.547 64.7254 157.524 64.5401 157.531H64.3261V159.779L63.2821 159.766ZM64.3662 156.661H65.1692C65.4895 156.694 65.8125 156.694 66.1328 156.661C66.2574 156.62 66.3654 156.54 66.4406 156.433C66.5425 156.279 66.5853 156.094 66.5611 155.911C66.5668 155.834 66.5566 155.756 66.5313 155.682C66.506 155.608 66.4661 155.541 66.4139 155.483C66.3099 155.366 66.1675 155.29 66.0124 155.269H64.3796L64.3662 156.661Z" fill="white"/>
<path d="M69.6526 159.765V154.412H73.6676V155.322H70.7768V156.513H73.4535V157.41H70.7768V158.869H73.7747V159.779L69.6526 159.765Z" fill="white"/>
<path d="M75.5948 159.765V154.412H77.2678L78.2447 158.066L79.2084 154.412H80.8277V159.765H79.824V155.536L78.7667 159.765H77.7228L76.6521 155.536V159.765H75.5948Z" fill="white"/>
<mask id="mask0_368_834" style="mask-type:luminance" maskUnits="userSpaceOnUse" x="20" y="148" width="34" height="69">
<path d="M53.1106 148.242H20V216.15H53.1106V148.242Z" fill="white"/>
</mask>
<g mask="url(#mask0_368_834)">
<path d="M7.4864 204.667C13.4554 199.314 19.0631 201.79 23.5465 206.3C18.8757 193.064 21.6461 176.053 36.5418 172.239C37.5188 171.985 27.7757 177.94 27.1734 192.729C27.1005 197.646 27.6765 202.551 28.8865 207.317C29.5958 201.964 31.1215 196.61 35.1633 193.639C40.142 190.012 47.4894 194.054 49.6308 198.992C49.6764 199.107 49.6992 199.23 49.6978 199.354C49.9521 200.237 37.6526 189.624 33.1558 201.964C32.0144 204.808 31.1189 207.746 30.4791 210.743C30.4791 211.064 30.4791 211.399 30.4122 211.72C31.1737 210.487 32.1533 209.403 33.3031 208.521C36.4214 206.206 40.1152 206.367 43.7956 206.741C44.612 206.822 33.1826 208.2 30.8137 217.595C30.6109 217.764 30.3725 217.884 30.1164 217.947C29.8603 218.01 29.5933 218.014 29.3354 217.959C29.0776 217.903 28.8357 217.79 28.6281 217.627C28.4205 217.465 28.2525 217.257 28.137 217.02C26.1027 217.769 24.122 215.467 23.3458 213.714C17.2965 200.384 7.19196 204.935 7.4864 204.667Z" fill="white"/>
<path d="M24.5503 212.122C24.5503 212.523 24.6841 212.925 24.7243 213.326C24.751 213.545 24.8519 213.748 25.0102 213.902C25.1685 214.055 25.3747 214.149 25.5943 214.169C26.0225 215.066 26.4642 215.963 26.9326 216.846C27.4412 217.97 29.2881 217.368 28.7661 216.244C28.8743 216.229 28.9784 216.193 29.0726 216.138C29.1668 216.083 29.2492 216.01 29.3151 215.922C29.381 215.835 29.4291 215.736 29.4566 215.631C29.4841 215.525 29.4905 215.415 29.4754 215.307C27.8292 181.032 49.8049 187.376 50.0859 186.894C50.7417 186.492 49.3632 185.101 49.1223 185.074C46.7654 183.187 43.8367 182.16 40.8179 182.16C37.7991 182.16 34.8703 183.187 32.5135 185.074C28.7126 188.313 27.1601 193.505 26.3704 198.859C25.0321 191.23 23.2521 183.695 21.2178 176.214C20.3479 173.042 19.8795 167.314 16.4132 165.641C14.4057 164.664 11.729 166.096 10.7119 167.97C10.2836 168.773 16.6675 163.807 23.5198 205.296C20.7259 199.67 17.2806 194.392 13.2547 189.571C10.7252 186.653 4.54208 185.141 4.22087 190.414C4.04689 190.588 9.25305 184.552 24.5503 212.122Z" fill="#9FB8FC"/>
</g>
<path d="M267.527 203.998H157.569C156.822 204.017 156.08 203.871 155.397 203.568C154.715 203.265 154.108 202.814 153.621 202.248C153.134 201.682 152.779 201.014 152.582 200.293C152.385 199.573 152.351 198.818 152.483 198.082L162.226 128.756C162.485 127.148 163.293 125.68 164.514 124.601C165.734 123.523 167.29 122.901 168.918 122.841H278.822C279.57 122.819 280.313 122.964 280.998 123.266C281.682 123.568 282.291 124.019 282.779 124.585C283.268 125.152 283.624 125.82 283.821 126.542C284.019 127.263 284.053 128.02 283.921 128.756L274.178 198.082C273.916 199.682 273.112 201.142 271.901 202.219C270.69 203.296 269.146 203.924 267.527 203.998Z" fill="#506AED"/>
<path d="M260.447 203.998H150.542C149.795 204.02 149.052 203.875 148.368 203.573C147.684 203.271 147.076 202.82 146.588 202.253C146.101 201.686 145.746 201.017 145.55 200.296C145.355 199.574 145.322 198.818 145.456 198.082L155.2 128.756C155.458 127.148 156.267 125.68 157.487 124.601C158.707 123.523 160.264 122.9 161.891 122.841H271.796C272.543 122.821 273.284 122.968 273.967 123.271C274.65 123.573 275.257 124.024 275.744 124.59C276.231 125.157 276.585 125.824 276.782 126.545C276.979 127.265 277.013 128.021 276.882 128.756L267.139 198.082C266.88 199.69 266.071 201.158 264.851 202.237C263.631 203.316 262.074 203.938 260.447 203.998Z" fill="#93B1FB"/>
<path d="M255.093 199.595H157.14C156.473 199.613 155.81 199.483 155.199 199.213C154.589 198.943 154.046 198.539 153.611 198.033C153.177 197.526 152.861 196.929 152.686 196.284C152.512 195.64 152.483 194.965 152.603 194.308L161.289 132.53C161.517 131.088 162.242 129.77 163.34 128.807C164.438 127.844 165.838 127.296 167.298 127.257H265.251C265.917 127.239 266.579 127.369 267.188 127.638C267.798 127.908 268.339 128.31 268.774 128.815C269.208 129.32 269.525 129.915 269.7 130.558C269.876 131.201 269.906 131.874 269.788 132.53L261.103 194.308C260.87 195.75 260.144 197.066 259.047 198.03C257.951 198.995 256.553 199.548 255.093 199.595Z" fill="#506AED"/>
<path d="M110.726 196.918H274.78V202.271C274.78 204.224 274.005 206.096 272.624 207.476C271.244 208.857 269.372 209.632 267.42 209.632H118.101C116.148 209.632 114.276 208.857 112.896 207.476C111.515 206.096 110.74 204.224 110.74 202.271V196.918H110.726Z" fill="#394FC0"/>
<path d="M103.66 196.918H267.7V202.271C267.7 204.224 266.925 206.096 265.545 207.476C264.164 208.857 262.292 209.632 260.34 209.632H111.021C109.068 209.632 107.196 208.857 105.816 207.476C104.435 206.096 103.66 204.224 103.66 202.271V196.918Z" fill="#506AED"/>
<path d="M124.257 194.107H111.81V196.905H124.257V194.107Z" fill="#E7EDFD"/>
<path d="M138.925 194.107H126.465V196.905H138.925V194.107Z" fill="#E7EDFD"/>
<path d="M153.58 194.107H141.12V196.905H153.58V194.107Z" fill="#E7EDFD"/>
<path d="M197.05 194.107H155.775V196.905H197.05V194.107Z" fill="#E7EDFD"/>
<path d="M212.199 194.107H199.74V196.905H212.199V194.107Z" fill="#E7EDFD"/>
<path d="M226.854 194.107H214.394V196.905H226.854V194.107Z" fill="#E7EDFD"/>
<path d="M241.509 194.107H229.049V196.905H241.509V194.107Z" fill="#E7EDFD"/>
<path d="M256.151 194.107H243.704V196.905H256.151V194.107Z" fill="#E7EDFD"/>
<path d="M267.647 196.918H103.473V201.589H267.647V196.918Z" fill="white"/>
<path d="M263.164 136.237L261.491 148.175C261.392 148.789 261.083 149.348 260.616 149.758C260.15 150.169 259.555 150.404 258.935 150.424H241.027C240.743 150.432 240.46 150.377 240.2 150.262C239.94 150.148 239.708 149.977 239.522 149.761C239.336 149.546 239.201 149.292 239.126 149.017C239.05 148.743 239.037 148.455 239.087 148.175L240.773 136.237C240.872 135.624 241.181 135.065 241.648 134.654C242.114 134.244 242.709 134.009 243.329 133.989H261.236C261.52 133.98 261.803 134.035 262.063 134.15C262.323 134.264 262.554 134.436 262.738 134.652C262.923 134.867 263.058 135.122 263.131 135.396C263.205 135.671 263.216 135.958 263.164 136.237Z" fill="#C7D7F7"/>
<path d="M262.2 143.076L261.357 149.085C261.301 149.45 261.119 149.783 260.843 150.028C260.566 150.272 260.213 150.412 259.845 150.424H240.104C239.935 150.429 239.768 150.396 239.614 150.328C239.46 150.259 239.323 150.157 239.213 150.028C239.104 149.9 239.025 149.748 238.982 149.585C238.94 149.422 238.934 149.251 238.966 149.085V148.577L244.654 143.116C244.712 143.055 244.781 143.007 244.859 142.973C244.936 142.94 245.019 142.923 245.103 142.923C245.187 142.923 245.27 142.94 245.347 142.973C245.424 143.007 245.494 143.055 245.551 143.116L248.683 146.931C248.74 146.992 248.81 147.041 248.887 147.074C248.964 147.107 249.047 147.124 249.131 147.124C249.215 147.124 249.298 147.107 249.375 147.074C249.453 147.041 249.522 146.992 249.58 146.931L258.306 138.687C258.362 138.619 258.433 138.565 258.512 138.527C258.592 138.49 258.679 138.471 258.767 138.471C258.855 138.471 258.942 138.49 259.022 138.527C259.102 138.565 259.172 138.619 259.229 138.687L262.2 143.076Z" fill="white"/>
<path d="M247.8 138.111C247.853 137.833 247.844 137.546 247.773 137.271C247.702 136.996 247.571 136.741 247.389 136.523C247.207 136.305 246.979 136.131 246.721 136.012C246.464 135.893 246.183 135.833 245.899 135.836C245.278 135.852 244.682 136.084 244.213 136.492C243.744 136.9 243.432 137.458 243.33 138.071C243.28 138.35 243.293 138.637 243.368 138.91C243.442 139.183 243.576 139.437 243.761 139.652C243.945 139.867 244.175 140.038 244.434 140.154C244.692 140.269 244.974 140.326 245.257 140.32C245.869 140.298 246.456 140.067 246.919 139.665C247.382 139.263 247.693 138.715 247.8 138.111Z" fill="white"/>
<path d="M225.998 163.727H167.7C167.416 163.733 167.135 163.677 166.877 163.561C166.618 163.446 166.388 163.274 166.203 163.059C166.019 162.844 165.885 162.591 165.81 162.317C165.736 162.044 165.723 161.758 165.772 161.479L169.319 136.237C169.419 135.622 169.73 135.061 170.199 134.65C170.668 134.24 171.265 134.006 171.889 133.989H230.187C230.47 133.983 230.751 134.039 231.01 134.155C231.269 134.27 231.498 134.442 231.683 134.657C231.867 134.872 232.002 135.125 232.076 135.399C232.151 135.672 232.164 135.958 232.114 136.237L228.567 161.479C228.468 162.094 228.157 162.655 227.688 163.066C227.219 163.476 226.621 163.71 225.998 163.727Z" fill="#C7D7F7"/>
<path d="M188.846 145.392C188.846 145.98 193.142 146.195 198.549 145.847C203.955 145.499 208.372 144.722 208.426 144.12C208.479 143.518 204.116 143.317 198.709 143.665C193.302 144.013 188.886 144.789 188.846 145.392Z" fill="#71AEEE"/>
<path d="M197.799 155.911C194.365 155.962 190.933 155.697 187.547 155.122L188.953 144.964L208.452 144.509L207.275 154.6C204.178 155.407 200.998 155.847 197.799 155.911Z" fill="#779FFB"/>
<path d="M180.427 155.911L182.14 154.198H182.381L183.572 155.938C183.6 155.969 183.615 156.01 183.615 156.052C183.615 156.093 183.6 156.134 183.572 156.165C183.538 156.179 183.5 156.179 183.465 156.165C183.443 156.164 183.422 156.157 183.403 156.145C183.385 156.134 183.369 156.118 183.358 156.098L182.997 155.911L183.171 156.313C183.18 156.332 183.185 156.353 183.186 156.374C183.186 156.395 183.183 156.417 183.176 156.436C183.168 156.456 183.157 156.475 183.142 156.49C183.128 156.506 183.11 156.518 183.091 156.527H182.997C182.971 156.526 182.946 156.518 182.925 156.504C182.903 156.49 182.887 156.47 182.876 156.446L182.702 156.045L182.796 156.487C182.805 156.529 182.797 156.573 182.775 156.61C182.752 156.647 182.717 156.675 182.676 156.687C182.646 156.689 182.617 156.68 182.593 156.663C182.569 156.646 182.551 156.622 182.542 156.594L182.448 156.152V156.607C182.449 156.652 182.433 156.696 182.403 156.731C182.373 156.765 182.332 156.788 182.288 156.794C182.252 156.794 182.218 156.78 182.193 156.755C182.168 156.73 182.154 156.696 182.154 156.661V156.206L182.087 156.674C182.078 156.714 182.056 156.75 182.025 156.777C181.993 156.804 181.954 156.819 181.913 156.821C181.893 156.822 181.873 156.817 181.855 156.809C181.836 156.801 181.82 156.788 181.807 156.773C181.794 156.758 181.785 156.739 181.78 156.72C181.775 156.701 181.775 156.68 181.779 156.661V156.206L181.632 156.661C181.617 156.695 181.593 156.724 181.562 156.746C181.531 156.767 181.495 156.779 181.458 156.781C181.437 156.779 181.417 156.771 181.399 156.76C181.382 156.748 181.367 156.733 181.357 156.714C181.346 156.696 181.34 156.676 181.339 156.655C181.338 156.634 181.342 156.613 181.351 156.594L181.498 156.139L181.284 156.58C181.264 156.608 181.238 156.631 181.208 156.647C181.177 156.663 181.144 156.672 181.11 156.674C181.092 156.665 181.076 156.653 181.063 156.639C181.05 156.624 181.04 156.606 181.034 156.588C181.028 156.569 181.025 156.549 181.027 156.53C181.028 156.51 181.034 156.491 181.043 156.473L181.27 156.032L180.976 156.433C180.959 156.457 180.937 156.477 180.912 156.491C180.886 156.504 180.858 156.512 180.829 156.513H180.748C180.734 156.5 180.722 156.483 180.714 156.465C180.706 156.446 180.702 156.426 180.702 156.406C180.702 156.386 180.706 156.366 180.714 156.348C180.722 156.33 180.734 156.313 180.748 156.299L181.043 155.898L180.695 156.246C180.66 156.283 180.612 156.307 180.561 156.313C180.546 156.319 180.53 156.322 180.514 156.322C180.498 156.322 180.482 156.319 180.467 156.313C180.441 156.315 180.414 156.313 180.389 156.305C180.364 156.297 180.34 156.285 180.32 156.268C180.299 156.251 180.282 156.231 180.27 156.207C180.257 156.184 180.249 156.158 180.247 156.132C180.244 156.106 180.247 156.079 180.254 156.054C180.262 156.028 180.274 156.005 180.291 155.984C180.308 155.964 180.329 155.947 180.352 155.934C180.375 155.922 180.401 155.914 180.427 155.911Z" fill="#779FFB"/>
<path d="M183.372 144.549C183.377 144.58 183.377 144.611 183.372 144.642L181.926 154.292H182.555L184.001 144.629C184.081 144.04 183.358 144.334 183.372 144.549Z" fill="#779FFB"/>
<path d="M181.659 154.292C181.687 154.12 181.775 153.964 181.908 153.852C182.04 153.739 182.208 153.677 182.381 153.676C182.461 153.672 182.541 153.687 182.614 153.718C182.687 153.75 182.752 153.798 182.804 153.859C182.855 153.92 182.892 153.991 182.912 154.069C182.932 154.146 182.933 154.227 182.917 154.305C182.886 154.477 182.798 154.633 182.666 154.747C182.535 154.861 182.368 154.927 182.194 154.934C182.115 154.933 182.036 154.915 181.964 154.881C181.892 154.847 181.829 154.798 181.778 154.737C181.727 154.675 181.69 154.604 181.669 154.527C181.649 154.45 181.645 154.37 181.659 154.292Z" fill="#6092F8"/>
<path d="M198.147 150.772L179.316 145.138L179.41 144.388L181.15 144.361L181.364 144.254L182.033 143.973L198.91 137.937L216.094 143.973L217.272 143.706L217.178 144.455L198.147 150.772Z" fill="#6092F8"/>
<path d="M199.004 137.201L179.424 144.388L198.241 150.036L217.272 143.705L199.004 137.201Z" fill="#779FFB"/>
<path d="M208.305 146.168C208.507 145.051 208.456 143.904 208.158 142.809C207.86 141.714 207.322 140.7 206.582 139.839C205.842 138.979 204.92 138.295 203.882 137.836C202.844 137.377 201.717 137.156 200.583 137.188C198.099 137.264 195.72 138.202 193.852 139.84C191.984 141.479 190.744 143.716 190.344 146.168C190.141 147.284 190.189 148.432 190.485 149.528C190.782 150.623 191.319 151.639 192.057 152.5C192.796 153.362 193.717 154.048 194.755 154.508C195.792 154.969 196.919 155.192 198.053 155.162C200.541 155.088 202.925 154.149 204.796 152.508C206.667 150.867 207.908 148.625 208.305 146.168Z" fill="white"/>
<path d="M204.745 145.82L197.718 141.444C197.665 141.409 197.604 141.389 197.541 141.384C197.478 141.38 197.414 141.392 197.357 141.418C197.299 141.445 197.249 141.486 197.212 141.537C197.175 141.588 197.151 141.648 197.143 141.711L195.912 150.477C195.901 150.546 195.909 150.617 195.936 150.682C195.964 150.746 196.008 150.802 196.065 150.842C196.122 150.882 196.19 150.906 196.26 150.91C196.329 150.914 196.399 150.899 196.46 150.865L204.664 146.489C204.728 146.462 204.782 146.42 204.824 146.365C204.865 146.31 204.891 146.246 204.899 146.178C204.907 146.11 204.897 146.041 204.87 145.978C204.843 145.915 204.8 145.861 204.745 145.82Z" fill="url(#paint3_linear_368_834)"/>
<path d="M225.824 159.591C225.775 159.916 225.614 160.214 225.37 160.433C225.126 160.653 224.814 160.781 224.486 160.796H170.042C169.89 160.801 169.739 160.771 169.6 160.71C169.461 160.648 169.337 160.556 169.238 160.441C169.139 160.325 169.068 160.189 169.028 160.042C168.989 159.895 168.983 159.741 169.011 159.591C169.065 159.269 169.227 158.974 169.47 158.755C169.713 158.537 170.023 158.407 170.35 158.387H224.78C224.933 158.38 225.086 158.408 225.227 158.469C225.367 158.529 225.493 158.621 225.593 158.737C225.694 158.853 225.766 158.99 225.806 159.138C225.846 159.286 225.852 159.441 225.824 159.591Z" fill="white"/>
<path d="M181.043 158.387L180.708 160.796H170.002C169.85 160.801 169.699 160.771 169.559 160.71C169.42 160.648 169.297 160.556 169.198 160.441C169.099 160.325 169.027 160.189 168.988 160.042C168.949 159.895 168.943 159.741 168.971 159.591C169.025 159.269 169.187 158.974 169.43 158.755C169.673 158.537 169.983 158.407 170.31 158.387H181.043Z" fill="url(#paint4_linear_368_834)"/>
<path d="M169.399 168.933H166.067C165.772 168.933 165.585 168.599 165.652 168.197C165.719 167.796 165.986 167.474 166.267 167.474H169.613C169.908 167.474 170.095 167.796 170.042 168.197C169.988 168.599 169.694 168.933 169.399 168.933Z" fill="white"/>
<path d="M191.803 168.933H172.692C172.397 168.933 172.21 168.599 172.263 168.197C172.317 167.796 172.598 167.474 172.892 167.474H192.017C192.298 167.474 192.486 167.796 192.432 168.197C192.379 168.599 192.098 168.933 191.803 168.933Z" fill="white"/>
<path d="M167.86 179.921H164.528C164.233 179.921 164.046 179.6 164.1 179.198C164.153 178.797 164.434 178.462 164.729 178.462H168.061C168.356 178.462 168.543 178.783 168.489 179.198C168.436 179.613 168.141 179.921 167.86 179.921Z" fill="white"/>
<path d="M190.264 179.921H171.139C170.858 179.921 170.671 179.6 170.724 179.198C170.778 178.797 171.059 178.462 171.353 178.462H190.465C190.759 178.462 190.947 178.783 190.893 179.198C190.84 179.613 190.545 179.921 190.264 179.921Z" fill="white"/>
<path d="M184.63 172.587H165.599C165.304 172.587 165.117 172.266 165.17 171.864C165.224 171.463 165.505 171.141 165.799 171.141H184.871C185.165 171.141 185.352 171.463 185.299 171.864C185.245 172.266 184.911 172.587 184.63 172.587Z" fill="white"/>
<path d="M191.295 172.587H187.735C187.44 172.587 187.253 172.266 187.306 171.864C187.36 171.463 187.641 171.141 187.935 171.141H191.495C191.79 171.141 191.977 171.463 191.924 171.864C191.87 172.266 191.576 172.587 191.295 172.587Z" fill="white"/>
<path d="M183.077 183.588H164.006C163.725 183.588 163.537 183.253 163.591 182.852C163.644 182.45 163.925 182.129 164.206 182.129H183.291C183.572 182.129 183.76 182.45 183.706 182.852C183.653 183.253 183.372 183.588 183.077 183.588Z" fill="white"/>
<path d="M189.689 183.588H186.129C185.834 183.588 185.647 183.253 185.7 182.852C185.754 182.45 186.048 182.129 186.329 182.129H189.903C190.184 182.129 190.371 182.45 190.317 182.852C190.264 183.253 190.036 183.588 189.689 183.588Z" fill="white"/>
<path d="M172.719 176.254H165.036C164.755 176.254 164.555 175.933 164.622 175.531C164.688 175.13 164.956 174.795 165.237 174.795H172.933C173.214 174.795 173.401 175.13 173.348 175.531C173.294 175.933 173.013 176.254 172.719 176.254Z" fill="white"/>
<path d="M190.773 176.254H176.934C176.64 176.254 176.452 175.933 176.519 175.531C176.586 175.13 176.854 174.795 177.135 174.795H191.027C191.308 174.795 191.495 175.13 191.442 175.531C191.388 175.933 191.027 176.254 190.773 176.254Z" fill="white"/>
<path d="M203.192 168.933H199.86C199.565 168.933 199.378 168.599 199.432 168.197C199.485 167.796 199.78 167.474 200.061 167.474H203.393C203.688 167.474 203.875 167.796 203.821 168.197C203.768 168.599 203.474 168.933 203.192 168.933Z" fill="white"/>
<path d="M225.596 168.933H206.471C206.19 168.933 206.003 168.599 206.056 168.197C206.11 167.796 206.391 167.474 206.685 167.474H225.824C226.118 167.474 226.306 167.796 226.252 168.197C226.198 168.599 225.824 168.933 225.596 168.933Z" fill="white"/>
<path d="M201.64 179.921H198.308C198.027 179.921 197.839 179.6 197.893 179.198C197.946 178.797 198.227 178.462 198.522 178.462H201.854C202.135 178.462 202.323 178.783 202.269 179.198C202.216 179.613 201.934 179.921 201.64 179.921Z" fill="white"/>
<path d="M224.044 179.921H204.932C204.638 179.921 204.45 179.6 204.504 179.198C204.558 178.797 204.852 178.462 205.133 178.462H224.258C224.539 178.462 224.74 178.783 224.673 179.198C224.606 179.613 224.338 179.921 224.044 179.921Z" fill="white"/>
<path d="M218.41 172.587H199.338C199.057 172.587 198.87 172.266 198.923 171.864C198.977 171.463 199.258 171.141 199.552 171.141H218.624C218.905 171.141 219.092 171.463 219.039 171.864C218.985 172.266 218.704 172.587 218.41 172.587Z" fill="white"/>
<path d="M225.074 172.587H221.514C221.22 172.587 221.032 172.266 221.086 171.864C221.14 171.463 221.434 171.141 221.715 171.141H225.288C225.569 171.141 225.77 171.463 225.703 171.864C225.636 172.266 225.369 172.587 225.074 172.587Z" fill="white"/>
<path d="M216.87 183.588H197.799C197.504 183.588 197.317 183.253 197.371 182.852C197.424 182.45 197.719 182.129 198 182.129H217.071C217.365 182.129 217.553 182.45 217.499 182.852C217.446 183.253 217.165 183.588 216.87 183.588Z" fill="white"/>
<path d="M223.535 183.588H219.975C219.681 183.588 219.493 183.253 219.547 182.852C219.6 182.45 219.882 182.129 220.176 182.129H223.736C224.03 182.129 224.218 182.45 224.164 182.852C224.111 183.253 223.83 183.588 223.535 183.588Z" fill="white"/>
<path d="M206.511 176.254H198.829C198.535 176.254 198.348 175.933 198.401 175.531C198.455 175.13 198.736 174.795 199.03 174.795H206.712C207.007 174.795 207.194 175.13 207.14 175.531C207.087 175.933 206.806 176.254 206.511 176.254Z" fill="white"/>
<path d="M224.566 176.254H210.727C210.433 176.254 210.246 175.933 210.299 175.531C210.353 175.13 210.634 174.795 210.928 174.795H224.767C225.061 174.795 225.248 175.13 225.195 175.531C225.141 175.933 224.86 176.254 224.566 176.254Z" fill="white"/>
<path d="M241.041 156.219H238.07C237.815 156.219 237.655 155.938 237.695 155.577C237.735 155.215 238.003 154.934 238.257 154.934H241.215C241.482 154.934 241.643 155.215 241.603 155.577C241.563 155.938 241.295 156.219 241.041 156.219Z" fill="white"/>
<path d="M260.969 156.219H243.958C243.704 156.219 243.53 155.938 243.584 155.577C243.637 155.215 243.891 154.934 244.146 154.934H261.143C261.397 154.934 261.571 155.215 261.517 155.577C261.514 155.73 261.457 155.878 261.357 155.995C261.257 156.112 261.12 156.191 260.969 156.219Z" fill="white"/>
<path d="M239.662 166.002H236.704C236.437 166.002 236.276 165.708 236.33 165.346C236.383 164.985 236.624 164.704 236.878 164.704H239.85C240.104 164.704 240.278 164.999 240.224 165.346C240.171 165.694 239.917 166.002 239.662 166.002Z" fill="white"/>
<path d="M259.59 166.002H242.593C242.326 166.002 242.165 165.708 242.219 165.346C242.272 164.985 242.513 164.704 242.767 164.704H259.778C260.032 164.704 260.193 164.999 260.152 165.346C260.112 165.694 259.845 166.002 259.59 166.002Z" fill="white"/>
<path d="M254.572 159.484H237.615C237.361 159.484 237.187 159.19 237.24 158.829C237.294 158.467 237.535 158.186 237.802 158.186H254.759C255.013 158.186 255.187 158.481 255.134 158.829C255.08 159.177 254.839 159.484 254.572 159.484Z" fill="white"/>
<path d="M260.5 159.484H257.328C257.074 159.484 256.914 159.19 256.967 158.829C257.021 158.467 257.262 158.186 257.516 158.186H260.688C260.942 158.186 261.116 158.481 261.063 158.829C261.009 159.177 260.768 159.484 260.5 159.484Z" fill="white"/>
<path d="M253.207 169.295H236.25C235.982 169.295 235.821 169.013 235.862 168.652C235.902 168.291 236.169 167.996 236.424 167.996H253.381C253.648 167.996 253.809 168.291 253.755 168.652C253.752 168.806 253.695 168.954 253.595 169.071C253.495 169.188 253.358 169.267 253.207 169.295Z" fill="white"/>
<path d="M259.135 169.295H255.964C255.709 169.295 255.535 169.013 255.589 168.652C255.642 168.291 255.883 167.996 256.151 167.996H259.283C259.55 167.996 259.711 168.291 259.657 168.652C259.655 168.802 259.602 168.947 259.508 169.064C259.413 169.18 259.282 169.262 259.135 169.295Z" fill="white"/>
<path d="M243.999 162.737H237.16C236.905 162.737 236.731 162.456 236.785 162.094C236.839 161.733 237.079 161.438 237.347 161.438H244.173C244.427 161.438 244.601 161.733 244.547 162.094C244.544 162.248 244.487 162.396 244.387 162.513C244.287 162.63 244.15 162.709 243.999 162.737Z" fill="white"/>
<path d="M260.045 162.737H247.733C247.478 162.737 247.318 162.456 247.358 162.094C247.398 161.733 247.666 161.438 247.92 161.438H260.233C260.487 161.438 260.661 161.733 260.607 162.094C260.554 162.456 260.3 162.737 260.045 162.737Z" fill="white"/>
<path d="M238.244 176.789H235.286C235.018 176.789 234.857 176.495 234.911 176.133C234.915 175.979 234.971 175.832 235.071 175.715C235.171 175.598 235.308 175.519 235.46 175.491H238.431C238.685 175.491 238.846 175.772 238.806 176.133C238.765 176.495 238.498 176.789 238.244 176.789Z" fill="white"/>
<path d="M258.172 176.789H241.161C240.907 176.789 240.747 176.495 240.787 176.133C240.827 175.772 241.094 175.491 241.349 175.491H258.346C258.613 175.491 258.774 175.772 258.72 176.133C258.667 176.495 258.426 176.789 258.172 176.789Z" fill="white"/>
<path d="M251.788 180.001H234.818C234.563 180.001 234.389 179.707 234.443 179.359C234.496 179.011 234.751 178.703 235.005 178.703H251.962C252.216 178.703 252.39 178.998 252.336 179.359C252.283 179.72 252.042 180.001 251.788 180.001Z" fill="white"/>
<path d="M257.717 180.001H254.545C254.277 180.001 254.116 179.707 254.17 179.359C254.223 179.011 254.464 178.703 254.719 178.703H257.944C258.198 178.703 258.372 178.998 258.319 179.359C258.265 179.72 257.944 180.001 257.717 180.001Z" fill="white"/>
<path d="M236.986 182.812H234.028C233.774 182.812 233.6 182.517 233.653 182.156C233.657 182.002 233.713 181.854 233.813 181.737C233.913 181.62 234.051 181.541 234.202 181.514H237.173C237.427 181.514 237.601 181.795 237.548 182.156C237.494 182.517 237.253 182.812 236.986 182.812Z" fill="white"/>
<path d="M256.914 182.812H239.917C239.649 182.812 239.488 182.517 239.542 182.156C239.546 182.002 239.602 181.854 239.702 181.737C239.802 181.62 239.939 181.541 240.091 181.514H257.101C257.355 181.514 257.529 181.795 257.476 182.156C257.422 182.517 257.168 182.812 256.914 182.812Z" fill="white"/>
<path d="M250.53 186.064H233.573C233.305 186.064 233.145 185.769 233.198 185.421C233.252 185.073 233.493 184.766 233.747 184.766H250.717C250.971 184.766 251.132 185.06 251.092 185.421C251.052 185.783 250.784 186.064 250.53 186.064Z" fill="white"/>
<path d="M256.459 186.064H253.287C253.033 186.064 252.859 185.769 252.912 185.421C252.966 185.073 253.206 184.766 253.474 184.766H256.606C256.86 184.766 257.021 185.06 256.967 185.421C256.914 185.783 256.713 186.064 256.459 186.064Z" fill="white"/>
<path d="M242.566 173.524H235.741C235.473 173.524 235.313 173.229 235.366 172.881C235.42 172.533 235.66 172.226 235.915 172.226H242.754C243.008 172.226 243.182 172.52 243.128 172.881C243.075 173.243 242.834 173.524 242.566 173.524Z" fill="white"/>
<path d="M258.627 173.524H246.314C246.06 173.524 245.886 173.229 245.939 172.881C245.993 172.533 246.247 172.226 246.501 172.226H258.814C259.069 172.226 259.229 172.52 259.189 172.881C259.149 173.243 258.881 173.524 258.627 173.524Z" fill="white"/>
<path d="M145.991 155.59L148.976 162.884L153.928 163.847C153.928 163.847 148.735 168.558 143.221 165.895L140.451 157.504L145.991 155.59Z" fill="#F4D8D5"/>
<path d="M130.427 110.568C134.857 114.81 149.164 157.664 149.164 157.664L140.558 162.027C140.558 162.027 124.498 128.341 119.265 119.789C118.583 118.665 126.626 106.928 130.427 110.568Z" fill="white"/>
<path d="M73.2527 105.456C73.2527 105.456 74.591 118.451 84.1066 118.478C93.6222 118.504 128.74 124.246 130.119 123.175C131.497 122.105 134.897 113.004 128.928 109.792C124.11 107.276 90.9723 99.7007 90.9723 99.7007L73.2527 105.456Z" fill="white"/>
<path d="M126.051 162.188L126.144 170.071L130.4 172.748C130.4 172.748 123.842 175.223 119.693 170.727L120.202 161.907L126.051 162.188Z" fill="#F4D8D5"/>
<path d="M117.231 113.981C120.938 118.893 128.245 163.5 128.245 163.5L118.756 166.497C118.756 166.497 107.822 130.844 104.034 121.569C103.539 120.351 114.059 109.792 117.231 113.981Z" fill="white"/>
<path d="M139.769 160.354C139.769 160.354 122.772 123.336 117.726 120.03C112.68 116.724 89.9153 109.323 89.9153 109.323C89.9153 109.323 103.767 108.748 110.231 109.926C116.696 111.103 120.189 111.973 122.062 115.145C123.936 118.317 142.298 157.597 142.298 157.597L139.769 160.354Z" fill="#C1D5FC"/>
<path d="M129.838 161.265C130.228 162.605 130.532 163.968 130.748 165.347C130.601 165.574 117.592 169.147 117.177 169.362C116.763 169.576 115.959 164.932 115.959 164.932C115.959 164.932 128.567 160.047 129.838 161.265Z" fill="#5B85F7"/>
<path d="M59.8693 113.004C59.8693 113.004 62.0775 128.007 71.5798 126.842C81.082 125.678 121.567 127.592 121.098 125.905C119.345 119.789 117.083 112.977 111.556 112.268C106.029 111.558 76.0365 107.316 76.0365 107.316L59.8693 113.004Z" fill="white"/>
<path d="M119.131 178.154C119.8 179.118 127.028 179.064 129.838 180.028C132.649 180.992 141.482 180.831 142.271 180.282C142.447 180.14 142.577 179.949 142.646 179.734C142.761 179.455 142.842 179.162 142.887 178.864C143.074 177.78 142.887 176.401 142.271 175.933C140.932 175.279 139.55 174.716 138.136 174.246C133.452 172.493 126.465 170.071 126.465 170.071C126.465 170.071 125.234 171.637 119.774 170.794C119.4 172.636 119.14 174.5 118.997 176.374C118.879 176.969 118.925 177.584 119.131 178.154Z" fill="url(#paint5_linear_368_834)"/>
<path d="M136.717 179.734H142.619C142.735 179.454 142.816 179.162 142.86 178.864C143.048 177.78 142.86 176.401 142.245 175.933C140.905 175.279 139.524 174.716 138.109 174.246C137.478 174.996 137.025 175.88 136.783 176.83C136.542 177.781 136.52 178.773 136.717 179.734Z" fill="#9F008B"/>
<path d="M119.131 178.154C119.801 179.118 127.028 179.064 129.838 180.028C132.649 180.992 141.482 180.831 142.271 180.282C142.639 179.898 142.857 179.395 142.887 178.864C139.652 179.184 136.392 179.184 133.157 178.864C130.24 178.248 127.041 177.07 125.328 177.017C124.097 177.017 120.777 176.615 118.971 176.415C118.868 176.998 118.923 177.599 119.131 178.154Z" fill="white"/>
<path d="M126.706 174.233C126.845 174.22 126.977 174.164 127.082 174.073C127.188 173.982 127.262 173.86 127.295 173.724C127.456 173.254 127.716 172.825 128.058 172.464C128.399 172.104 128.815 171.822 129.276 171.637C129.441 171.571 129.575 171.444 129.65 171.282C129.725 171.12 129.734 170.936 129.677 170.767C129.646 170.684 129.599 170.608 129.538 170.543C129.477 170.479 129.404 170.427 129.323 170.391C129.243 170.355 129.155 170.335 129.067 170.333C128.978 170.331 128.89 170.346 128.807 170.379C128.143 170.638 127.546 171.044 127.06 171.565C126.573 172.086 126.21 172.71 125.997 173.39C125.974 173.494 125.976 173.602 126.001 173.705C126.027 173.808 126.076 173.904 126.144 173.986C126.213 174.067 126.299 174.132 126.396 174.175C126.494 174.218 126.6 174.238 126.706 174.233Z" fill="white"/>
<path d="M130.28 175.223C130.443 175.222 130.601 175.161 130.724 175.053C130.847 174.945 130.926 174.797 130.949 174.635C131.056 173.751 132.22 173.042 132.635 172.868C132.717 172.832 132.79 172.78 132.851 172.715C132.912 172.65 132.96 172.574 132.991 172.49C133.022 172.407 133.036 172.318 133.033 172.229C133.029 172.139 133.008 172.052 132.97 171.971C132.935 171.89 132.884 171.817 132.821 171.756C132.757 171.695 132.682 171.647 132.599 171.616C132.517 171.585 132.429 171.571 132.341 171.574C132.253 171.578 132.166 171.599 132.086 171.637C131.993 171.637 129.825 172.654 129.61 174.474C129.591 174.651 129.642 174.829 129.752 174.969C129.862 175.109 130.023 175.2 130.199 175.223H130.28Z" fill="white"/>
<path d="M149.538 153.676C150.198 154.903 150.774 156.173 151.265 157.477C151.171 157.731 139.22 163.888 138.791 164.169C138.363 164.45 136.69 160.154 136.69 160.154C136.69 160.154 148.053 152.699 149.538 153.676Z" fill="#5B85F7"/>
<path d="M145.416 172.975C146.393 173.631 153.098 170.927 156.043 170.793C158.987 170.66 167.164 167.274 167.7 166.457C167.819 166.265 167.87 166.039 167.847 165.815C167.859 165.513 167.828 165.211 167.753 164.918C167.526 163.834 166.883 162.616 166.107 162.415C164.618 162.321 163.125 162.321 161.637 162.415C156.631 162.509 149.257 162.817 149.257 162.817C149.257 162.817 148.668 164.731 143.261 165.962C143.592 167.813 144.039 169.641 144.6 171.436C144.733 172.011 145.014 172.542 145.416 172.975Z" fill="url(#paint6_linear_368_834)"/>
<path d="M162.36 167.956L167.847 165.788C167.859 165.486 167.828 165.184 167.753 164.891C167.525 163.807 166.883 162.59 166.107 162.389C164.618 162.294 163.125 162.294 161.637 162.389C161.335 163.312 161.243 164.291 161.368 165.254C161.493 166.218 161.832 167.141 162.36 167.956Z" fill="#9F008B"/>
<path d="M145.416 172.975C146.393 173.631 153.098 170.927 156.043 170.794C158.987 170.66 167.164 167.274 167.7 166.457C167.884 165.961 167.884 165.415 167.7 164.918C164.801 166.4 161.761 167.588 158.626 168.465C155.695 168.947 152.282 169.04 150.676 169.616C149.511 170.017 146.299 170.954 144.546 171.382C144.686 171.983 144.987 172.533 145.416 172.975Z" fill="white"/>
<path d="M151.024 166.537C151.147 166.474 151.249 166.375 151.316 166.253C151.382 166.132 151.411 165.993 151.399 165.855C151.376 165.358 151.46 164.863 151.645 164.401C151.829 163.939 152.111 163.522 152.469 163.178C152.534 163.118 152.587 163.046 152.624 162.966C152.661 162.886 152.682 162.8 152.686 162.711C152.69 162.623 152.676 162.535 152.646 162.452C152.616 162.369 152.569 162.293 152.509 162.228C152.45 162.163 152.378 162.11 152.298 162.073C152.217 162.036 152.131 162.015 152.043 162.011C151.954 162.007 151.866 162.021 151.783 162.051C151.7 162.082 151.624 162.128 151.559 162.188C151.039 162.673 150.635 163.269 150.376 163.932C150.116 164.594 150.009 165.306 150.06 166.015C150.07 166.104 150.098 166.189 150.141 166.266C150.184 166.344 150.242 166.412 150.312 166.467C150.381 166.522 150.461 166.562 150.547 166.586C150.632 166.609 150.722 166.616 150.81 166.604C150.884 166.595 150.957 166.572 151.024 166.537Z" fill="white"/>
<path d="M154.718 166.149C154.869 166.089 154.994 165.976 155.068 165.831C155.142 165.685 155.16 165.518 155.119 165.36C154.892 164.503 155.722 163.406 156.029 163.098C156.092 163.036 156.141 162.962 156.175 162.88C156.209 162.798 156.226 162.711 156.226 162.623C156.226 162.535 156.209 162.447 156.175 162.366C156.141 162.284 156.092 162.21 156.029 162.148C155.967 162.085 155.893 162.036 155.811 162.002C155.73 161.968 155.643 161.951 155.554 161.951C155.466 161.951 155.379 161.968 155.297 162.002C155.216 162.036 155.142 162.085 155.079 162.148C154.608 162.603 154.249 163.162 154.031 163.78C153.813 164.397 153.741 165.057 153.821 165.708C153.868 165.878 153.98 166.022 154.133 166.11C154.286 166.197 154.467 166.221 154.638 166.176L154.718 166.149Z" fill="white"/>
<path d="M94.0907 96.2075C98.9489 94.3874 109.187 90.8541 121.032 86.2636C120.584 84.7352 119.892 83.2891 118.984 81.981C118.984 81.981 95.3622 85.996 91.5077 87.0666C88.8311 87.7492 85.7529 91.5367 87.6399 94.2669C88.3525 95.2543 89.3705 95.9794 90.5365 96.3302C91.7025 96.6809 92.9517 96.6378 94.0907 96.2075Z" fill="#F4D8D5"/>
<path d="M83.7454 32.6496C83.7454 32.6496 87.0645 53.6749 96.0983 62.9229C90.1694 70.7656 56.9785 69.5076 51.4779 68.1023C51.4779 68.1023 54.342 39.5153 60.5385 33.3054C66.735 27.0955 83.7454 32.6496 83.7454 32.6496Z" fill="#000038"/>
<path d="M84.6688 61.3705C87.8675 59.9518 90.9323 61.9058 91.9226 65.3855C92.913 68.8652 97.0752 90.3322 96.7808 91.5903C96.4864 92.8483 95.2417 98.282 88.9114 95.0298C84.535 87.9232 81.6709 69.3738 81.6174 67.4599C81.5638 65.5461 82.8219 62.227 84.6688 61.3705Z" fill="#F4D8D5"/>
<path d="M90.7718 69.6147C91.6679 70.8873 92.2419 72.3582 92.4447 73.9013C92.6475 75.4445 92.473 77.0138 91.9361 78.4746C90.6085 82.1405 90.5145 86.1397 91.6684 89.8639C92.1904 91.2022 96.0984 95.4715 96.0984 95.4715C93.9641 96.538 91.5878 97.0271 89.2059 96.8902C85.8332 96.4753 83.7455 84.6845 83.7455 84.6845C83.7455 84.6845 88.4297 75.4232 88.5903 75.3161C88.7509 75.209 90.7718 69.6147 90.7718 69.6147Z" fill="#DBB5BF"/>
<path d="M58.2096 113.004C79.1681 118.237 93.5418 98.8308 93.5418 98.8308C91.4406 96.8902 87.5996 91.2959 87.5595 89.3821C87.3454 80.2278 92.846 78.769 92.3642 73.6298C91.8288 68.1024 86.8635 60.9021 86.8635 60.9021C86.8635 60.9021 61.8231 59.3764 55.0779 63.3647C55.0779 63.3647 62.4522 82.7171 61.9436 91.3628C61.9123 91.9308 61.8317 92.4951 61.7027 93.0491C61.2744 94.7354 58.2096 113.004 58.2096 113.004Z" fill="url(#paint7_linear_368_834)"/>
<path d="M78.6998 53.4475L79.0745 60.9556C79.0745 60.9556 78.392 65.3052 75.6216 65.3052C73.4 65.3052 67.886 62.0664 66.8153 60.447L66.2264 47.7595L78.6998 53.4475Z" fill="#F4D8D5"/>
<path d="M78.9675 59.3096C77.6949 59.5448 76.3848 59.4772 75.1432 59.1122C73.9016 58.7471 72.7635 58.0949 71.8207 57.2084C68.7961 54.1703 69.5054 51.855 69.5054 51.855L78.8738 55.6023L78.9675 59.3096Z" fill="#DBB5BF"/>
<path d="M75.9295 57.5296H76.3176C81.5639 56.7667 83.5714 51.9353 83.0093 46.3277C82.6613 42.674 82.2732 31.6059 82.2732 31.6059C82.2394 31.2837 82.08 30.9878 81.8294 30.7824C81.5789 30.5769 81.2575 30.4785 80.9349 30.5084L63.8844 32.9576C63.5597 33.0163 63.2716 33.2015 63.0833 33.4725C62.8951 33.7436 62.8222 34.0783 62.8807 34.403L64.9685 48.8438C65.2806 51.4445 66.6077 53.8166 68.6607 55.4435C70.7137 57.0703 73.3262 57.8201 75.9295 57.5296Z" fill="#F4D8D5"/>
<path d="M82.7417 37.3874V42.0047C82.7417 42.0047 71.4862 43.0486 67.1098 40.6664C62.7335 38.2841 66.1329 36.116 66.1329 36.116L71.6468 35.5405C71.6468 35.5405 82.193 35.4602 82.7417 37.3874Z" fill="#DBB5BF"/>
<path d="M87.0109 39.9437C87.4124 37.6016 85.7796 31.9137 83.6383 30.2006C79.6233 26.9217 66.6146 23.9104 64.1654 31.3516C64.1654 31.3516 60.6857 31.9672 59.9362 34.5904C59.1867 37.2135 58.5979 49.6869 65.0889 49.6467C64.7275 48.1478 66.735 44.5075 67.3373 42.6204C67.9395 40.7334 66.7484 37.1868 66.7484 37.1868C66.7484 37.1868 74.8454 42.152 87.0109 39.9437Z" fill="#000038"/>
<path d="M67.2439 44.4137C67.2439 44.4137 66.5613 41.6433 64.246 42.5802C60.9537 43.9185 62.4259 49.7403 66.5881 48.8436C68.1406 48.509 68.2744 45.4844 67.2439 44.4137Z" fill="#F4D8D5"/>
<path d="M63.6568 61.1831C61.8101 61.4014 59.9869 61.7867 58.2097 62.3341L58.6514 72.0504C58.6514 72.0504 62.1043 89.3686 61.9437 91.3627C61.9437 93.6111 58.2097 113.004 58.2097 113.004C60.1057 113.5 62.0476 113.8 64.0048 113.9C64.0048 113.9 63.8843 103.716 64.7542 99.7006C65.2671 97.2441 65.6335 94.7594 65.8516 92.2594C65.8516 92.2594 66.5877 87.8563 65.8516 85.6614C65.1155 83.4665 66.0657 75.6104 66.6948 74.1383C67.3238 72.6661 64.8078 61.2902 63.6568 61.1831Z" fill="#AF008F"/>
<path d="M66.6413 44.7216C66.6413 44.1863 66.1997 43.0085 65.0755 43.2628C64.5396 43.422 64.0816 43.7741 63.7899 44.2511C63.4983 44.7281 63.3937 45.2962 63.4963 45.8458C63.6836 46.9165 64.326 48.0273 64.8346 47.7864C65.3432 47.5455 64.3796 46.4481 64.4732 45.8057C64.5669 45.1633 65.1826 44.5476 65.5841 44.8822C65.9856 45.2168 66.561 45.2034 66.6413 44.7216Z" fill="#DBB5BF"/>
<path d="M59.468 62.0799C62.961 62.6822 64.3529 65.5061 63.3358 68.9724C62.3187 72.4387 54.2217 92.8618 53.2982 93.7719C52.3748 94.682 44.9068 100.464 44.9871 93.5443C45.0942 85.1128 52.4149 66.5901 53.4052 64.9574C54.103 64.0181 55.0208 63.2645 56.0778 62.7628C57.1349 62.2611 58.2991 62.0266 59.468 62.0799Z" fill="#F4D8D5"/>
<path d="M64.9684 48.8437C65.1692 53.0461 61.462 63.4317 69.4385 66.7508C69.4385 66.7508 59.6819 72.238 51.4779 68.156C51.4779 68.156 54.4222 51.1189 54.7301 49.7003C55.0379 48.2817 64.9684 48.8437 64.9684 48.8437Z" fill="#000038"/>
<path d="M79.5296 49.272C79.5296 49.272 77.8968 49.9545 77.3748 49.7805C76.8529 49.6066 77.6693 50.7843 78.2849 50.4899C78.7754 50.1692 79.1983 49.7554 79.5296 49.272Z" fill="#DBB5BF"/>
<path d="M51.2371 98.8175C56.3496 97.9609 67.0698 96.3951 79.5565 94.16C79.412 92.5752 79.0097 91.0246 78.3653 89.5695C78.3653 89.5695 54.3956 89.0877 50.4207 89.3554C47.7441 89.5427 43.9298 92.6477 45.2682 95.6991C45.7824 96.8024 46.6457 97.7056 47.7245 98.2692C48.8034 98.8329 50.0378 99.0255 51.2371 98.8175Z" fill="#F4D8D5"/>
<path d="M114.367 70.0831C114.367 70.0831 90.5041 63.3914 88.7108 61.8523C88.7108 61.8523 87.9613 66.1484 88.5234 78.4076C89.0855 90.6668 112.881 87.5485 112.881 87.5485L114.367 70.0831Z" fill="white"/>
<path d="M116.147 70.4579C116.147 70.4579 124.257 61.8523 125.515 60.7549L126.264 69.7084L116.147 70.4579Z" fill="white"/>
<path d="M114.139 71.4751L116.95 68.3166L123.682 60.7683L124.94 65.6131L114.139 71.4751Z" fill="white"/>
<path d="M115.504 69.1196C115.504 69.1196 96.9015 62.3476 93.0604 60.1794C91.8559 61.4449 90.9664 62.9762 90.464 64.6495C89.6343 67.4466 108.532 73.2283 108.532 73.2283L115.504 69.1196Z" fill="white"/>
<path d="M85.298 66.8577L88.6572 102.645C88.6845 102.887 88.7913 103.113 88.9609 103.287C89.1305 103.461 89.3532 103.575 89.5941 103.609L112.346 106.58L114.394 68.6645L86.4891 65.6934C86.3305 65.6747 86.1697 65.6917 86.0185 65.7433C85.8674 65.7948 85.7296 65.8795 85.6154 65.9911C85.5012 66.1027 85.4135 66.2385 85.3585 66.3884C85.3036 66.5384 85.2829 66.6987 85.298 66.8577Z" fill="#93B1FB"/>
<path d="M114.38 68.6646L112.333 106.58H115.504L117.351 68.6646H114.38Z" fill="#506AED"/>
<path d="M117.338 68.6646L127.563 61.9729C127.64 61.9219 127.729 61.8928 127.821 61.8887C127.913 61.8846 128.005 61.9057 128.086 61.9497C128.167 61.9937 128.235 62.059 128.282 62.1385C128.329 62.2181 128.353 62.3089 128.352 62.4012L127.415 98.9781C127.398 99.405 127.264 99.8189 127.028 100.175C126.792 100.531 126.463 100.816 126.077 100.999L115.437 106.607L117.338 68.6646Z" fill="#93B1FB"/>
<path d="M85.298 68.2764L88.6572 104.064C88.6845 104.305 88.7913 104.531 88.9609 104.706C89.1305 104.88 89.3532 104.993 89.5941 105.027L112.346 107.998L114.394 70.0832L86.4891 67.1121C86.3305 67.0934 86.1697 67.1104 86.0185 67.162C85.8674 67.2135 85.7296 67.2982 85.6154 67.4098C85.5012 67.5214 85.4135 67.6572 85.3585 67.8072C85.3036 67.9571 85.2829 68.1174 85.298 68.2764Z" fill="#C1D5FC"/>
<path d="M114.38 70.0833L112.333 107.999H115.504L117.351 70.0833H114.38Z" fill="#5B85F7"/>
<path d="M117.338 70.0831L127.563 63.3914C127.64 63.3403 127.729 63.3112 127.821 63.3071C127.913 63.3031 128.005 63.3241 128.086 63.3682C128.167 63.4122 128.235 63.4774 128.282 63.557C128.329 63.6365 128.353 63.7273 128.352 63.8196L127.415 100.397C127.396 100.825 127.261 101.24 127.026 101.598C126.79 101.956 126.462 102.243 126.077 102.431L115.437 108.025L117.338 70.0831Z" fill="#C1D5FC"/>
<path d="M89.8081 76.1994V72.1843L90.6111 72.278V75.6105L92.6186 75.8112V76.4938L89.8081 76.1994Z" fill="#5B85F7"/>
<path d="M93.1272 74.5667C93.1119 74.2221 93.176 73.8787 93.3146 73.5629C93.4024 73.3724 93.525 73.1999 93.676 73.0543C93.8272 72.9173 94.0048 72.8125 94.198 72.7465C94.4763 72.668 94.7673 72.6453 95.0544 72.6796C95.5984 72.7236 96.1054 72.9723 96.4731 73.3755C96.8392 73.8184 97.0298 74.3805 97.0085 74.9548C97.0262 75.2219 96.9877 75.4897 96.8955 75.7409C96.8033 75.9922 96.6594 76.2214 96.4731 76.4136C96.285 76.5833 96.0606 76.7077 95.8171 76.7773C95.5735 76.8469 95.3172 76.8598 95.0678 76.8151C94.5232 76.7738 94.0152 76.5246 93.6492 76.1191C93.2885 75.6844 93.1025 75.131 93.1272 74.5667ZM93.957 74.5667C93.9363 74.9439 94.0449 75.3168 94.2649 75.624C94.3626 75.7462 94.4842 75.8472 94.6222 75.9208C94.7603 75.9944 94.9119 76.0392 95.0678 76.0522C95.2102 76.0754 95.3561 76.0645 95.4933 76.0203C95.6306 75.9761 95.7554 75.8999 95.8575 75.798C96.0855 75.5103 96.1956 75.1466 96.1653 74.7808C96.1899 74.4052 96.0861 74.0323 95.8709 73.7235C95.773 73.6025 95.6511 73.5032 95.5129 73.4318C95.3746 73.3604 95.2231 73.3184 95.0678 73.3086C94.9234 73.2843 94.7753 73.2947 94.6356 73.3389C94.496 73.3831 94.369 73.4599 94.2649 73.5629C94.1397 73.7088 94.0474 73.8799 93.9942 74.0647C93.9411 74.2495 93.9284 74.4435 93.957 74.6336V74.5667Z" fill="#5B85F7"/>
<path d="M97.8516 77.0426V73.0276L99.5513 73.2149C99.8682 73.2292 100.18 73.2971 100.475 73.4157C100.672 73.5056 100.836 73.6555 100.943 73.844C101.061 74.0419 101.122 74.2692 101.117 74.4998C101.125 74.6302 101.106 74.7609 101.059 74.8832C101.013 75.0054 100.942 75.1165 100.849 75.2091C100.631 75.3987 100.349 75.499 100.06 75.4901C100.222 75.602 100.37 75.7322 100.501 75.8783C100.671 76.0978 100.824 76.3305 100.957 76.5742L101.438 77.404L100.475 77.2969L99.8992 76.3734C99.7712 76.1541 99.6282 75.9439 99.471 75.7444C99.4047 75.6623 99.3227 75.5941 99.23 75.5437C99.1011 75.4965 98.9657 75.4694 98.8285 75.4634H98.6545V77.1363L97.8516 77.0426ZM98.6545 74.821H99.2568C99.4971 74.8444 99.7392 74.8444 99.9795 74.821C100.069 74.7961 100.148 74.7448 100.207 74.6737C100.263 74.5861 100.291 74.4833 100.287 74.3793C100.291 74.2587 100.254 74.1405 100.18 74.0447C100.106 73.9448 99.9955 73.8776 99.8725 73.8574L99.2836 73.7771L98.6545 73.7101V74.821Z" fill="#5B85F7"/>
<path d="M102.094 77.4843V73.4692L105.065 73.7771V74.4462L102.91 74.2187V75.1154L104.905 75.3162V75.9987L102.91 75.7846V76.9489L105.132 77.1898V77.859L102.094 77.4843Z" fill="#5B85F7"/>
<path d="M106.015 77.8991V73.884L107.233 74.0179L107.956 76.815L108.665 74.1383L109.883 74.2722V78.2872L109.134 78.2069V75.0752L108.331 78.14L107.555 78.0597L106.765 74.8343V77.9794L106.015 77.8991Z" fill="#5B85F7"/>
<path d="M92.953 93.1561C94.1709 93.0089 94.7464 92.1256 94.0371 91.5501C94.8401 90.988 94.4386 90.2118 93.7694 89.7969C93.8172 89.6272 93.8272 89.4491 93.7987 89.2751C93.7701 89.1011 93.7037 88.9355 93.6042 88.79C93.5046 88.6445 93.3743 88.5226 93.2224 88.4329C93.0706 88.3433 92.901 88.2881 92.7255 88.2712C91.5421 88.0527 90.3244 88.1076 89.1655 88.4318C87.4713 88.8962 85.7136 89.0859 83.9593 88.9939C82.621 87.7894 86.636 87.5618 86.7832 86.8525C87.0375 85.9291 85.8732 85.6346 85.0033 85.5142C83.6098 85.4839 82.2271 85.765 80.956 86.3368C79.6849 86.9087 78.5574 87.757 77.6557 88.8199C76.0096 90.64 77.6558 93.1695 78.5257 93.5175C80.0246 95.2975 87.2383 96.1942 90.9321 95.1904C92.846 94.722 94.3984 94.0662 92.953 93.1561Z" fill="#F4D8D5"/>
<path d="M130.079 84.8852C130.022 84.797 129.949 84.72 129.865 84.6577C130.004 84.5105 130.113 84.3378 130.186 84.1491C130.278 83.7194 130.206 83.2708 129.985 82.891C130.193 82.6066 130.313 82.2681 130.332 81.9165C130.351 81.565 130.268 81.2154 130.092 80.9103C130.149 80.6985 130.152 80.4761 130.103 80.2626C130.053 80.0491 129.952 79.851 129.808 79.6858C129.664 79.5206 129.481 79.3933 129.277 79.3151C129.072 79.2369 128.851 79.2102 128.633 79.2373C128.449 79.2481 128.272 79.3195 128.132 79.4405C127.992 79.5614 127.895 79.7252 127.857 79.9065C126.733 80.2679 124.98 80.6426 124.444 81.9943C124.257 82.4761 124.525 83.1989 125.02 83.1989H125.368C124.904 83.5284 124.557 83.9972 124.378 84.5372C124.177 85.1127 124.565 85.8755 125.154 85.7283C125.737 85.5668 126.306 85.3563 126.853 85.0993L126.198 85.6079C125.462 86.2235 126.198 87.428 126.934 87.0934L127.482 86.9061C127.161 87.6154 127.924 88.579 128.607 87.9634C129.289 87.3477 130.802 86.0763 130.079 84.8852Z" fill="#F4D8D5"/>
<path d="M60.4047 32.9977C60.4047 32.9977 63.8977 34.7242 71.3121 32.9977C79.5296 31.1241 81.1891 28.6883 81.1891 28.6883L79.7304 22.1839L78.5124 16.7502L57.9287 20.8991L59.0931 26.5202L60.4047 32.9977Z" fill="#506AED"/>
<path d="M70.1611 26.6271L48.1722 24.4189L47.8108 22.8798L49.6176 22.7995L66.3201 12.8154L86.5023 15.0505L87.6399 14.5285L88.0147 16.0676L70.1611 26.6271Z" fill="#000038"/>
<path opacity="0.2" d="M59.508 28.5945L70.8839 29.7321L80.1586 24.2583L78.5125 16.8037L57.9421 20.9392L59.508 28.5945Z" fill="#000038"/>
<path d="M65.9453 11.2764L47.8108 22.8798L69.7864 25.0881L87.6399 14.5285L65.9453 11.2764Z" fill="#7A97FA"/>
<path d="M52.5997 24.4494L51.125 34.3645L52.1178 34.5122L53.5926 24.5971L52.5997 24.4494Z" fill="#000038"/>
<path d="M51.1032 37.7756C51.2243 37.7843 51.3443 37.7482 51.4405 37.6742C51.5368 37.6001 51.6025 37.4933 51.6252 37.374L51.9196 35.942L53.017 37.1599C53.112 37.2523 53.2392 37.304 53.3717 37.304C53.5042 37.304 53.6313 37.2523 53.7263 37.1599C53.8156 37.0634 53.8653 36.9368 53.8653 36.8053C53.8653 36.6738 53.8156 36.5471 53.7263 36.4506L51.9597 34.4966C51.8997 34.4276 51.8212 34.3771 51.7335 34.351C51.6458 34.3249 51.5525 34.3244 51.4645 34.3494C51.3744 34.3746 51.293 34.4242 51.2292 34.4927C51.1655 34.5611 51.1219 34.6458 51.1032 34.7375L50.608 37.1332C50.5924 37.1975 50.5901 37.2643 50.6015 37.3295C50.6128 37.3947 50.6374 37.4568 50.6738 37.5121C50.7103 37.5673 50.7577 37.6145 50.8131 37.6506C50.8686 37.6867 50.9308 37.711 50.9961 37.722L51.1032 37.7756Z" fill="#000038"/>
<path d="M49.524 36.9458C49.6447 36.951 49.7633 36.913 49.8586 36.8387L51.933 35.2728C51.986 35.2344 52.0309 35.1859 52.065 35.13C52.0991 35.0741 52.1218 35.012 52.1317 34.9472C52.1417 34.8825 52.1387 34.8165 52.123 34.7529C52.1073 34.6893 52.0791 34.6295 52.0401 34.5769C51.96 34.469 51.8404 34.3971 51.7075 34.377C51.5745 34.357 51.4391 34.3904 51.3307 34.4699L49.2563 36.0357C49.2024 36.0752 49.157 36.1252 49.1229 36.1827C49.0888 36.2403 49.0667 36.3041 49.058 36.3704C49.0492 36.4367 49.054 36.504 49.0719 36.5684C49.0899 36.6328 49.1208 36.6929 49.1626 36.745C49.2042 36.8032 49.2582 36.8514 49.3207 36.8861C49.3832 36.9209 49.4526 36.9412 49.524 36.9458Z" fill="#000038"/>
<path d="M50.5009 34.3762C50.5248 34.0897 50.6602 33.824 50.878 33.6363C51.0957 33.4486 51.3784 33.3539 51.6652 33.3724C51.8084 33.3808 51.9484 33.4179 52.0769 33.4814C52.2055 33.5449 52.32 33.6336 52.4136 33.7422C52.5072 33.8507 52.578 33.977 52.6219 34.1135C52.6658 34.25 52.6818 34.3939 52.669 34.5368C52.6477 34.8243 52.5131 35.0915 52.2947 35.2798C52.0764 35.468 51.7922 35.5618 51.5047 35.5405C51.2171 35.5192 50.9499 35.3846 50.7616 35.1662C50.5734 34.9479 50.4796 34.6637 50.5009 34.3762Z" fill="#506AED"/>
<defs>
<linearGradient id="paint0_linear_368_834" x1="158.827" y1="192.193" x2="101.251" y2="192.193" gradientUnits="userSpaceOnUse">
<stop stop-color="#4E74F9"/>
<stop offset="1" stop-color="#AE2BB6"/>
</linearGradient>
<linearGradient id="paint1_linear_368_834" x1="158.827" y1="208.04" x2="101.251" y2="208.04" gradientUnits="userSpaceOnUse">
<stop stop-color="#4E74F9"/>
<stop offset="1" stop-color="#AE2BB6"/>
</linearGradient>
<linearGradient id="paint2_linear_368_834" x1="103.794" y1="200.116" x2="34.0526" y2="200.116" gradientUnits="userSpaceOnUse">
<stop stop-color="#DB006F"/>
<stop offset="1" stop-color="#AE2BB6"/>
</linearGradient>
<linearGradient id="paint3_linear_368_834" x1="195.952" y1="146.154" x2="204.919" y2="146.154" gradientUnits="userSpaceOnUse">
<stop stop-color="#AE2BB6"/>
<stop offset="1" stop-color="#DB006F"/>
</linearGradient>
<linearGradient id="paint4_linear_368_834" x1="169.299" y1="159.591" x2="180.929" y2="161.22" gradientUnits="userSpaceOnUse">
<stop stop-color="#AE2BB6"/>
<stop offset="1" stop-color="#DB006F"/>
</linearGradient>
<linearGradient id="paint5_linear_368_834" x1="142.927" y1="175.397" x2="118.917" y2="175.397" gradientUnits="userSpaceOnUse">
<stop stop-color="#DB006F"/>
<stop offset="1" stop-color="#AE2BB6"/>
</linearGradient>
<linearGradient id="paint6_linear_368_834" x1="146.479" y1="184.299" x2="121.934" y2="182.826" gradientUnits="userSpaceOnUse">
<stop stop-color="#DB006F"/>
<stop offset="1" stop-color="#AE2BB6"/>
</linearGradient>
<linearGradient id="paint7_linear_368_834" x1="55.0779" y1="87.2541" x2="93.5418" y2="87.2541" gradientUnits="userSpaceOnUse">
<stop stop-color="#AE2BB6"/>
<stop offset="1" stop-color="#DB006F"/>
</linearGradient>
</defs>
</svg>
