<svg width="304" height="227" viewBox="0 0 304 227" fill="none" xmlns="http://www.w3.org/2000/svg">
<path d="M128.288 221.395C189.047 233.558 242.302 219.776 271.626 195.349C283.691 185.279 295.914 169.818 300.396 151.908C316.667 86.745 268.683 32.8181 231.442 53.1764C170.643 86.3106 161.58 62.7731 111.997 12.4597C74.4791 -25.5321 -44.3538 27.6643 17.5507 139.507C28.9619 160.374 44.7777 178.507 63.9002 192.647C83.0226 206.788 104.994 216.597 128.288 221.395Z" fill="#F3F3F3"/>
<path d="M205.269 132.21H171.506C171.184 132.211 170.865 132.28 170.571 132.412C170.277 132.544 170.014 132.736 169.799 132.976L166.66 136.477L169.206 138.719V205.002C169.206 205.623 169.453 206.219 169.893 206.659C170.332 207.098 170.928 207.345 171.55 207.345L203.476 207.475L203.765 208.502L206.195 207.316L206.456 207.186C206.801 206.978 207.087 206.686 207.287 206.337C207.487 205.987 207.594 205.592 207.598 205.19V134.597C207.602 134.287 207.545 133.98 207.43 133.692C207.315 133.404 207.145 133.142 206.928 132.921C206.712 132.699 206.454 132.522 206.17 132.4C205.885 132.278 205.579 132.213 205.269 132.21Z" fill="#9FB8FC"/>
<path d="M202.072 135.769H168.309C167.015 135.769 165.966 136.818 165.966 138.112V206.868C165.966 208.162 167.015 209.211 168.309 209.211H202.072C203.367 209.211 204.416 208.162 204.416 206.868V138.112C204.416 136.818 203.367 135.769 202.072 135.769Z" fill="white"/>
<path d="M277.266 60.3293H98.671C96.3723 60.33 94.1634 61.2218 92.5086 62.8174L85.782 68.6905L89.7022 70.9906V166.696C89.7022 169.075 90.6471 171.356 92.3291 173.038C94.0111 174.72 96.2923 175.665 98.671 175.665H272.261V175.839L277.772 178.327L283.124 173.524C284.127 172.69 284.934 171.647 285.488 170.467C286.043 169.287 286.333 168 286.336 166.696V69.2691C286.33 68.0857 286.091 66.9152 285.631 65.8246C285.172 64.734 284.502 63.7449 283.659 62.9142C282.816 62.0835 281.817 61.4275 280.72 60.9839C279.623 60.5403 278.449 60.3178 277.266 60.3293Z" fill="#9FB8FC"/>
<path d="M270.858 66.0288H92.3062C87.3529 66.0288 83.3374 70.0443 83.3374 74.9976V172.396C83.3374 177.349 87.3529 181.365 92.3062 181.365H270.858C275.811 181.365 279.826 177.349 279.826 172.396V74.9976C279.826 70.0443 275.811 66.0288 270.858 66.0288Z" fill="white"/>
<path d="M265.418 71.7283H97.7597C93.2058 71.7283 89.5142 75.4199 89.5142 79.9738V167.434C89.5142 171.988 93.2058 175.679 97.7597 175.679H265.418C269.972 175.679 273.664 171.988 273.664 167.434V79.9738C273.664 75.4199 269.972 71.7283 265.418 71.7283Z" fill="#9FB8FC"/>
<path d="M233.333 205.899H142.618C141.324 205.899 140.275 206.948 140.275 208.242V212.813C140.275 214.108 141.324 215.157 142.618 215.157H233.333C234.627 215.157 235.676 214.108 235.676 212.813V208.242C235.676 206.948 234.627 205.899 233.333 205.899Z" fill="#7A97FA"/>
<path d="M229.196 205.899H138.481C137.187 205.899 136.137 206.948 136.137 208.242V212.813C136.137 214.108 137.187 215.157 138.481 215.157H229.196C230.49 215.157 231.539 214.108 231.539 212.813V208.242C231.539 206.948 230.49 205.899 229.196 205.899Z" fill="#9FB8FC"/>
<path d="M104.472 117.86L241.289 117.86V109.831L104.472 109.831V117.86Z" fill="#6A85FA"/>
<path d="M241.289 117.86H262.12V109.831H241.289V117.86Z" fill="#3D51C6"/>
<path d="M208.264 109.817H226.737C227.152 109.817 227.489 109.48 227.489 109.064V82.3172C227.489 81.9018 227.152 81.5649 226.737 81.5649H208.264C207.848 81.5649 207.512 81.9018 207.512 82.3172V109.064C207.512 109.48 207.848 109.817 208.264 109.817Z" fill="#9F008B"/>
<path d="M208.611 109.224C210.493 108.457 212.601 108.457 214.484 109.224V82.1726C212.601 82.9396 210.493 82.9396 208.611 82.1726V109.224Z" fill="white"/>
<path d="M215.251 109.817H233.724C234.139 109.817 234.476 109.48 234.476 109.064V81.4926C234.476 81.0772 234.139 80.7404 233.724 80.7404H215.251C214.835 80.7404 214.499 81.0772 214.499 81.4926V109.064C214.499 109.48 214.835 109.817 215.251 109.817Z" fill="url(#paint0_linear_368_474)"/>
<path d="M213.037 107.661H213.385V83.2142H213.037V107.661Z" fill="#D1E1FD"/>
<path d="M211.938 107.155H212.285V83.7204H211.938V107.155Z" fill="#D1E1FD"/>
<path d="M210.853 107.155H211.2V83.7204H210.853V107.155Z" fill="#D1E1FD"/>
<path d="M209.754 107.661H210.101V83.2142H209.754V107.661Z" fill="#D1E1FD"/>
<path d="M217.942 87.7563V85.1814H218.462V87.279H219.75V87.7129L217.942 87.7563Z" fill="white"/>
<path d="M220.386 86.498C220.383 86.2709 220.422 86.0452 220.502 85.8325C220.562 85.7028 220.645 85.5851 220.748 85.4853C220.843 85.3874 220.956 85.3088 221.081 85.2539C221.258 85.1969 221.444 85.1724 221.63 85.1816C221.796 85.1745 221.961 85.2017 222.115 85.2614C222.269 85.3212 222.41 85.4122 222.527 85.5287C222.764 85.7997 222.883 86.1534 222.86 86.5124C222.872 86.688 222.849 86.8642 222.792 87.0307C222.735 87.1972 222.645 87.3505 222.527 87.4816C222.282 87.7053 221.962 87.8292 221.63 87.8292C221.298 87.8292 220.979 87.7053 220.733 87.4816C220.61 87.351 220.516 87.1959 220.456 87.0265C220.396 86.8571 220.372 86.6771 220.386 86.498ZM220.921 86.498C220.906 86.737 220.978 86.9736 221.124 87.1634C221.189 87.2326 221.267 87.2877 221.354 87.3254C221.442 87.3631 221.535 87.3826 221.63 87.3826C221.725 87.3826 221.819 87.3631 221.906 87.3254C221.993 87.2877 222.072 87.2326 222.137 87.1634C222.283 86.9736 222.355 86.737 222.339 86.498C222.355 86.2633 222.283 86.031 222.137 85.847C222.072 85.7778 221.993 85.7227 221.906 85.685C221.819 85.6473 221.725 85.6278 221.63 85.6278C221.535 85.6278 221.442 85.6473 221.354 85.685C221.267 85.7227 221.189 85.7778 221.124 85.847C220.984 86.0234 220.912 86.2441 220.921 86.469V86.498Z" fill="white"/>
<path d="M223.728 87.7564V85.1815H224.813C225.013 85.1733 225.213 85.1977 225.406 85.2538C225.533 85.2969 225.641 85.3842 225.71 85.4997C225.782 85.6222 225.817 85.7628 225.811 85.9048C225.821 86.0784 225.764 86.2492 225.652 86.3821C225.513 86.5128 225.335 86.5941 225.146 86.6136C225.251 86.6658 225.345 86.7397 225.42 86.8306C225.53 86.9557 225.627 87.0913 225.71 87.2356L226.028 87.7419H225.406L225.03 87.1778L224.769 86.8016C224.723 86.7579 224.669 86.7235 224.61 86.7004H224.35H224.249V87.7709L223.728 87.7564ZM224.249 86.3098H224.625C224.779 86.3241 224.934 86.3241 225.088 86.3098C225.147 86.2881 225.198 86.2475 225.232 86.1941C225.256 86.1336 225.256 86.0665 225.232 86.006C225.235 85.9317 225.209 85.8592 225.16 85.8035C225.112 85.7481 225.045 85.7121 224.972 85.7022H224.191L224.249 86.3098Z" fill="white"/>
<path d="M226.766 87.7563V85.1814H228.661V85.6154H227.214V86.1795H228.501V86.6135H227.214V87.3079H228.661V87.7418L226.766 87.7563Z" fill="white"/>
<path d="M229.601 87.7563V85.1814H230.31L230.773 86.9317L231.235 85.1814H232.002V87.7418H231.525V85.7311L231.018 87.7418H230.527L230.02 85.7311V87.7418L229.601 87.7563Z" fill="white"/>
<path d="M218.737 92.0383V89.5212H219.258V92.0817L218.737 92.0383Z" fill="white"/>
<path d="M220.184 92.0384V89.5214H221.008C221.21 89.4984 221.414 89.4984 221.616 89.5214C221.689 89.5362 221.759 89.5656 221.821 89.6078C221.883 89.6501 221.936 89.7043 221.977 89.7673C222.086 89.9079 222.142 90.0817 222.136 90.2591C222.14 90.3991 222.11 90.538 222.05 90.6642C221.997 90.7617 221.923 90.8458 221.833 90.9101C221.751 90.9689 221.657 91.0085 221.558 91.0258C221.38 91.0453 221.2 91.0453 221.023 91.0258H220.69V91.995L220.184 92.0384ZM220.69 89.9119V90.6352H220.979C221.113 90.6576 221.25 90.6576 221.384 90.6352C221.448 90.6136 221.503 90.5732 221.543 90.5195C221.564 90.4536 221.564 90.3828 221.543 90.317C221.546 90.2744 221.54 90.2319 221.525 90.192C221.51 90.1521 221.486 90.1159 221.457 90.0855C221.406 90.0227 221.334 89.9813 221.254 89.9698H220.632L220.69 89.9119Z" fill="white"/>
<path d="M222.845 91.1992H223.352C223.366 91.3394 223.433 91.4688 223.54 91.5608C223.643 91.6523 223.778 91.6991 223.916 91.691C224.051 91.6976 224.184 91.6566 224.292 91.5753C224.327 91.5448 224.356 91.5071 224.376 91.4647C224.396 91.4223 224.407 91.3762 224.408 91.3294C224.422 91.2823 224.422 91.2318 224.408 91.1847C224.355 91.1315 224.291 91.0918 224.22 91.069L223.8 90.9533C223.59 90.921 223.391 90.8364 223.221 90.7074C223.147 90.6431 223.087 90.5631 223.047 90.473C223.007 90.3829 222.988 90.2851 222.99 90.1866C222.986 90.0563 223.027 89.9285 223.106 89.8249C223.18 89.7053 223.292 89.6137 223.424 89.5646C223.58 89.5027 223.748 89.4731 223.916 89.4778C224.175 89.4585 224.433 89.5357 224.639 89.6947C224.72 89.7648 224.785 89.8514 224.83 89.9487C224.875 90.046 224.899 90.1518 224.899 90.2589H224.379C224.378 90.203 224.364 90.148 224.339 90.0979C224.314 90.0479 224.278 90.004 224.234 89.9696C224.137 89.9169 224.027 89.8919 223.916 89.8973C223.794 89.8888 223.672 89.9192 223.569 89.9841C223.542 90.0011 223.52 90.0246 223.505 90.0525C223.49 90.0803 223.482 90.1115 223.482 90.1432C223.484 90.2036 223.51 90.2608 223.554 90.3023C223.706 90.376 223.866 90.4295 224.032 90.4614C224.221 90.5034 224.406 90.5665 224.581 90.6495C224.702 90.7039 224.804 90.795 224.871 90.9099C224.943 91.0323 224.978 91.173 224.972 91.3149C224.969 91.4623 224.93 91.6067 224.856 91.7344C224.768 91.856 224.648 91.951 224.509 92.0093C224.331 92.0841 224.138 92.1186 223.945 92.1105C223.679 92.1227 223.418 92.0407 223.207 91.8791C223.105 91.7954 223.02 91.6921 222.958 91.5754C222.896 91.4587 222.858 91.3308 222.845 91.1992Z" fill="white"/>
<path d="M225.782 89.5212H226.303V90.9678C226.292 91.1074 226.292 91.2477 226.303 91.3873C226.321 91.491 226.378 91.584 226.462 91.6477C226.561 91.7106 226.677 91.7409 226.795 91.7345C226.912 91.743 227.029 91.7125 227.127 91.6477C227.196 91.5913 227.246 91.5158 227.272 91.4307C227.281 91.2862 227.281 91.1412 227.272 90.9967V89.5502H227.793V90.8955C227.814 91.112 227.814 91.33 227.793 91.5464C227.763 91.6628 227.709 91.7715 227.634 91.8647C227.553 91.9592 227.448 92.0294 227.33 92.0672C227.174 92.1316 227.006 92.1612 226.838 92.154C226.651 92.1609 226.464 92.1315 226.288 92.0672C226.174 92.0156 226.07 91.9418 225.985 91.8502C225.918 91.766 225.873 91.6666 225.854 91.5609C225.826 91.3449 225.826 91.126 225.854 90.9099L225.782 89.5212Z" fill="white"/>
<path d="M228.863 92.0383V89.5212H229.63L230.093 91.2572L230.556 89.5212H231.322V92.0817H230.845V90.0709L230.339 92.0817H229.847L229.34 90.0709V92.0817L228.863 92.0383Z" fill="white"/>
<path d="M223.265 109.831H241.738C242.153 109.831 242.49 109.495 242.49 109.079V86.0495C242.49 85.6341 242.153 85.2973 241.738 85.2973H223.265C222.85 85.2973 222.513 85.6341 222.513 86.0495V109.079C222.513 109.495 222.85 109.831 223.265 109.831Z" fill="#BED3FC"/>
<path d="M223.627 109.224C225.509 108.457 227.617 108.457 229.5 109.224V85.8904C227.617 86.6574 225.509 86.6574 223.627 85.8904V109.224Z" fill="white"/>
<path d="M230.266 109.831H248.739C249.154 109.831 249.491 109.495 249.491 109.079V85.225C249.491 84.8095 249.154 84.4728 248.739 84.4728H230.266C229.851 84.4728 229.514 84.8095 229.514 85.225V109.079C229.514 109.495 229.851 109.831 230.266 109.831Z" fill="#BED3FC"/>
<path d="M228.039 107.661H228.386V86.9319H228.039V107.661Z" fill="#D1E1FD"/>
<path d="M226.939 107.169H227.286V87.4381H226.939V107.169Z" fill="#D1E1FD"/>
<path d="M225.854 107.169H226.202V87.4381H225.854V107.169Z" fill="#D1E1FD"/>
<path d="M224.755 107.661H225.102V86.9319H224.755V107.661Z" fill="#D1E1FD"/>
<path d="M232.957 91.4597V88.9282H233.463V91.0402H234.751V91.4597H232.957Z" fill="#516AD6"/>
<path d="M235.402 90.2012C235.39 89.9782 235.429 89.7554 235.518 89.5502C235.572 89.4211 235.651 89.3034 235.749 89.2031C235.843 89.104 235.956 89.0252 236.082 88.9716C236.256 88.8993 236.443 88.8648 236.631 88.8703C236.797 88.8615 236.962 88.8878 237.117 88.9477C237.272 89.0075 237.412 89.0995 237.528 89.2175C237.648 89.3479 237.74 89.5008 237.799 89.6672C237.859 89.8336 237.885 90.0102 237.875 90.1867C237.895 90.5408 237.776 90.8886 237.543 91.156C237.423 91.2729 237.28 91.364 237.123 91.4237C236.966 91.4834 236.799 91.5105 236.631 91.5031C236.466 91.512 236.3 91.4856 236.146 91.4258C235.991 91.3659 235.851 91.274 235.735 91.156C235.617 91.0275 235.528 90.8767 235.471 90.7126C235.413 90.5485 235.39 90.3746 235.402 90.2012ZM235.923 90.2012C235.909 90.44 235.981 90.6757 236.125 90.8666C236.188 90.9376 236.267 90.9938 236.354 91.0313C236.442 91.0688 236.536 91.0866 236.631 91.0836C236.727 91.0877 236.822 91.0703 236.909 91.0327C236.997 90.9952 237.075 90.9384 237.138 90.8666C237.282 90.6757 237.353 90.44 237.34 90.2012C237.361 89.9638 237.295 89.7269 237.152 89.5358C237.087 89.4637 237.006 89.4069 236.916 89.3694C236.826 89.3319 236.729 89.3146 236.631 89.3188C236.536 89.3157 236.442 89.3336 236.354 89.3711C236.267 89.4086 236.188 89.4648 236.125 89.5358C235.984 89.7228 235.913 89.9529 235.923 90.1867V90.2012Z" fill="#516AD6"/>
<path d="M238.743 91.4597V88.9137H239.828C240.028 88.9077 240.228 88.9321 240.421 88.9861C240.545 89.0287 240.649 89.1165 240.711 89.232C240.786 89.3484 240.826 89.484 240.826 89.6226C240.831 89.7097 240.818 89.7969 240.788 89.8789C240.758 89.9609 240.712 90.0361 240.653 90.0999C240.517 90.2378 240.339 90.3246 240.146 90.3459C240.249 90.3978 240.341 90.4662 240.421 90.5484C240.531 90.6817 240.633 90.8218 240.725 90.9679L241.029 91.4597H240.436L240.06 90.91C239.975 90.7798 239.883 90.6543 239.785 90.5339C239.741 90.4872 239.686 90.4524 239.626 90.4327C239.54 90.4138 239.451 90.4138 239.365 90.4327H239.264V91.4886L238.743 91.4597ZM239.25 90.0131H239.64C239.789 90.0388 239.94 90.0388 240.089 90.0131C240.151 89.9971 240.207 89.9617 240.248 89.9119C240.262 89.8501 240.262 89.7857 240.248 89.7239C240.248 89.6456 240.222 89.5694 240.175 89.5068C240.126 89.4533 240.059 89.4178 239.987 89.4056H239.206L239.25 90.0131Z" fill="#516AD6"/>
<path d="M241.767 91.4598V88.9138H243.662V89.3478H242.287V89.912H243.56V90.346H242.287V91.0403H243.734V91.4598H241.767Z" fill="#516AD6"/>
<path d="M244.602 91.4598V88.9138H245.369L245.832 90.6497L246.295 88.9138H247.061V91.4598H246.584V89.5214L246.078 91.5177H245.586L245.079 89.5214V91.5177L244.602 91.4598Z" fill="#516AD6"/>
<path d="M233.724 95.7415V93.1956H234.23V95.7415H233.724Z" fill="#516AD6"/>
<path d="M235.199 95.7416V93.1957H236.096C236.298 93.1818 236.501 93.1818 236.704 93.1957C236.853 93.2404 236.985 93.3316 237.08 93.456C237.183 93.5985 237.234 93.7722 237.224 93.9479C237.23 94.0834 237.2 94.218 237.138 94.3384C237.09 94.4429 237.015 94.5327 236.921 94.5989C236.843 94.655 236.754 94.6944 236.66 94.7146C236.482 94.7333 236.303 94.7333 236.125 94.7146H235.778V95.6693L235.199 95.7416ZM235.706 93.6296V94.3529H235.995C236.129 94.3753 236.266 94.3753 236.4 94.3529C236.467 94.3305 236.524 94.2841 236.559 94.2227C236.582 94.1572 236.582 94.0857 236.559 94.0202C236.559 93.9419 236.534 93.8658 236.487 93.8032C236.46 93.7705 236.427 93.7434 236.39 93.7236C236.353 93.7037 236.312 93.6914 236.27 93.6875H235.648L235.706 93.6296Z" fill="#516AD6"/>
<path d="M237.861 94.917H238.353C238.37 95.0604 238.436 95.1933 238.541 95.293C238.653 95.3636 238.784 95.4011 238.917 95.4011C239.05 95.4011 239.18 95.3636 239.293 95.293C239.332 95.2646 239.364 95.2277 239.386 95.185C239.409 95.1424 239.421 95.0953 239.423 95.0471C239.437 94.995 239.437 94.9401 239.423 94.888C239.371 94.8368 239.306 94.8016 239.235 94.7868L238.83 94.671C238.616 94.6274 238.414 94.5387 238.237 94.4106C238.113 94.3063 238.033 94.1595 238.011 93.999C237.99 93.8385 238.029 93.6758 238.121 93.5427C238.195 93.4231 238.307 93.3315 238.439 93.2823C238.6 93.2193 238.773 93.1897 238.946 93.1955C239.203 93.1807 239.457 93.252 239.669 93.398C239.748 93.4688 239.811 93.5559 239.854 93.6532C239.896 93.7506 239.917 93.856 239.915 93.9622H239.409C239.394 93.8522 239.343 93.7502 239.264 93.6729C239.166 93.6081 239.049 93.5776 238.931 93.5861C238.807 93.5773 238.684 93.6132 238.584 93.6873C238.555 93.7019 238.531 93.7249 238.516 93.7533C238.5 93.7818 238.494 93.8142 238.497 93.8465C238.479 93.893 238.479 93.9445 238.497 93.9911C238.645 94.0767 238.806 94.1354 238.975 94.1647C239.171 94.2005 239.361 94.2638 239.539 94.3528C239.656 94.4072 239.753 94.4986 239.814 94.6131C239.887 94.7349 239.923 94.8761 239.915 95.0182C239.912 95.1609 239.872 95.3005 239.799 95.4232C239.716 95.553 239.595 95.654 239.452 95.7126C239.276 95.7768 239.089 95.8063 238.902 95.7993C238.634 95.8178 238.367 95.741 238.15 95.5824C237.97 95.4073 237.866 95.1682 237.861 94.917Z" fill="#516AD6"/>
<path d="M240.783 93.1955H241.304V94.5697C241.293 94.7142 241.293 94.8592 241.304 95.0037C241.324 95.1027 241.381 95.1904 241.463 95.2496C241.563 95.3238 241.686 95.3597 241.81 95.3509C241.927 95.3573 242.043 95.3269 242.143 95.2641C242.21 95.2031 242.256 95.1218 242.273 95.0326C242.282 94.8881 242.282 94.7432 242.273 94.5987V93.1521H242.794V94.4829C242.816 94.6993 242.816 94.9175 242.794 95.1339C242.773 95.2535 242.718 95.3643 242.634 95.4522C242.554 95.5434 242.455 95.6172 242.345 95.6691C242.186 95.7198 242.02 95.7442 241.853 95.7414C241.661 95.7503 241.47 95.7208 241.289 95.6547C241.179 95.6027 241.081 95.5289 241 95.4377C240.93 95.3594 240.88 95.265 240.855 95.1628C240.827 94.9468 240.827 94.7279 240.855 94.5119L240.783 93.1955Z" fill="#516AD6"/>
<path d="M243.806 95.7415V93.1956H244.573L245.036 94.9314L245.499 93.1956H246.222V95.7415H245.73V93.7308L245.224 95.7415H244.775L244.269 93.7308V95.7415H243.806Z" fill="#516AD6"/>
<path d="M104.472 167.521L241.289 167.521V159.492L104.472 159.492V167.521Z" fill="#6A85FA"/>
<path d="M241.289 167.521H262.12V159.492H241.289V167.521Z" fill="#3D51C6"/>
<path d="M160.324 159.492H178.797C179.213 159.492 179.549 159.155 179.549 158.74V129.519C179.549 129.104 179.213 128.767 178.797 128.767H160.324C159.909 128.767 159.572 129.104 159.572 129.519V158.74C159.572 159.155 159.909 159.492 160.324 159.492Z" fill="#BED3FC"/>
<path d="M160.729 158.957C163.144 158.19 165.736 158.19 168.15 158.957V129.36C165.736 130.127 163.144 130.127 160.729 129.36V158.957Z" fill="white"/>
<path d="M168.917 159.478H187.39C187.805 159.478 188.142 159.141 188.142 158.726V128.68C188.142 128.265 187.805 127.928 187.39 127.928H168.917C168.501 127.928 168.165 128.265 168.165 128.68V158.726C168.165 159.141 168.501 159.478 168.917 159.478Z" fill="#BED3FC"/>
<path d="M166.544 157.322H167.051V130.401H166.544V157.322Z" fill="#D1E1FD"/>
<path d="M164.982 156.816H165.488V130.908H164.982V156.816Z" fill="#D1E1FD"/>
<path d="M163.42 156.816H163.926V130.908H163.42V156.816Z" fill="#D1E1FD"/>
<path d="M161.857 157.322H162.364V130.401H161.857V157.322Z" fill="#D1E1FD"/>
<path d="M171.608 149.598V147.066H172.128V149.164H173.401V149.598H171.608Z" fill="#516AD6"/>
<path d="M174.052 148.339C174.049 148.112 174.088 147.886 174.168 147.674C174.223 147.545 174.301 147.427 174.399 147.327C174.497 147.232 174.609 147.154 174.732 147.095C174.908 147.03 175.094 146.996 175.282 146.994C175.449 146.987 175.617 147.014 175.773 147.073C175.93 147.133 176.073 147.224 176.193 147.341C176.422 147.616 176.541 147.967 176.526 148.325C176.537 148.678 176.419 149.022 176.193 149.294C176.076 149.41 175.935 149.501 175.781 149.561C175.627 149.621 175.462 149.648 175.296 149.641C175.129 149.648 174.961 149.621 174.805 149.562C174.648 149.502 174.505 149.411 174.385 149.294C174.154 149.031 174.035 148.689 174.052 148.339ZM174.587 148.339C174.568 148.576 174.634 148.813 174.776 149.005C174.842 149.075 174.923 149.131 175.013 149.168C175.103 149.206 175.199 149.224 175.296 149.222C175.391 149.223 175.485 149.204 175.572 149.167C175.66 149.129 175.738 149.074 175.803 149.005C175.944 148.813 176.011 148.576 175.991 148.339C176.011 148.106 175.944 147.874 175.803 147.688C175.753 147.607 175.685 147.537 175.605 147.485C175.525 147.432 175.434 147.398 175.34 147.384C175.242 147.38 175.145 147.398 175.055 147.435C174.965 147.473 174.885 147.529 174.819 147.601C174.734 147.698 174.67 147.81 174.63 147.932C174.59 148.054 174.576 148.183 174.587 148.31V148.339Z" fill="#516AD6"/>
<path d="M177.394 149.598V147.037H178.479C178.679 147.03 178.879 147.055 179.072 147.11C179.193 147.158 179.294 147.244 179.361 147.356C179.438 147.476 179.479 147.617 179.477 147.761C179.482 147.936 179.419 148.106 179.303 148.238C179.172 148.371 178.998 148.454 178.812 148.469C178.915 148.525 179.008 148.599 179.086 148.686C179.191 148.815 179.288 148.95 179.376 149.091L179.68 149.598H179.072L178.696 149.034C178.612 148.903 178.52 148.777 178.421 148.657C178.38 148.614 178.331 148.58 178.276 148.556H178.016H177.9V149.627L177.394 149.598ZM177.9 148.151H178.233C178.387 148.165 178.542 148.165 178.696 148.151C178.753 148.126 178.803 148.086 178.841 148.035C178.857 147.974 178.857 147.909 178.841 147.847C178.865 147.782 178.865 147.71 178.841 147.645C178.787 147.588 178.715 147.553 178.638 147.544H177.857L177.9 148.151Z" fill="#516AD6"/>
<path d="M180.417 149.598V147.037H182.312V147.471H180.938V148.035H182.225V148.469H180.938V149.164H182.384V149.598H180.417Z" fill="#516AD6"/>
<path d="M183.252 149.598V147.037H184.019L184.482 148.788L184.93 147.037H185.712V149.598H185.234V147.587L184.728 149.598H184.222L183.715 147.587V149.598H183.252Z" fill="#516AD6"/>
<path d="M172.446 153.88V151.319H172.953V153.88H172.446Z" fill="#516AD6"/>
<path d="M173.893 153.88V151.319H174.718C174.924 151.296 175.133 151.296 175.34 151.319C175.486 151.353 175.615 151.441 175.701 151.565C175.804 151.708 175.855 151.881 175.846 152.057C175.849 152.197 175.82 152.336 175.759 152.462C175.706 152.559 175.632 152.644 175.542 152.708C175.464 152.764 175.376 152.803 175.282 152.824C175.104 152.842 174.924 152.842 174.746 152.824H174.414V153.793L173.893 153.88ZM174.414 151.753V152.476H174.689C174.823 152.5 174.96 152.5 175.094 152.476C175.162 152.456 175.222 152.415 175.267 152.361C175.282 152.294 175.282 152.225 175.267 152.158C175.27 152.116 175.263 152.073 175.248 152.033C175.233 151.993 175.21 151.957 175.18 151.927C175.125 151.87 175.055 151.83 174.978 151.811H174.356L174.414 151.753Z" fill="#516AD6"/>
<path d="M176.511 153.041H177.018C177.033 153.177 177.094 153.305 177.191 153.402C177.295 153.492 177.43 153.539 177.567 153.532C177.703 153.541 177.837 153.5 177.943 153.417C177.983 153.389 178.016 153.352 178.038 153.309C178.061 153.267 178.073 153.219 178.074 153.171C178.083 153.148 178.088 153.123 178.088 153.098C178.088 153.074 178.083 153.049 178.074 153.026C178.027 152.966 177.96 152.925 177.886 152.91L177.481 152.795C177.269 152.765 177.07 152.681 176.902 152.549C176.826 152.485 176.765 152.405 176.722 152.315C176.68 152.225 176.657 152.127 176.656 152.028C176.659 151.899 176.699 151.773 176.772 151.666C176.85 151.55 176.961 151.459 177.09 151.406C177.251 151.344 177.423 151.314 177.596 151.319C177.856 151.3 178.113 151.377 178.32 151.536C178.401 151.605 178.466 151.692 178.508 151.789C178.551 151.887 178.571 151.994 178.565 152.1H178.059C178.045 151.99 177.994 151.888 177.915 151.811C177.812 151.757 177.697 151.732 177.582 151.739C177.46 151.733 177.339 151.763 177.235 151.825C177.208 151.842 177.186 151.866 177.171 151.894C177.156 151.922 177.148 151.953 177.148 151.984C177.149 152.016 177.157 152.047 177.172 152.074C177.188 152.102 177.209 152.126 177.235 152.144C177.384 152.222 177.545 152.276 177.712 152.303C177.902 152.345 178.086 152.408 178.262 152.491C178.379 152.545 178.476 152.637 178.537 152.751C178.614 152.872 178.654 153.013 178.652 153.156C178.652 153.306 178.606 153.452 178.522 153.576C178.437 153.701 178.316 153.797 178.175 153.851C178.002 153.926 177.814 153.96 177.625 153.952C177.359 153.967 177.097 153.884 176.887 153.72C176.78 153.64 176.691 153.538 176.626 153.421C176.561 153.304 176.522 153.174 176.511 153.041Z" fill="#516AD6"/>
<path d="M179.448 151.319H179.954V152.766C179.941 152.905 179.941 153.046 179.954 153.185C179.973 153.286 180.023 153.377 180.099 153.446C180.204 153.508 180.324 153.538 180.446 153.532C180.564 153.541 180.681 153.51 180.779 153.446C180.848 153.392 180.895 153.315 180.909 153.229C180.92 153.084 180.92 152.939 180.909 152.795V151.348H181.415V152.693C181.436 152.91 181.436 153.128 181.415 153.344C181.391 153.46 181.342 153.568 181.271 153.663C181.19 153.757 181.085 153.827 180.967 153.865C180.811 153.928 180.643 153.958 180.475 153.952C180.288 153.962 180.1 153.933 179.925 153.865C179.809 153.817 179.705 153.743 179.622 153.648C179.556 153.561 179.507 153.463 179.477 153.359C179.457 153.142 179.457 152.924 179.477 152.708L179.448 151.319Z" fill="#516AD6"/>
<path d="M182.457 153.88V151.319H183.238L183.701 153.055L184.15 151.319H184.931V153.88H184.453V151.869L183.947 153.88H183.441L182.934 151.869V153.88H182.457Z" fill="#516AD6"/>
<path d="M171.608 134.134V131.602H172.128V133.7H173.401V134.134H171.608Z" fill="#516AD6"/>
<path d="M174.052 132.919C174.049 132.696 174.088 132.475 174.168 132.268C174.223 132.139 174.301 132.021 174.399 131.921C174.497 131.826 174.609 131.748 174.732 131.689C174.914 131.568 175.122 131.494 175.34 131.472C175.507 131.465 175.674 131.492 175.831 131.552C175.988 131.611 176.131 131.702 176.251 131.819C176.48 132.095 176.598 132.445 176.584 132.803C176.601 133.152 176.482 133.495 176.251 133.758C176.136 133.879 175.997 133.974 175.842 134.037C175.687 134.099 175.521 134.127 175.354 134.119C175.186 134.127 175.019 134.1 174.862 134.04C174.706 133.98 174.563 133.889 174.443 133.772C174.215 133.543 174.077 133.241 174.052 132.919ZM174.587 132.919C174.57 133.156 174.637 133.391 174.775 133.584C174.842 133.655 174.923 133.711 175.013 133.748C175.102 133.785 175.199 133.803 175.296 133.801C175.391 133.802 175.485 133.784 175.572 133.746C175.659 133.709 175.738 133.654 175.802 133.584C175.944 133.392 176.01 133.156 175.99 132.919C176.012 132.686 175.945 132.453 175.802 132.268C175.739 132.197 175.661 132.141 175.573 132.103C175.486 132.066 175.391 132.048 175.296 132.051C175.199 132.047 175.102 132.064 175.012 132.101C174.922 132.139 174.841 132.196 174.775 132.268C174.634 132.454 174.567 132.686 174.587 132.919Z" fill="#516AD6"/>
<path d="M177.394 134.134V131.573H178.479C178.679 131.566 178.879 131.591 179.072 131.646C179.193 131.694 179.294 131.78 179.361 131.892C179.438 132.013 179.479 132.153 179.477 132.297C179.48 132.382 179.467 132.466 179.437 132.546C179.407 132.625 179.362 132.698 179.303 132.76C179.177 132.902 179.001 132.99 178.812 133.006C178.915 133.061 179.008 133.135 179.086 133.222C179.195 133.349 179.292 133.484 179.376 133.628L179.68 134.134H179.072L178.696 133.57C178.616 133.436 178.524 133.31 178.421 133.194C178.38 133.15 178.331 133.116 178.276 133.092H178.016H177.9V134.163L177.394 134.134ZM177.9 132.687H178.233C178.387 132.702 178.542 132.702 178.696 132.687C178.753 132.662 178.803 132.622 178.841 132.572C178.857 132.51 178.857 132.445 178.841 132.383C178.865 132.318 178.865 132.246 178.841 132.181C178.787 132.125 178.715 132.089 178.638 132.08H177.857L177.9 132.687Z" fill="#516AD6"/>
<path d="M180.417 134.134V131.573H182.312V132.007H180.938V132.571H182.225V133.005H180.938V133.7H182.384V134.134H180.417Z" fill="#516AD6"/>
<path d="M183.252 134.134V131.573H184.019L184.482 133.324L184.93 131.573H185.712V134.134H185.234V132.123L184.728 134.134H184.222L183.715 132.123V134.134H183.252Z" fill="#516AD6"/>
<path d="M162.653 109.933H181.126C181.541 109.933 181.878 109.596 181.878 109.18V79.9595C181.878 79.544 181.541 79.2073 181.126 79.2073H162.653C162.238 79.2073 161.901 79.544 161.901 79.9595V109.18C161.901 109.596 162.238 109.933 162.653 109.933Z" fill="#BED3FC"/>
<path d="M163.044 109.325C165.463 108.559 168.06 108.559 170.479 109.325V79.8003C168.06 80.5667 165.463 80.5667 163.044 79.8003V109.325Z" fill="white"/>
<path d="M171.246 109.933H189.718C190.134 109.933 190.471 109.596 190.471 109.18V79.1349C190.471 78.7195 190.134 78.3827 189.718 78.3827H171.246C170.83 78.3827 170.493 78.7195 170.493 79.1349V109.18C170.493 109.596 170.83 109.933 171.246 109.933Z" fill="#BED3FC"/>
<path d="M168.859 107.763H169.365V80.8419H168.859V107.763Z" fill="#D1E1FD"/>
<path d="M167.297 107.256H167.803V81.3481H167.297V107.256Z" fill="#D1E1FD"/>
<path d="M165.734 107.256H166.24V81.3481H165.734V107.256Z" fill="#D1E1FD"/>
<path d="M164.172 107.763H164.678V80.8419H164.172V107.763Z" fill="#D1E1FD"/>
<path d="M173.893 100.038V97.5063H174.414V99.6473H175.701V100.081L173.893 100.038Z" fill="#516AD6"/>
<path d="M176.367 98.7794C176.364 98.5523 176.403 98.3266 176.483 98.1139C176.543 97.9842 176.626 97.8665 176.729 97.7668C176.824 97.6689 176.936 97.5903 177.061 97.5353C177.237 97.4685 177.423 97.4342 177.611 97.4341C177.777 97.4252 177.942 97.4515 178.097 97.5114C178.251 97.5712 178.391 97.6632 178.508 97.7812C178.628 97.9143 178.72 98.0696 178.78 98.2384C178.839 98.4072 178.865 98.5862 178.855 98.7649C178.864 98.9414 178.839 99.118 178.779 99.2844C178.719 99.4508 178.627 99.6037 178.508 99.7341C178.263 99.9577 177.943 100.082 177.611 100.082C177.279 100.082 176.959 99.9577 176.714 99.7341C176.595 99.6068 176.502 99.4566 176.442 99.2924C176.383 99.1283 176.357 98.9537 176.367 98.7794ZM176.902 98.7794C176.886 99.0184 176.958 99.255 177.105 99.4448C177.17 99.514 177.248 99.5691 177.335 99.6068C177.422 99.6445 177.516 99.664 177.611 99.664C177.706 99.664 177.8 99.6445 177.887 99.6068C177.974 99.5691 178.052 99.514 178.117 99.4448C178.264 99.255 178.336 99.0184 178.32 98.7794C178.336 98.5447 178.264 98.3124 178.117 98.1284C178.055 98.0558 177.977 97.9984 177.889 97.9608C177.802 97.9232 177.706 97.9063 177.611 97.9114C177.516 97.9073 177.421 97.9247 177.333 97.9623C177.246 97.9999 177.167 98.0566 177.105 98.1284C176.965 98.3048 176.893 98.5255 176.902 98.7504V98.7794Z" fill="#516AD6"/>
<path d="M179.679 100.038V97.4774H180.764C180.965 97.4692 181.165 97.4936 181.357 97.5497C181.485 97.5928 181.592 97.6801 181.661 97.7956C181.738 97.9165 181.778 98.0573 181.777 98.2007C181.781 98.376 181.719 98.5465 181.603 98.678C181.575 98.6359 181.537 98.6018 181.492 98.579C181.447 98.5563 181.397 98.5457 181.346 98.5484C181.296 98.5511 181.247 98.5669 181.205 98.5943C181.162 98.6218 181.128 98.6598 181.105 98.7046C181.082 98.7495 181.071 98.7996 181.073 98.85C181.075 98.9005 181.09 98.9495 181.117 98.9921C181.144 99.0348 181.182 99.0696 181.227 99.0932C181.271 99.1167 181.321 99.1282 181.372 99.1265C181.481 99.2516 181.578 99.3872 181.661 99.5315L181.979 100.038H181.357L180.996 99.4737L180.721 99.0975C180.675 99.0538 180.621 99.0194 180.562 98.9963H180.301H180.2V100.067L179.679 100.038ZM180.2 98.5912H180.576C180.73 98.6055 180.885 98.6055 181.039 98.5912C181.07 98.5829 181.099 98.5684 181.124 98.5485C181.148 98.5286 181.169 98.5037 181.184 98.4755C181.207 98.415 181.207 98.3479 181.184 98.2874C181.208 98.2221 181.208 98.1502 181.184 98.0849C181.161 98.0564 181.132 98.0327 181.1 98.0153C181.068 97.9979 181.032 97.9872 180.996 97.9837H180.215L180.2 98.5912Z" fill="#516AD6"/>
<path d="M182.746 100.038V97.4775H184.641V97.9115H183.195V98.4757H184.468V98.9096H183.195V99.6474H184.641V100.081L182.746 100.038Z" fill="#516AD6"/>
<path d="M185.581 100.038V97.4775H186.348L186.811 99.2279L187.274 97.4775H188.041V100.038H187.563V98.0272L187.057 100.038H186.565L186.059 98.0272V100.038H185.581Z" fill="#516AD6"/>
<path d="M174.689 104.32V101.759H175.209V104.32H174.689Z" fill="#516AD6"/>
<path d="M176.179 104.32V101.759H177.003C177.205 101.735 177.409 101.735 177.611 101.759C177.762 101.793 177.896 101.88 177.987 102.005C178.084 102.151 178.134 102.322 178.132 102.497C178.135 102.637 178.105 102.776 178.045 102.902C177.992 103 177.918 103.084 177.828 103.148L177.567 103.278H177.032H176.685V104.247L176.179 104.32ZM176.685 102.193V102.917H176.974C177.108 102.939 177.245 102.939 177.379 102.917C177.443 102.895 177.498 102.855 177.538 102.801C177.56 102.735 177.56 102.664 177.538 102.598C177.541 102.556 177.535 102.513 177.52 102.473C177.505 102.434 177.482 102.397 177.452 102.367C177.401 102.304 177.329 102.263 177.249 102.251H176.627L176.685 102.193Z" fill="#516AD6"/>
<path d="M178.841 103.481H179.332C179.353 103.619 179.419 103.746 179.52 103.842C179.624 103.934 179.759 103.981 179.897 103.973C180.032 103.979 180.165 103.938 180.273 103.857C180.311 103.829 180.341 103.791 180.361 103.748C180.381 103.705 180.391 103.658 180.388 103.611C180.403 103.564 180.403 103.513 180.388 103.466C180.336 103.413 180.271 103.373 180.2 103.351L179.781 103.235C179.57 103.203 179.372 103.118 179.202 102.989C179.077 102.882 178.996 102.733 178.975 102.57C178.954 102.407 178.993 102.242 179.086 102.107C179.161 101.987 179.273 101.895 179.405 101.846C179.561 101.784 179.728 101.755 179.897 101.759C180.156 101.737 180.415 101.815 180.62 101.976C180.703 102.044 180.77 102.131 180.815 102.228C180.86 102.326 180.883 102.433 180.88 102.54H180.359C180.358 102.488 180.346 102.437 180.323 102.389C180.301 102.342 180.269 102.3 180.229 102.266C180.131 102.201 180.014 102.17 179.897 102.179C179.775 102.173 179.654 102.203 179.549 102.266C179.523 102.283 179.501 102.306 179.486 102.334C179.47 102.362 179.463 102.393 179.463 102.425C179.465 102.485 179.491 102.542 179.535 102.584C179.686 102.658 179.847 102.711 180.012 102.743C180.2 102.792 180.384 102.855 180.562 102.931C180.683 102.986 180.784 103.077 180.851 103.191C180.923 103.314 180.959 103.455 180.953 103.597C180.95 103.744 180.91 103.888 180.837 104.016C180.748 104.138 180.628 104.233 180.49 104.291C180.312 104.367 180.119 104.402 179.926 104.392C179.659 104.411 179.396 104.328 179.188 104.161C179.085 104.079 179.001 103.975 178.941 103.858C178.881 103.741 178.847 103.612 178.841 103.481Z" fill="#516AD6"/>
<path d="M181.763 101.759H182.283V103.206C182.273 103.345 182.273 103.486 182.283 103.625C182.308 103.727 182.363 103.818 182.443 103.886C182.547 103.948 182.668 103.978 182.79 103.973C182.903 103.981 183.015 103.95 183.108 103.886C183.146 103.862 183.179 103.83 183.204 103.793C183.229 103.755 183.245 103.713 183.253 103.669C183.262 103.524 183.262 103.379 183.253 103.235V101.788H183.773V103.134C183.794 103.35 183.794 103.568 183.773 103.784C183.744 103.901 183.69 104.009 183.614 104.103C183.537 104.194 183.437 104.264 183.325 104.305C183.169 104.368 183.001 104.398 182.833 104.392C182.641 104.401 182.449 104.371 182.269 104.305C182.159 104.253 182.06 104.18 181.98 104.088C181.909 104.005 181.859 103.906 181.835 103.799C181.807 103.583 181.807 103.364 181.835 103.148L181.763 101.759Z" fill="#516AD6"/>
<path d="M184.786 104.32V101.759H185.552L186.015 103.51L186.478 101.759H187.245V104.32H186.768V102.309L186.261 104.32H185.769L185.263 102.309V104.32H184.786Z" fill="#516AD6"/>
<path d="M173.893 84.574V82.0425H174.414V84.14H175.701V84.574H173.893Z" fill="#516AD6"/>
<path d="M176.367 83.3156C176.362 83.0884 176.401 82.8624 176.482 82.6502C176.558 82.5102 176.661 82.3872 176.786 82.2885C176.881 82.1906 176.994 82.112 177.119 82.0571C177.292 81.9835 177.48 81.9489 177.668 81.9558C177.834 81.9469 178 81.9733 178.154 82.0331C178.309 82.093 178.449 82.185 178.565 82.303C178.79 82.579 178.912 82.9237 178.912 83.2794C178.912 83.6351 178.79 83.9799 178.565 84.2558C178.32 84.4795 178 84.6034 177.668 84.6034C177.337 84.6034 177.017 84.4795 176.772 84.2558C176.643 84.1351 176.541 83.9894 176.472 83.8277C176.402 83.666 176.366 83.4917 176.367 83.3156ZM176.902 83.3156C176.889 83.5543 176.96 83.7901 177.104 83.981C177.169 84.0502 177.248 84.1053 177.335 84.143C177.422 84.1807 177.516 84.2002 177.611 84.2002C177.706 84.2002 177.799 84.1807 177.886 84.143C177.974 84.1053 178.052 84.0502 178.117 83.981C178.263 83.7913 178.335 83.5546 178.319 83.3156C178.337 83.0807 178.265 82.848 178.117 82.6646C178.055 82.592 177.977 82.5346 177.889 82.497C177.801 82.4594 177.706 82.4425 177.611 82.4476C177.515 82.4436 177.42 82.461 177.333 82.4985C177.245 82.5361 177.167 82.5929 177.104 82.6646C176.965 82.8411 176.893 83.0618 176.902 83.2867V83.3156Z" fill="#516AD6"/>
<path d="M179.679 84.5739V82.0135H180.764C180.965 82.0053 181.165 82.0297 181.357 82.0858C181.485 82.129 181.592 82.2162 181.661 82.3317C181.738 82.4526 181.778 82.5934 181.777 82.7368C181.78 82.8216 181.767 82.9063 181.737 82.9858C181.707 83.0653 181.662 83.138 181.603 83.1997C181.472 83.3429 181.291 83.4308 181.097 83.4456C181.203 83.4978 181.296 83.5718 181.372 83.6626C181.485 83.7849 181.582 83.921 181.661 84.0677L181.979 84.5739H181.357L180.996 84.0098L180.721 83.6337C180.675 83.59 180.621 83.5556 180.562 83.5324H180.301H180.2V84.6029L179.679 84.5739ZM180.2 83.1273H180.576C180.73 83.1416 180.885 83.1416 181.039 83.1273C181.07 83.1191 181.099 83.1045 181.124 83.0846C181.148 83.0647 181.169 83.0399 181.184 83.0116C181.207 82.9511 181.207 82.8841 181.184 82.8236C181.208 82.7583 181.208 82.6864 181.184 82.6211C181.161 82.5925 181.132 82.5688 181.1 82.5514C181.068 82.534 181.032 82.5233 180.996 82.5198H180.215L180.2 83.1273Z" fill="#516AD6"/>
<path d="M182.746 84.5739V82.0134H184.641V82.4474H183.195V83.0116H184.468V83.4455H183.195V84.1399H184.641V84.5739H182.746Z" fill="#516AD6"/>
<path d="M185.581 84.5739V82.0134H186.348L186.811 83.7638L187.274 82.0134H188.041V84.5739H187.563V82.5631L187.057 84.5739H186.565L186.059 82.5631V84.5739H185.581Z" fill="#516AD6"/>
<path d="M192.959 159.492H211.432C211.847 159.492 212.184 159.156 212.184 158.74V128.29C212.184 127.874 211.847 127.537 211.432 127.537H192.959C192.543 127.537 192.207 127.874 192.207 128.29V158.74C192.207 159.156 192.543 159.492 192.959 159.492Z" fill="#3D51C6"/>
<path d="M193.306 158.957C195.189 158.19 197.297 158.19 199.18 158.957V128.13C197.297 128.897 195.189 128.897 193.306 128.13V158.957Z" fill="white"/>
<path d="M199.946 159.492H218.419C218.834 159.492 219.171 159.155 219.171 158.74V127.465C219.171 127.049 218.834 126.713 218.419 126.713H199.946C199.531 126.713 199.194 127.049 199.194 127.465V158.74C199.194 159.155 199.531 159.492 199.946 159.492Z" fill="#516AD6"/>
<path d="M197.718 157.323H198.065V129.158H197.718V157.323Z" fill="#D1E1FD"/>
<path d="M196.633 156.816H196.98V129.664H196.633V156.816Z" fill="#D1E1FD"/>
<path d="M195.534 156.816H195.881V129.664H195.534V156.816Z" fill="#D1E1FD"/>
<path d="M194.449 157.323H194.796V129.158H194.449V157.323Z" fill="#D1E1FD"/>
<path d="M202.637 133.02V130.488H203.143V132.586H204.43V133.02H202.637Z" fill="white"/>
<path d="M205.081 131.761C205.069 131.538 205.109 131.316 205.197 131.111C205.256 130.979 205.334 130.857 205.429 130.749C205.523 130.654 205.636 130.58 205.761 130.532C205.935 130.46 206.123 130.425 206.311 130.431C206.479 130.423 206.646 130.45 206.803 130.51C206.959 130.57 207.102 130.661 207.222 130.778C207.438 131.055 207.555 131.396 207.555 131.747C207.555 132.098 207.438 132.439 207.222 132.716C206.975 132.941 206.652 133.065 206.318 133.065C205.984 133.065 205.662 132.941 205.414 132.716C205.183 132.453 205.064 132.111 205.081 131.761ZM205.617 131.761C205.596 131.994 205.663 132.226 205.805 132.412C205.87 132.486 205.95 132.544 206.04 132.584C206.13 132.624 206.227 132.644 206.325 132.644C206.42 132.647 206.514 132.628 206.599 132.588C206.685 132.548 206.76 132.487 206.817 132.412C206.894 132.321 206.951 132.214 206.986 132.1C207.02 131.986 207.032 131.866 207.02 131.747C207.04 131.514 206.973 131.282 206.832 131.096C206.768 131.025 206.69 130.969 206.603 130.931C206.515 130.894 206.421 130.876 206.325 130.879C206.228 130.875 206.131 130.892 206.041 130.93C205.951 130.967 205.87 131.024 205.805 131.096C205.666 131.283 205.599 131.514 205.617 131.747V131.761Z" fill="white"/>
<path d="M208.423 133.02V130.474H209.508C209.705 130.445 209.904 130.445 210.101 130.474C210.222 130.522 210.323 130.608 210.39 130.72C210.465 130.842 210.505 130.982 210.506 131.125C210.511 131.3 210.449 131.471 210.332 131.602C210.197 131.738 210.017 131.82 209.826 131.834C209.93 131.895 210.027 131.968 210.115 132.051L210.405 132.47L210.709 132.962H210.058L209.682 132.412C209.606 132.276 209.513 132.15 209.407 132.036C209.364 131.985 209.309 131.945 209.248 131.92H209.002H208.886V132.991L208.423 133.02ZM208.929 131.573H209.32C209.474 131.587 209.629 131.587 209.783 131.573C209.839 131.553 209.889 131.518 209.927 131.472C209.944 131.406 209.944 131.336 209.927 131.269C209.951 131.204 209.951 131.133 209.927 131.067C209.874 131.011 209.802 130.975 209.725 130.966H208.944L208.929 131.573Z" fill="white"/>
<path d="M211.504 133.02V130.474H213.399V130.893H211.952V131.472H213.24V131.892H211.952V132.586H213.399V133.02H211.504Z" fill="white"/>
<path d="M214.282 133.02V130.474H215.063L215.511 132.21L215.974 130.474H216.755V133.02H216.264V131.009L215.757 133.02H215.265L214.759 131.009V133.02H214.282Z" fill="white"/>
<path d="M203.403 137.258V134.698H203.91V137.258H203.403Z" fill="white"/>
<path d="M204.879 137.258V134.698H205.718C205.925 134.675 206.133 134.675 206.34 134.698C206.482 134.743 206.607 134.829 206.702 134.944C206.805 135.092 206.856 135.27 206.846 135.45C206.852 135.586 206.822 135.72 206.759 135.841C206.707 135.938 206.633 136.022 206.542 136.087C206.465 136.147 206.377 136.191 206.282 136.217H205.747H205.414V137.258H204.879ZM205.4 135.132V135.855H205.718H206.123C206.19 135.833 206.247 135.786 206.282 135.725C206.302 135.659 206.302 135.589 206.282 135.522C206.284 135.437 206.253 135.354 206.195 135.291C206.14 135.234 206.07 135.194 205.993 135.175H205.371L205.4 135.132Z" fill="white"/>
<path d="M207.54 136.463H208.047C208.062 136.604 208.123 136.736 208.22 136.839C208.329 136.918 208.462 136.959 208.596 136.955C208.729 136.96 208.86 136.925 208.973 136.853C209.011 136.825 209.043 136.788 209.066 136.745C209.088 136.703 209.101 136.656 209.103 136.607C209.113 136.582 209.119 136.555 209.119 136.528C209.119 136.501 209.113 136.474 209.103 136.448C209.053 136.392 208.988 136.352 208.915 136.333L208.51 136.231C208.299 136.191 208.101 136.102 207.931 135.971C207.855 135.91 207.794 135.833 207.752 135.745C207.709 135.658 207.687 135.562 207.685 135.465C207.688 135.331 207.728 135.201 207.801 135.089C207.884 134.977 207.993 134.887 208.119 134.828C208.28 134.766 208.453 134.737 208.625 134.741C208.885 134.722 209.143 134.799 209.349 134.958C209.428 135.029 209.491 135.116 209.533 135.214C209.576 135.311 209.597 135.416 209.595 135.523H209.088C209.074 135.417 209.023 135.319 208.944 135.248C208.845 135.183 208.728 135.152 208.611 135.161C208.489 135.155 208.368 135.185 208.264 135.248C208.237 135.265 208.215 135.288 208.199 135.316C208.184 135.344 208.176 135.375 208.176 135.407C208.176 135.439 208.184 135.47 208.199 135.498C208.215 135.526 208.237 135.549 208.264 135.566C208.404 135.656 208.562 135.716 208.727 135.74C208.921 135.776 209.11 135.834 209.291 135.913C209.402 135.977 209.496 136.066 209.566 136.174C209.638 136.296 209.673 136.437 209.667 136.579C209.673 136.727 209.633 136.874 209.551 136.998C209.464 137.124 209.344 137.224 209.204 137.287C209.028 137.352 208.841 137.381 208.654 137.374C208.386 137.393 208.119 137.316 207.902 137.157C207.798 137.072 207.712 136.966 207.65 136.847C207.588 136.728 207.551 136.597 207.54 136.463Z" fill="white"/>
<path d="M210.477 134.741H210.983V136.188C210.983 136.405 210.983 136.55 210.983 136.608C211.01 136.708 211.065 136.798 211.142 136.868C211.247 136.93 211.368 136.96 211.49 136.955C211.607 136.963 211.724 136.933 211.822 136.868C211.892 136.815 211.938 136.737 211.953 136.651C211.964 136.506 211.964 136.361 211.953 136.217V134.77H212.459V136.116C212.48 136.332 212.48 136.55 212.459 136.767C212.437 136.883 212.388 136.992 212.314 137.085C212.231 137.176 212.127 137.246 212.01 137.287C211.854 137.35 211.687 137.38 211.519 137.374C211.331 137.385 211.144 137.355 210.969 137.287C210.852 137.239 210.748 137.165 210.665 137.07C210.597 136.985 210.548 136.887 210.52 136.781C210.501 136.569 210.501 136.356 210.52 136.145L210.477 134.741Z" fill="white"/>
<path d="M213.486 137.258V134.698H214.267L214.73 136.448L215.179 134.698H215.96V137.258H215.482V135.248L214.976 137.258H214.47L213.963 135.248V137.258H213.486Z" fill="white"/>
<path d="M207.945 159.478H226.433C226.63 159.478 226.819 159.401 226.96 159.263C227.1 159.125 227.181 158.937 227.185 158.74L220.994 135.696C220.994 135.497 220.914 135.305 220.773 135.164C220.632 135.023 220.441 134.944 220.241 134.944H201.754C201.555 134.944 201.363 135.023 201.222 135.164C201.081 135.305 201.002 135.497 201.002 135.696L207.164 158.74C207.164 158.841 207.185 158.94 207.224 159.033C207.264 159.125 207.322 159.209 207.395 159.278C207.469 159.347 207.555 159.4 207.65 159.435C207.744 159.469 207.845 159.484 207.945 159.478Z" fill="#9F008B"/>
<path d="M208.307 158.957C210.19 158.19 212.298 158.19 214.18 158.957L208.003 135.624C206.116 136.39 204.003 136.39 202.116 135.624L208.307 158.957Z" fill="white"/>
<path d="M214.947 159.478H233.405C233.505 159.48 233.605 159.462 233.698 159.425C233.791 159.388 233.875 159.333 233.947 159.263C234.018 159.193 234.075 159.109 234.113 159.017C234.152 158.925 234.172 158.826 234.172 158.726L227.981 134.886C227.981 134.685 227.902 134.492 227.761 134.349C227.621 134.206 227.429 134.123 227.228 134.119H208.423C208.22 134.119 208.025 134.2 207.881 134.344C207.737 134.488 207.656 134.683 207.656 134.886L214.224 158.726C214.224 158.92 214.299 159.107 214.434 159.248C214.569 159.388 214.753 159.47 214.947 159.478Z" fill="url(#paint1_linear_368_474)"/>
<path d="M212.719 157.323H213.081L206.89 136.593H206.528L212.719 157.323Z" fill="#D1E1FD"/>
<path d="M211.634 156.816H211.982L205.79 137.099H205.443L211.634 156.816Z" fill="#D1E1FD"/>
<path d="M210.535 156.816H210.882L204.705 137.099H204.344L210.535 156.816Z" fill="#D1E1FD"/>
<path d="M209.45 157.323H209.797L203.606 136.593H203.259L209.45 157.323Z" fill="#D1E1FD"/>
<path d="M212.951 140.253L212.343 137.721H212.864L213.37 139.819H214.658L214.759 140.253H212.951Z" fill="white"/>
<path d="M215.077 138.994C215.037 138.779 215.037 138.558 215.077 138.343C215.106 138.218 215.161 138.1 215.236 137.996C215.302 137.893 215.398 137.812 215.511 137.765C215.675 137.691 215.853 137.656 216.032 137.663C216.395 137.659 216.748 137.781 217.03 138.011C217.319 138.263 217.518 138.604 217.594 138.98C217.651 139.139 217.671 139.308 217.654 139.476C217.636 139.644 217.581 139.805 217.493 139.949C217.398 140.071 217.274 140.166 217.133 140.227C216.991 140.288 216.836 140.312 216.683 140.296C216.323 140.307 215.973 140.183 215.699 139.949C215.389 139.711 215.169 139.374 215.077 138.994ZM215.613 138.994C215.66 139.245 215.787 139.473 215.974 139.645C216.045 139.719 216.131 139.778 216.225 139.818C216.32 139.858 216.421 139.878 216.524 139.877C216.615 139.885 216.706 139.868 216.788 139.827C216.87 139.786 216.939 139.723 216.987 139.645C217.072 139.432 217.072 139.193 216.987 138.98C216.938 138.733 216.817 138.507 216.64 138.329C216.487 138.186 216.284 138.109 216.075 138.112C215.986 138.105 215.897 138.122 215.816 138.16C215.734 138.198 215.664 138.256 215.613 138.329C215.531 138.538 215.531 138.771 215.613 138.98V138.994Z" fill="white"/>
<path d="M218.737 140.253L218.13 137.707H219.214C219.416 137.679 219.62 137.679 219.822 137.707C219.957 137.765 220.08 137.848 220.184 137.953C220.279 138.072 220.348 138.21 220.386 138.358C220.417 138.438 220.428 138.525 220.417 138.611C220.407 138.697 220.375 138.779 220.324 138.849C220.274 138.919 220.207 138.976 220.13 139.014C220.052 139.052 219.966 139.07 219.88 139.067C219.997 139.129 220.108 139.201 220.213 139.284C220.352 139.414 220.483 139.555 220.603 139.703L221.037 140.195H220.415L219.909 139.645C219.799 139.51 219.678 139.384 219.547 139.269C219.496 139.221 219.438 139.182 219.374 139.153H219.099H218.997L219.258 140.224L218.737 140.253ZM218.896 138.806H219.287C219.435 138.83 219.587 138.83 219.735 138.806C219.761 138.801 219.786 138.788 219.806 138.771C219.826 138.753 219.842 138.73 219.851 138.705C219.874 138.64 219.874 138.568 219.851 138.502C219.83 138.426 219.79 138.357 219.735 138.3C219.672 138.249 219.598 138.214 219.518 138.199H218.737L218.896 138.806Z" fill="white"/>
<path d="M221.761 140.253L221.153 137.707H223.077L223.178 138.141H221.804L221.949 138.705H223.222L223.323 139.124H222.05L222.209 139.819H223.656L223.757 140.253H221.761Z" fill="white"/>
<path d="M224.596 140.253L223.974 137.707H224.755L225.623 139.443V137.707H226.404L227.012 140.253H226.534L226.042 138.242V140.253H225.551L224.552 138.242L225.044 140.253H224.596Z" fill="white"/>
<path d="M214.744 144.491L214.122 141.931H214.643L215.251 144.491H214.744Z" fill="white"/>
<path d="M216.22 144.491L215.598 141.931H216.437C216.644 141.908 216.852 141.908 217.059 141.931C217.233 141.98 217.389 142.077 217.512 142.209C217.634 142.342 217.718 142.506 217.753 142.683C217.79 142.811 217.79 142.946 217.753 143.074C217.732 143.169 217.682 143.255 217.609 143.32C217.539 143.382 217.454 143.427 217.363 143.45H216.842H216.509L216.741 144.419L216.22 144.491ZM216.22 142.365L216.394 143.088H216.683C216.813 143.102 216.944 143.102 217.074 143.088C217.105 143.079 217.133 143.063 217.156 143.04C217.178 143.017 217.195 142.989 217.204 142.958C217.226 142.892 217.226 142.821 217.204 142.755C217.18 142.668 217.136 142.589 217.074 142.524C217.003 142.465 216.918 142.426 216.828 142.408H216.206L216.22 142.365Z" fill="white"/>
<path d="M218.737 143.696H219.229C219.284 143.844 219.379 143.974 219.504 144.072C219.624 144.149 219.765 144.189 219.909 144.187C220.032 144.194 220.155 144.158 220.256 144.086C220.279 144.049 220.291 144.007 220.291 143.963C220.291 143.92 220.279 143.877 220.256 143.84C220.245 143.779 220.214 143.724 220.169 143.681C220.111 143.628 220.042 143.589 219.967 143.565L219.518 143.464C219.291 143.419 219.075 143.331 218.882 143.204C218.704 143.085 218.575 142.905 218.52 142.698C218.477 142.576 218.477 142.443 218.52 142.321C218.574 142.212 218.66 142.121 218.766 142.061C218.917 141.999 219.08 141.97 219.243 141.974C219.52 141.961 219.794 142.037 220.024 142.191C220.215 142.329 220.353 142.528 220.415 142.755H219.909C219.868 142.641 219.79 142.544 219.688 142.479C219.586 142.413 219.465 142.383 219.344 142.394C219.227 142.385 219.11 142.416 219.012 142.48C218.998 142.505 218.99 142.532 218.99 142.56C218.99 142.588 218.998 142.615 219.012 142.64C219.032 142.704 219.072 142.76 219.127 142.799C219.291 142.884 219.467 142.942 219.648 142.972C219.851 143.012 220.049 143.07 220.241 143.146C220.373 143.209 220.491 143.297 220.589 143.406C220.687 143.523 220.756 143.662 220.791 143.811C220.828 143.949 220.828 144.093 220.791 144.231C220.734 144.36 220.631 144.463 220.502 144.52C220.336 144.584 220.159 144.614 219.981 144.607C219.699 144.621 219.421 144.545 219.185 144.39C218.967 144.211 218.81 143.968 218.737 143.696Z" fill="white"/>
<path d="M221.196 141.974H221.717L222.05 143.421C222.074 143.564 222.112 143.705 222.166 143.84C222.205 143.95 222.282 144.042 222.383 144.101C222.493 144.161 222.618 144.191 222.744 144.188C222.857 144.199 222.971 144.168 223.063 144.101C223.079 144.067 223.088 144.03 223.088 143.992C223.088 143.955 223.079 143.918 223.063 143.884C223.075 143.739 223.075 143.594 223.063 143.45L222.715 142.003H223.236L223.554 143.349C223.614 143.561 223.653 143.779 223.67 144C223.695 144.104 223.695 144.213 223.67 144.318C223.607 144.411 223.516 144.482 223.41 144.52C223.265 144.587 223.106 144.617 222.947 144.607C222.75 144.615 222.554 144.585 222.368 144.52C222.239 144.472 222.121 144.399 222.021 144.303C221.927 144.225 221.853 144.126 221.804 144.014C221.711 143.811 221.643 143.597 221.601 143.378L221.196 141.974Z" fill="white"/>
<path d="M224.827 144.491L224.22 141.931H224.986L225.869 143.681V141.931H226.635L227.257 144.491H226.78L226.288 142.481V144.491H225.782L224.798 142.481L225.276 144.491H224.827Z" fill="white"/>
<path d="M188.619 109.904H207.165C207.36 109.904 207.548 109.826 207.686 109.688C207.825 109.549 207.902 109.362 207.902 109.166L201.711 86.1218C201.713 86.0237 201.695 85.9262 201.659 85.8351C201.623 85.7439 201.569 85.6608 201.5 85.5908C201.431 85.5208 201.349 85.4651 201.259 85.4272C201.168 85.3892 201.071 85.3696 200.973 85.3696H182.428C182.228 85.3696 182.037 85.4489 181.896 85.59C181.755 85.731 181.676 85.9223 181.676 86.1218L187.867 109.166C187.867 109.264 187.887 109.361 187.925 109.452C187.963 109.542 188.018 109.624 188.088 109.693C188.158 109.761 188.241 109.815 188.333 109.852C188.424 109.888 188.521 109.906 188.619 109.904Z" fill="#9F008B"/>
<path d="M188.981 109.31C190.864 108.543 192.972 108.543 194.854 109.31L188.663 85.9771C186.78 86.7441 184.672 86.7441 182.79 85.9771L188.981 109.31Z" fill="white"/>
<path d="M195.592 109.903H214.064C214.264 109.903 214.455 109.824 214.596 109.683C214.737 109.542 214.817 109.351 214.817 109.151L208.611 85.2971C208.611 85.0976 208.532 84.9063 208.391 84.7653C208.249 84.6242 208.058 84.5449 207.859 84.5449H189.053C188.854 84.5449 188.662 84.6242 188.521 84.7653C188.38 84.9063 188.301 85.0976 188.301 85.2971L194.868 109.151C194.868 109.346 194.943 109.533 195.078 109.673C195.213 109.813 195.397 109.896 195.592 109.903Z" fill="url(#paint2_linear_368_474)"/>
<path d="M193.393 107.748H193.74L187.549 87.0186H187.201L193.393 107.748Z" fill="#D1E1FD"/>
<path d="M192.294 107.242H192.655L186.464 87.5105H186.102L192.294 107.242Z" fill="#D1E1FD"/>
<path d="M191.209 107.242H191.556L185.365 87.5105H185.017L191.209 107.242Z" fill="#D1E1FD"/>
<path d="M190.109 107.748H190.471L184.28 87.0186H183.918L190.109 107.748Z" fill="#D1E1FD"/>
<path d="M193.61 90.6785L193.002 88.147H193.508L194.029 90.2445H195.302L195.404 90.6785H193.61Z" fill="white"/>
<path d="M195.751 89.42C195.71 89.2001 195.71 88.9745 195.751 88.7546C195.776 88.6282 195.831 88.5094 195.91 88.4074C195.98 88.308 196.075 88.2282 196.185 88.176C196.351 88.1104 196.527 88.0761 196.705 88.0747C197.067 88.0681 197.418 88.1971 197.689 88.4364C197.987 88.6837 198.191 89.0258 198.268 89.4056C198.324 89.5644 198.345 89.7339 198.327 89.9016C198.31 90.0694 198.255 90.231 198.167 90.3748C198.07 90.4944 197.946 90.5886 197.805 90.6491C197.663 90.7097 197.51 90.7346 197.356 90.7219C196.993 90.7294 196.639 90.6062 196.358 90.3748C196.056 90.1318 195.843 89.7963 195.751 89.42ZM196.271 89.42C196.325 89.6679 196.451 89.8944 196.633 90.071C196.789 90.2086 196.989 90.2856 197.197 90.288C197.285 90.295 197.372 90.2786 197.451 90.2405C197.53 90.2023 197.597 90.1438 197.646 90.071C197.692 89.9662 197.716 89.8528 197.716 89.7383C197.716 89.6237 197.692 89.5104 197.646 89.4056C197.597 89.1591 197.476 88.9326 197.299 88.7546C197.143 88.617 196.942 88.54 196.734 88.5376C196.645 88.5309 196.556 88.5474 196.474 88.5854C196.393 88.6234 196.323 88.6817 196.271 88.7546C196.189 88.9637 196.189 89.1965 196.271 89.4056V89.42Z" fill="white"/>
<path d="M199.396 90.6784L198.774 88.0746H199.931C200.136 88.0678 200.341 88.0922 200.539 88.1469C200.681 88.192 200.806 88.2775 200.901 88.3928C201.003 88.5092 201.078 88.6478 201.118 88.7979C201.151 88.8731 201.168 88.9544 201.168 89.0366C201.168 89.1188 201.151 89.2 201.118 89.2752C201.063 89.3424 200.994 89.3975 200.917 89.4373C200.84 89.4771 200.756 89.5007 200.669 89.5067C200.787 89.5671 200.899 89.6399 201.002 89.7237C201.089 89.7961 201.219 89.9407 201.392 90.1288L201.826 90.635H201.204L200.698 90.0854C200.584 89.9538 200.463 89.8283 200.336 89.7092C200.283 89.6573 200.219 89.6178 200.148 89.5935H199.888H199.787L200.047 90.664L199.396 90.6784ZM199.555 89.2318H199.931C200.085 89.2461 200.24 89.2461 200.394 89.2318C200.446 89.2087 200.487 89.1675 200.51 89.1161C200.533 89.0556 200.533 88.9886 200.51 88.9281C200.484 88.8508 200.439 88.7813 200.38 88.7256C200.32 88.6691 200.244 88.6335 200.163 88.6243H199.382L199.555 89.2318Z" fill="white"/>
<path d="M202.434 90.6785L201.812 88.0747H203.707L203.808 88.5087H202.362L202.492 89.0729H203.779L203.881 89.5068H202.608L202.767 90.2012H204.213L204.315 90.6351L202.434 90.6785Z" fill="white"/>
<path d="M205.255 90.6784L204.647 88.1179H205.414L206.296 89.8683V88.1179H207.164L207.786 90.6784H207.309L206.817 88.6676V90.6784H206.311L205.327 88.6676L205.819 90.6784H205.255Z" fill="white"/>
<path d="M195.418 94.9604L194.796 92.3999H195.302L195.924 94.9604H195.418Z" fill="white"/>
<path d="M196.894 94.9604L196.271 92.3999H197.038C197.245 92.3765 197.454 92.3765 197.66 92.3999C197.827 92.4351 197.978 92.521 198.094 92.6458C198.23 92.7863 198.325 92.9614 198.369 93.1521C198.398 93.2807 198.398 93.4141 198.369 93.5427C198.342 93.6389 198.287 93.7247 198.21 93.7886C198.141 93.8457 198.063 93.8898 197.978 93.9188H197.458H197.111L197.342 94.888L196.894 94.9604ZM196.894 92.8339L197.067 93.5572H197.356C197.486 93.5808 197.618 93.5808 197.747 93.5572C197.776 93.5488 197.803 93.534 197.825 93.514C197.848 93.494 197.865 93.4692 197.877 93.4414C197.899 93.3757 197.899 93.3046 197.877 93.2389C197.852 93.1497 197.802 93.0694 197.733 93.0075C197.669 92.9463 197.588 92.9059 197.501 92.8917H196.879L196.894 92.8339Z" fill="white"/>
<path d="M199.353 94.1214H199.845C199.903 94.2679 199.998 94.3972 200.12 94.4975C200.235 94.5743 200.371 94.6146 200.51 94.6132C200.575 94.6189 200.641 94.6116 200.703 94.5917C200.765 94.5718 200.822 94.5398 200.872 94.4975C200.894 94.4602 200.905 94.4178 200.905 94.3746C200.905 94.3314 200.894 94.289 200.872 94.2516C200.857 94.1962 200.827 94.146 200.785 94.107C200.723 94.0512 200.649 94.0114 200.568 93.9912L200.134 93.8755C199.903 93.8379 199.682 93.7543 199.483 93.6296C199.308 93.5042 199.184 93.319 199.136 93.1088C199.093 92.9922 199.093 92.8639 199.136 92.7472C199.159 92.6883 199.194 92.6348 199.239 92.59C199.284 92.5452 199.338 92.51 199.396 92.4868C199.566 92.4197 199.75 92.3949 199.932 92.4145C200.208 92.4028 200.482 92.4787 200.713 92.6314C200.902 92.7708 201.04 92.9693 201.103 93.1956H200.583C200.549 93.0833 200.477 92.9862 200.38 92.9208C200.275 92.8585 200.155 92.8283 200.033 92.834C199.916 92.8255 199.799 92.856 199.7 92.9208C199.686 92.945 199.679 92.9724 199.679 93.0003C199.679 93.0283 199.686 93.0557 199.7 93.0799C199.72 93.1443 199.761 93.2003 199.816 93.239C199.977 93.3296 200.154 93.3885 200.337 93.4126C200.539 93.4524 200.738 93.5105 200.93 93.5862C201.057 93.6564 201.174 93.744 201.277 93.8466C201.37 93.9673 201.439 94.1048 201.48 94.2516C201.523 94.3881 201.523 94.5346 201.48 94.6711C201.456 94.7341 201.42 94.7913 201.372 94.8388C201.325 94.8862 201.268 94.9228 201.205 94.946C201.038 95.0241 200.853 95.0589 200.669 95.0472C200.391 95.0624 200.116 94.9837 199.888 94.8236C199.659 94.6636 199.492 94.4316 199.411 94.1648L199.353 94.1214Z" fill="white"/>
<path d="M201.87 92.4143H202.376L202.709 93.8609C202.742 94.0037 202.786 94.1439 202.839 94.2804C202.882 94.3879 202.958 94.479 203.056 94.5408C203.167 94.6014 203.292 94.6313 203.418 94.6276C203.527 94.6393 203.636 94.6082 203.722 94.5408C203.753 94.5147 203.777 94.4811 203.792 94.4433C203.808 94.4054 203.813 94.3643 203.808 94.3238C203.797 94.1762 203.768 94.0304 203.722 93.8898L203.389 92.4432H203.895L204.228 93.7886C204.28 94.0029 204.319 94.2203 204.344 94.4395C204.348 94.552 204.318 94.6631 204.257 94.7578C204.204 94.854 204.116 94.9264 204.011 94.9603C203.86 95.0249 203.697 95.0546 203.534 95.0471C203.342 95.0559 203.15 95.0264 202.969 94.9603C202.838 94.9088 202.715 94.8354 202.608 94.7433C202.526 94.6576 202.458 94.5601 202.405 94.454C202.311 94.245 202.238 94.0268 202.188 93.803L201.87 92.4143Z" fill="white"/>
<path d="M205.501 94.9604L204.879 92.3999H205.718L206.6 94.1503V92.3999H207.381L207.989 94.9604H207.512L207.034 92.9496V94.9604H206.542L205.559 92.9496L206.036 94.9604H205.501Z" fill="white"/>
<path d="M230.628 159.492H249.101C249.516 159.492 249.853 159.155 249.853 158.74V135.71C249.853 135.295 249.516 134.958 249.101 134.958H230.628C230.212 134.958 229.876 135.295 229.876 135.71V158.74C229.876 159.155 230.212 159.492 230.628 159.492Z" fill="#3D51C6"/>
<path d="M230.975 158.957C232.863 158.191 234.975 158.191 236.863 158.957V135.552C234.975 136.318 232.863 136.318 230.975 135.552V158.957Z" fill="white"/>
<path d="M237.615 159.492H256.088C256.503 159.492 256.84 159.156 256.84 158.74V134.886C256.84 134.471 256.503 134.134 256.088 134.134H237.615C237.199 134.134 236.863 134.471 236.863 134.886V158.74C236.863 159.156 237.199 159.492 237.615 159.492Z" fill="#516AD6"/>
<path d="M235.402 157.323H235.749V136.593H235.402V157.323Z" fill="#D1E1FD"/>
<path d="M234.317 156.831H234.664V137.099H234.317V156.831Z" fill="#D1E1FD"/>
<path d="M233.217 156.831H233.564V137.099H233.217V156.831Z" fill="#D1E1FD"/>
<path d="M232.132 157.323H232.479V136.593H232.132V157.323Z" fill="#D1E1FD"/>
<path d="M240.306 141.121V138.589H240.826V140.701H242.114V141.121H240.306Z" fill="white"/>
<path d="M242.75 139.862C242.746 139.64 242.785 139.419 242.866 139.211C242.926 139.082 243.009 138.964 243.112 138.864C243.203 138.762 243.317 138.682 243.445 138.633C243.618 138.559 243.806 138.524 243.994 138.531C244.16 138.524 244.325 138.551 244.479 138.611C244.633 138.671 244.774 138.762 244.891 138.879C245.009 139.01 245.099 139.163 245.156 139.329C245.213 139.496 245.236 139.672 245.224 139.848C245.237 140.023 245.214 140.2 245.157 140.366C245.1 140.533 245.009 140.686 244.891 140.817C244.646 141.041 244.326 141.165 243.994 141.165C243.662 141.165 243.343 141.041 243.097 140.817C242.978 140.69 242.885 140.539 242.826 140.375C242.766 140.211 242.74 140.037 242.75 139.862ZM243.285 139.862C243.272 140.101 243.344 140.337 243.488 140.528C243.553 140.597 243.631 140.652 243.718 140.69C243.806 140.727 243.899 140.747 243.994 140.747C244.089 140.747 244.183 140.727 244.27 140.69C244.357 140.652 244.436 140.597 244.501 140.528C244.645 140.337 244.716 140.101 244.703 139.862C244.72 139.623 244.648 139.386 244.501 139.197C244.436 139.128 244.357 139.072 244.27 139.035C244.183 138.997 244.089 138.978 243.994 138.978C243.899 138.978 243.806 138.997 243.718 139.035C243.631 139.072 243.553 139.128 243.488 139.197C243.363 139.389 243.306 139.619 243.329 139.848L243.285 139.862Z" fill="white"/>
<path d="M246.092 141.121V138.575H247.177C247.373 138.543 247.574 138.543 247.77 138.575C247.834 138.593 247.894 138.625 247.947 138.667C247.999 138.709 248.042 138.762 248.074 138.821C248.144 138.939 248.179 139.074 248.175 139.211C248.182 139.297 248.172 139.384 248.145 139.466C248.117 139.548 248.074 139.624 248.016 139.689C247.879 139.824 247.701 139.91 247.51 139.934C247.612 139.986 247.705 140.055 247.785 140.137C247.893 140.268 247.99 140.408 248.074 140.556L248.392 141.048H247.77L247.394 140.499L247.134 140.123C247.088 140.079 247.034 140.044 246.974 140.021C246.889 140.003 246.8 140.003 246.714 140.021H246.613V141.077L246.092 141.121ZM246.613 139.674H246.989C247.142 139.699 247.299 139.699 247.452 139.674C247.51 139.658 247.562 139.622 247.596 139.573C247.617 139.512 247.617 139.446 247.596 139.385C247.596 139.307 247.571 139.23 247.524 139.168C247.472 139.117 247.407 139.082 247.336 139.067H246.555L246.613 139.674Z" fill="white"/>
<path d="M249.115 141.121V138.575H251.01V139.009H249.564V139.573H250.851V140.007H249.564V140.701H251.01V141.121H249.115Z" fill="white"/>
<path d="M252.008 141.121V138.575H252.775L253.238 140.311L253.701 138.575H254.467V141.121H253.99V139.124L253.484 141.121H252.992L252.486 139.124V141.121H252.008Z" fill="white"/>
<path d="M241.072 145.403V142.857H241.593V145.403H241.072Z" fill="white"/>
<path d="M242.562 145.403V142.857H243.329H243.936C244.084 142.898 244.212 142.99 244.298 143.117C244.406 143.258 244.463 143.432 244.457 143.609C244.463 143.744 244.433 143.879 244.37 143.999C244.324 144.097 244.255 144.181 244.17 144.247C244.084 144.312 243.984 144.356 243.879 144.376C243.701 144.395 243.521 144.395 243.343 144.376H243.011V145.33L242.562 145.403ZM243.068 143.291V144.014H243.358C243.492 144.036 243.629 144.036 243.763 144.014C243.828 143.988 243.883 143.942 243.922 143.884C243.943 143.823 243.943 143.757 243.922 143.696C243.924 143.653 243.918 143.611 243.903 143.571C243.888 143.531 243.865 143.495 243.835 143.464C243.813 143.431 243.783 143.403 243.748 143.382C243.712 143.362 243.673 143.351 243.633 143.349H243.011L243.068 143.291Z" fill="white"/>
<path d="M245.209 144.578H245.716C245.726 144.724 245.794 144.859 245.904 144.954C246.017 145.025 246.147 145.062 246.28 145.062C246.413 145.062 246.543 145.025 246.656 144.954C246.725 144.89 246.767 144.802 246.772 144.708C246.787 144.656 246.787 144.601 246.772 144.549C246.718 144.501 246.653 144.467 246.584 144.448L246.164 144.332C245.954 144.289 245.757 144.2 245.586 144.072C245.51 144.011 245.45 143.934 245.41 143.846C245.37 143.758 245.351 143.662 245.354 143.566C245.35 143.435 245.391 143.307 245.47 143.204C245.544 143.084 245.656 142.993 245.788 142.944C245.944 142.882 246.112 142.852 246.28 142.857C246.537 142.84 246.792 142.911 247.003 143.059C247.082 143.131 247.146 143.218 247.191 143.315C247.236 143.412 247.26 143.517 247.264 143.623H246.743C246.742 143.567 246.728 143.512 246.703 143.462C246.678 143.412 246.642 143.369 246.598 143.334C246.505 143.269 246.393 143.239 246.28 143.247C246.156 143.236 246.031 143.272 245.933 143.349C245.904 143.363 245.88 143.386 245.864 143.415C245.849 143.443 245.843 143.476 245.846 143.508C245.828 143.554 245.828 143.606 245.846 143.652C245.994 143.738 246.155 143.797 246.323 143.826C246.515 143.861 246.7 143.925 246.873 144.014C246.994 144.068 247.095 144.16 247.162 144.274C247.236 144.396 247.271 144.537 247.264 144.679C247.261 144.822 247.221 144.962 247.148 145.084C247.065 145.214 246.943 145.315 246.801 145.374C246.619 145.436 246.428 145.466 246.237 145.461C245.973 145.477 245.712 145.4 245.499 145.244C245.325 145.064 245.222 144.828 245.209 144.578Z" fill="white"/>
<path d="M248.146 142.857H248.667V144.231C248.657 144.375 248.657 144.52 248.667 144.665C248.675 144.715 248.693 144.762 248.72 144.805C248.748 144.847 248.784 144.883 248.826 144.911C248.92 144.985 249.039 145.021 249.159 145.012C249.276 145.02 249.393 144.99 249.491 144.925C249.558 144.861 249.607 144.782 249.636 144.694C249.645 144.549 249.645 144.404 249.636 144.26V142.813H250.157V144.144C250.179 144.361 250.179 144.579 250.157 144.795C250.13 144.913 250.076 145.022 249.998 145.113C249.914 145.208 249.81 145.282 249.694 145.33C249.535 145.383 249.369 145.407 249.202 145.403C249.015 145.41 248.828 145.38 248.652 145.316C248.538 145.264 248.435 145.19 248.349 145.099C248.282 145.02 248.237 144.925 248.218 144.824C248.19 144.608 248.19 144.389 248.218 144.173L248.146 142.857Z" fill="white"/>
<path d="M251.17 145.403V142.857H252.009L252.471 144.593L252.934 142.857H253.701V145.403H253.224V143.392L252.717 145.403H252.226L251.719 143.392V145.403H251.17Z" fill="white"/>
<path d="M132.911 109.831H151.384C151.8 109.831 152.136 109.495 152.136 109.079V86.0495C152.136 85.6341 151.8 85.2973 151.384 85.2973H132.911C132.496 85.2973 132.159 85.6341 132.159 86.0495V109.079C132.159 109.495 132.496 109.831 132.911 109.831Z" fill="#3D51C6"/>
<path d="M133.259 109.224C135.141 108.457 137.249 108.457 139.132 109.224V85.8904C137.249 86.6574 135.141 86.6574 133.259 85.8904V109.224Z" fill="white"/>
<path d="M139.913 109.831H158.386C158.801 109.831 159.138 109.495 159.138 109.079V85.225C159.138 84.8095 158.801 84.4728 158.386 84.4728H139.913C139.497 84.4728 139.161 84.8095 139.161 85.225V109.079C139.161 109.495 139.497 109.831 139.913 109.831Z" fill="#516AD6"/>
<path d="M137.671 107.661H138.018V86.9319H137.671V107.661Z" fill="#D1E1FD"/>
<path d="M136.586 107.169H136.933V87.4381H136.586V107.169Z" fill="#D1E1FD"/>
<path d="M135.487 107.169H135.834V87.4381H135.487V107.169Z" fill="#D1E1FD"/>
<path d="M134.401 107.661H134.748V86.9319H134.401V107.661Z" fill="#D1E1FD"/>
<path d="M142.589 91.4597V88.9282H143.11V91.0402H144.383V91.4597H142.589Z" fill="white"/>
<path d="M145.034 90.2011C145.029 89.9786 145.069 89.7574 145.15 89.5501C145.21 89.4204 145.293 89.3027 145.395 89.203C145.487 89.1006 145.601 89.0213 145.728 88.9715C145.902 88.8979 146.089 88.8633 146.278 88.8702C146.443 88.8632 146.608 88.8904 146.763 88.9501C146.917 89.0099 147.057 89.1009 147.175 89.2174C147.292 89.3485 147.382 89.5019 147.439 89.6684C147.496 89.8348 147.52 90.011 147.507 90.1866C147.52 90.3623 147.498 90.5388 147.44 90.7053C147.383 90.8719 147.293 91.0252 147.175 91.1559C146.93 91.3795 146.61 91.5035 146.278 91.5035C145.946 91.5035 145.626 91.3795 145.381 91.1559C145.261 91.0286 145.169 90.8783 145.109 90.7142C145.05 90.55 145.024 90.3755 145.034 90.2011ZM145.569 90.2011C145.556 90.4399 145.628 90.6756 145.772 90.8665C145.836 90.9357 145.915 90.9909 146.002 91.0286C146.089 91.0663 146.183 91.0857 146.278 91.0857C146.373 91.0857 146.467 91.0663 146.554 91.0286C146.641 90.9909 146.719 90.9357 146.784 90.8665C146.928 90.6756 147 90.4399 146.987 90.2011C147.004 89.9619 146.932 89.7248 146.784 89.5357C146.721 89.4639 146.643 89.4071 146.556 89.3696C146.468 89.332 146.373 89.3146 146.278 89.3187C146.18 89.3145 146.083 89.3318 145.993 89.3693C145.903 89.4068 145.823 89.4636 145.757 89.5357C145.622 89.7246 145.555 89.9545 145.569 90.1866V90.2011Z" fill="white"/>
<path d="M148.375 91.4596V88.9136H149.46C149.661 88.9055 149.861 88.9299 150.054 88.986C150.118 89.0048 150.178 89.0362 150.23 89.0784C150.282 89.1207 150.325 89.1728 150.357 89.2319C150.427 89.3498 150.463 89.4853 150.459 89.6225C150.466 89.7087 150.456 89.7955 150.428 89.8776C150.401 89.9596 150.357 90.0353 150.299 90.0998C150.162 90.2349 149.984 90.3213 149.793 90.3458C149.895 90.3977 149.988 90.4661 150.068 90.5483C150.177 90.6791 150.274 90.8195 150.357 90.9678L150.676 91.4596H150.054L149.677 90.9099L149.417 90.5338C149.371 90.4901 149.317 90.4557 149.258 90.4326C149.172 90.4146 149.083 90.4146 148.998 90.4326H148.896V91.4886L148.375 91.4596ZM148.896 90.0131H149.301C149.455 90.0379 149.611 90.0379 149.764 90.0131C149.823 89.9972 149.874 89.9614 149.909 89.9118C149.924 89.85 149.924 89.7856 149.909 89.7238C149.909 89.6455 149.883 89.5693 149.837 89.5067C149.784 89.4562 149.719 89.4211 149.648 89.4055H148.867L148.896 90.0131Z" fill="white"/>
<path d="M151.413 91.4598V88.9138H153.308V89.3478H151.862V89.912H153.149V90.346H151.862V91.0403H153.308V91.4598H151.413Z" fill="white"/>
<path d="M154.249 91.4598V88.9138H155.088L155.551 90.6497L156.013 88.9138H156.78V91.4598H156.303V89.5214L155.797 91.5177H155.305L154.798 89.5214V91.5177L154.249 91.4598Z" fill="white"/>
<path d="M143.356 95.7415V93.1956H143.877V95.7415H143.356Z" fill="white"/>
<path d="M144.846 95.7415V93.1956H145.671H146.278C146.425 93.2371 146.554 93.3293 146.64 93.4559C146.748 93.5965 146.804 93.7703 146.799 93.9478C146.804 94.0833 146.774 94.2179 146.712 94.3383C146.666 94.4355 146.597 94.5202 146.511 94.5856C146.426 94.651 146.326 94.6952 146.22 94.7144C146.042 94.7339 145.863 94.7339 145.685 94.7144H145.352V95.6692L144.846 95.7415ZM145.352 93.6295V94.3528H145.642C145.776 94.3752 145.913 94.3752 146.047 94.3528C146.109 94.3223 146.163 94.2778 146.206 94.2226C146.229 94.1571 146.229 94.0856 146.206 94.0201C146.201 93.9405 146.17 93.8647 146.118 93.8046C146.065 93.7444 145.995 93.7032 145.916 93.6874H145.294L145.352 93.6295Z" fill="white"/>
<path d="M147.493 94.917H147.999C148.01 95.0624 148.077 95.1976 148.187 95.2931C148.3 95.3637 148.43 95.4011 148.563 95.4011C148.696 95.4011 148.827 95.3637 148.939 95.2931C149.009 95.2293 149.05 95.1411 149.055 95.0472C149.07 94.9952 149.07 94.9401 149.055 94.8881C149.001 94.8401 148.937 94.8055 148.867 94.7868L148.448 94.6711C148.238 94.6282 148.04 94.5393 147.869 94.4107C147.794 94.3501 147.734 94.2728 147.693 94.1849C147.653 94.097 147.634 94.001 147.638 93.9044C147.635 93.7765 147.67 93.6507 147.739 93.5428C147.82 93.4296 147.93 93.3398 148.057 93.2824C148.219 93.2235 148.391 93.1941 148.563 93.1956C148.821 93.1785 149.076 93.25 149.287 93.3981C149.366 93.4699 149.429 93.5568 149.474 93.6537C149.519 93.7506 149.544 93.8556 149.547 93.9623H149.026C149.017 93.8508 148.965 93.7471 148.882 93.6729C148.789 93.6082 148.676 93.5776 148.563 93.5862C148.435 93.5751 148.306 93.6111 148.202 93.6874C148.178 93.7061 148.159 93.7303 148.146 93.7581C148.133 93.7858 148.128 93.8161 148.129 93.8465C148.131 93.8743 148.138 93.9015 148.151 93.9264C148.163 93.9513 148.18 93.9733 148.202 93.9912C148.349 94.0768 148.511 94.1355 148.679 94.1648C148.871 94.2001 149.056 94.2635 149.229 94.3528C149.35 94.4073 149.451 94.4983 149.518 94.6132C149.594 94.7348 149.634 94.8751 149.634 95.0183C149.634 95.1614 149.594 95.3017 149.518 95.4233C149.444 95.5555 149.327 95.6578 149.185 95.7126C149.004 95.7753 148.813 95.8047 148.621 95.7994C148.358 95.8157 148.096 95.7389 147.884 95.5824C147.672 95.4198 147.532 95.1812 147.493 94.917Z" fill="white"/>
<path d="M150.43 93.1955H150.95V94.5697C150.94 94.7142 150.94 94.8592 150.95 95.0037C150.958 95.0535 150.976 95.1011 151.004 95.1435C151.031 95.1858 151.067 95.222 151.109 95.2496C151.204 95.324 151.322 95.3602 151.442 95.3509C151.56 95.3593 151.677 95.3288 151.775 95.2641C151.842 95.2031 151.888 95.1218 151.905 95.0326C151.924 94.8886 151.924 94.7427 151.905 94.5987V93.1521H152.426V94.4829C152.448 94.6993 152.448 94.9175 152.426 95.1339C152.4 95.2514 152.345 95.3606 152.267 95.4522C152.183 95.5468 152.079 95.621 151.963 95.6691C151.804 95.7214 151.638 95.7459 151.471 95.7414C151.284 95.7484 151.097 95.7189 150.921 95.6547C150.805 95.6065 150.701 95.5323 150.618 95.4377C150.553 95.3559 150.504 95.2626 150.473 95.1628C150.453 94.9463 150.453 94.7284 150.473 94.5119L150.43 93.1955Z" fill="white"/>
<path d="M153.453 95.7415V93.1956H154.22L154.683 94.9314L155.145 93.1956H155.912V95.7415H155.435V93.7308L154.929 95.7415H154.437L153.93 93.7308V95.7415H153.453Z" fill="white"/>
<path d="M52.12 81.5072C34.3705 81.3046 16.5775 118.569 23.5501 158.595C30.5226 198.622 57.9063 218.513 89.3694 220.654C120.833 222.795 148.289 219.077 155.189 212.191C164.823 202.586 167.962 179.643 156.997 159.348C148.679 143.97 120.833 135.291 107.813 123.718C99.915 116.702 91.5393 81.9701 52.12 81.5072Z" fill="#6A85FA"/>
<path d="M156.997 159.348C156.997 159.348 155.912 184.764 134.691 192.46C119.068 198.116 87.6189 198.246 65.4863 194.312C65.0896 194.243 64.6816 194.325 64.3419 194.541C64.0021 194.756 63.7549 195.091 63.6483 195.479C63.5418 195.868 63.5836 196.281 63.7656 196.641C63.9476 197 64.2567 197.278 64.6328 197.422C74.1399 201.088 84.0681 203.552 94.1864 204.756C121.671 207.851 152.05 201.096 157.836 196.279C163.622 191.462 163.926 189.769 163.926 189.769C163.926 189.769 164.751 168.476 156.997 159.348Z" fill="#4C69E8"/>
<path d="M25.7199 113.274C25.6992 118.383 26.3361 123.474 27.615 128.42C27.7287 128.832 27.6949 129.272 27.5194 129.662C27.3439 130.052 27.0377 130.369 26.6537 130.557C26.2697 130.746 25.8318 130.794 25.4158 130.695C24.9997 130.595 24.6315 130.353 24.3746 130.011C23.8683 129.302 23.3476 128.565 22.7979 127.697C22.7979 127.697 24.7363 116.5 25.7199 113.274Z" fill="#4C69E8"/>
<path d="M33.5749 186.992C31.9665 181.651 31.5322 176.025 32.3019 170.501C32.3709 170.086 32.589 169.711 32.9152 169.447C33.2414 169.182 33.6531 169.046 34.0728 169.064C34.4925 169.081 34.8912 169.252 35.1938 169.543C35.4965 169.835 35.6821 170.227 35.7158 170.645C36.468 179.093 38.2762 191.982 42.5581 199.172C39.2978 195.315 36.2968 191.246 33.5749 186.992Z" fill="#4C69E8"/>
<path d="M133.823 152.173C132.159 151.276 129.223 151.42 127.458 151.362C125.135 151.25 122.809 151.519 120.572 152.158C116.725 153.428 113.19 155.499 110.2 158.234C108.321 159.884 106.534 161.637 104.848 163.485C103.734 164.685 103.097 166.378 102.49 163.34C102.416 161.996 102.553 160.649 102.895 159.348C103.763 153.315 104.775 147.298 105.701 141.28C106.28 137.577 108.045 132.702 106.265 129.143C106.208 129.049 106.13 128.968 106.037 128.908C105.944 128.848 105.839 128.81 105.729 128.796C105.619 128.782 105.508 128.793 105.403 128.828C105.298 128.863 105.202 128.921 105.123 128.998C101.388 133.15 98.6474 138.096 97.1086 143.464C95.3872 149.077 95.4595 155.905 92.9425 161.271C89.8034 145.041 89.7889 127.783 81.2975 113.115C80.9648 112.522 79.8509 112.739 79.9522 113.476C80.8491 122.156 81.7604 130.951 82.6284 139.703C83.395 147.341 83.9303 155.297 80.4729 162.342C77.7534 157.886 76.7408 152.679 75.2508 147.703C73.6017 142.206 71.7067 136.766 69.5657 131.443C66.2241 123.082 62.68 114.084 54.9842 108.761C54.8607 108.691 54.7194 108.659 54.5779 108.669C54.4364 108.679 54.301 108.73 54.1884 108.817C54.0759 108.903 53.9912 109.021 53.945 109.155C53.8987 109.289 53.8929 109.433 53.9282 109.571C58.9623 125.483 77.3773 142.003 69.9129 159.854C62.68 150.668 55.7075 139.949 46.0877 133.049C45.1464 132.152 44.1137 131.357 43.0065 130.676C42.9098 130.62 42.8 130.591 42.6883 130.591C42.5766 130.591 42.4668 130.62 42.37 130.676C42.2031 130.58 42.005 130.555 41.8192 130.605C41.6333 130.655 41.475 130.777 41.3791 130.944C41.2832 131.111 41.2575 131.309 41.3077 131.495C41.3579 131.681 41.4799 131.839 41.6467 131.935C42.9162 132.654 44.143 133.446 45.3211 134.307C48.8652 137.548 51.7294 142.119 54.4056 145.721C57.2987 149.569 59.9315 153.518 62.5353 157.525C59.6431 155.853 56.6308 154.397 53.5232 153.171C50.3841 151.941 45.7116 149.771 42.2543 150.017C41.8071 150.037 41.3705 150.16 40.9789 150.377C40.5873 150.594 40.2514 150.899 39.9977 151.267C39.7439 151.636 39.5791 152.059 39.5164 152.502C39.4536 152.945 39.4946 153.397 39.636 153.822C40.3593 156.498 43.672 157.337 45.9431 158.161C54.8685 161.199 64.7486 163.08 71.8947 169.647C72.4589 170.154 73.5728 170.92 73.8042 171.629C74.1948 172.786 73.1099 173.076 72.1551 173.755C70.2601 175.014 68.0179 175.752 66.0939 176.981C63.5105 178.434 61.6032 180.845 60.785 183.693C60.6837 184.099 61.002 184.663 61.4794 184.605C64.5027 184.243 66.6726 182.276 69.233 180.786C72.8632 178.667 76.7533 177.028 80.8057 175.911C85.7385 174.566 89.3116 175.014 93.4198 177.951C97.0191 180.58 100.128 183.821 102.606 187.527C102.982 188.077 104.052 187.946 103.951 187.165C103.733 184.554 102.724 182.071 101.058 180.048C100.012 178.781 98.8657 177.6 97.6294 176.518C96.2985 175.332 93.2896 173.813 95.5897 172.28C96.935 171.34 99.8427 171.354 101.477 171.108C104.06 170.735 106.665 170.527 109.274 170.486C114.136 170.404 118.991 170.889 123.74 171.933C123.849 171.959 123.962 171.96 124.071 171.937C124.18 171.913 124.283 171.866 124.371 171.798C124.46 171.73 124.532 171.644 124.583 171.544C124.634 171.445 124.663 171.336 124.666 171.224C124.666 168.837 122.308 168.331 120.326 167.868C116.62 167.158 112.837 166.929 109.072 167.188C114.657 162.316 121.454 159.043 128.745 157.713C130.38 157.409 132.68 157.539 134.083 156.44C134.447 156.203 134.741 155.873 134.937 155.485C135.132 155.097 135.221 154.664 135.194 154.23C135.168 153.797 135.027 153.378 134.786 153.017C134.545 152.655 134.213 152.364 133.823 152.173Z" fill="#4C69E8"/>
<path d="M175.34 193.096L179.376 201.472L185.278 202.253C185.278 202.253 179.491 208.184 172.823 205.45L168.96 195.758L175.34 193.096Z" fill="#F4D8D5"/>
<path d="M151.659 143.913C156.983 147.876 178.074 191.91 178.074 191.91L167.036 199.374C167.036 199.374 143.515 165.177 136.774 156.715C135.877 155.601 147.102 140.513 151.659 143.913Z" fill="white"/>
<path d="M89.6877 146.083C89.6877 146.083 92.8124 159.854 103.083 158.596C113.354 157.337 151.732 158.798 153.062 157.467C154.393 156.136 155.956 144.115 149.996 143.349C144.036 142.582 107.886 137.562 107.886 137.562L89.6877 146.083Z" fill="white"/>
<path d="M142.068 204.409L142.184 213.71L147.204 216.907C147.204 216.907 139.464 219.8 134.561 214.535L135.168 204.119L142.068 204.409Z" fill="#F4D8D5"/>
<path d="M167.036 199.375L137.844 158.104L126.807 157.742L116.131 150.408C116.131 150.408 126.257 148.961 129.714 149.236C133.172 149.511 142.531 154.704 149.128 163.499C155.724 172.295 170.479 197.552 170.479 197.552L167.036 199.375Z" fill="#C1D5FC"/>
<path d="M132.709 152.361C136.716 157.655 144.614 205.884 144.614 205.884L131.942 209.906C131.942 209.906 118.923 170.501 114.858 160.476C114.279 159.16 129.28 147.818 132.709 152.361Z" fill="white"/>
<path d="M146.582 203.367C147.047 204.943 147.409 206.547 147.667 208.17C147.493 208.43 132.159 212.654 131.653 212.842C131.147 213.03 130.206 207.62 130.206 207.62C130.206 207.62 145.106 201.877 146.582 203.367Z" fill="#3737C8"/>
<path d="M69.9131 153.735C69.9131 153.735 73.2981 167.897 83.6556 167.955C97.7597 167.955 131.942 166.508 133.273 165.061C134.604 163.615 136.166 151.71 130.221 150.943C124.276 150.176 88.111 145.084 88.111 145.084L69.9131 153.735Z" fill="white"/>
<path d="M103.098 85.008C100.855 83.5614 94.3168 85.1381 95.1848 92.588C96.3131 102.324 102.418 126.973 106.005 129.187C109.593 131.4 117.723 127.06 116.695 123.791C115.668 120.521 113.99 92.0383 103.098 85.008Z" fill="#F4D8D5"/>
<path d="M104.37 126.785C104.37 126.785 102.36 130.778 135.631 146.705C135.631 146.705 139.667 142.987 140.491 140.137C140.491 140.137 119.039 121.65 114.67 121.332C110.301 121.013 104.37 126.785 104.37 126.785Z" fill="#F4D8D5"/>
<path d="M105.499 85.5142C101.882 81.7531 93.7093 84.3569 91.93 89.3042C90.1507 94.2515 94.6206 111.22 94.6206 111.22C94.6206 111.22 109.52 106.779 115.162 104.291C115.162 104.305 109.651 89.8394 105.499 85.5142Z" fill="#9D0089"/>
<path d="M133.953 223.243C134.749 224.386 143.269 224.328 146.567 225.456C149.865 226.585 160.295 226.411 161.235 225.76C161.437 225.587 161.587 225.362 161.669 225.109C161.814 224.783 161.906 224.437 161.944 224.082C162.109 223.491 162.131 222.869 162.008 222.268C161.885 221.667 161.62 221.103 161.235 220.625C159.651 219.854 158.017 219.187 156.346 218.629C150.82 216.574 142.589 213.71 142.589 213.71C142.589 213.71 141.142 215.547 134.662 214.564C134.226 216.737 133.921 218.935 133.75 221.146C133.64 221.851 133.709 222.572 133.953 223.243Z" fill="#4C69E8"/>
<path d="M154.712 225.109H161.67C161.814 224.783 161.907 224.437 161.944 224.082C162.11 223.491 162.131 222.869 162.008 222.268C161.885 221.666 161.62 221.103 161.236 220.625C159.651 219.854 158.018 219.187 156.346 218.628C155.603 219.516 155.07 220.559 154.787 221.682C154.504 222.804 154.478 223.976 154.712 225.109Z" fill="#C1D5FC"/>
<path d="M133.953 223.243C134.749 224.386 143.269 224.328 146.567 225.456C149.866 226.585 160.295 226.411 161.236 225.76C161.67 225.307 161.922 224.709 161.944 224.082C159.847 224.241 153.352 224.646 150.473 224.082C147.045 223.344 143.24 221.97 141.244 221.898C139.797 221.898 135.877 221.42 133.751 221.189C133.647 221.88 133.717 222.586 133.953 223.243Z" fill="#C1D5FC"/>
<path d="M142.893 218.614C143.058 218.601 143.215 218.537 143.342 218.431C143.469 218.325 143.56 218.181 143.602 218.021C143.789 217.467 144.094 216.96 144.496 216.535C144.898 216.111 145.388 215.779 145.931 215.562C146.029 215.525 146.118 215.469 146.195 215.397C146.271 215.326 146.332 215.24 146.375 215.144C146.418 215.049 146.442 214.946 146.445 214.841C146.448 214.737 146.431 214.633 146.394 214.535C146.36 214.436 146.306 214.346 146.237 214.268C146.167 214.191 146.082 214.129 145.987 214.086C145.892 214.042 145.79 214.019 145.685 214.016C145.581 214.014 145.478 214.033 145.381 214.072C144.597 214.375 143.892 214.851 143.319 215.464C142.745 216.078 142.317 216.814 142.068 217.616C142.04 217.717 142.032 217.822 142.046 217.926C142.059 218.03 142.093 218.13 142.145 218.22C142.198 218.31 142.268 218.389 142.352 218.452C142.436 218.515 142.531 218.56 142.633 218.585C142.717 218.609 142.805 218.619 142.893 218.614Z" fill="#C1D5FC"/>
<path d="M147.117 219.786C147.312 219.787 147.5 219.718 147.647 219.59C147.793 219.462 147.888 219.284 147.913 219.091C148.028 218.05 149.359 217.211 149.894 217.008C150.07 216.912 150.203 216.753 150.266 216.563C150.33 216.374 150.32 216.167 150.237 215.984C150.155 215.802 150.007 215.657 149.823 215.579C149.639 215.5 149.432 215.494 149.244 215.562C149.142 215.562 146.582 216.777 146.35 218.918C146.33 219.128 146.393 219.338 146.525 219.503C146.658 219.668 146.849 219.775 147.059 219.8L147.117 219.786Z" fill="#C1D5FC"/>
<path d="M111.285 137.157C98.4736 146.566 83.7202 152.991 68.1048 155.962C68.1048 155.962 58.514 92.096 71.3596 84.0096C75.4823 81.4058 90.0783 82.0856 99.7993 83.7637C99.7993 83.7347 109.564 129.852 111.285 137.157Z" fill="url(#paint3_linear_368_474)"/>
<path d="M75.0627 87.554C72.8205 86.1074 66.2819 87.6697 67.1499 95.1341C68.2782 104.855 74.3828 129.505 77.9703 131.718C81.5578 133.931 89.6876 129.592 88.646 126.322C87.6045 123.053 85.9554 94.5699 75.0627 87.554Z" fill="#F4D8D5"/>
<path d="M76.3359 129.317C76.3359 129.317 74.3251 133.324 107.596 149.236C107.596 149.236 111.632 145.533 112.443 142.668C112.443 142.668 91.0042 124.196 86.6355 123.863C82.2669 123.53 76.3359 129.317 76.3359 129.317Z" fill="#F4D8D5"/>
<path d="M105.152 60.5896C105.152 60.5896 104.298 69.2691 101.882 69.732C99.4666 70.1949 99.1628 59.4902 100.335 59.1575C101.506 58.8248 104.776 59.0273 105.152 60.5896Z" fill="#000038"/>
<path d="M92.3203 75.3883L92.7398 83.3734C92.7398 83.3734 92.2769 88.2773 89.3693 88.2773C85.2899 88.2773 80.2269 84.357 79.113 82.6645L80.7043 68.6616L92.3203 75.3883Z" fill="#F4D8D5"/>
<path d="M89.7021 80.8416H90.1216C91.5084 81.0489 92.9224 80.9809 94.283 80.6416C95.6435 80.3023 96.9238 79.6982 98.0509 78.864C99.1779 78.0298 100.13 76.9818 100.852 75.7797C101.573 74.5777 102.052 73.2452 102.258 71.8584L104.457 56.8284C104.491 56.4885 104.392 56.1488 104.182 55.8796C103.972 55.6103 103.667 55.4321 103.329 55.3818L84.4221 52.5754C84.0836 52.549 83.7475 52.6501 83.4799 52.8589C83.2122 53.0677 83.0323 53.369 82.9755 53.7038L80.7478 68.7337C80.341 71.525 81.0539 74.364 82.7311 76.632C84.4084 78.8999 86.9141 80.4131 89.7021 80.8416Z" fill="#F4D8D5"/>
<path d="M104.052 60.5895L103.459 63.8154C96.9849 62.4265 90.6586 60.421 84.5667 57.8266L84.827 54.6875L92.8556 55.0491L99.3073 57.0599L104.052 60.5895Z" fill="#DBB5BF"/>
<path d="M107.654 60.0688C110.851 56.0473 106.801 51.8811 104.371 50.3333C100.798 48.0477 90.3677 43.2451 84.3933 49.3062C82.6076 50.0985 81.0648 51.3516 79.9234 52.9371C78.39 55.3384 74.1371 67.6778 80.5743 69.5583C80.6611 67.9526 83.7713 64.9148 84.9141 63.2078C86.0569 61.5009 85.9701 56.1051 85.9701 56.1051C85.9701 56.1051 104.457 64.1047 107.654 60.0688Z" fill="#000038"/>
<path d="M91.5249 149.279L122.858 140.34L122.67 145.446L91.5249 149.279Z" fill="#9FB8FC"/>
<path d="M84.2919 64.9294C84.2919 64.9294 84.451 61.9494 81.8472 62.1953C78.1439 62.5425 77.8691 68.8062 82.3245 69.1679C83.9736 69.3414 85.0007 66.376 84.2919 64.9294Z" fill="#F4D8D5"/>
<path d="M83.5975 65.0885C83.6706 64.8883 83.6985 64.6745 83.6793 64.4622C83.6601 64.25 83.5942 64.0446 83.4864 63.8608C83.3786 63.677 83.2315 63.5193 83.0557 63.3989C82.8798 63.2786 82.6796 63.1985 82.4692 63.1646C81.8867 63.1649 81.3249 63.381 80.8922 63.7709C80.4595 64.1609 80.1865 64.6972 80.1257 65.2765C79.9811 66.4193 80.2993 67.7068 80.8924 67.6345C81.4855 67.5621 80.8924 66.1879 81.1383 65.5514C81.3842 64.9149 82.2233 64.4954 82.5849 64.9583C82.9465 65.4212 83.4239 65.5659 83.5975 65.0885Z" fill="#DBB5BF"/>
<path d="M99.3363 72.929C98.4191 73.1247 97.4759 73.1687 96.5444 73.0591C96.5444 73.0591 96.2696 74.1875 96.9929 74.1296C97.8359 73.8638 98.6281 73.458 99.3363 72.929Z" fill="#DBB5BF"/>
<path d="M105.123 61.067C105.751 61.1565 106.392 61.1071 106.999 60.9222C107.607 60.7372 108.166 60.4212 108.638 59.9965C109.81 58.5499 112.515 52.0837 110.634 49.8705C110.084 50.4459 109.355 50.8167 108.566 50.9219C107.777 51.0271 106.976 50.8603 106.295 50.4491C103.543 49.217 100.711 48.1731 97.8176 47.3245C97.1522 47.4113 97.1377 51.6642 97.1377 51.6642L105.123 61.067Z" fill="#000038"/>
<path d="M83.8291 49.2774C84.4519 47.6007 85.4402 46.0837 86.7222 44.8364C86.3759 46.4154 86.1773 48.0233 86.1291 49.6391C86.2593 50.8397 84.0027 51.6209 84.0027 51.6209C82.449 50.8855 80.7147 50.619 79.012 50.8542C79.012 50.8542 81.312 48.5252 83.8291 49.2774Z" fill="#000038"/>
<path d="M85.102 62.0361C85.102 62.0361 85.4926 68.8206 86.4473 70.1804C87.4021 71.5402 88.8197 73.9559 90.9896 74.7371C93.1594 75.5183 96.5734 73.9849 96.5734 73.9849C96.5734 73.9849 96.718 74.4912 98.2514 73.6522C98.2514 73.6522 99.2929 75.8799 101 75.5906C101 75.5906 99.6835 81.753 98.5841 82.7367C97.4847 83.7204 89.543 84.7764 86.5196 83.4745C83.4963 82.1725 82.1799 76.9504 82.0497 74.0861C81.934 70.2816 84.1906 63.2802 84.234 63.9601L85.102 62.0361Z" fill="#000038"/>
<path d="M79.7639 85.5575C76.6249 81.4058 68.1913 83.026 65.8334 87.7274C63.4755 92.4288 65.9346 109.817 65.9346 109.817C65.9346 109.817 81.3118 107.169 87.0981 105.434C87.0981 105.434 83.3804 90.3602 79.7639 85.5575Z" fill="#9D0089"/>
<path d="M179.376 190.594C180.24 191.989 181.013 193.439 181.69 194.934C181.604 195.237 167.919 203.353 167.485 203.613C167.051 203.873 164.722 198.969 164.722 198.969C164.722 198.969 177.553 189.567 179.376 190.594Z" fill="#3737C8"/>
<path d="M175.904 213.623C177.104 214.318 184.8 210.658 188.258 210.282C191.715 209.906 201.103 205.334 201.667 204.351C201.79 204.11 201.835 203.837 201.798 203.569C201.788 203.215 201.724 202.864 201.61 202.528C201.262 201.269 200.423 199.881 199.498 199.635C197.739 199.606 195.98 199.693 194.232 199.895C188.344 200.373 179.679 201.342 179.679 201.342C179.679 201.342 179.13 203.627 172.866 205.479C173.39 207.628 174.042 209.744 174.819 211.815C175.021 212.5 175.394 213.123 175.904 213.623Z" fill="#4C69E8"/>
<path d="M195.491 206.521L201.798 203.628C201.788 203.273 201.724 202.922 201.61 202.586C201.262 201.328 200.423 199.939 199.498 199.693C197.739 199.664 195.98 199.751 194.232 199.953C193.934 201.072 193.893 202.244 194.111 203.381C194.329 204.518 194.8 205.591 195.491 206.521Z" fill="#C1D5FC"/>
<path d="M175.904 213.623C177.105 214.318 184.8 210.658 188.258 210.282C191.715 209.906 201.103 205.334 201.668 204.351C201.891 203.764 201.891 203.115 201.668 202.528C199.83 203.555 194.116 206.68 191.252 207.345C187.838 208.141 183.817 208.488 181.965 209.284C180.634 209.833 176.917 211.121 174.877 211.801C175.06 212.485 175.413 213.112 175.904 213.623Z" fill="#C1D5FC"/>
<path d="M182.037 205.638C182.182 205.557 182.297 205.432 182.367 205.281C182.437 205.131 182.459 204.962 182.428 204.799C182.364 204.218 182.427 203.631 182.612 203.076C182.796 202.522 183.099 202.014 183.499 201.588C183.645 201.437 183.727 201.234 183.727 201.024C183.727 200.813 183.645 200.611 183.499 200.459C183.425 200.385 183.337 200.326 183.24 200.286C183.143 200.246 183.039 200.225 182.934 200.225C182.829 200.225 182.726 200.246 182.629 200.286C182.532 200.326 182.444 200.385 182.37 200.459C181.803 201.074 181.379 201.806 181.129 202.604C180.879 203.402 180.809 204.246 180.924 205.074C180.941 205.177 180.979 205.276 181.035 205.365C181.092 205.453 181.165 205.529 181.251 205.589C181.338 205.648 181.435 205.69 181.538 205.71C181.641 205.731 181.747 205.731 181.849 205.711C181.915 205.696 181.979 205.671 182.037 205.638Z" fill="#C1D5FC"/>
<path d="M186.363 204.915C186.541 204.835 186.683 204.691 186.761 204.512C186.839 204.333 186.846 204.131 186.782 203.946C186.449 202.962 187.346 201.617 187.693 201.226C187.762 201.147 187.815 201.054 187.848 200.954C187.881 200.854 187.894 200.749 187.886 200.644C187.877 200.539 187.849 200.437 187.801 200.343C187.753 200.249 187.687 200.166 187.607 200.098C187.528 200.029 187.437 199.977 187.338 199.944C187.239 199.912 187.135 199.899 187.031 199.907C186.928 199.915 186.826 199.944 186.734 199.991C186.641 200.039 186.559 200.105 186.493 200.185C186.42 200.272 184.583 202.398 185.263 204.452C185.332 204.652 185.477 204.817 185.666 204.912C185.856 205.006 186.074 205.023 186.276 204.958L186.363 204.915Z" fill="#C1D5FC"/>
<path d="M120.254 145.75L161.337 140.701L162.321 113.968C162.331 113.685 162.28 113.402 162.17 113.14C162.061 112.878 161.896 112.642 161.687 112.45C161.479 112.257 161.23 112.112 160.96 112.025C160.69 111.938 160.404 111.91 160.122 111.943L122.988 116.5C122.527 116.558 122.101 116.777 121.786 117.118C121.471 117.46 121.287 117.902 121.267 118.366L120.254 145.75Z" fill="#3737C8"/>
<path d="M122.655 145.446L163.738 140.412L164.765 113.665C164.776 113.381 164.725 113.099 164.615 112.837C164.506 112.576 164.341 112.341 164.132 112.15C163.922 111.959 163.674 111.815 163.404 111.729C163.133 111.644 162.848 111.618 162.566 111.654L125.433 116.211C124.972 116.268 124.546 116.487 124.231 116.829C123.916 117.17 123.732 117.612 123.711 118.077L122.655 145.446Z" fill="white"/>
<path d="M119.49 148.76L164.085 143.285L163.733 140.413L119.137 145.889L119.49 148.76Z" fill="#3737C8"/>
<path d="M91.8998 152.137L120.63 148.609L120.278 145.738L91.5472 149.265L91.8998 152.137Z" fill="#516AD6"/>
<path d="M112.312 138.705C112.409 138.433 112.586 138.196 112.819 138.025C115.278 136.116 118.677 140.021 119.733 141.844C119.797 142.106 119.781 142.381 119.686 142.633C119.592 142.885 119.424 143.104 119.204 143.26C118.985 143.415 118.723 143.502 118.454 143.507C118.184 143.513 117.92 143.437 117.694 143.291C117.384 142.916 117.012 142.598 116.594 142.35C116.901 143.118 117.091 143.928 117.158 144.752C117.124 144.958 117.021 145.147 116.866 145.289C116.711 145.431 116.514 145.516 116.305 145.533C115.48 145.533 115.278 145.272 114.858 144.621C114.545 144.119 114.202 143.636 113.831 143.175C114.071 143.505 114.177 143.913 114.129 144.318C114.08 144.723 113.881 145.095 113.571 145.359C113.348 145.541 113.07 145.641 112.782 145.641C112.495 145.641 112.216 145.541 111.994 145.359C111.763 145.186 111.748 144.911 111.603 144.679C111.141 143.913 110.634 142.365 109.535 142.104C110.142 143.189 111.444 144.245 110.374 145.547C109.303 146.849 108.117 145.547 107.481 144.752C104.269 141.063 109.289 139.255 112.312 138.705Z" fill="#F4D8D5"/>
<path d="M108.667 143.406C108.667 143.406 107.452 145.243 106.67 145.446L104.414 146.097C103.101 146.485 101.69 146.361 100.465 145.75L108.667 143.406Z" fill="#F4D8D5"/>
<path d="M101.94 48.0767C101.94 48.0767 99.3654 51.7221 90.7582 54.5285C81.1963 57.6386 78.0717 56.3801 78.0717 56.3801L76.6251 52.4165L74.7012 46.7314L98.2949 38.4136L100.407 44.1999L101.94 48.0767Z" fill="#506AED"/>
<path d="M89.1234 50.8397L108.218 36.4896L107.698 34.855L105.991 35.7952L84.9573 35.911L67.526 49.2629L66.1807 49.4076L66.687 51.0422L89.1234 50.8397Z" fill="#000038"/>
<path opacity="0.2" d="M100.667 44.8942L89.6442 52.6334L76.8854 53.0529L74.73 46.7314L98.3237 38.428L100.667 44.8942Z" fill="#000038"/>
<path d="M84.4365 34.2764L107.698 34.855L88.6027 49.1906L66.1807 49.4076L84.4365 34.2764Z" fill="#7A97FA"/>
<path d="M70.6509 47.6139V58.4487H71.7358V47.6139H70.6509Z" fill="#000038"/>
<path d="M71.8081 64.3362C71.6772 64.3262 71.5541 64.2697 71.4612 64.1768C71.3684 64.0839 71.3118 63.9609 71.3018 63.8299V62.2531L69.8552 63.367C69.8002 63.4117 69.7368 63.445 69.6688 63.4652C69.6008 63.4853 69.5296 63.4919 69.459 63.4845C69.3885 63.4771 69.3201 63.4559 69.2578 63.4221C69.1955 63.3883 69.1404 63.3425 69.0958 63.2874C69.0511 63.2324 69.0178 63.169 68.9976 63.1011C68.9775 63.0331 68.9709 62.9618 68.9783 62.8912C68.9857 62.8207 69.0069 62.7523 69.0407 62.69C69.0745 62.6277 69.1203 62.5726 69.1753 62.528L71.3597 60.7343C71.4375 60.6709 71.5308 60.6295 71.63 60.6142C71.7292 60.599 71.8306 60.6105 71.9239 60.6475C72.0165 60.6906 72.0961 60.7574 72.1546 60.8413C72.213 60.9251 72.2482 61.023 72.2566 61.1248L72.3868 63.7721C72.3927 63.8428 72.3841 63.914 72.3615 63.9813C72.3389 64.0486 72.3028 64.1106 72.2554 64.1634C72.208 64.2163 72.1502 64.2589 72.0858 64.2886C72.0213 64.3183 71.9514 64.3345 71.8805 64.3362H71.8081Z" fill="#000038"/>
<path d="M73.6307 63.6998C73.5648 63.6995 73.4998 63.6852 73.4399 63.6578C73.38 63.6303 73.3267 63.5904 73.2835 63.5407L71.3161 61.53C71.2163 61.4273 71.1604 61.2898 71.1604 61.1466C71.1604 61.0034 71.2163 60.8659 71.3161 60.7633C71.366 60.7121 71.4256 60.6714 71.4914 60.6436C71.5573 60.6159 71.628 60.6016 71.6995 60.6016C71.7709 60.6016 71.8417 60.6159 71.9075 60.6436C71.9733 60.6714 72.0329 60.7121 72.0828 60.7633L74.0502 62.774C74.15 62.8767 74.2059 63.0142 74.2059 63.1574C74.2059 63.3005 74.15 63.4381 74.0502 63.5407C73.9965 63.5968 73.931 63.6402 73.8584 63.6678C73.7858 63.6953 73.708 63.7062 73.6307 63.6998Z" fill="#000038"/>
<path d="M72.9507 60.7921C72.9646 60.6389 72.9477 60.4844 72.9012 60.3378C72.8546 60.1912 72.7793 60.0553 72.6797 59.9381C72.58 59.8209 72.458 59.7248 72.3207 59.6553C72.1834 59.5859 72.0337 59.5445 71.8802 59.5335C71.7263 59.5197 71.571 59.5364 71.4236 59.5828C71.2761 59.6291 71.1392 59.7043 71.0209 59.8038C70.9025 59.9033 70.8051 60.0252 70.7341 60.1625C70.6631 60.2999 70.62 60.45 70.6072 60.604C70.5832 60.9165 70.6839 61.2258 70.8872 61.4643C71.0904 61.7028 71.3799 61.8512 71.6922 61.877C72.0023 61.8971 72.3078 61.7946 72.5432 61.5917C72.7785 61.3888 72.9248 61.1017 72.9507 60.7921Z" fill="#506AED"/>
<defs>
<linearGradient id="paint0_linear_368_474" x1="234.476" y1="95.2785" x2="214.499" y2="95.2785" gradientUnits="userSpaceOnUse">
<stop stop-color="#AE2BB6"/>
<stop offset="1" stop-color="#DB006F"/>
</linearGradient>
<linearGradient id="paint1_linear_368_474" x1="234.172" y1="146.806" x2="207.627" y2="146.806" gradientUnits="userSpaceOnUse">
<stop stop-color="#AE2BB6"/>
<stop offset="1" stop-color="#DB006F"/>
</linearGradient>
<linearGradient id="paint2_linear_368_474" x1="214.846" y1="97.2314" x2="188.286" y2="97.2314" gradientUnits="userSpaceOnUse">
<stop stop-color="#AE2BB6"/>
<stop offset="1" stop-color="#DB006F"/>
</linearGradient>
<linearGradient id="paint3_linear_368_474" x1="64.6619" y1="119.147" x2="111.285" y2="119.147" gradientUnits="userSpaceOnUse">
<stop stop-color="#AE2BB6"/>
<stop offset="1" stop-color="#DB006F"/>
</linearGradient>
</defs>
</svg>
